# Blender 5.2.0 LTS
# www.blender.org
mtllib Carpet.mtl
o Plane.016
v -37.159943 -0.046037 -89.847794
v -30.053391 -0.046037 -89.847794
v -37.159943 -0.046037 -93.286438
v -30.053391 -0.046037 -93.286438
v -37.159943 0.217545 -93.286438
v -37.159943 0.217545 -89.847794
v -30.053391 0.217545 -89.847794
v -30.053391 0.217545 -93.286438
vn -0.0000 -1.0000 -0.0000
vn -0.0000 1.0000 -0.0000
vn -0.0000 -0.0000 -1.0000
vn -0.0000 -0.0000 1.0000
vn 1.0000 -0.0000 -0.0000
vn -1.0000 -0.0000 -0.0000
vt 0.000000 1.000000
vt 1.000000 0.000000
vt 0.000000 0.000000
vt 1.000000 1.000000
s 0
f 3/1/1 2/2/1 1/3/1
f 7/2/2 5/1/2 6/3/2
f 3/1/3 8/4/3 4/4/3
f 2/2/4 6/3/4 1/3/4
f 4/4/5 7/2/5 2/2/5
f 1/3/6 5/1/6 3/1/6
f 3/1/1 4/4/1 2/2/1
f 7/2/2 8/4/2 5/1/2
f 3/1/3 5/1/3 8/4/3
f 2/2/4 7/2/4 6/3/4
f 4/4/5 8/4/5 7/2/5
f 1/3/6 6/3/6 5/1/6
