# Blender 5.2.0 LTS
# www.blender.org
mtllib coba.mtl
o Cube.353
v 33.858234 0.739447 32.853271
v 33.858234 1.400562 32.853271
v 33.858234 0.739447 68.781944
v 33.858234 1.400562 68.781944
v 74.523117 0.739447 32.853271
v 74.523117 1.400562 32.853271
v 74.523117 0.739447 68.781944
v 74.523117 1.400562 68.781944
v 33.858234 1.205979 32.853271
v 33.858234 1.205979 68.781944
v 74.523117 1.205979 68.781944
v 74.523117 1.205979 32.853271
v 33.858234 1.400562 68.882607
v 74.523117 1.400562 68.882607
v 33.858234 1.205979 68.882607
v 74.523117 1.205979 68.882607
v 33.858234 1.400562 68.882607
v 74.523117 1.400562 68.882607
v 33.858234 1.205979 68.882607
v 74.523117 1.205979 68.882607
vn -1.0000 -0.0000 -0.0000
vn 1.0000 -0.0000 -0.0000
vn -0.0000 -0.0000 -1.0000
vn -0.0000 -1.0000 -0.0000
vn -0.0000 1.0000 -0.0000
vn -0.0000 -0.0000 1.0000
vt 0.335622 -0.000000
vt 0.335622 0.997206
vt 0.331986 0.997206
vt 0.331986 -0.000000
vt 0.335622 1.000000
vt 0.331986 1.000000
vt 0.347976 0.002794
vt 0.347976 1.000000
vt 0.344340 1.000000
vt 0.344340 0.002794
vt 0.360330 0.000000
vt 0.360330 0.165993
vt 0.356694 0.165993
vt 0.356694 0.000000
vt 0.331986 0.000000
vt 0.165993 0.997206
vt 0.165993 0.000000
vt 0.165993 0.002794
vt 0.165993 1.000000
vt 0.000000 1.000000
vt 0.000000 0.002794
vt 0.369048 0.000000
vt 0.369048 0.165993
vt 0.356694 0.002794
vt 0.356694 1.000000
vt 0.365412 0.165993
vt 0.365412 0.331986
vt 0.356694 0.331986
vt 0.344340 -0.000000
vt 0.344340 0.997206
vt 0.360330 0.331986
vt 0.360330 0.497979
vt 0.356694 0.497979
vt 0.356694 0.331986
vt 0.359488 0.497979
vt 0.359488 0.663972
vt 0.356694 0.663972
vt 0.356694 0.497979
vt 0.000000 -0.000000
vt 0.165993 -0.000000
vt 0.344340 -0.000000
vt 0.347976 -0.000000
vt 0.356694 0.663972
s 0
usemtl Material.043
f 9/1/1 10/2/1 4/3/1 2/4/1
f 4/3/1 10/2/1 15/5/1 13/6/1
f 11/7/2 12/8/2 6/9/2 8/10/2
f 12/11/3 9/12/3 2/13/3 6/14/3
f 3/15/4 1/3/4 5/16/4 7/17/4
f 8/18/5 6/19/5 2/20/5 4/21/5
f 5/22/3 1/23/3 9/12/3 12/11/3
f 7/24/2 5/25/2 12/8/2 11/7/2
f 3/26/6 7/27/6 11/28/6 10/13/6
f 1/29/1 3/30/1 10/2/1 9/1/1
f 15/31/6 16/32/6 14/33/6 13/34/6
f 10/35/4 11/36/4 16/37/4 15/38/4
f 8/18/5 4/21/5 13/39/5 14/40/5
f 11/7/2 8/10/2 14/41/2 16/42/2
f 16/43/5 14/43/5 18/43/5 20/43/5
f 13/43/5 15/43/5 19/43/5 17/43/5
f 14/43/5 13/43/5 17/43/5 18/43/5
