# Blender 5.2.0 LTS
# www.blender.org
mtllib CofeeBlenderAtas.mtl
o Cone
v -12.211119 4.788289 -83.377831
v -12.141828 4.788289 -83.384651
v -12.075199 4.788289 -83.404861
v -12.013794 4.788289 -83.437683
v -11.959972 4.788289 -83.481857
v -11.915802 4.788289 -83.535675
v -11.882980 4.788289 -83.597084
v -11.862769 4.788289 -83.663712
v -11.855945 4.788289 -83.733002
v -11.862769 4.788289 -83.802292
v -11.882980 4.788289 -83.868919
v -11.915802 4.788289 -83.930328
v -11.959972 4.788289 -83.984146
v -12.013794 4.788289 -84.028320
v -12.075199 4.788289 -84.061142
v -12.141828 4.788289 -84.081352
v -12.211119 4.788289 -84.088173
v -12.280410 4.788289 -84.081352
v -12.347038 4.788289 -84.061142
v -12.408443 4.788289 -84.028320
v -12.462265 4.788289 -83.984146
v -12.506435 4.788289 -83.930328
v -12.539257 4.788289 -83.868919
v -12.559468 4.788289 -83.802292
v -12.566293 4.788289 -83.733002
v -12.559468 4.788289 -83.663712
v -12.539257 4.788289 -83.597084
v -12.506435 4.788289 -83.535675
v -12.462265 4.788289 -83.481857
v -12.408443 4.788289 -83.437683
v -12.347038 4.788289 -83.404861
v -12.280410 4.788289 -83.384651
v -12.211119 3.796781 -83.733002
v -12.211119 4.788289 -83.237251
v -12.114402 4.788289 -83.246773
v -12.021402 4.788289 -83.274986
v -11.935693 4.788289 -83.320801
v -11.860568 4.788289 -83.382454
v -11.798915 4.788289 -83.457573
v -11.753102 4.788289 -83.543282
v -11.724891 4.788289 -83.636284
v -11.715364 4.788289 -83.733002
v -11.724891 4.788289 -83.829720
v -11.753102 4.788289 -83.922722
v -11.798915 4.788289 -84.008430
v -11.860568 4.788289 -84.083549
v -11.935693 4.788289 -84.145203
v -12.021402 4.788289 -84.191017
v -12.114402 4.788289 -84.219231
v -12.211119 4.788289 -84.228752
v -12.307836 4.788289 -84.219231
v -12.400835 4.788289 -84.191017
v -12.486545 4.788289 -84.145203
v -12.561669 4.788289 -84.083549
v -12.623322 4.788289 -84.008430
v -12.669135 4.788289 -83.922722
v -12.697347 4.788289 -83.829720
v -12.706873 4.788289 -83.733002
v -12.697347 4.788289 -83.636284
v -12.669135 4.788289 -83.543282
v -12.623322 4.788289 -83.457573
v -12.561669 4.788289 -83.382454
v -12.486545 4.788289 -83.320801
v -12.400835 4.788289 -83.274986
v -12.307836 4.788289 -83.246773
v -12.211119 4.514837 -83.377831
v -12.141828 4.514837 -83.384651
v -12.075199 4.514837 -83.404861
v -12.013794 4.514837 -83.437683
v -11.959972 4.514837 -83.481857
v -11.915802 4.514837 -83.535675
v -11.882980 4.514837 -83.597084
v -11.862769 4.514837 -83.663712
v -11.855945 4.514837 -83.733002
v -11.862769 4.514837 -83.802292
v -11.882980 4.514837 -83.868919
v -11.915802 4.514837 -83.930328
v -11.959972 4.514837 -83.984146
v -12.013794 4.514837 -84.028320
v -12.075199 4.514837 -84.061142
v -12.141828 4.514837 -84.081352
v -12.211119 4.514837 -84.088173
v -12.280410 4.514837 -84.081352
v -12.347038 4.514837 -84.061142
v -12.408443 4.514837 -84.028320
v -12.462265 4.514837 -83.984146
v -12.506435 4.514837 -83.930328
v -12.539257 4.514837 -83.868919
v -12.559468 4.514837 -83.802292
v -12.566293 4.514837 -83.733002
v -12.559468 4.514837 -83.663712
v -12.539257 4.514837 -83.597084
v -12.506435 4.514837 -83.535675
v -12.462265 4.514837 -83.481857
v -12.408443 4.514837 -83.437683
v -12.347038 4.514837 -83.404861
v -12.280410 4.514837 -83.384651
vn 0.0878 -0.4455 0.8910
vn 0.2599 -0.4455 0.8567
vn 0.4220 -0.4455 0.7896
vn 0.5680 -0.4455 0.6921
vn 0.6921 -0.4455 0.5680
vn 0.7896 -0.4455 0.4220
vn 0.8567 -0.4455 0.2599
vn 0.8910 -0.4455 0.0878
vn 0.8910 -0.4455 -0.0878
vn 0.8567 -0.4455 -0.2599
vn 0.7896 -0.4455 -0.4220
vn 0.6921 -0.4455 -0.5680
vn 0.5680 -0.4455 -0.6921
vn 0.4220 -0.4455 -0.7896
vn 0.2599 -0.4455 -0.8567
vn 0.0878 -0.4455 -0.8910
vn -0.0878 -0.4455 -0.8910
vn -0.2599 -0.4455 -0.8567
vn -0.4220 -0.4455 -0.7896
vn -0.5680 -0.4455 -0.6921
vn -0.6921 -0.4455 -0.5680
vn -0.7896 -0.4455 -0.4220
vn -0.8567 -0.4455 -0.2599
vn -0.8910 -0.4455 -0.0878
vn -0.8910 -0.4455 0.0878
vn -0.8567 -0.4455 0.2599
vn -0.7896 -0.4455 0.4220
vn -0.6921 -0.4455 0.5680
vn -0.5680 -0.4455 0.6921
vn -0.4220 -0.4455 0.7896
vn -0.4714 -0.0000 -0.8819
vn -0.2599 -0.4455 0.8567
vn -0.0878 -0.4455 0.8910
vn -0.0000 1.0000 -0.0000
vn 0.4714 -0.0000 -0.8819
vn 0.0980 -0.0000 0.9952
vn -0.6344 -0.0000 -0.7730
vn 0.2903 -0.0000 -0.9569
vn 0.2903 -0.0000 0.9569
vn -0.7730 -0.0000 -0.6344
vn 0.0980 -0.0000 -0.9952
vn 0.4714 -0.0000 0.8819
vn -0.8819 -0.0000 -0.4714
vn 0.6344 -0.0000 0.7730
vn -0.9569 -0.0000 -0.2903
vn 0.7730 -0.0000 0.6344
vn -0.9952 -0.0000 -0.0980
vn 0.8819 -0.0000 0.4714
vn -0.9952 -0.0000 0.0980
vn 0.9569 -0.0000 0.2903
vn -0.9569 -0.0000 0.2903
vn 0.9952 -0.0000 0.0980
vn -0.8819 -0.0000 0.4714
vn 0.9952 -0.0000 -0.0980
vn -0.7730 -0.0000 0.6344
vn 0.9569 -0.0000 -0.2903
vn -0.6344 -0.0000 0.7730
vn 0.8819 -0.0000 -0.4714
vn -0.4714 -0.0000 0.8819
vn -0.0980 -0.0000 -0.9952
vn 0.7730 -0.0000 -0.6344
vn -0.2903 -0.0000 0.9569
vn -0.2903 -0.0000 -0.9569
vn 0.6344 -0.0000 -0.7730
vn -0.0980 -0.0000 0.9952
vt 0.250000 0.490000
vt 0.250000 0.250000
vt 0.296822 0.485388
vt 0.341844 0.471731
vt 0.383337 0.449553
vt 0.419706 0.419706
vt 0.449553 0.383337
vt 0.471731 0.341844
vt 0.485388 0.296822
vt 0.490000 0.250000
vt 0.485388 0.203178
vt 0.471731 0.158156
vt 0.449553 0.116663
vt 0.419706 0.080294
vt 0.383337 0.050447
vt 0.341844 0.028269
vt 0.296822 0.014612
vt 0.250000 0.010000
vt 0.203178 0.014612
vt 0.158156 0.028269
vt 0.116663 0.050447
vt 0.080294 0.080294
vt 0.050447 0.116663
vt 0.028269 0.158156
vt 0.014612 0.203178
vt 0.010000 0.250000
vt 0.014612 0.296822
vt 0.028269 0.341844
vt 0.050447 0.383337
vt 0.080294 0.419706
vt 0.116663 0.449553
vt 0.158156 0.471731
vt 0.845527 0.392966
vt 0.815800 0.408855
vt 0.203178 0.485388
vt 0.750000 0.421944
vt 0.796822 0.485388
vt 0.783545 0.418640
vt 0.841844 0.471731
vt 0.883337 0.449553
vt 0.919706 0.419706
vt 0.871583 0.371583
vt 0.892966 0.345527
vt 0.949553 0.383337
vt 0.971731 0.341844
vt 0.908855 0.315800
vt 0.985388 0.296822
vt 0.918640 0.283545
vt 0.990000 0.250000
vt 0.921944 0.250000
vt 0.985388 0.203178
vt 0.918640 0.216455
vt 0.971731 0.158156
vt 0.908856 0.184200
vt 0.949553 0.116663
vt 0.892966 0.154473
vt 0.919706 0.080294
vt 0.871583 0.128417
vt 0.845527 0.107034
vt 0.883337 0.050447
vt 0.841844 0.028269
vt 0.815800 0.091145
vt 0.796822 0.014612
vt 0.783545 0.081360
vt 0.750000 0.010000
vt 0.750000 0.078056
vt 0.703178 0.014612
vt 0.716455 0.081360
vt 0.658156 0.028269
vt 0.684200 0.091145
vt 0.616663 0.050447
vt 0.654473 0.107034
vt 0.580294 0.080294
vt 0.628417 0.128417
vt 0.607034 0.154473
vt 0.550447 0.116663
vt 0.528269 0.158156
vt 0.591145 0.184200
vt 0.514612 0.203178
vt 0.581360 0.216455
vt 0.510000 0.250000
vt 0.578056 0.250000
vt 0.514612 0.296822
vt 0.581360 0.283545
vt 0.528269 0.341844
vt 0.591145 0.315800
vt 0.550447 0.383337
vt 0.607034 0.345527
vt 0.580294 0.419706
vt 0.628417 0.371583
vt 0.654473 0.392966
vt 0.616663 0.449553
vt 0.658156 0.471731
vt 0.684200 0.408855
vt 0.703178 0.485388
vt 0.716455 0.418640
vt 0.750000 0.490000
s 0
f 34/1/1 33/2/1 35/3/1
f 35/3/2 33/2/2 36/4/2
f 36/4/3 33/2/3 37/5/3
f 37/5/4 33/2/4 38/6/4
f 38/6/5 33/2/5 39/7/5
f 39/7/6 33/2/6 40/8/6
f 40/8/7 33/2/7 41/9/7
f 41/9/8 33/2/8 42/10/8
f 42/10/9 33/2/9 43/11/9
f 43/11/10 33/2/10 44/12/10
f 44/12/11 33/2/11 45/13/11
f 45/13/12 33/2/12 46/14/12
f 46/14/13 33/2/13 47/15/13
f 47/15/14 33/2/14 48/16/14
f 48/16/15 33/2/15 49/17/15
f 49/17/16 33/2/16 50/18/16
f 50/18/17 33/2/17 51/19/17
f 51/19/18 33/2/18 52/20/18
f 52/20/19 33/2/19 53/21/19
f 53/21/20 33/2/20 54/22/20
f 54/22/21 33/2/21 55/23/21
f 55/23/22 33/2/22 56/24/22
f 56/24/23 33/2/23 57/25/23
f 57/25/24 33/2/24 58/26/24
f 58/26/25 33/2/25 59/27/25
f 59/27/26 33/2/26 60/28/26
f 60/28/27 33/2/27 61/29/27
f 61/29/28 33/2/28 62/30/28
f 62/30/29 33/2/29 63/31/29
f 63/31/30 33/2/30 64/32/30
f 4/33/31 68/34/31 3/34/31
f 64/32/32 33/2/32 65/35/32
f 65/35/33 33/2/33 34/1/33
f 1/36/34 35/37/34 2/38/34
f 2/38/34 36/39/34 3/34/34
f 3/34/34 37/40/34 4/33/34
f 4/33/34 38/41/34 5/42/34
f 6/43/34 38/41/34 39/44/34
f 6/43/34 40/45/34 7/46/34
f 7/46/34 41/47/34 8/48/34
f 8/48/34 42/49/34 9/50/34
f 9/50/34 43/51/34 10/52/34
f 10/52/34 44/53/34 11/54/34
f 11/54/34 45/55/34 12/56/34
f 12/56/34 46/57/34 13/58/34
f 14/59/34 46/57/34 47/60/34
f 14/59/34 48/61/34 15/62/34
f 15/62/34 49/63/34 16/64/34
f 16/64/34 50/65/34 17/66/34
f 17/66/34 51/67/34 18/68/34
f 18/68/34 52/69/34 19/70/34
f 19/70/34 53/71/34 20/72/34
f 20/72/34 54/73/34 21/74/34
f 22/75/34 54/73/34 55/76/34
f 22/75/34 56/77/34 23/78/34
f 23/78/34 57/79/34 24/80/34
f 24/80/34 58/81/34 25/82/34
f 25/82/34 59/83/34 26/84/34
f 26/84/34 60/85/34 27/86/34
f 27/86/34 61/87/34 28/88/34
f 28/88/34 62/89/34 29/90/34
f 30/91/34 62/89/34 63/92/34
f 30/91/34 64/93/34 31/94/34
f 31/94/34 65/95/34 32/96/34
f 32/96/34 34/97/34 1/36/34
f 81/64/34 89/80/34 97/96/34
f 31/94/35 95/91/35 30/91/35
f 18/68/36 82/66/36 17/66/36
f 5/42/37 69/33/37 4/33/37
f 32/96/38 96/94/38 31/94/38
f 19/70/39 83/68/39 18/68/39
f 6/43/40 70/42/40 5/42/40
f 1/36/41 97/96/41 32/96/41
f 20/72/42 84/70/42 19/70/42
f 7/46/43 71/43/43 6/43/43
f 21/74/44 85/72/44 20/72/44
f 8/48/45 72/46/45 7/46/45
f 22/75/46 86/74/46 21/74/46
f 9/50/47 73/48/47 8/48/47
f 23/78/48 87/75/48 22/75/48
f 10/52/49 74/50/49 9/50/49
f 24/80/50 88/78/50 23/78/50
f 11/54/51 75/52/51 10/52/51
f 25/82/52 89/80/52 24/80/52
f 12/56/53 76/54/53 11/54/53
f 26/84/54 90/82/54 25/82/54
f 13/58/55 77/56/55 12/56/55
f 27/86/56 91/84/56 26/84/56
f 14/59/57 78/58/57 13/58/57
f 28/88/58 92/86/58 27/86/58
f 15/62/59 79/59/59 14/59/59
f 2/38/60 66/36/60 1/36/60
f 29/90/61 93/88/61 28/88/61
f 16/64/62 80/62/62 15/62/62
f 3/34/63 67/38/63 2/38/63
f 30/91/64 94/90/64 29/90/64
f 17/66/65 81/64/65 16/64/65
f 4/33/31 69/33/31 68/34/31
f 1/36/34 34/97/34 35/37/34
f 2/38/34 35/37/34 36/39/34
f 3/34/34 36/39/34 37/40/34
f 4/33/34 37/40/34 38/41/34
f 6/43/34 5/42/34 38/41/34
f 6/43/34 39/44/34 40/45/34
f 7/46/34 40/45/34 41/47/34
f 8/48/34 41/47/34 42/49/34
f 9/50/34 42/49/34 43/51/34
f 10/52/34 43/51/34 44/53/34
f 11/54/34 44/53/34 45/55/34
f 12/56/34 45/55/34 46/57/34
f 14/59/34 13/58/34 46/57/34
f 14/59/34 47/60/34 48/61/34
f 15/62/34 48/61/34 49/63/34
f 16/64/34 49/63/34 50/65/34
f 17/66/34 50/65/34 51/67/34
f 18/68/34 51/67/34 52/69/34
f 19/70/34 52/69/34 53/71/34
f 20/72/34 53/71/34 54/73/34
f 22/75/34 21/74/34 54/73/34
f 22/75/34 55/76/34 56/77/34
f 23/78/34 56/77/34 57/79/34
f 24/80/34 57/79/34 58/81/34
f 25/82/34 58/81/34 59/83/34
f 26/84/34 59/83/34 60/85/34
f 27/86/34 60/85/34 61/87/34
f 28/88/34 61/87/34 62/89/34
f 30/91/34 29/90/34 62/89/34
f 30/91/34 63/92/34 64/93/34
f 31/94/34 64/93/34 65/95/34
f 32/96/34 65/95/34 34/97/34
f 97/96/34 66/36/34 67/38/34
f 67/38/34 68/34/34 69/33/34
f 69/33/34 70/42/34 71/43/34
f 71/43/34 72/46/34 73/48/34
f 73/48/34 74/50/34 75/52/34
f 75/52/34 76/54/34 77/56/34
f 77/56/34 78/58/34 79/59/34
f 79/59/34 80/62/34 81/64/34
f 81/64/34 82/66/34 83/68/34
f 83/68/34 84/70/34 85/72/34
f 85/72/34 86/74/34 87/75/34
f 87/75/34 88/78/34 89/80/34
f 89/80/34 90/82/34 91/84/34
f 91/84/34 92/86/34 93/88/34
f 93/88/34 94/90/34 95/91/34
f 95/91/34 96/94/34 97/96/34
f 97/96/34 67/38/34 69/33/34
f 69/33/34 71/43/34 73/48/34
f 73/48/34 75/52/34 77/56/34
f 77/56/34 79/59/34 81/64/34
f 81/64/34 83/68/34 85/72/34
f 85/72/34 87/75/34 89/80/34
f 89/80/34 91/84/34 93/88/34
f 93/88/34 95/91/34 97/96/34
f 97/96/34 69/33/34 73/48/34
f 73/48/34 77/56/34 81/64/34
f 81/64/34 85/72/34 89/80/34
f 89/80/34 93/88/34 97/96/34
f 97/96/34 73/48/34 81/64/34
f 31/94/35 96/94/35 95/91/35
f 18/68/36 83/68/36 82/66/36
f 5/42/37 70/42/37 69/33/37
f 32/96/38 97/96/38 96/94/38
f 19/70/39 84/70/39 83/68/39
f 6/43/40 71/43/40 70/42/40
f 1/36/41 66/36/41 97/96/41
f 20/72/42 85/72/42 84/70/42
f 7/46/43 72/46/43 71/43/43
f 21/74/44 86/74/44 85/72/44
f 8/48/45 73/48/45 72/46/45
f 22/75/46 87/75/46 86/74/46
f 9/50/47 74/50/47 73/48/47
f 23/78/48 88/78/48 87/75/48
f 10/52/49 75/52/49 74/50/49
f 24/80/50 89/80/50 88/78/50
f 11/54/51 76/54/51 75/52/51
f 25/82/52 90/82/52 89/80/52
f 12/56/53 77/56/53 76/54/53
f 26/84/54 91/84/54 90/82/54
f 13/58/55 78/58/55 77/56/55
f 27/86/56 92/86/56 91/84/56
f 14/59/57 79/59/57 78/58/57
f 28/88/58 93/88/58 92/86/58
f 15/62/59 80/62/59 79/59/59
f 2/38/60 67/38/60 66/36/60
f 29/90/61 94/90/61 93/88/61
f 16/64/62 81/64/62 80/62/62
f 3/34/63 68/34/63 67/38/63
f 30/91/64 95/91/64 94/90/64
f 17/66/65 82/66/65 81/64/65
