# Blender 5.2.0 LTS
# www.blender.org
mtllib DoorCurtains.mtl
o Cube.015
v -9.254310 5.461315 -4.933095
v -9.254310 5.559610 -4.933095
v -9.254310 5.461315 -8.247996
v -9.254310 5.559610 -8.247996
v -9.331372 5.461315 -4.933095
v -9.331372 5.559610 -4.933095
v -9.331372 5.461315 -8.247996
v -9.331372 5.559610 -8.247996
vn 1.0000 -0.0000 -0.0000
vn -0.0000 -0.0000 -1.0000
vn -1.0000 -0.0000 -0.0000
vn -0.0000 -0.0000 1.0000
vn -0.0000 -1.0000 -0.0000
vn -0.0000 1.0000 -0.0000
vt 0.625000 0.000000
vt 0.375000 0.250000
vt 0.375000 0.000000
vt 0.625000 0.250000
vt 0.375000 0.500000
vt 0.625000 0.500000
vt 0.375000 0.750000
vt 0.625000 0.750000
vt 0.375000 1.000000
vt 0.125000 0.750000
vt 0.125000 0.500000
vt 0.875000 0.500000
vt 0.625000 1.000000
vt 0.875000 0.750000
s 0
f 2/1/1 1/3/1 3/2/1
f 4/4/2 3/2/2 7/5/2
f 8/6/3 7/5/3 5/7/3
f 6/8/4 5/7/4 1/9/4
f 7/5/5 3/11/5 1/10/5
f 4/12/6 8/6/6 6/8/6
f 2/1/1 3/2/1 4/4/1
f 4/4/2 7/5/2 8/6/2
f 8/6/3 5/7/3 6/8/3
f 6/8/4 1/9/4 2/13/4
f 7/5/5 1/10/5 5/7/5
f 4/12/6 6/8/6 2/14/6
o Plane.006
v -9.318551 0.623738 -5.104296
v -9.162782 0.623738 -6.563991
v -9.318551 5.593360 -5.104296
v -9.162782 5.593360 -6.563991
v -9.162782 0.623738 -5.396235
v -9.318551 0.623738 -5.688174
v -9.162782 0.623738 -5.980113
v -9.318551 0.623738 -6.272052
v -9.318551 5.593360 -6.272051
v -9.162782 5.593360 -5.980113
v -9.318551 5.593360 -5.688174
v -9.162782 5.593360 -5.396235
vn 0.8823 -0.0000 0.4707
vn 0.8823 -0.0000 -0.4707
vt 1.000000 0.000000
vt 0.800000 1.000000
vt 0.800000 0.000000
vt 0.200000 0.000000
vt 0.000000 1.000000
vt 0.000000 0.000000
vt 0.400000 0.000000
vt 0.200000 1.000000
vt 0.600000 0.000000
vt 0.400000 1.000000
vt 0.600000 1.000000
vt 1.000000 1.000000
s 0
f 10/15/7 17/16/7 16/17/7
f 13/18/7 11/19/7 9/20/7
f 14/21/8 20/22/8 13/18/8
f 15/23/7 19/24/7 14/21/7
f 16/17/8 18/25/8 15/23/8
f 10/15/7 12/26/7 17/16/7
f 13/18/7 20/22/7 11/19/7
f 14/21/8 19/24/8 20/22/8
f 15/23/7 18/25/7 19/24/7
f 16/17/8 17/16/8 18/25/8
o Plane.007
v -9.318551 0.623738 -6.680419
v -9.162782 0.623738 -8.140114
v -9.318551 5.593360 -6.680419
v -9.162782 5.593360 -8.140114
v -9.162782 0.623738 -6.972358
v -9.318551 0.623738 -7.264297
v -9.162782 0.623738 -7.556236
v -9.318551 0.623738 -7.848175
v -9.318551 5.593360 -7.848175
v -9.162782 5.593360 -7.556236
v -9.318551 5.593360 -7.264297
v -9.162782 5.593360 -6.972358
vn 0.8823 -0.0000 0.4707
vn 0.8823 -0.0000 -0.4707
vt 1.000000 0.000000
vt 0.800000 1.000000
vt 0.800000 0.000000
vt 0.200000 0.000000
vt 0.000000 1.000000
vt 0.000000 0.000000
vt 0.400000 0.000000
vt 0.200000 1.000000
vt 0.600000 0.000000
vt 0.400000 1.000000
vt 0.600000 1.000000
vt 1.000000 1.000000
s 0
f 22/27/9 29/28/9 28/29/9
f 25/30/9 23/31/9 21/32/9
f 26/33/10 32/34/10 25/30/10
f 27/35/9 31/36/9 26/33/9
f 28/29/10 30/37/10 27/35/10
f 22/27/9 24/38/9 29/28/9
f 25/30/9 32/34/9 23/31/9
f 26/33/10 31/36/10 32/34/10
f 27/35/9 30/37/9 31/36/9
f 28/29/10 29/28/10 30/37/10
