# Blender 5.2.0 LTS
# www.blender.org
mtllib Drawer.mtl
o Cube.009
v -1.000000 0.014030 1.000000
v -1.000000 3.045979 1.000000
v -1.000000 0.014030 -1.000000
v -1.000000 3.045979 -1.000000
v 1.000000 0.014030 1.000000
v 1.000000 2.914976 0.913585
v 1.000000 0.014030 -1.000000
v 1.000000 2.914976 -0.913585
v -1.000000 1.259963 1.000000
v -1.000000 1.259963 -1.000000
v 1.000000 1.390965 -0.913585
v 1.000000 1.390965 0.913585
v 1.000000 3.045979 -1.000000
v 1.000000 3.045979 1.000000
v 1.000000 1.259963 -1.000000
v 1.000000 1.259963 1.000000
v -0.771825 2.914976 -0.913585
v -0.771825 2.914976 0.913585
v -0.771825 1.390965 -0.913585
v -0.771825 1.390965 0.913585
vn -1.0000 -0.0000 -0.0000
vn -0.0000 -0.0000 -1.0000
vn -0.0000 1.0000 -0.0000
vn -0.0000 -0.0000 1.0000
vn -0.0000 -1.0000 -0.0000
vn 1.0000 -0.0000 -0.0000
vt 0.477734 0.000000
vt 0.625000 0.000000
vt 0.625000 0.250000
vt 0.477734 0.250000
vt 0.625000 0.500000
vt 0.477734 0.500000
vt 0.488536 0.739198
vt 0.488536 0.510802
vt 0.477734 0.750000
vt 0.625000 0.750000
vt 0.625000 1.000000
vt 0.477734 1.000000
vt 0.125000 0.500000
vt 0.375000 0.500000
vt 0.375000 0.750000
vt 0.125000 0.750000
vt 0.875000 0.500000
vt 0.875000 0.750000
vt 0.375000 1.000000
vt 0.375000 0.250000
vt 0.375000 0.000000
vt 0.614198 0.739198
vt 0.614198 0.510802
s 0
f 9/1/1 2/2/1 4/3/1 10/4/1
f 10/4/2 4/3/2 13/5/2 15/6/2
f 12/7/3 11/8/3 19/8/3 20/7/3
f 16/9/4 14/10/4 2/11/4 9/12/4
f 3/13/5 7/14/5 5/15/5 1/16/5
f 13/5/3 4/17/3 2/18/3 14/10/3
f 5/15/4 16/9/4 9/12/4 1/19/4
f 7/14/6 15/6/6 16/9/6 5/15/6
f 3/20/2 10/4/2 15/6/2 7/14/2
f 1/21/1 9/1/1 10/4/1 3/20/1
f 6/22/6 8/23/6 13/5/6 14/10/6
f 8/23/6 11/8/6 15/6/6 13/5/6
f 12/7/6 6/22/6 14/10/6 16/9/6
f 11/8/6 12/7/6 16/9/6 15/6/6
f 19/8/6 17/23/6 18/22/6 20/7/6
f 11/8/4 8/23/4 17/23/4 19/8/4
f 6/22/2 12/7/2 20/7/2 18/22/2
f 8/23/5 6/22/5 18/22/5 17/23/5
