# Blender 5.2.0 LTS
# www.blender.org
mtllib Kaca.mtl
o Plane.017
v -30.225534 8.100801 -93.772263
v -36.734241 8.100801 -93.772263
v -30.225534 -0.605956 -93.772263
v -36.734241 -0.605956 -93.772263
vn -0.0000 -0.0000 -1.0000
vt 1.000000 0.000000
vt 0.000000 1.000000
vt 0.000000 0.000000
vt 1.000000 1.000000
s 0
f 2/1/1 1/3/1 3/2/1
f 2/1/1 3/2/1 4/4/1
o Plane.018
v -19.899220 8.100801 -91.498268
v -29.175541 8.100801 -91.498268
v -19.899220 -0.605956 -91.498268
v -29.175541 -0.605956 -91.498268
vn -0.0000 -0.0000 -1.0000
vt 1.000000 0.000000
vt 0.000000 1.000000
vt 0.000000 0.000000
vt 1.000000 1.000000
s 0
f 6/5/2 5/7/2 7/6/2
f 6/5/2 7/6/2 8/8/2
o Plane.019
v -4.405675 8.100801 -91.498268
v -14.223338 8.100801 -91.498268
v -4.405675 -0.605956 -91.498268
v -14.223338 -0.605956 -91.498268
vn -0.0000 -0.0000 -1.0000
vt 1.000000 0.000000
vt 0.000000 1.000000
vt 0.000000 0.000000
vt 1.000000 1.000000
s 0
f 10/9/3 9/11/3 11/10/3
f 10/9/3 11/10/3 12/12/3
o Plane.020
v -14.242401 8.100801 -91.498268
v -19.807487 8.100801 -91.498268
v -14.242401 -0.605956 -91.498268
v -19.807487 -0.605956 -91.498268
vn -0.0000 -0.0000 -1.0000
vt 1.000000 0.000000
vt 0.000000 1.000000
vt 0.000000 0.000000
vt 1.000000 1.000000
s 0
f 14/13/4 13/15/4 15/14/4
f 14/13/4 15/14/4 16/16/4
o Plane.022
v -33.213272 7.232028 -58.366516
v -36.950745 7.232028 -58.366516
v -33.213272 0.030652 -58.366516
v -36.950745 0.030652 -58.366516
vn -0.0000 -0.0000 -1.0000
vt 1.000000 0.000000
vt 0.000000 1.000000
vt 0.000000 0.000000
vt 1.000000 1.000000
s 0
f 18/17/5 17/19/5 19/18/5
f 18/17/5 19/18/5 20/20/5
o Plane.023
v -25.003904 7.232028 -58.366516
v -28.741381 7.232028 -58.366516
v -25.003904 0.030652 -58.366516
v -28.741381 0.030652 -58.366516
vn -0.0000 -0.0000 -1.0000
vt 1.000000 0.000000
vt 0.000000 1.000000
vt 0.000000 0.000000
vt 1.000000 1.000000
s 0
f 22/21/6 21/23/6 23/22/6
f 22/21/6 23/22/6 24/24/6
o Plane.024
v -17.036108 6.675638 -47.319424
v -30.799997 6.675638 -47.319424
v -17.036108 0.099726 -47.319424
v -30.799997 0.099726 -47.319424
vn -0.0000 -0.0000 -1.0000
vt 1.000000 0.000000
vt 0.000000 1.000000
vt 0.000000 0.000000
vt 1.000000 1.000000
s 0
f 26/25/7 25/27/7 27/26/7
f 26/25/7 27/26/7 28/28/7
