# Blender 5.2.0 LTS
# www.blender.org
mtllib KursiKotakBaseKasir.mtl
o Cube.099
v -24.022108 -0.064941 -58.716022
v -24.022108 1.347575 -58.716022
v -24.022108 -0.064941 -60.128536
v -24.022108 1.347575 -60.128536
v -22.609591 -0.064941 -58.716022
v -22.609591 1.347575 -58.716022
v -22.609591 -0.064941 -60.128536
v -22.609591 1.347575 -60.128536
vn -1.0000 -0.0000 -0.0000
vn -0.0000 -0.0000 -1.0000
vn 1.0000 -0.0000 -0.0000
vn -0.0000 -0.0000 1.0000
vn -0.0000 -1.0000 -0.0000
vn -0.0000 1.0000 -0.0000
vt 0.375000 0.000000
vt 0.625000 0.000000
vt 0.625000 0.250000
vt 0.375000 0.250000
vt 0.625000 0.500000
vt 0.375000 0.500000
vt 0.625000 0.750000
vt 0.375000 0.750000
vt 0.625000 1.000000
vt 0.375000 1.000000
vt 0.125000 0.500000
vt 0.125000 0.750000
vt 0.875000 0.500000
vt 0.875000 0.750000
s 0
f 1/1/1 2/2/1 4/3/1 3/4/1
f 3/4/2 4/3/2 8/5/2 7/6/2
f 7/6/3 8/5/3 6/7/3 5/8/3
f 5/8/4 6/7/4 2/9/4 1/10/4
f 3/11/5 7/6/5 5/8/5 1/12/5
f 8/5/6 4/13/6 2/14/6 6/7/6
o Cube.238
v -19.271219 -0.064941 -58.603718
v -19.271219 1.347575 -58.603718
v -19.517458 -0.064941 -59.994606
v -19.517458 1.347575 -59.994606
v -17.880331 -0.064941 -58.849953
v -17.880331 1.347575 -58.849953
v -18.126570 -0.064941 -60.240841
v -18.126570 1.347575 -60.240841
vn -0.9847 -0.0000 0.1743
vn -0.1743 -0.0000 -0.9847
vn 0.9847 -0.0000 -0.1743
vn 0.1743 -0.0000 0.9847
vn -0.0000 -1.0000 -0.0000
vn -0.0000 1.0000 -0.0000
vt 0.375000 0.000000
vt 0.625000 0.000000
vt 0.625000 0.250000
vt 0.375000 0.250000
vt 0.625000 0.500000
vt 0.375000 0.500000
vt 0.625000 0.750000
vt 0.375000 0.750000
vt 0.625000 1.000000
vt 0.375000 1.000000
vt 0.125000 0.500000
vt 0.125000 0.750000
vt 0.875000 0.500000
vt 0.875000 0.750000
s 0
f 9/15/7 10/16/7 12/17/7 11/18/7
f 11/18/8 12/17/8 16/19/8 15/20/8
f 15/20/9 16/19/9 14/21/9 13/22/9
f 13/22/10 14/21/10 10/23/10 9/24/10
f 11/25/11 15/20/11 13/22/11 9/26/11
f 16/19/12 12/27/12 10/28/12 14/21/12
