# Blender 5.2.0 LTS
# www.blender.org
mtllib KursiLuar.mtl
o Cube.215
v 2.232410 0.613059 23.431387
v 3.484431 0.613058 23.431387
v 2.232410 0.560540 23.431387
v 3.484431 0.560540 23.431387
v 2.232410 0.613059 23.506937
v 3.484431 0.613058 23.506937
v 2.232410 0.560540 23.506937
v 3.484431 0.560540 23.506937
vn -0.0000 -0.0000 -1.0000
vn -0.0000 -1.0000 -0.0000
vn -0.0000 -0.0000 1.0000
vn -0.0000 1.0000 -0.0000
vn -1.0000 -0.0000 -0.0000
vn 1.0000 -0.0000 -0.0000
vt 0.375000 0.000000
vt 0.625000 0.000000
vt 0.625000 0.250000
vt 0.375000 0.250000
vt 0.625000 0.500000
vt 0.375000 0.500000
vt 0.625000 0.750000
vt 0.375000 0.750000
vt 0.625000 1.000000
vt 0.375000 1.000000
vt 0.125000 0.500000
vt 0.125000 0.750000
vt 0.875000 0.500000
vt 0.875000 0.750000
s 0
f 1/1/1 2/2/1 4/3/1 3/4/1
f 3/4/2 4/3/2 8/5/2 7/6/2
f 7/6/3 8/5/3 6/7/3 5/8/3
f 5/8/4 6/7/4 2/9/4 1/10/4
f 3/11/5 7/6/5 5/8/5 1/12/5
f 8/5/6 4/13/6 2/14/6 6/7/6
o Cube.216
v 2.232410 0.613059 24.839975
v 3.484431 0.613058 24.839975
v 2.232410 0.560540 24.839975
v 3.484431 0.560540 24.839975
v 2.232410 0.613059 24.915525
v 3.484431 0.613058 24.915525
v 2.232410 0.560540 24.915525
v 3.484431 0.560540 24.915525
vn -0.0000 -0.0000 -1.0000
vn -0.0000 -1.0000 -0.0000
vn -0.0000 -0.0000 1.0000
vn -0.0000 1.0000 -0.0000
vn -1.0000 -0.0000 -0.0000
vn 1.0000 -0.0000 -0.0000
vt 0.375000 0.000000
vt 0.625000 0.000000
vt 0.625000 0.250000
vt 0.375000 0.250000
vt 0.625000 0.500000
vt 0.375000 0.500000
vt 0.625000 0.750000
vt 0.375000 0.750000
vt 0.625000 1.000000
vt 0.375000 1.000000
vt 0.125000 0.500000
vt 0.125000 0.750000
vt 0.875000 0.500000
vt 0.875000 0.750000
s 0
f 9/15/7 10/16/7 12/17/7 11/18/7
f 11/18/8 12/17/8 16/19/8 15/20/8
f 15/20/9 16/19/9 14/21/9 13/22/9
f 13/22/10 14/21/10 10/23/10 9/24/10
f 11/25/11 15/20/11 13/22/11 9/26/11
f 16/19/12 12/27/12 10/28/12 14/21/12
o Cube.217
v 3.440747 0.514380 24.926662
v 3.440747 0.514380 23.460003
v 3.440747 0.575903 24.926662
v 3.440747 0.575903 23.460003
v 3.529248 0.514380 24.926662
v 3.529248 0.514380 23.460003
v 3.529248 0.575903 24.926662
v 3.529248 0.575903 23.460003
vn -1.0000 -0.0000 -0.0000
vn -0.0000 1.0000 -0.0000
vn 1.0000 -0.0000 -0.0000
vn -0.0000 -1.0000 -0.0000
vn -0.0000 -0.0000 1.0000
vn -0.0000 -0.0000 -1.0000
vt 0.375000 0.000000
vt 0.625000 0.000000
vt 0.625000 0.250000
vt 0.375000 0.250000
vt 0.625000 0.500000
vt 0.375000 0.500000
vt 0.625000 0.750000
vt 0.375000 0.750000
vt 0.625000 1.000000
vt 0.375000 1.000000
vt 0.125000 0.500000
vt 0.125000 0.750000
vt 0.875000 0.500000
vt 0.875000 0.750000
s 0
f 17/29/13 19/32/13 20/31/13 18/30/13
f 19/32/14 23/34/14 24/33/14 20/31/14
f 23/34/15 21/36/15 22/35/15 24/33/15
f 21/36/16 17/38/16 18/37/16 22/35/16
f 19/39/17 17/40/17 21/36/17 23/34/17
f 24/33/18 22/35/18 18/42/18 20/41/18
o Cube.218
v 2.219246 0.547815 24.860210
v 2.219246 0.547815 23.393551
v 2.219246 0.609337 24.860210
v 2.219246 0.609337 23.393551
v 2.307747 0.547815 24.860210
v 2.307747 0.547815 23.393551
v 2.307747 0.609337 24.860210
v 2.307747 0.609337 23.393551
vn -1.0000 -0.0000 -0.0000
vn -0.0000 1.0000 -0.0000
vn 1.0000 -0.0000 -0.0000
vn -0.0000 -1.0000 -0.0000
vn -0.0000 -0.0000 1.0000
vn -0.0000 -0.0000 -1.0000
vt 0.375000 0.000000
vt 0.625000 0.000000
vt 0.625000 0.250000
vt 0.375000 0.250000
vt 0.625000 0.500000
vt 0.375000 0.500000
vt 0.625000 0.750000
vt 0.375000 0.750000
vt 0.625000 1.000000
vt 0.375000 1.000000
vt 0.125000 0.500000
vt 0.125000 0.750000
vt 0.875000 0.500000
vt 0.875000 0.750000
s 0
f 25/43/19 27/46/19 28/45/19 26/44/19
f 27/46/20 31/48/20 32/47/20 28/45/20
f 31/48/21 29/50/21 30/49/21 32/47/21
f 29/50/22 25/52/22 26/51/22 30/49/22
f 27/53/23 25/54/23 29/50/23 31/48/23
f 32/47/24 30/49/24 26/56/24 28/55/24
o Cube.219
v 2.206587 2.124133 23.681135
v 2.206587 0.052075 23.463352
v 2.206587 2.137274 23.556103
v 2.206587 0.065216 23.338320
v 2.332308 2.124133 23.681135
v 2.332308 0.052075 23.463352
v 2.332308 2.137274 23.556103
v 2.332308 0.065216 23.338320
vn -1.0000 -0.0000 -0.0000
vn -0.0000 0.1045 -0.9945
vn 1.0000 -0.0000 -0.0000
vn -0.0000 -0.1045 0.9945
vn -0.0000 0.9945 0.1045
vn -0.0000 -0.9945 -0.1045
vt 0.375000 0.000000
vt 0.625000 0.000000
vt 0.625000 0.250000
vt 0.375000 0.250000
vt 0.625000 0.500000
vt 0.375000 0.500000
vt 0.625000 0.750000
vt 0.375000 0.750000
vt 0.625000 1.000000
vt 0.375000 1.000000
vt 0.125000 0.500000
vt 0.125000 0.750000
vt 0.875000 0.500000
vt 0.875000 0.750000
s 0
f 33/57/25 35/60/25 36/59/25 34/58/25
f 35/60/26 39/62/26 40/61/26 36/59/26
f 39/62/27 37/64/27 38/63/27 40/61/27
f 37/64/28 33/66/28 34/65/28 38/63/28
f 35/67/29 33/68/29 37/64/29 39/62/29
f 40/61/30 38/63/30 34/70/30 36/69/30
o Cube.220
v 3.411841 2.124133 23.681135
v 3.411841 0.052075 23.463352
v 3.411841 2.137274 23.556103
v 3.411841 0.065216 23.338320
v 3.537562 2.124133 23.681135
v 3.537562 0.052075 23.463352
v 3.537562 2.137274 23.556103
v 3.537562 0.065216 23.338320
vn -1.0000 -0.0000 -0.0000
vn -0.0000 0.1045 -0.9945
vn 1.0000 -0.0000 -0.0000
vn -0.0000 -0.1045 0.9945
vn -0.0000 0.9945 0.1045
vn -0.0000 -0.9945 -0.1045
vt 0.375000 0.000000
vt 0.625000 0.000000
vt 0.625000 0.250000
vt 0.375000 0.250000
vt 0.625000 0.500000
vt 0.375000 0.500000
vt 0.625000 0.750000
vt 0.375000 0.750000
vt 0.625000 1.000000
vt 0.375000 1.000000
vt 0.125000 0.500000
vt 0.125000 0.750000
vt 0.875000 0.500000
vt 0.875000 0.750000
s 0
f 41/71/31 43/74/31 44/73/31 42/72/31
f 43/74/32 47/76/32 48/75/32 44/73/32
f 47/76/33 45/78/33 46/77/33 48/75/33
f 45/78/34 41/80/34 42/79/34 46/77/34
f 43/81/35 41/82/35 45/78/35 47/76/35
f 48/75/36 46/77/36 42/84/36 44/83/36
o Cube.221
v 3.411841 2.137274 24.764282
v 3.411841 0.065216 24.982065
v 3.411841 2.124133 24.639250
v 3.411841 0.052075 24.857033
v 3.537562 2.137274 24.764282
v 3.537562 0.065216 24.982065
v 3.537562 2.124133 24.639250
v 3.537562 0.052075 24.857033
vn -1.0000 -0.0000 -0.0000
vn -0.0000 -0.1045 -0.9945
vn 1.0000 -0.0000 -0.0000
vn -0.0000 0.1045 0.9945
vn -0.0000 0.9945 -0.1045
vn -0.0000 -0.9945 0.1045
vt 0.375000 0.000000
vt 0.625000 0.000000
vt 0.625000 0.250000
vt 0.375000 0.250000
vt 0.625000 0.500000
vt 0.375000 0.500000
vt 0.625000 0.750000
vt 0.375000 0.750000
vt 0.625000 1.000000
vt 0.375000 1.000000
vt 0.125000 0.500000
vt 0.125000 0.750000
vt 0.875000 0.500000
vt 0.875000 0.750000
s 0
f 49/85/37 51/88/37 52/87/37 50/86/37
f 51/88/38 55/90/38 56/89/38 52/87/38
f 55/90/39 53/92/39 54/91/39 56/89/39
f 53/92/40 49/94/40 50/93/40 54/91/40
f 51/95/41 49/96/41 53/92/41 55/90/41
f 56/89/42 54/91/42 50/98/42 52/97/42
o Cube.222
v 2.206588 2.137274 24.764282
v 2.206588 0.065216 24.982065
v 2.206588 2.124133 24.639250
v 2.206588 0.052075 24.857033
v 2.332308 2.137274 24.764282
v 2.332308 0.065216 24.982065
v 2.332308 2.124133 24.639250
v 2.332308 0.052075 24.857033
vn -1.0000 -0.0000 -0.0000
vn -0.0000 -0.1045 -0.9945
vn 1.0000 -0.0000 -0.0000
vn -0.0000 0.1045 0.9945
vn -0.0000 0.9945 -0.1045
vn -0.0000 -0.9945 0.1045
vt 0.375000 0.000000
vt 0.625000 0.000000
vt 0.625000 0.250000
vt 0.375000 0.250000
vt 0.625000 0.500000
vt 0.375000 0.500000
vt 0.625000 0.750000
vt 0.375000 0.750000
vt 0.625000 1.000000
vt 0.375000 1.000000
vt 0.125000 0.500000
vt 0.125000 0.750000
vt 0.875000 0.500000
vt 0.875000 0.750000
s 0
f 57/99/43 59/102/43 60/101/43 58/100/43
f 59/102/44 63/104/44 64/103/44 60/101/44
f 63/104/45 61/106/45 62/105/45 64/103/45
f 61/106/46 57/108/46 58/107/46 62/105/46
f 59/109/47 57/110/47 61/106/47 63/104/47
f 64/103/48 62/105/48 58/112/48 60/111/48
o Cube.223
v 3.758031 2.104665 23.278957
v 3.758031 2.147051 23.278957
v 3.758031 2.104665 25.064037
v 3.758031 2.147051 25.064037
v 1.972950 2.104665 23.278957
v 1.972950 2.147051 23.278957
v 1.972950 2.104665 25.064037
v 1.972950 2.147051 25.064037
vn -0.0000 -1.0000 -0.0000
vn -0.0000 -0.0000 1.0000
vn -1.0000 -0.0000 -0.0000
vn -0.0000 1.0000 -0.0000
vn 1.0000 -0.0000 -0.0000
vn -0.0000 -0.0000 -1.0000
vt 0.625000 0.500000
vt 0.875000 0.500000
vt 0.875000 0.750000
vt 0.625000 0.750000
vt 0.375000 0.750000
vt 0.625000 1.000000
vt 0.375000 1.000000
vt 0.375000 0.000000
vt 0.625000 0.000000
vt 0.625000 0.250000
vt 0.375000 0.250000
vt 0.125000 0.500000
vt 0.375000 0.500000
vt 0.125000 0.750000
s 0
usemtl Material.004
f 65/113/49 67/116/49 71/115/49 69/114/49
f 68/117/50 72/119/50 71/118/50 67/116/50
f 72/120/51 70/123/51 69/122/51 71/121/51
f 70/124/52 72/126/52 68/117/52 66/125/52
f 66/125/53 68/117/53 67/116/53 65/113/53
f 70/123/54 66/125/54 65/113/54 69/122/54
o Cube.272
v -2.594794 0.613059 23.431387
v -1.342773 0.613058 23.431387
v -2.594794 0.560540 23.431387
v -1.342773 0.560540 23.431387
v -2.594794 0.613059 23.506937
v -1.342773 0.613058 23.506937
v -2.594794 0.560540 23.506937
v -1.342773 0.560540 23.506937
vn -0.0000 -0.0000 -1.0000
vn -0.0000 -1.0000 -0.0000
vn -0.0000 -0.0000 1.0000
vn -0.0000 1.0000 -0.0000
vn -1.0000 -0.0000 -0.0000
vn 1.0000 -0.0000 -0.0000
vt 0.375000 0.000000
vt 0.625000 0.000000
vt 0.625000 0.250000
vt 0.375000 0.250000
vt 0.625000 0.500000
vt 0.375000 0.500000
vt 0.625000 0.750000
vt 0.375000 0.750000
vt 0.625000 1.000000
vt 0.375000 1.000000
vt 0.125000 0.500000
vt 0.125000 0.750000
vt 0.875000 0.500000
vt 0.875000 0.750000
s 0
f 73/127/55 74/128/55 76/129/55 75/130/55
f 75/130/56 76/129/56 80/131/56 79/132/56
f 79/132/57 80/131/57 78/133/57 77/134/57
f 77/134/58 78/133/58 74/135/58 73/136/58
f 75/137/59 79/132/59 77/134/59 73/138/59
f 80/131/60 76/139/60 74/140/60 78/133/60
o Cube.273
v -2.594794 0.613059 24.839975
v -1.342773 0.613058 24.839975
v -2.594794 0.560540 24.839975
v -1.342773 0.560540 24.839975
v -2.594794 0.613059 24.915525
v -1.342773 0.613058 24.915525
v -2.594794 0.560540 24.915525
v -1.342773 0.560540 24.915525
vn -0.0000 -0.0000 -1.0000
vn -0.0000 -1.0000 -0.0000
vn -0.0000 -0.0000 1.0000
vn -0.0000 1.0000 -0.0000
vn -1.0000 -0.0000 -0.0000
vn 1.0000 -0.0000 -0.0000
vt 0.375000 0.000000
vt 0.625000 0.000000
vt 0.625000 0.250000
vt 0.375000 0.250000
vt 0.625000 0.500000
vt 0.375000 0.500000
vt 0.625000 0.750000
vt 0.375000 0.750000
vt 0.625000 1.000000
vt 0.375000 1.000000
vt 0.125000 0.500000
vt 0.125000 0.750000
vt 0.875000 0.500000
vt 0.875000 0.750000
s 0
f 81/141/61 82/142/61 84/143/61 83/144/61
f 83/144/62 84/143/62 88/145/62 87/146/62
f 87/146/63 88/145/63 86/147/63 85/148/63
f 85/148/64 86/147/64 82/149/64 81/150/64
f 83/151/65 87/146/65 85/148/65 81/152/65
f 88/145/66 84/153/66 82/154/66 86/147/66
o Cube.274
v -1.386456 0.514380 24.926662
v -1.386456 0.514380 23.460003
v -1.386456 0.575903 24.926662
v -1.386456 0.575903 23.460003
v -1.297955 0.514380 24.926662
v -1.297955 0.514380 23.460003
v -1.297955 0.575903 24.926662
v -1.297955 0.575903 23.460003
vn -1.0000 -0.0000 -0.0000
vn -0.0000 1.0000 -0.0000
vn 1.0000 -0.0000 -0.0000
vn -0.0000 -1.0000 -0.0000
vn -0.0000 -0.0000 1.0000
vn -0.0000 -0.0000 -1.0000
vt 0.375000 0.000000
vt 0.625000 0.000000
vt 0.625000 0.250000
vt 0.375000 0.250000
vt 0.625000 0.500000
vt 0.375000 0.500000
vt 0.625000 0.750000
vt 0.375000 0.750000
vt 0.625000 1.000000
vt 0.375000 1.000000
vt 0.125000 0.500000
vt 0.125000 0.750000
vt 0.875000 0.500000
vt 0.875000 0.750000
s 0
f 89/155/67 91/158/67 92/157/67 90/156/67
f 91/158/68 95/160/68 96/159/68 92/157/68
f 95/160/69 93/162/69 94/161/69 96/159/69
f 93/162/70 89/164/70 90/163/70 94/161/70
f 91/165/71 89/166/71 93/162/71 95/160/71
f 96/159/72 94/161/72 90/168/72 92/167/72
o Cube.275
v -2.607957 0.547815 24.860210
v -2.607957 0.547815 23.393551
v -2.607957 0.609337 24.860210
v -2.607957 0.609337 23.393551
v -2.519456 0.547815 24.860210
v -2.519456 0.547815 23.393551
v -2.519456 0.609337 24.860210
v -2.519456 0.609337 23.393551
vn -1.0000 -0.0000 -0.0000
vn -0.0000 1.0000 -0.0000
vn 1.0000 -0.0000 -0.0000
vn -0.0000 -1.0000 -0.0000
vn -0.0000 -0.0000 1.0000
vn -0.0000 -0.0000 -1.0000
vt 0.375000 0.000000
vt 0.625000 0.000000
vt 0.625000 0.250000
vt 0.375000 0.250000
vt 0.625000 0.500000
vt 0.375000 0.500000
vt 0.625000 0.750000
vt 0.375000 0.750000
vt 0.625000 1.000000
vt 0.375000 1.000000
vt 0.125000 0.500000
vt 0.125000 0.750000
vt 0.875000 0.500000
vt 0.875000 0.750000
s 0
f 97/169/73 99/172/73 100/171/73 98/170/73
f 99/172/74 103/174/74 104/173/74 100/171/74
f 103/174/75 101/176/75 102/175/75 104/173/75
f 101/176/76 97/178/76 98/177/76 102/175/76
f 99/179/77 97/180/77 101/176/77 103/174/77
f 104/173/78 102/175/78 98/182/78 100/181/78
o Cube.276
v -2.620616 2.124133 23.681135
v -2.620616 0.052075 23.463352
v -2.620616 2.137274 23.556103
v -2.620616 0.065216 23.338320
v -2.494896 2.124133 23.681135
v -2.494896 0.052075 23.463352
v -2.494896 2.137274 23.556103
v -2.494896 0.065216 23.338320
vn -1.0000 -0.0000 -0.0000
vn -0.0000 0.1045 -0.9945
vn 1.0000 -0.0000 -0.0000
vn -0.0000 -0.1045 0.9945
vn -0.0000 0.9945 0.1045
vn -0.0000 -0.9945 -0.1045
vt 0.375000 0.000000
vt 0.625000 0.000000
vt 0.625000 0.250000
vt 0.375000 0.250000
vt 0.625000 0.500000
vt 0.375000 0.500000
vt 0.625000 0.750000
vt 0.375000 0.750000
vt 0.625000 1.000000
vt 0.375000 1.000000
vt 0.125000 0.500000
vt 0.125000 0.750000
vt 0.875000 0.500000
vt 0.875000 0.750000
s 0
f 105/183/79 107/186/79 108/185/79 106/184/79
f 107/186/80 111/188/80 112/187/80 108/185/80
f 111/188/81 109/190/81 110/189/81 112/187/81
f 109/190/82 105/192/82 106/191/82 110/189/82
f 107/193/83 105/194/83 109/190/83 111/188/83
f 112/187/84 110/189/84 106/196/84 108/195/84
o Cube.277
v -1.415362 2.124133 23.681135
v -1.415362 0.052075 23.463352
v -1.415362 2.137274 23.556103
v -1.415362 0.065216 23.338320
v -1.289641 2.124133 23.681135
v -1.289641 0.052075 23.463352
v -1.289641 2.137274 23.556103
v -1.289641 0.065216 23.338320
vn -1.0000 -0.0000 -0.0000
vn -0.0000 0.1045 -0.9945
vn 1.0000 -0.0000 -0.0000
vn -0.0000 -0.1045 0.9945
vn -0.0000 0.9945 0.1045
vn -0.0000 -0.9945 -0.1045
vt 0.375000 0.000000
vt 0.625000 0.000000
vt 0.625000 0.250000
vt 0.375000 0.250000
vt 0.625000 0.500000
vt 0.375000 0.500000
vt 0.625000 0.750000
vt 0.375000 0.750000
vt 0.625000 1.000000
vt 0.375000 1.000000
vt 0.125000 0.500000
vt 0.125000 0.750000
vt 0.875000 0.500000
vt 0.875000 0.750000
s 0
f 113/197/85 115/200/85 116/199/85 114/198/85
f 115/200/86 119/202/86 120/201/86 116/199/86
f 119/202/87 117/204/87 118/203/87 120/201/87
f 117/204/88 113/206/88 114/205/88 118/203/88
f 115/207/89 113/208/89 117/204/89 119/202/89
f 120/201/90 118/203/90 114/210/90 116/209/90
o Cube.278
v -1.415362 2.137274 24.764282
v -1.415362 0.065216 24.982065
v -1.415362 2.124133 24.639250
v -1.415362 0.052075 24.857033
v -1.289641 2.137274 24.764282
v -1.289641 0.065216 24.982065
v -1.289641 2.124133 24.639250
v -1.289641 0.052075 24.857033
vn -1.0000 -0.0000 -0.0000
vn -0.0000 -0.1045 -0.9945
vn 1.0000 -0.0000 -0.0000
vn -0.0000 0.1045 0.9945
vn -0.0000 0.9945 -0.1045
vn -0.0000 -0.9945 0.1045
vt 0.375000 0.000000
vt 0.625000 0.000000
vt 0.625000 0.250000
vt 0.375000 0.250000
vt 0.625000 0.500000
vt 0.375000 0.500000
vt 0.625000 0.750000
vt 0.375000 0.750000
vt 0.625000 1.000000
vt 0.375000 1.000000
vt 0.125000 0.500000
vt 0.125000 0.750000
vt 0.875000 0.500000
vt 0.875000 0.750000
s 0
f 121/211/91 123/214/91 124/213/91 122/212/91
f 123/214/92 127/216/92 128/215/92 124/213/92
f 127/216/93 125/218/93 126/217/93 128/215/93
f 125/218/94 121/220/94 122/219/94 126/217/94
f 123/221/95 121/222/95 125/218/95 127/216/95
f 128/215/96 126/217/96 122/224/96 124/223/96
o Cube.279
v -2.620615 2.137274 24.764282
v -2.620615 0.065216 24.982065
v -2.620615 2.124133 24.639250
v -2.620615 0.052075 24.857033
v -2.494895 2.137274 24.764282
v -2.494895 0.065216 24.982065
v -2.494895 2.124133 24.639250
v -2.494895 0.052075 24.857033
vn -1.0000 -0.0000 -0.0000
vn -0.0000 -0.1045 -0.9945
vn 1.0000 -0.0000 -0.0000
vn -0.0000 0.1045 0.9945
vn -0.0000 0.9945 -0.1045
vn -0.0000 -0.9945 0.1045
vt 0.375000 0.000000
vt 0.625000 0.000000
vt 0.625000 0.250000
vt 0.375000 0.250000
vt 0.625000 0.500000
vt 0.375000 0.500000
vt 0.625000 0.750000
vt 0.375000 0.750000
vt 0.625000 1.000000
vt 0.375000 1.000000
vt 0.125000 0.500000
vt 0.125000 0.750000
vt 0.875000 0.500000
vt 0.875000 0.750000
s 0
f 129/225/97 131/228/97 132/227/97 130/226/97
f 131/228/98 135/230/98 136/229/98 132/227/98
f 135/230/99 133/232/99 134/231/99 136/229/99
f 133/232/100 129/234/100 130/233/100 134/231/100
f 131/235/101 129/236/101 133/232/101 135/230/101
f 136/229/102 134/231/102 130/238/102 132/237/102
o Cube.280
v -1.069172 2.104665 23.278957
v -1.069172 2.147051 23.278957
v -1.069172 2.104665 25.064037
v -1.069172 2.147051 25.064037
v -2.854253 2.104665 23.278957
v -2.854253 2.147051 23.278957
v -2.854253 2.104665 25.064037
v -2.854253 2.147051 25.064037
vn -0.0000 -1.0000 -0.0000
vn -0.0000 -0.0000 1.0000
vn -1.0000 -0.0000 -0.0000
vn -0.0000 1.0000 -0.0000
vn 1.0000 -0.0000 -0.0000
vn -0.0000 -0.0000 -1.0000
vt 0.625000 0.500000
vt 0.875000 0.500000
vt 0.875000 0.750000
vt 0.625000 0.750000
vt 0.375000 0.750000
vt 0.625000 1.000000
vt 0.375000 1.000000
vt 0.375000 0.000000
vt 0.625000 0.000000
vt 0.625000 0.250000
vt 0.375000 0.250000
vt 0.125000 0.500000
vt 0.375000 0.500000
vt 0.125000 0.750000
s 0
usemtl Material.004
f 137/239/103 139/242/103 143/241/103 141/240/103
f 140/243/104 144/245/104 143/244/104 139/242/104
f 144/246/105 142/249/105 141/248/105 143/247/105
f 142/250/106 144/252/106 140/243/106 138/251/106
f 138/251/107 140/243/107 139/242/107 137/239/107
f 142/249/108 138/251/108 137/239/108 141/248/108
o Cube.281
v -7.664236 0.613059 23.431387
v -6.412215 0.613058 23.431387
v -7.664236 0.560540 23.431387
v -6.412215 0.560540 23.431387
v -7.664236 0.613059 23.506937
v -6.412215 0.613058 23.506937
v -7.664236 0.560540 23.506937
v -6.412215 0.560540 23.506937
vn -0.0000 -0.0000 -1.0000
vn -0.0000 -1.0000 -0.0000
vn -0.0000 -0.0000 1.0000
vn -0.0000 1.0000 -0.0000
vn -1.0000 -0.0000 -0.0000
vn 1.0000 -0.0000 -0.0000
vt 0.375000 0.000000
vt 0.625000 0.000000
vt 0.625000 0.250000
vt 0.375000 0.250000
vt 0.625000 0.500000
vt 0.375000 0.500000
vt 0.625000 0.750000
vt 0.375000 0.750000
vt 0.625000 1.000000
vt 0.375000 1.000000
vt 0.125000 0.500000
vt 0.125000 0.750000
vt 0.875000 0.500000
vt 0.875000 0.750000
s 0
f 145/253/109 146/254/109 148/255/109 147/256/109
f 147/256/110 148/255/110 152/257/110 151/258/110
f 151/258/111 152/257/111 150/259/111 149/260/111
f 149/260/112 150/259/112 146/261/112 145/262/112
f 147/263/113 151/258/113 149/260/113 145/264/113
f 152/257/114 148/265/114 146/266/114 150/259/114
o Cube.282
v -7.664236 0.613059 24.839975
v -6.412215 0.613058 24.839975
v -7.664236 0.560540 24.839975
v -6.412215 0.560540 24.839975
v -7.664236 0.613059 24.915525
v -6.412215 0.613058 24.915525
v -7.664236 0.560540 24.915525
v -6.412215 0.560540 24.915525
vn -0.0000 -0.0000 -1.0000
vn -0.0000 -1.0000 -0.0000
vn -0.0000 -0.0000 1.0000
vn -0.0000 1.0000 -0.0000
vn -1.0000 -0.0000 -0.0000
vn 1.0000 -0.0000 -0.0000
vt 0.375000 0.000000
vt 0.625000 0.000000
vt 0.625000 0.250000
vt 0.375000 0.250000
vt 0.625000 0.500000
vt 0.375000 0.500000
vt 0.625000 0.750000
vt 0.375000 0.750000
vt 0.625000 1.000000
vt 0.375000 1.000000
vt 0.125000 0.500000
vt 0.125000 0.750000
vt 0.875000 0.500000
vt 0.875000 0.750000
s 0
f 153/267/115 154/268/115 156/269/115 155/270/115
f 155/270/116 156/269/116 160/271/116 159/272/116
f 159/272/117 160/271/117 158/273/117 157/274/117
f 157/274/118 158/273/118 154/275/118 153/276/118
f 155/277/119 159/272/119 157/274/119 153/278/119
f 160/271/120 156/279/120 154/280/120 158/273/120
o Cube.283
v -6.455898 0.514380 24.926662
v -6.455898 0.514380 23.460003
v -6.455898 0.575903 24.926662
v -6.455898 0.575903 23.460003
v -6.367397 0.514380 24.926662
v -6.367397 0.514380 23.460003
v -6.367397 0.575903 24.926662
v -6.367397 0.575903 23.460003
vn -1.0000 -0.0000 -0.0000
vn -0.0000 1.0000 -0.0000
vn 1.0000 -0.0000 -0.0000
vn -0.0000 -1.0000 -0.0000
vn -0.0000 -0.0000 1.0000
vn -0.0000 -0.0000 -1.0000
vt 0.375000 0.000000
vt 0.625000 0.000000
vt 0.625000 0.250000
vt 0.375000 0.250000
vt 0.625000 0.500000
vt 0.375000 0.500000
vt 0.625000 0.750000
vt 0.375000 0.750000
vt 0.625000 1.000000
vt 0.375000 1.000000
vt 0.125000 0.500000
vt 0.125000 0.750000
vt 0.875000 0.500000
vt 0.875000 0.750000
s 0
f 161/281/121 163/284/121 164/283/121 162/282/121
f 163/284/122 167/286/122 168/285/122 164/283/122
f 167/286/123 165/288/123 166/287/123 168/285/123
f 165/288/124 161/290/124 162/289/124 166/287/124
f 163/291/125 161/292/125 165/288/125 167/286/125
f 168/285/126 166/287/126 162/294/126 164/293/126
o Cube.284
v -7.677399 0.547815 24.860210
v -7.677399 0.547815 23.393551
v -7.677399 0.609337 24.860210
v -7.677399 0.609337 23.393551
v -7.588898 0.547815 24.860210
v -7.588898 0.547815 23.393551
v -7.588898 0.609337 24.860210
v -7.588898 0.609337 23.393551
vn -1.0000 -0.0000 -0.0000
vn -0.0000 1.0000 -0.0000
vn 1.0000 -0.0000 -0.0000
vn -0.0000 -1.0000 -0.0000
vn -0.0000 -0.0000 1.0000
vn -0.0000 -0.0000 -1.0000
vt 0.375000 0.000000
vt 0.625000 0.000000
vt 0.625000 0.250000
vt 0.375000 0.250000
vt 0.625000 0.500000
vt 0.375000 0.500000
vt 0.625000 0.750000
vt 0.375000 0.750000
vt 0.625000 1.000000
vt 0.375000 1.000000
vt 0.125000 0.500000
vt 0.125000 0.750000
vt 0.875000 0.500000
vt 0.875000 0.750000
s 0
f 169/295/127 171/298/127 172/297/127 170/296/127
f 171/298/128 175/300/128 176/299/128 172/297/128
f 175/300/129 173/302/129 174/301/129 176/299/129
f 173/302/130 169/304/130 170/303/130 174/301/130
f 171/305/131 169/306/131 173/302/131 175/300/131
f 176/299/132 174/301/132 170/308/132 172/307/132
o Cube.285
v -7.690058 2.124133 23.681135
v -7.690058 0.052075 23.463352
v -7.690058 2.137274 23.556103
v -7.690058 0.065216 23.338320
v -7.564337 2.124133 23.681135
v -7.564337 0.052075 23.463352
v -7.564337 2.137274 23.556103
v -7.564337 0.065216 23.338320
vn -1.0000 -0.0000 -0.0000
vn -0.0000 0.1045 -0.9945
vn 1.0000 -0.0000 -0.0000
vn -0.0000 -0.1045 0.9945
vn -0.0000 0.9945 0.1045
vn -0.0000 -0.9945 -0.1045
vt 0.375000 0.000000
vt 0.625000 0.000000
vt 0.625000 0.250000
vt 0.375000 0.250000
vt 0.625000 0.500000
vt 0.375000 0.500000
vt 0.625000 0.750000
vt 0.375000 0.750000
vt 0.625000 1.000000
vt 0.375000 1.000000
vt 0.125000 0.500000
vt 0.125000 0.750000
vt 0.875000 0.500000
vt 0.875000 0.750000
s 0
f 177/309/133 179/312/133 180/311/133 178/310/133
f 179/312/134 183/314/134 184/313/134 180/311/134
f 183/314/135 181/316/135 182/315/135 184/313/135
f 181/316/136 177/318/136 178/317/136 182/315/136
f 179/319/137 177/320/137 181/316/137 183/314/137
f 184/313/138 182/315/138 178/322/138 180/321/138
o Cube.286
v -6.484804 2.124133 23.681135
v -6.484804 0.052075 23.463352
v -6.484804 2.137274 23.556103
v -6.484804 0.065216 23.338320
v -6.359083 2.124133 23.681135
v -6.359083 0.052075 23.463352
v -6.359083 2.137274 23.556103
v -6.359083 0.065216 23.338320
vn -1.0000 -0.0000 -0.0000
vn -0.0000 0.1045 -0.9945
vn 1.0000 -0.0000 -0.0000
vn -0.0000 -0.1045 0.9945
vn -0.0000 0.9945 0.1045
vn -0.0000 -0.9945 -0.1045
vt 0.375000 0.000000
vt 0.625000 0.000000
vt 0.625000 0.250000
vt 0.375000 0.250000
vt 0.625000 0.500000
vt 0.375000 0.500000
vt 0.625000 0.750000
vt 0.375000 0.750000
vt 0.625000 1.000000
vt 0.375000 1.000000
vt 0.125000 0.500000
vt 0.125000 0.750000
vt 0.875000 0.500000
vt 0.875000 0.750000
s 0
f 185/323/139 187/326/139 188/325/139 186/324/139
f 187/326/140 191/328/140 192/327/140 188/325/140
f 191/328/141 189/330/141 190/329/141 192/327/141
f 189/330/142 185/332/142 186/331/142 190/329/142
f 187/333/143 185/334/143 189/330/143 191/328/143
f 192/327/144 190/329/144 186/336/144 188/335/144
o Cube.287
v -6.484804 2.137274 24.764282
v -6.484804 0.065216 24.982065
v -6.484804 2.124133 24.639250
v -6.484804 0.052075 24.857033
v -6.359083 2.137274 24.764282
v -6.359083 0.065216 24.982065
v -6.359083 2.124133 24.639250
v -6.359083 0.052075 24.857033
vn -1.0000 -0.0000 -0.0000
vn -0.0000 -0.1045 -0.9945
vn 1.0000 -0.0000 -0.0000
vn -0.0000 0.1045 0.9945
vn -0.0000 0.9945 -0.1045
vn -0.0000 -0.9945 0.1045
vt 0.375000 0.000000
vt 0.625000 0.000000
vt 0.625000 0.250000
vt 0.375000 0.250000
vt 0.625000 0.500000
vt 0.375000 0.500000
vt 0.625000 0.750000
vt 0.375000 0.750000
vt 0.625000 1.000000
vt 0.375000 1.000000
vt 0.125000 0.500000
vt 0.125000 0.750000
vt 0.875000 0.500000
vt 0.875000 0.750000
s 0
f 193/337/145 195/340/145 196/339/145 194/338/145
f 195/340/146 199/342/146 200/341/146 196/339/146
f 199/342/147 197/344/147 198/343/147 200/341/147
f 197/344/148 193/346/148 194/345/148 198/343/148
f 195/347/149 193/348/149 197/344/149 199/342/149
f 200/341/150 198/343/150 194/350/150 196/349/150
o Cube.288
v -7.690058 2.137274 24.764282
v -7.690058 0.065216 24.982065
v -7.690058 2.124133 24.639250
v -7.690058 0.052075 24.857033
v -7.564337 2.137274 24.764282
v -7.564337 0.065216 24.982065
v -7.564337 2.124133 24.639250
v -7.564337 0.052075 24.857033
vn -1.0000 -0.0000 -0.0000
vn -0.0000 -0.1045 -0.9945
vn 1.0000 -0.0000 -0.0000
vn -0.0000 0.1045 0.9945
vn -0.0000 0.9945 -0.1045
vn -0.0000 -0.9945 0.1045
vt 0.375000 0.000000
vt 0.625000 0.000000
vt 0.625000 0.250000
vt 0.375000 0.250000
vt 0.625000 0.500000
vt 0.375000 0.500000
vt 0.625000 0.750000
vt 0.375000 0.750000
vt 0.625000 1.000000
vt 0.375000 1.000000
vt 0.125000 0.500000
vt 0.125000 0.750000
vt 0.875000 0.500000
vt 0.875000 0.750000
s 0
f 201/351/151 203/354/151 204/353/151 202/352/151
f 203/354/152 207/356/152 208/355/152 204/353/152
f 207/356/153 205/358/153 206/357/153 208/355/153
f 205/358/154 201/360/154 202/359/154 206/357/154
f 203/361/155 201/362/155 205/358/155 207/356/155
f 208/355/156 206/357/156 202/364/156 204/363/156
o Cube.289
v -6.138614 2.104665 23.278957
v -6.138614 2.147051 23.278957
v -6.138614 2.104665 25.064037
v -6.138614 2.147051 25.064037
v -7.923695 2.104665 23.278957
v -7.923695 2.147051 23.278957
v -7.923695 2.104665 25.064037
v -7.923695 2.147051 25.064037
vn -0.0000 -1.0000 -0.0000
vn -0.0000 -0.0000 1.0000
vn -1.0000 -0.0000 -0.0000
vn -0.0000 1.0000 -0.0000
vn 1.0000 -0.0000 -0.0000
vn -0.0000 -0.0000 -1.0000
vt 0.625000 0.500000
vt 0.875000 0.500000
vt 0.875000 0.750000
vt 0.625000 0.750000
vt 0.375000 0.750000
vt 0.625000 1.000000
vt 0.375000 1.000000
vt 0.375000 0.000000
vt 0.625000 0.000000
vt 0.625000 0.250000
vt 0.375000 0.250000
vt 0.125000 0.500000
vt 0.375000 0.500000
vt 0.125000 0.750000
s 0
usemtl Material.004
f 209/365/157 211/368/157 215/367/157 213/366/157
f 212/369/158 216/371/158 215/370/158 211/368/158
f 216/372/159 214/375/159 213/374/159 215/373/159
f 214/376/160 216/378/160 212/369/160 210/377/160
f 210/377/161 212/369/161 211/368/161 209/365/161
f 214/375/162 210/377/162 209/365/162 213/374/162
o Cube.290
v -12.805340 0.613059 23.431387
v -11.553318 0.613058 23.431387
v -12.805340 0.560540 23.431387
v -11.553318 0.560540 23.431387
v -12.805340 0.613059 23.506937
v -11.553318 0.613058 23.506937
v -12.805340 0.560540 23.506937
v -11.553318 0.560540 23.506937
vn -0.0000 -0.0000 -1.0000
vn -0.0000 -1.0000 -0.0000
vn -0.0000 -0.0000 1.0000
vn -0.0000 1.0000 -0.0000
vn -1.0000 -0.0000 -0.0000
vn 1.0000 -0.0000 -0.0000
vt 0.375000 0.000000
vt 0.625000 0.000000
vt 0.625000 0.250000
vt 0.375000 0.250000
vt 0.625000 0.500000
vt 0.375000 0.500000
vt 0.625000 0.750000
vt 0.375000 0.750000
vt 0.625000 1.000000
vt 0.375000 1.000000
vt 0.125000 0.500000
vt 0.125000 0.750000
vt 0.875000 0.500000
vt 0.875000 0.750000
s 0
f 217/379/163 218/380/163 220/381/163 219/382/163
f 219/382/164 220/381/164 224/383/164 223/384/164
f 223/384/165 224/383/165 222/385/165 221/386/165
f 221/386/166 222/385/166 218/387/166 217/388/166
f 219/389/167 223/384/167 221/386/167 217/390/167
f 224/383/168 220/391/168 218/392/168 222/385/168
o Cube.291
v -12.805340 0.613059 24.839975
v -11.553318 0.613058 24.839975
v -12.805340 0.560540 24.839975
v -11.553318 0.560540 24.839975
v -12.805340 0.613059 24.915525
v -11.553318 0.613058 24.915525
v -12.805340 0.560540 24.915525
v -11.553318 0.560540 24.915525
vn -0.0000 -0.0000 -1.0000
vn -0.0000 -1.0000 -0.0000
vn -0.0000 -0.0000 1.0000
vn -0.0000 1.0000 -0.0000
vn -1.0000 -0.0000 -0.0000
vn 1.0000 -0.0000 -0.0000
vt 0.375000 0.000000
vt 0.625000 0.000000
vt 0.625000 0.250000
vt 0.375000 0.250000
vt 0.625000 0.500000
vt 0.375000 0.500000
vt 0.625000 0.750000
vt 0.375000 0.750000
vt 0.625000 1.000000
vt 0.375000 1.000000
vt 0.125000 0.500000
vt 0.125000 0.750000
vt 0.875000 0.500000
vt 0.875000 0.750000
s 0
f 225/393/169 226/394/169 228/395/169 227/396/169
f 227/396/170 228/395/170 232/397/170 231/398/170
f 231/398/171 232/397/171 230/399/171 229/400/171
f 229/400/172 230/399/172 226/401/172 225/402/172
f 227/403/173 231/398/173 229/400/173 225/404/173
f 232/397/174 228/405/174 226/406/174 230/399/174
o Cube.292
v -11.597002 0.514380 24.926662
v -11.597002 0.514380 23.460003
v -11.597002 0.575903 24.926662
v -11.597002 0.575903 23.460003
v -11.508501 0.514380 24.926662
v -11.508501 0.514380 23.460003
v -11.508501 0.575903 24.926662
v -11.508501 0.575903 23.460003
vn -1.0000 -0.0000 -0.0000
vn -0.0000 1.0000 -0.0000
vn 1.0000 -0.0000 -0.0000
vn -0.0000 -1.0000 -0.0000
vn -0.0000 -0.0000 1.0000
vn -0.0000 -0.0000 -1.0000
vt 0.375000 0.000000
vt 0.625000 0.000000
vt 0.625000 0.250000
vt 0.375000 0.250000
vt 0.625000 0.500000
vt 0.375000 0.500000
vt 0.625000 0.750000
vt 0.375000 0.750000
vt 0.625000 1.000000
vt 0.375000 1.000000
vt 0.125000 0.500000
vt 0.125000 0.750000
vt 0.875000 0.500000
vt 0.875000 0.750000
s 0
f 233/407/175 235/410/175 236/409/175 234/408/175
f 235/410/176 239/412/176 240/411/176 236/409/176
f 239/412/177 237/414/177 238/413/177 240/411/177
f 237/414/178 233/416/178 234/415/178 238/413/178
f 235/417/179 233/418/179 237/414/179 239/412/179
f 240/411/180 238/413/180 234/420/180 236/419/180
o Cube.293
v -12.818502 0.547815 24.860210
v -12.818502 0.547815 23.393551
v -12.818502 0.609337 24.860210
v -12.818502 0.609337 23.393551
v -12.730001 0.547815 24.860210
v -12.730001 0.547815 23.393551
v -12.730001 0.609337 24.860210
v -12.730001 0.609337 23.393551
vn -1.0000 -0.0000 -0.0000
vn -0.0000 1.0000 -0.0000
vn 1.0000 -0.0000 -0.0000
vn -0.0000 -1.0000 -0.0000
vn -0.0000 -0.0000 1.0000
vn -0.0000 -0.0000 -1.0000
vt 0.375000 0.000000
vt 0.625000 0.000000
vt 0.625000 0.250000
vt 0.375000 0.250000
vt 0.625000 0.500000
vt 0.375000 0.500000
vt 0.625000 0.750000
vt 0.375000 0.750000
vt 0.625000 1.000000
vt 0.375000 1.000000
vt 0.125000 0.500000
vt 0.125000 0.750000
vt 0.875000 0.500000
vt 0.875000 0.750000
s 0
f 241/421/181 243/424/181 244/423/181 242/422/181
f 243/424/182 247/426/182 248/425/182 244/423/182
f 247/426/183 245/428/183 246/427/183 248/425/183
f 245/428/184 241/430/184 242/429/184 246/427/184
f 243/431/185 241/432/185 245/428/185 247/426/185
f 248/425/186 246/427/186 242/434/186 244/433/186
o Cube.294
v -12.831162 2.124133 23.681135
v -12.831162 0.052075 23.463352
v -12.831162 2.137274 23.556103
v -12.831162 0.065216 23.338320
v -12.705441 2.124133 23.681135
v -12.705441 0.052075 23.463352
v -12.705441 2.137274 23.556103
v -12.705441 0.065216 23.338320
vn -1.0000 -0.0000 -0.0000
vn -0.0000 0.1045 -0.9945
vn 1.0000 -0.0000 -0.0000
vn -0.0000 -0.1045 0.9945
vn -0.0000 0.9945 0.1045
vn -0.0000 -0.9945 -0.1045
vt 0.375000 0.000000
vt 0.625000 0.000000
vt 0.625000 0.250000
vt 0.375000 0.250000
vt 0.625000 0.500000
vt 0.375000 0.500000
vt 0.625000 0.750000
vt 0.375000 0.750000
vt 0.625000 1.000000
vt 0.375000 1.000000
vt 0.125000 0.500000
vt 0.125000 0.750000
vt 0.875000 0.500000
vt 0.875000 0.750000
s 0
f 249/435/187 251/438/187 252/437/187 250/436/187
f 251/438/188 255/440/188 256/439/188 252/437/188
f 255/440/189 253/442/189 254/441/189 256/439/189
f 253/442/190 249/444/190 250/443/190 254/441/190
f 251/445/191 249/446/191 253/442/191 255/440/191
f 256/439/192 254/441/192 250/448/192 252/447/192
o Cube.295
v -11.625908 2.124133 23.681135
v -11.625908 0.052075 23.463352
v -11.625908 2.137274 23.556103
v -11.625908 0.065216 23.338320
v -11.500187 2.124133 23.681135
v -11.500187 0.052075 23.463352
v -11.500187 2.137274 23.556103
v -11.500187 0.065216 23.338320
vn -1.0000 -0.0000 -0.0000
vn -0.0000 0.1045 -0.9945
vn 1.0000 -0.0000 -0.0000
vn -0.0000 -0.1045 0.9945
vn -0.0000 0.9945 0.1045
vn -0.0000 -0.9945 -0.1045
vt 0.375000 0.000000
vt 0.625000 0.000000
vt 0.625000 0.250000
vt 0.375000 0.250000
vt 0.625000 0.500000
vt 0.375000 0.500000
vt 0.625000 0.750000
vt 0.375000 0.750000
vt 0.625000 1.000000
vt 0.375000 1.000000
vt 0.125000 0.500000
vt 0.125000 0.750000
vt 0.875000 0.500000
vt 0.875000 0.750000
s 0
f 257/449/193 259/452/193 260/451/193 258/450/193
f 259/452/194 263/454/194 264/453/194 260/451/194
f 263/454/195 261/456/195 262/455/195 264/453/195
f 261/456/196 257/458/196 258/457/196 262/455/196
f 259/459/197 257/460/197 261/456/197 263/454/197
f 264/453/198 262/455/198 258/462/198 260/461/198
o Cube.296
v -11.625908 2.137274 24.764282
v -11.625908 0.065216 24.982065
v -11.625908 2.124133 24.639250
v -11.625908 0.052075 24.857033
v -11.500187 2.137274 24.764282
v -11.500187 0.065216 24.982065
v -11.500187 2.124133 24.639250
v -11.500187 0.052075 24.857033
vn -1.0000 -0.0000 -0.0000
vn -0.0000 -0.1045 -0.9945
vn 1.0000 -0.0000 -0.0000
vn -0.0000 0.1045 0.9945
vn -0.0000 0.9945 -0.1045
vn -0.0000 -0.9945 0.1045
vt 0.375000 0.000000
vt 0.625000 0.000000
vt 0.625000 0.250000
vt 0.375000 0.250000
vt 0.625000 0.500000
vt 0.375000 0.500000
vt 0.625000 0.750000
vt 0.375000 0.750000
vt 0.625000 1.000000
vt 0.375000 1.000000
vt 0.125000 0.500000
vt 0.125000 0.750000
vt 0.875000 0.500000
vt 0.875000 0.750000
s 0
f 265/463/199 267/466/199 268/465/199 266/464/199
f 267/466/200 271/468/200 272/467/200 268/465/200
f 271/468/201 269/470/201 270/469/201 272/467/201
f 269/470/202 265/472/202 266/471/202 270/469/202
f 267/473/203 265/474/203 269/470/203 271/468/203
f 272/467/204 270/469/204 266/476/204 268/475/204
o Cube.297
v -12.831161 2.137274 24.764282
v -12.831161 0.065216 24.982065
v -12.831161 2.124133 24.639250
v -12.831161 0.052075 24.857033
v -12.705441 2.137274 24.764282
v -12.705441 0.065216 24.982065
v -12.705441 2.124133 24.639250
v -12.705441 0.052075 24.857033
vn -1.0000 -0.0000 -0.0000
vn -0.0000 -0.1045 -0.9945
vn 1.0000 -0.0000 -0.0000
vn -0.0000 0.1045 0.9945
vn -0.0000 0.9945 -0.1045
vn -0.0000 -0.9945 0.1045
vt 0.375000 0.000000
vt 0.625000 0.000000
vt 0.625000 0.250000
vt 0.375000 0.250000
vt 0.625000 0.500000
vt 0.375000 0.500000
vt 0.625000 0.750000
vt 0.375000 0.750000
vt 0.625000 1.000000
vt 0.375000 1.000000
vt 0.125000 0.500000
vt 0.125000 0.750000
vt 0.875000 0.500000
vt 0.875000 0.750000
s 0
f 273/477/205 275/480/205 276/479/205 274/478/205
f 275/480/206 279/482/206 280/481/206 276/479/206
f 279/482/207 277/484/207 278/483/207 280/481/207
f 277/484/208 273/486/208 274/485/208 278/483/208
f 275/487/209 273/488/209 277/484/209 279/482/209
f 280/481/210 278/483/210 274/490/210 276/489/210
o Cube.298
v -11.279717 2.104665 23.278957
v -11.279717 2.147051 23.278957
v -11.279717 2.104665 25.064037
v -11.279717 2.147051 25.064037
v -13.064799 2.104665 23.278957
v -13.064799 2.147051 23.278957
v -13.064799 2.104665 25.064037
v -13.064799 2.147051 25.064037
vn -0.0000 -1.0000 -0.0000
vn -0.0000 -0.0000 1.0000
vn -1.0000 -0.0000 -0.0000
vn -0.0000 1.0000 -0.0000
vn 1.0000 -0.0000 -0.0000
vn -0.0000 -0.0000 -1.0000
vt 0.625000 0.500000
vt 0.875000 0.500000
vt 0.875000 0.750000
vt 0.625000 0.750000
vt 0.375000 0.750000
vt 0.625000 1.000000
vt 0.375000 1.000000
vt 0.375000 0.000000
vt 0.625000 0.000000
vt 0.625000 0.250000
vt 0.375000 0.250000
vt 0.125000 0.500000
vt 0.375000 0.500000
vt 0.125000 0.750000
s 0
usemtl Material.004
f 281/491/211 283/494/211 287/493/211 285/492/211
f 284/495/212 288/497/212 287/496/212 283/494/212
f 288/498/213 286/501/213 285/500/213 287/499/213
f 286/502/214 288/504/214 284/495/214 282/503/214
f 282/503/215 284/495/215 283/494/215 281/491/215
f 286/501/216 282/503/216 281/491/216 285/500/216
o Cube.299
v -12.805340 0.613059 26.673185
v -11.553318 0.613058 26.673185
v -12.805340 0.560540 26.673185
v -11.553318 0.560540 26.673185
v -12.805340 0.613059 26.748735
v -11.553318 0.613058 26.748735
v -12.805340 0.560540 26.748735
v -11.553318 0.560540 26.748735
vn -0.0000 -0.0000 -1.0000
vn -0.0000 -1.0000 -0.0000
vn -0.0000 -0.0000 1.0000
vn -0.0000 1.0000 -0.0000
vn -1.0000 -0.0000 -0.0000
vn 1.0000 -0.0000 -0.0000
vt 0.375000 0.000000
vt 0.625000 0.000000
vt 0.625000 0.250000
vt 0.375000 0.250000
vt 0.625000 0.500000
vt 0.375000 0.500000
vt 0.625000 0.750000
vt 0.375000 0.750000
vt 0.625000 1.000000
vt 0.375000 1.000000
vt 0.125000 0.500000
vt 0.125000 0.750000
vt 0.875000 0.500000
vt 0.875000 0.750000
s 0
f 289/505/217 290/506/217 292/507/217 291/508/217
f 291/508/218 292/507/218 296/509/218 295/510/218
f 295/510/219 296/509/219 294/511/219 293/512/219
f 293/512/220 294/511/220 290/513/220 289/514/220
f 291/515/221 295/510/221 293/512/221 289/516/221
f 296/509/222 292/517/222 290/518/222 294/511/222
o Cube.300
v -12.805340 0.613059 28.081774
v -11.553318 0.613058 28.081774
v -12.805340 0.560540 28.081774
v -11.553318 0.560540 28.081774
v -12.805340 0.613059 28.157324
v -11.553318 0.613058 28.157324
v -12.805340 0.560540 28.157324
v -11.553318 0.560540 28.157324
vn -0.0000 -0.0000 -1.0000
vn -0.0000 -1.0000 -0.0000
vn -0.0000 -0.0000 1.0000
vn -0.0000 1.0000 -0.0000
vn -1.0000 -0.0000 -0.0000
vn 1.0000 -0.0000 -0.0000
vt 0.375000 0.000000
vt 0.625000 0.000000
vt 0.625000 0.250000
vt 0.375000 0.250000
vt 0.625000 0.500000
vt 0.375000 0.500000
vt 0.625000 0.750000
vt 0.375000 0.750000
vt 0.625000 1.000000
vt 0.375000 1.000000
vt 0.125000 0.500000
vt 0.125000 0.750000
vt 0.875000 0.500000
vt 0.875000 0.750000
s 0
f 297/519/223 298/520/223 300/521/223 299/522/223
f 299/522/224 300/521/224 304/523/224 303/524/224
f 303/524/225 304/523/225 302/525/225 301/526/225
f 301/526/226 302/525/226 298/527/226 297/528/226
f 299/529/227 303/524/227 301/526/227 297/530/227
f 304/523/228 300/531/228 298/532/228 302/525/228
o Cube.301
v -11.597002 0.514380 28.168461
v -11.597002 0.514380 26.701801
v -11.597002 0.575903 28.168461
v -11.597002 0.575903 26.701801
v -11.508501 0.514380 28.168461
v -11.508501 0.514380 26.701801
v -11.508501 0.575903 28.168461
v -11.508501 0.575903 26.701801
vn -1.0000 -0.0000 -0.0000
vn -0.0000 1.0000 -0.0000
vn 1.0000 -0.0000 -0.0000
vn -0.0000 -1.0000 -0.0000
vn -0.0000 -0.0000 1.0000
vn -0.0000 -0.0000 -1.0000
vt 0.375000 0.000000
vt 0.625000 0.000000
vt 0.625000 0.250000
vt 0.375000 0.250000
vt 0.625000 0.500000
vt 0.375000 0.500000
vt 0.625000 0.750000
vt 0.375000 0.750000
vt 0.625000 1.000000
vt 0.375000 1.000000
vt 0.125000 0.500000
vt 0.125000 0.750000
vt 0.875000 0.500000
vt 0.875000 0.750000
s 0
f 305/533/229 307/536/229 308/535/229 306/534/229
f 307/536/230 311/538/230 312/537/230 308/535/230
f 311/538/231 309/540/231 310/539/231 312/537/231
f 309/540/232 305/542/232 306/541/232 310/539/232
f 307/543/233 305/544/233 309/540/233 311/538/233
f 312/537/234 310/539/234 306/546/234 308/545/234
o Cube.302
v -12.818502 0.547815 28.102009
v -12.818502 0.547815 26.635349
v -12.818502 0.609337 28.102009
v -12.818502 0.609337 26.635349
v -12.730001 0.547815 28.102009
v -12.730001 0.547815 26.635349
v -12.730001 0.609337 28.102009
v -12.730001 0.609337 26.635349
vn -1.0000 -0.0000 -0.0000
vn -0.0000 1.0000 -0.0000
vn 1.0000 -0.0000 -0.0000
vn -0.0000 -1.0000 -0.0000
vn -0.0000 -0.0000 1.0000
vn -0.0000 -0.0000 -1.0000
vt 0.375000 0.000000
vt 0.625000 0.000000
vt 0.625000 0.250000
vt 0.375000 0.250000
vt 0.625000 0.500000
vt 0.375000 0.500000
vt 0.625000 0.750000
vt 0.375000 0.750000
vt 0.625000 1.000000
vt 0.375000 1.000000
vt 0.125000 0.500000
vt 0.125000 0.750000
vt 0.875000 0.500000
vt 0.875000 0.750000
s 0
f 313/547/235 315/550/235 316/549/235 314/548/235
f 315/550/236 319/552/236 320/551/236 316/549/236
f 319/552/237 317/554/237 318/553/237 320/551/237
f 317/554/238 313/556/238 314/555/238 318/553/238
f 315/557/239 313/558/239 317/554/239 319/552/239
f 320/551/240 318/553/240 314/560/240 316/559/240
o Cube.303
v -12.831162 2.124133 26.922934
v -12.831162 0.052075 26.705151
v -12.831162 2.137274 26.797901
v -12.831162 0.065216 26.580118
v -12.705441 2.124133 26.922934
v -12.705441 0.052075 26.705151
v -12.705441 2.137274 26.797901
v -12.705441 0.065216 26.580118
vn -1.0000 -0.0000 -0.0000
vn -0.0000 0.1045 -0.9945
vn 1.0000 -0.0000 -0.0000
vn -0.0000 -0.1045 0.9945
vn -0.0000 0.9945 0.1045
vn -0.0000 -0.9945 -0.1045
vt 0.375000 0.000000
vt 0.625000 0.000000
vt 0.625000 0.250000
vt 0.375000 0.250000
vt 0.625000 0.500000
vt 0.375000 0.500000
vt 0.625000 0.750000
vt 0.375000 0.750000
vt 0.625000 1.000000
vt 0.375000 1.000000
vt 0.125000 0.500000
vt 0.125000 0.750000
vt 0.875000 0.500000
vt 0.875000 0.750000
s 0
f 321/561/241 323/564/241 324/563/241 322/562/241
f 323/564/242 327/566/242 328/565/242 324/563/242
f 327/566/243 325/568/243 326/567/243 328/565/243
f 325/568/244 321/570/244 322/569/244 326/567/244
f 323/571/245 321/572/245 325/568/245 327/566/245
f 328/565/246 326/567/246 322/574/246 324/573/246
o Cube.304
v -11.625908 2.124133 26.922934
v -11.625908 0.052075 26.705151
v -11.625908 2.137274 26.797901
v -11.625908 0.065216 26.580118
v -11.500187 2.124133 26.922934
v -11.500187 0.052075 26.705151
v -11.500187 2.137274 26.797901
v -11.500187 0.065216 26.580118
vn -1.0000 -0.0000 -0.0000
vn -0.0000 0.1045 -0.9945
vn 1.0000 -0.0000 -0.0000
vn -0.0000 -0.1045 0.9945
vn -0.0000 0.9945 0.1045
vn -0.0000 -0.9945 -0.1045
vt 0.375000 0.000000
vt 0.625000 0.000000
vt 0.625000 0.250000
vt 0.375000 0.250000
vt 0.625000 0.500000
vt 0.375000 0.500000
vt 0.625000 0.750000
vt 0.375000 0.750000
vt 0.625000 1.000000
vt 0.375000 1.000000
vt 0.125000 0.500000
vt 0.125000 0.750000
vt 0.875000 0.500000
vt 0.875000 0.750000
s 0
f 329/575/247 331/578/247 332/577/247 330/576/247
f 331/578/248 335/580/248 336/579/248 332/577/248
f 335/580/249 333/582/249 334/581/249 336/579/249
f 333/582/250 329/584/250 330/583/250 334/581/250
f 331/585/251 329/586/251 333/582/251 335/580/251
f 336/579/252 334/581/252 330/588/252 332/587/252
o Cube.305
v -11.625908 2.137274 28.006081
v -11.625908 0.065216 28.223864
v -11.625908 2.124133 27.881048
v -11.625908 0.052075 28.098831
v -11.500187 2.137274 28.006081
v -11.500187 0.065216 28.223864
v -11.500187 2.124133 27.881048
v -11.500187 0.052075 28.098831
vn -1.0000 -0.0000 -0.0000
vn -0.0000 -0.1045 -0.9945
vn 1.0000 -0.0000 -0.0000
vn -0.0000 0.1045 0.9945
vn -0.0000 0.9945 -0.1045
vn -0.0000 -0.9945 0.1045
vt 0.375000 0.000000
vt 0.625000 0.000000
vt 0.625000 0.250000
vt 0.375000 0.250000
vt 0.625000 0.500000
vt 0.375000 0.500000
vt 0.625000 0.750000
vt 0.375000 0.750000
vt 0.625000 1.000000
vt 0.375000 1.000000
vt 0.125000 0.500000
vt 0.125000 0.750000
vt 0.875000 0.500000
vt 0.875000 0.750000
s 0
f 337/589/253 339/592/253 340/591/253 338/590/253
f 339/592/254 343/594/254 344/593/254 340/591/254
f 343/594/255 341/596/255 342/595/255 344/593/255
f 341/596/256 337/598/256 338/597/256 342/595/256
f 339/599/257 337/600/257 341/596/257 343/594/257
f 344/593/258 342/595/258 338/602/258 340/601/258
o Cube.306
v -12.831161 2.137274 28.006081
v -12.831161 0.065216 28.223864
v -12.831161 2.124133 27.881048
v -12.831161 0.052075 28.098831
v -12.705441 2.137274 28.006081
v -12.705441 0.065216 28.223864
v -12.705441 2.124133 27.881048
v -12.705441 0.052075 28.098831
vn -1.0000 -0.0000 -0.0000
vn -0.0000 -0.1045 -0.9945
vn 1.0000 -0.0000 -0.0000
vn -0.0000 0.1045 0.9945
vn -0.0000 0.9945 -0.1045
vn -0.0000 -0.9945 0.1045
vt 0.375000 0.000000
vt 0.625000 0.000000
vt 0.625000 0.250000
vt 0.375000 0.250000
vt 0.625000 0.500000
vt 0.375000 0.500000
vt 0.625000 0.750000
vt 0.375000 0.750000
vt 0.625000 1.000000
vt 0.375000 1.000000
vt 0.125000 0.500000
vt 0.125000 0.750000
vt 0.875000 0.500000
vt 0.875000 0.750000
s 0
f 345/603/259 347/606/259 348/605/259 346/604/259
f 347/606/260 351/608/260 352/607/260 348/605/260
f 351/608/261 349/610/261 350/609/261 352/607/261
f 349/610/262 345/612/262 346/611/262 350/609/262
f 347/613/263 345/614/263 349/610/263 351/608/263
f 352/607/264 350/609/264 346/616/264 348/615/264
o Cube.307
v -11.279717 2.104665 26.520756
v -11.279717 2.147051 26.520756
v -11.279717 2.104665 28.305836
v -11.279717 2.147051 28.305836
v -13.064799 2.104665 26.520756
v -13.064799 2.147051 26.520756
v -13.064799 2.104665 28.305836
v -13.064799 2.147051 28.305836
vn -0.0000 -1.0000 -0.0000
vn -0.0000 -0.0000 1.0000
vn -1.0000 -0.0000 -0.0000
vn -0.0000 1.0000 -0.0000
vn 1.0000 -0.0000 -0.0000
vn -0.0000 -0.0000 -1.0000
vt 0.625000 0.500000
vt 0.875000 0.500000
vt 0.875000 0.750000
vt 0.625000 0.750000
vt 0.375000 0.750000
vt 0.625000 1.000000
vt 0.375000 1.000000
vt 0.375000 0.000000
vt 0.625000 0.000000
vt 0.625000 0.250000
vt 0.375000 0.250000
vt 0.125000 0.500000
vt 0.375000 0.500000
vt 0.125000 0.750000
s 0
usemtl Material.004
f 353/617/265 355/620/265 359/619/265 357/618/265
f 356/621/266 360/623/266 359/622/266 355/620/266
f 360/624/267 358/627/267 357/626/267 359/625/267
f 358/628/268 360/630/268 356/621/268 354/629/268
f 354/629/269 356/621/269 355/620/269 353/617/269
f 358/627/270 354/629/270 353/617/270 357/626/270
o Cube.308
v -7.642453 0.613059 26.673185
v -6.390432 0.613058 26.673185
v -7.642453 0.560540 26.673185
v -6.390432 0.560540 26.673185
v -7.642453 0.613059 26.748735
v -6.390432 0.613058 26.748735
v -7.642453 0.560540 26.748735
v -6.390432 0.560540 26.748735
vn -0.0000 -0.0000 -1.0000
vn -0.0000 -1.0000 -0.0000
vn -0.0000 -0.0000 1.0000
vn -0.0000 1.0000 -0.0000
vn -1.0000 -0.0000 -0.0000
vn 1.0000 -0.0000 -0.0000
vt 0.375000 0.000000
vt 0.625000 0.000000
vt 0.625000 0.250000
vt 0.375000 0.250000
vt 0.625000 0.500000
vt 0.375000 0.500000
vt 0.625000 0.750000
vt 0.375000 0.750000
vt 0.625000 1.000000
vt 0.375000 1.000000
vt 0.125000 0.500000
vt 0.125000 0.750000
vt 0.875000 0.500000
vt 0.875000 0.750000
s 0
f 361/631/271 362/632/271 364/633/271 363/634/271
f 363/634/272 364/633/272 368/635/272 367/636/272
f 367/636/273 368/635/273 366/637/273 365/638/273
f 365/638/274 366/637/274 362/639/274 361/640/274
f 363/641/275 367/636/275 365/638/275 361/642/275
f 368/635/276 364/643/276 362/644/276 366/637/276
o Cube.309
v -7.642453 0.613059 28.081774
v -6.390432 0.613058 28.081774
v -7.642453 0.560540 28.081774
v -6.390432 0.560540 28.081774
v -7.642453 0.613059 28.157324
v -6.390432 0.613058 28.157324
v -7.642453 0.560540 28.157324
v -6.390432 0.560540 28.157324
vn -0.0000 -0.0000 -1.0000
vn -0.0000 -1.0000 -0.0000
vn -0.0000 -0.0000 1.0000
vn -0.0000 1.0000 -0.0000
vn -1.0000 -0.0000 -0.0000
vn 1.0000 -0.0000 -0.0000
vt 0.375000 0.000000
vt 0.625000 0.000000
vt 0.625000 0.250000
vt 0.375000 0.250000
vt 0.625000 0.500000
vt 0.375000 0.500000
vt 0.625000 0.750000
vt 0.375000 0.750000
vt 0.625000 1.000000
vt 0.375000 1.000000
vt 0.125000 0.500000
vt 0.125000 0.750000
vt 0.875000 0.500000
vt 0.875000 0.750000
s 0
f 369/645/277 370/646/277 372/647/277 371/648/277
f 371/648/278 372/647/278 376/649/278 375/650/278
f 375/650/279 376/649/279 374/651/279 373/652/279
f 373/652/280 374/651/280 370/653/280 369/654/280
f 371/655/281 375/650/281 373/652/281 369/656/281
f 376/649/282 372/657/282 370/658/282 374/651/282
o Cube.310
v -6.434116 0.514380 28.168461
v -6.434116 0.514380 26.701801
v -6.434116 0.575903 28.168461
v -6.434116 0.575903 26.701801
v -6.345615 0.514380 28.168461
v -6.345615 0.514380 26.701801
v -6.345615 0.575903 28.168461
v -6.345615 0.575903 26.701801
vn -1.0000 -0.0000 -0.0000
vn -0.0000 1.0000 -0.0000
vn 1.0000 -0.0000 -0.0000
vn -0.0000 -1.0000 -0.0000
vn -0.0000 -0.0000 1.0000
vn -0.0000 -0.0000 -1.0000
vt 0.375000 0.000000
vt 0.625000 0.000000
vt 0.625000 0.250000
vt 0.375000 0.250000
vt 0.625000 0.500000
vt 0.375000 0.500000
vt 0.625000 0.750000
vt 0.375000 0.750000
vt 0.625000 1.000000
vt 0.375000 1.000000
vt 0.125000 0.500000
vt 0.125000 0.750000
vt 0.875000 0.500000
vt 0.875000 0.750000
s 0
f 377/659/283 379/662/283 380/661/283 378/660/283
f 379/662/284 383/664/284 384/663/284 380/661/284
f 383/664/285 381/666/285 382/665/285 384/663/285
f 381/666/286 377/668/286 378/667/286 382/665/286
f 379/669/287 377/670/287 381/666/287 383/664/287
f 384/663/288 382/665/288 378/672/288 380/671/288
o Cube.311
v -7.655616 0.547815 28.102009
v -7.655616 0.547815 26.635349
v -7.655616 0.609337 28.102009
v -7.655616 0.609337 26.635349
v -7.567115 0.547815 28.102009
v -7.567115 0.547815 26.635349
v -7.567115 0.609337 28.102009
v -7.567115 0.609337 26.635349
vn -1.0000 -0.0000 -0.0000
vn -0.0000 1.0000 -0.0000
vn 1.0000 -0.0000 -0.0000
vn -0.0000 -1.0000 -0.0000
vn -0.0000 -0.0000 1.0000
vn -0.0000 -0.0000 -1.0000
vt 0.375000 0.000000
vt 0.625000 0.000000
vt 0.625000 0.250000
vt 0.375000 0.250000
vt 0.625000 0.500000
vt 0.375000 0.500000
vt 0.625000 0.750000
vt 0.375000 0.750000
vt 0.625000 1.000000
vt 0.375000 1.000000
vt 0.125000 0.500000
vt 0.125000 0.750000
vt 0.875000 0.500000
vt 0.875000 0.750000
s 0
f 385/673/289 387/676/289 388/675/289 386/674/289
f 387/676/290 391/678/290 392/677/290 388/675/290
f 391/678/291 389/680/291 390/679/291 392/677/291
f 389/680/292 385/682/292 386/681/292 390/679/292
f 387/683/293 385/684/293 389/680/293 391/678/293
f 392/677/294 390/679/294 386/686/294 388/685/294
o Cube.312
v -7.668276 2.124133 26.922934
v -7.668276 0.052075 26.705151
v -7.668276 2.137274 26.797901
v -7.668276 0.065216 26.580118
v -7.542555 2.124133 26.922934
v -7.542555 0.052075 26.705151
v -7.542555 2.137274 26.797901
v -7.542555 0.065216 26.580118
vn -1.0000 -0.0000 -0.0000
vn -0.0000 0.1045 -0.9945
vn 1.0000 -0.0000 -0.0000
vn -0.0000 -0.1045 0.9945
vn -0.0000 0.9945 0.1045
vn -0.0000 -0.9945 -0.1045
vt 0.375000 0.000000
vt 0.625000 0.000000
vt 0.625000 0.250000
vt 0.375000 0.250000
vt 0.625000 0.500000
vt 0.375000 0.500000
vt 0.625000 0.750000
vt 0.375000 0.750000
vt 0.625000 1.000000
vt 0.375000 1.000000
vt 0.125000 0.500000
vt 0.125000 0.750000
vt 0.875000 0.500000
vt 0.875000 0.750000
s 0
f 393/687/295 395/690/295 396/689/295 394/688/295
f 395/690/296 399/692/296 400/691/296 396/689/296
f 399/692/297 397/694/297 398/693/297 400/691/297
f 397/694/298 393/696/298 394/695/298 398/693/298
f 395/697/299 393/698/299 397/694/299 399/692/299
f 400/691/300 398/693/300 394/700/300 396/699/300
o Cube.313
v -6.463022 2.124133 26.922934
v -6.463022 0.052075 26.705151
v -6.463022 2.137274 26.797901
v -6.463022 0.065216 26.580118
v -6.337301 2.124133 26.922934
v -6.337301 0.052075 26.705151
v -6.337301 2.137274 26.797901
v -6.337301 0.065216 26.580118
vn -1.0000 -0.0000 -0.0000
vn -0.0000 0.1045 -0.9945
vn 1.0000 -0.0000 -0.0000
vn -0.0000 -0.1045 0.9945
vn -0.0000 0.9945 0.1045
vn -0.0000 -0.9945 -0.1045
vt 0.375000 0.000000
vt 0.625000 0.000000
vt 0.625000 0.250000
vt 0.375000 0.250000
vt 0.625000 0.500000
vt 0.375000 0.500000
vt 0.625000 0.750000
vt 0.375000 0.750000
vt 0.625000 1.000000
vt 0.375000 1.000000
vt 0.125000 0.500000
vt 0.125000 0.750000
vt 0.875000 0.500000
vt 0.875000 0.750000
s 0
f 401/701/301 403/704/301 404/703/301 402/702/301
f 403/704/302 407/706/302 408/705/302 404/703/302
f 407/706/303 405/708/303 406/707/303 408/705/303
f 405/708/304 401/710/304 402/709/304 406/707/304
f 403/711/305 401/712/305 405/708/305 407/706/305
f 408/705/306 406/707/306 402/714/306 404/713/306
o Cube.314
v -6.463022 2.137274 28.006081
v -6.463022 0.065216 28.223864
v -6.463022 2.124133 27.881048
v -6.463022 0.052075 28.098831
v -6.337301 2.137274 28.006081
v -6.337301 0.065216 28.223864
v -6.337301 2.124133 27.881048
v -6.337301 0.052075 28.098831
vn -1.0000 -0.0000 -0.0000
vn -0.0000 -0.1045 -0.9945
vn 1.0000 -0.0000 -0.0000
vn -0.0000 0.1045 0.9945
vn -0.0000 0.9945 -0.1045
vn -0.0000 -0.9945 0.1045
vt 0.375000 0.000000
vt 0.625000 0.000000
vt 0.625000 0.250000
vt 0.375000 0.250000
vt 0.625000 0.500000
vt 0.375000 0.500000
vt 0.625000 0.750000
vt 0.375000 0.750000
vt 0.625000 1.000000
vt 0.375000 1.000000
vt 0.125000 0.500000
vt 0.125000 0.750000
vt 0.875000 0.500000
vt 0.875000 0.750000
s 0
f 409/715/307 411/718/307 412/717/307 410/716/307
f 411/718/308 415/720/308 416/719/308 412/717/308
f 415/720/309 413/722/309 414/721/309 416/719/309
f 413/722/310 409/724/310 410/723/310 414/721/310
f 411/725/311 409/726/311 413/722/311 415/720/311
f 416/719/312 414/721/312 410/728/312 412/727/312
o Cube.315
v -7.668275 2.137274 28.006081
v -7.668275 0.065216 28.223864
v -7.668275 2.124133 27.881048
v -7.668275 0.052075 28.098831
v -7.542554 2.137274 28.006081
v -7.542554 0.065216 28.223864
v -7.542554 2.124133 27.881048
v -7.542554 0.052075 28.098831
vn -1.0000 -0.0000 -0.0000
vn -0.0000 -0.1045 -0.9945
vn 1.0000 -0.0000 -0.0000
vn -0.0000 0.1045 0.9945
vn -0.0000 0.9945 -0.1045
vn -0.0000 -0.9945 0.1045
vt 0.375000 0.000000
vt 0.625000 0.000000
vt 0.625000 0.250000
vt 0.375000 0.250000
vt 0.625000 0.500000
vt 0.375000 0.500000
vt 0.625000 0.750000
vt 0.375000 0.750000
vt 0.625000 1.000000
vt 0.375000 1.000000
vt 0.125000 0.500000
vt 0.125000 0.750000
vt 0.875000 0.500000
vt 0.875000 0.750000
s 0
f 417/729/313 419/732/313 420/731/313 418/730/313
f 419/732/314 423/734/314 424/733/314 420/731/314
f 423/734/315 421/736/315 422/735/315 424/733/315
f 421/736/316 417/738/316 418/737/316 422/735/316
f 419/739/317 417/740/317 421/736/317 423/734/317
f 424/733/318 422/735/318 418/742/318 420/741/318
o Cube.316
v -6.116832 2.104665 26.520756
v -6.116832 2.147051 26.520756
v -6.116832 2.104665 28.305836
v -6.116832 2.147051 28.305836
v -7.901913 2.104665 26.520756
v -7.901913 2.147051 26.520756
v -7.901913 2.104665 28.305836
v -7.901913 2.147051 28.305836
vn -0.0000 -1.0000 -0.0000
vn -0.0000 -0.0000 1.0000
vn -1.0000 -0.0000 -0.0000
vn -0.0000 1.0000 -0.0000
vn 1.0000 -0.0000 -0.0000
vn -0.0000 -0.0000 -1.0000
vt 0.625000 0.500000
vt 0.875000 0.500000
vt 0.875000 0.750000
vt 0.625000 0.750000
vt 0.375000 0.750000
vt 0.625000 1.000000
vt 0.375000 1.000000
vt 0.375000 0.000000
vt 0.625000 0.000000
vt 0.625000 0.250000
vt 0.375000 0.250000
vt 0.125000 0.500000
vt 0.375000 0.500000
vt 0.125000 0.750000
s 0
usemtl Material.004
f 425/743/319 427/746/319 431/745/319 429/744/319
f 428/747/320 432/749/320 431/748/320 427/746/320
f 432/750/321 430/753/321 429/752/321 431/751/321
f 430/754/322 432/756/322 428/747/322 426/755/322
f 426/755/323 428/747/323 427/746/323 425/743/323
f 430/753/324 426/755/324 425/743/324 429/752/324
o Cube.317
v -2.432292 0.613059 26.673185
v -1.180271 0.613058 26.673185
v -2.432292 0.560540 26.673185
v -1.180271 0.560540 26.673185
v -2.432292 0.613059 26.748735
v -1.180271 0.613058 26.748735
v -2.432292 0.560540 26.748735
v -1.180271 0.560540 26.748735
vn -0.0000 -0.0000 -1.0000
vn -0.0000 -1.0000 -0.0000
vn -0.0000 -0.0000 1.0000
vn -0.0000 1.0000 -0.0000
vn -1.0000 -0.0000 -0.0000
vn 1.0000 -0.0000 -0.0000
vt 0.375000 0.000000
vt 0.625000 0.000000
vt 0.625000 0.250000
vt 0.375000 0.250000
vt 0.625000 0.500000
vt 0.375000 0.500000
vt 0.625000 0.750000
vt 0.375000 0.750000
vt 0.625000 1.000000
vt 0.375000 1.000000
vt 0.125000 0.500000
vt 0.125000 0.750000
vt 0.875000 0.500000
vt 0.875000 0.750000
s 0
f 433/757/325 434/758/325 436/759/325 435/760/325
f 435/760/326 436/759/326 440/761/326 439/762/326
f 439/762/327 440/761/327 438/763/327 437/764/327
f 437/764/328 438/763/328 434/765/328 433/766/328
f 435/767/329 439/762/329 437/764/329 433/768/329
f 440/761/330 436/769/330 434/770/330 438/763/330
o Cube.318
v -2.432292 0.613059 28.081774
v -1.180271 0.613058 28.081774
v -2.432292 0.560540 28.081774
v -1.180271 0.560540 28.081774
v -2.432292 0.613059 28.157324
v -1.180271 0.613058 28.157324
v -2.432292 0.560540 28.157324
v -1.180271 0.560540 28.157324
vn -0.0000 -0.0000 -1.0000
vn -0.0000 -1.0000 -0.0000
vn -0.0000 -0.0000 1.0000
vn -0.0000 1.0000 -0.0000
vn -1.0000 -0.0000 -0.0000
vn 1.0000 -0.0000 -0.0000
vt 0.375000 0.000000
vt 0.625000 0.000000
vt 0.625000 0.250000
vt 0.375000 0.250000
vt 0.625000 0.500000
vt 0.375000 0.500000
vt 0.625000 0.750000
vt 0.375000 0.750000
vt 0.625000 1.000000
vt 0.375000 1.000000
vt 0.125000 0.500000
vt 0.125000 0.750000
vt 0.875000 0.500000
vt 0.875000 0.750000
s 0
f 441/771/331 442/772/331 444/773/331 443/774/331
f 443/774/332 444/773/332 448/775/332 447/776/332
f 447/776/333 448/775/333 446/777/333 445/778/333
f 445/778/334 446/777/334 442/779/334 441/780/334
f 443/781/335 447/776/335 445/778/335 441/782/335
f 448/775/336 444/783/336 442/784/336 446/777/336
o Cube.319
v -1.223954 0.514380 28.168461
v -1.223954 0.514380 26.701801
v -1.223954 0.575903 28.168461
v -1.223954 0.575903 26.701801
v -1.135453 0.514380 28.168461
v -1.135453 0.514380 26.701801
v -1.135453 0.575903 28.168461
v -1.135453 0.575903 26.701801
vn -1.0000 -0.0000 -0.0000
vn -0.0000 1.0000 -0.0000
vn 1.0000 -0.0000 -0.0000
vn -0.0000 -1.0000 -0.0000
vn -0.0000 -0.0000 1.0000
vn -0.0000 -0.0000 -1.0000
vt 0.375000 0.000000
vt 0.625000 0.000000
vt 0.625000 0.250000
vt 0.375000 0.250000
vt 0.625000 0.500000
vt 0.375000 0.500000
vt 0.625000 0.750000
vt 0.375000 0.750000
vt 0.625000 1.000000
vt 0.375000 1.000000
vt 0.125000 0.500000
vt 0.125000 0.750000
vt 0.875000 0.500000
vt 0.875000 0.750000
s 0
f 449/785/337 451/788/337 452/787/337 450/786/337
f 451/788/338 455/790/338 456/789/338 452/787/338
f 455/790/339 453/792/339 454/791/339 456/789/339
f 453/792/340 449/794/340 450/793/340 454/791/340
f 451/795/341 449/796/341 453/792/341 455/790/341
f 456/789/342 454/791/342 450/798/342 452/797/342
o Cube.320
v -2.445455 0.547815 28.102009
v -2.445455 0.547815 26.635349
v -2.445455 0.609337 28.102009
v -2.445455 0.609337 26.635349
v -2.356954 0.547815 28.102009
v -2.356954 0.547815 26.635349
v -2.356954 0.609337 28.102009
v -2.356954 0.609337 26.635349
vn -1.0000 -0.0000 -0.0000
vn -0.0000 1.0000 -0.0000
vn 1.0000 -0.0000 -0.0000
vn -0.0000 -1.0000 -0.0000
vn -0.0000 -0.0000 1.0000
vn -0.0000 -0.0000 -1.0000
vt 0.375000 0.000000
vt 0.625000 0.000000
vt 0.625000 0.250000
vt 0.375000 0.250000
vt 0.625000 0.500000
vt 0.375000 0.500000
vt 0.625000 0.750000
vt 0.375000 0.750000
vt 0.625000 1.000000
vt 0.375000 1.000000
vt 0.125000 0.500000
vt 0.125000 0.750000
vt 0.875000 0.500000
vt 0.875000 0.750000
s 0
f 457/799/343 459/802/343 460/801/343 458/800/343
f 459/802/344 463/804/344 464/803/344 460/801/344
f 463/804/345 461/806/345 462/805/345 464/803/345
f 461/806/346 457/808/346 458/807/346 462/805/346
f 459/809/347 457/810/347 461/806/347 463/804/347
f 464/803/348 462/805/348 458/812/348 460/811/348
o Cube.321
v -2.458114 2.124133 26.922934
v -2.458114 0.052075 26.705151
v -2.458114 2.137274 26.797901
v -2.458114 0.065216 26.580118
v -2.332394 2.124133 26.922934
v -2.332394 0.052075 26.705151
v -2.332394 2.137274 26.797901
v -2.332394 0.065216 26.580118
vn -1.0000 -0.0000 -0.0000
vn -0.0000 0.1045 -0.9945
vn 1.0000 -0.0000 -0.0000
vn -0.0000 -0.1045 0.9945
vn -0.0000 0.9945 0.1045
vn -0.0000 -0.9945 -0.1045
vt 0.375000 0.000000
vt 0.625000 0.000000
vt 0.625000 0.250000
vt 0.375000 0.250000
vt 0.625000 0.500000
vt 0.375000 0.500000
vt 0.625000 0.750000
vt 0.375000 0.750000
vt 0.625000 1.000000
vt 0.375000 1.000000
vt 0.125000 0.500000
vt 0.125000 0.750000
vt 0.875000 0.500000
vt 0.875000 0.750000
s 0
f 465/813/349 467/816/349 468/815/349 466/814/349
f 467/816/350 471/818/350 472/817/350 468/815/350
f 471/818/351 469/820/351 470/819/351 472/817/351
f 469/820/352 465/822/352 466/821/352 470/819/352
f 467/823/353 465/824/353 469/820/353 471/818/353
f 472/817/354 470/819/354 466/826/354 468/825/354
o Cube.322
v -1.252860 2.124133 26.922934
v -1.252860 0.052075 26.705151
v -1.252860 2.137274 26.797901
v -1.252860 0.065216 26.580118
v -1.127139 2.124133 26.922934
v -1.127139 0.052075 26.705151
v -1.127139 2.137274 26.797901
v -1.127139 0.065216 26.580118
vn -1.0000 -0.0000 -0.0000
vn -0.0000 0.1045 -0.9945
vn 1.0000 -0.0000 -0.0000
vn -0.0000 -0.1045 0.9945
vn -0.0000 0.9945 0.1045
vn -0.0000 -0.9945 -0.1045
vt 0.375000 0.000000
vt 0.625000 0.000000
vt 0.625000 0.250000
vt 0.375000 0.250000
vt 0.625000 0.500000
vt 0.375000 0.500000
vt 0.625000 0.750000
vt 0.375000 0.750000
vt 0.625000 1.000000
vt 0.375000 1.000000
vt 0.125000 0.500000
vt 0.125000 0.750000
vt 0.875000 0.500000
vt 0.875000 0.750000
s 0
f 473/827/355 475/830/355 476/829/355 474/828/355
f 475/830/356 479/832/356 480/831/356 476/829/356
f 479/832/357 477/834/357 478/833/357 480/831/357
f 477/834/358 473/836/358 474/835/358 478/833/358
f 475/837/359 473/838/359 477/834/359 479/832/359
f 480/831/360 478/833/360 474/840/360 476/839/360
o Cube.323
v -1.252860 2.137274 28.006081
v -1.252860 0.065216 28.223864
v -1.252860 2.124133 27.881048
v -1.252860 0.052075 28.098831
v -1.127139 2.137274 28.006081
v -1.127139 0.065216 28.223864
v -1.127139 2.124133 27.881048
v -1.127139 0.052075 28.098831
vn -1.0000 -0.0000 -0.0000
vn -0.0000 -0.1045 -0.9945
vn 1.0000 -0.0000 -0.0000
vn -0.0000 0.1045 0.9945
vn -0.0000 0.9945 -0.1045
vn -0.0000 -0.9945 0.1045
vt 0.375000 0.000000
vt 0.625000 0.000000
vt 0.625000 0.250000
vt 0.375000 0.250000
vt 0.625000 0.500000
vt 0.375000 0.500000
vt 0.625000 0.750000
vt 0.375000 0.750000
vt 0.625000 1.000000
vt 0.375000 1.000000
vt 0.125000 0.500000
vt 0.125000 0.750000
vt 0.875000 0.500000
vt 0.875000 0.750000
s 0
f 481/841/361 483/844/361 484/843/361 482/842/361
f 483/844/362 487/846/362 488/845/362 484/843/362
f 487/846/363 485/848/363 486/847/363 488/845/363
f 485/848/364 481/850/364 482/849/364 486/847/364
f 483/851/365 481/852/365 485/848/365 487/846/365
f 488/845/366 486/847/366 482/854/366 484/853/366
o Cube.324
v -2.458113 2.137274 28.006081
v -2.458113 0.065216 28.223864
v -2.458113 2.124133 27.881048
v -2.458113 0.052075 28.098831
v -2.332393 2.137274 28.006081
v -2.332393 0.065216 28.223864
v -2.332393 2.124133 27.881048
v -2.332393 0.052075 28.098831
vn -1.0000 -0.0000 -0.0000
vn -0.0000 -0.1045 -0.9945
vn 1.0000 -0.0000 -0.0000
vn -0.0000 0.1045 0.9945
vn -0.0000 0.9945 -0.1045
vn -0.0000 -0.9945 0.1045
vt 0.375000 0.000000
vt 0.625000 0.000000
vt 0.625000 0.250000
vt 0.375000 0.250000
vt 0.625000 0.500000
vt 0.375000 0.500000
vt 0.625000 0.750000
vt 0.375000 0.750000
vt 0.625000 1.000000
vt 0.375000 1.000000
vt 0.125000 0.500000
vt 0.125000 0.750000
vt 0.875000 0.500000
vt 0.875000 0.750000
s 0
f 489/855/367 491/858/367 492/857/367 490/856/367
f 491/858/368 495/860/368 496/859/368 492/857/368
f 495/860/369 493/862/369 494/861/369 496/859/369
f 493/862/370 489/864/370 490/863/370 494/861/370
f 491/865/371 489/866/371 493/862/371 495/860/371
f 496/859/372 494/861/372 490/868/372 492/867/372
o Cube.325
v -0.906670 2.104665 26.520756
v -0.906670 2.147051 26.520756
v -0.906670 2.104665 28.305836
v -0.906670 2.147051 28.305836
v -2.691751 2.104665 26.520756
v -2.691751 2.147051 26.520756
v -2.691751 2.104665 28.305836
v -2.691751 2.147051 28.305836
vn -0.0000 -1.0000 -0.0000
vn -0.0000 -0.0000 1.0000
vn -1.0000 -0.0000 -0.0000
vn -0.0000 1.0000 -0.0000
vn 1.0000 -0.0000 -0.0000
vn -0.0000 -0.0000 -1.0000
vt 0.625000 0.500000
vt 0.875000 0.500000
vt 0.875000 0.750000
vt 0.625000 0.750000
vt 0.375000 0.750000
vt 0.625000 1.000000
vt 0.375000 1.000000
vt 0.375000 0.000000
vt 0.625000 0.000000
vt 0.625000 0.250000
vt 0.375000 0.250000
vt 0.125000 0.500000
vt 0.375000 0.500000
vt 0.125000 0.750000
s 0
usemtl Material.004
f 497/869/373 499/872/373 503/871/373 501/870/373
f 500/873/374 504/875/374 503/874/374 499/872/374
f 504/876/375 502/879/375 501/878/375 503/877/375
f 502/880/376 504/882/376 500/873/376 498/881/376
f 498/881/377 500/873/377 499/872/377 497/869/377
f 502/879/378 498/881/378 497/869/378 501/878/378
o Cube.326
v 3.123968 0.613059 26.673185
v 4.375988 0.613058 26.673185
v 3.123968 0.560540 26.673185
v 4.375988 0.560540 26.673185
v 3.123968 0.613059 26.748735
v 4.375988 0.613058 26.748735
v 3.123968 0.560540 26.748735
v 4.375988 0.560540 26.748735
vn -0.0000 -0.0000 -1.0000
vn -0.0000 -1.0000 -0.0000
vn -0.0000 -0.0000 1.0000
vn -0.0000 1.0000 -0.0000
vn -1.0000 -0.0000 -0.0000
vn 1.0000 -0.0000 -0.0000
vt 0.375000 0.000000
vt 0.625000 0.000000
vt 0.625000 0.250000
vt 0.375000 0.250000
vt 0.625000 0.500000
vt 0.375000 0.500000
vt 0.625000 0.750000
vt 0.375000 0.750000
vt 0.625000 1.000000
vt 0.375000 1.000000
vt 0.125000 0.500000
vt 0.125000 0.750000
vt 0.875000 0.500000
vt 0.875000 0.750000
s 0
f 505/883/379 506/884/379 508/885/379 507/886/379
f 507/886/380 508/885/380 512/887/380 511/888/380
f 511/888/381 512/887/381 510/889/381 509/890/381
f 509/890/382 510/889/382 506/891/382 505/892/382
f 507/893/383 511/888/383 509/890/383 505/894/383
f 512/887/384 508/895/384 506/896/384 510/889/384
o Cube.327
v 3.123968 0.613059 28.081774
v 4.375988 0.613058 28.081774
v 3.123968 0.560540 28.081774
v 4.375988 0.560540 28.081774
v 3.123968 0.613059 28.157324
v 4.375988 0.613058 28.157324
v 3.123968 0.560540 28.157324
v 4.375988 0.560540 28.157324
vn -0.0000 -0.0000 -1.0000
vn -0.0000 -1.0000 -0.0000
vn -0.0000 -0.0000 1.0000
vn -0.0000 1.0000 -0.0000
vn -1.0000 -0.0000 -0.0000
vn 1.0000 -0.0000 -0.0000
vt 0.375000 0.000000
vt 0.625000 0.000000
vt 0.625000 0.250000
vt 0.375000 0.250000
vt 0.625000 0.500000
vt 0.375000 0.500000
vt 0.625000 0.750000
vt 0.375000 0.750000
vt 0.625000 1.000000
vt 0.375000 1.000000
vt 0.125000 0.500000
vt 0.125000 0.750000
vt 0.875000 0.500000
vt 0.875000 0.750000
s 0
f 513/897/385 514/898/385 516/899/385 515/900/385
f 515/900/386 516/899/386 520/901/386 519/902/386
f 519/902/387 520/901/387 518/903/387 517/904/387
f 517/904/388 518/903/388 514/905/388 513/906/388
f 515/907/389 519/902/389 517/904/389 513/908/389
f 520/901/390 516/909/390 514/910/390 518/903/390
o Cube.328
v 4.332305 0.514380 28.168461
v 4.332305 0.514380 26.701801
v 4.332305 0.575903 28.168461
v 4.332305 0.575903 26.701801
v 4.420806 0.514380 28.168461
v 4.420806 0.514380 26.701801
v 4.420806 0.575903 28.168461
v 4.420806 0.575903 26.701801
vn -1.0000 -0.0000 -0.0000
vn -0.0000 1.0000 -0.0000
vn 1.0000 -0.0000 -0.0000
vn -0.0000 -1.0000 -0.0000
vn -0.0000 -0.0000 1.0000
vn -0.0000 -0.0000 -1.0000
vt 0.375000 0.000000
vt 0.625000 0.000000
vt 0.625000 0.250000
vt 0.375000 0.250000
vt 0.625000 0.500000
vt 0.375000 0.500000
vt 0.625000 0.750000
vt 0.375000 0.750000
vt 0.625000 1.000000
vt 0.375000 1.000000
vt 0.125000 0.500000
vt 0.125000 0.750000
vt 0.875000 0.500000
vt 0.875000 0.750000
s 0
f 521/911/391 523/914/391 524/913/391 522/912/391
f 523/914/392 527/916/392 528/915/392 524/913/392
f 527/916/393 525/918/393 526/917/393 528/915/393
f 525/918/394 521/920/394 522/919/394 526/917/394
f 523/921/395 521/922/395 525/918/395 527/916/395
f 528/915/396 526/917/396 522/924/396 524/923/396
o Cube.329
v 3.110805 0.547815 28.102009
v 3.110805 0.547815 26.635349
v 3.110805 0.609337 28.102009
v 3.110805 0.609337 26.635349
v 3.199306 0.547815 28.102009
v 3.199306 0.547815 26.635349
v 3.199306 0.609337 28.102009
v 3.199306 0.609337 26.635349
vn -1.0000 -0.0000 -0.0000
vn -0.0000 1.0000 -0.0000
vn 1.0000 -0.0000 -0.0000
vn -0.0000 -1.0000 -0.0000
vn -0.0000 -0.0000 1.0000
vn -0.0000 -0.0000 -1.0000
vt 0.375000 0.000000
vt 0.625000 0.000000
vt 0.625000 0.250000
vt 0.375000 0.250000
vt 0.625000 0.500000
vt 0.375000 0.500000
vt 0.625000 0.750000
vt 0.375000 0.750000
vt 0.625000 1.000000
vt 0.375000 1.000000
vt 0.125000 0.500000
vt 0.125000 0.750000
vt 0.875000 0.500000
vt 0.875000 0.750000
s 0
f 529/925/397 531/928/397 532/927/397 530/926/397
f 531/928/398 535/930/398 536/929/398 532/927/398
f 535/930/399 533/932/399 534/931/399 536/929/399
f 533/932/400 529/934/400 530/933/400 534/931/400
f 531/935/401 529/936/401 533/932/401 535/930/401
f 536/929/402 534/931/402 530/938/402 532/937/402
o Cube.330
v 3.098145 2.124133 26.922934
v 3.098145 0.052075 26.705151
v 3.098145 2.137274 26.797901
v 3.098145 0.065216 26.580118
v 3.223865 2.124133 26.922934
v 3.223865 0.052075 26.705151
v 3.223865 2.137274 26.797901
v 3.223865 0.065216 26.580118
vn -1.0000 -0.0000 -0.0000
vn -0.0000 0.1045 -0.9945
vn 1.0000 -0.0000 -0.0000
vn -0.0000 -0.1045 0.9945
vn -0.0000 0.9945 0.1045
vn -0.0000 -0.9945 -0.1045
vt 0.375000 0.000000
vt 0.625000 0.000000
vt 0.625000 0.250000
vt 0.375000 0.250000
vt 0.625000 0.500000
vt 0.375000 0.500000
vt 0.625000 0.750000
vt 0.375000 0.750000
vt 0.625000 1.000000
vt 0.375000 1.000000
vt 0.125000 0.500000
vt 0.125000 0.750000
vt 0.875000 0.500000
vt 0.875000 0.750000
s 0
f 537/939/403 539/942/403 540/941/403 538/940/403
f 539/942/404 543/944/404 544/943/404 540/941/404
f 543/944/405 541/946/405 542/945/405 544/943/405
f 541/946/406 537/948/406 538/947/406 542/945/406
f 539/949/407 537/950/407 541/946/407 543/944/407
f 544/943/408 542/945/408 538/952/408 540/951/408
o Cube.331
v 4.303399 2.124133 26.922934
v 4.303399 0.052075 26.705151
v 4.303399 2.137274 26.797901
v 4.303399 0.065216 26.580118
v 4.429120 2.124133 26.922934
v 4.429120 0.052075 26.705151
v 4.429120 2.137274 26.797901
v 4.429120 0.065216 26.580118
vn -1.0000 -0.0000 -0.0000
vn -0.0000 0.1045 -0.9945
vn 1.0000 -0.0000 -0.0000
vn -0.0000 -0.1045 0.9945
vn -0.0000 0.9945 0.1045
vn -0.0000 -0.9945 -0.1045
vt 0.375000 0.000000
vt 0.625000 0.000000
vt 0.625000 0.250000
vt 0.375000 0.250000
vt 0.625000 0.500000
vt 0.375000 0.500000
vt 0.625000 0.750000
vt 0.375000 0.750000
vt 0.625000 1.000000
vt 0.375000 1.000000
vt 0.125000 0.500000
vt 0.125000 0.750000
vt 0.875000 0.500000
vt 0.875000 0.750000
s 0
f 545/953/409 547/956/409 548/955/409 546/954/409
f 547/956/410 551/958/410 552/957/410 548/955/410
f 551/958/411 549/960/411 550/959/411 552/957/411
f 549/960/412 545/962/412 546/961/412 550/959/412
f 547/963/413 545/964/413 549/960/413 551/958/413
f 552/957/414 550/959/414 546/966/414 548/965/414
o Cube.332
v 4.303399 2.137274 28.006081
v 4.303399 0.065216 28.223864
v 4.303399 2.124133 27.881048
v 4.303399 0.052075 28.098831
v 4.429120 2.137274 28.006081
v 4.429120 0.065216 28.223864
v 4.429120 2.124133 27.881048
v 4.429120 0.052075 28.098831
vn -1.0000 -0.0000 -0.0000
vn -0.0000 -0.1045 -0.9945
vn 1.0000 -0.0000 -0.0000
vn -0.0000 0.1045 0.9945
vn -0.0000 0.9945 -0.1045
vn -0.0000 -0.9945 0.1045
vt 0.375000 0.000000
vt 0.625000 0.000000
vt 0.625000 0.250000
vt 0.375000 0.250000
vt 0.625000 0.500000
vt 0.375000 0.500000
vt 0.625000 0.750000
vt 0.375000 0.750000
vt 0.625000 1.000000
vt 0.375000 1.000000
vt 0.125000 0.500000
vt 0.125000 0.750000
vt 0.875000 0.500000
vt 0.875000 0.750000
s 0
f 553/967/415 555/970/415 556/969/415 554/968/415
f 555/970/416 559/972/416 560/971/416 556/969/416
f 559/972/417 557/974/417 558/973/417 560/971/417
f 557/974/418 553/976/418 554/975/418 558/973/418
f 555/977/419 553/978/419 557/974/419 559/972/419
f 560/971/420 558/973/420 554/980/420 556/979/420
o Cube.333
v 3.098146 2.137274 28.006081
v 3.098146 0.065216 28.223864
v 3.098146 2.124133 27.881048
v 3.098146 0.052075 28.098831
v 3.223866 2.137274 28.006081
v 3.223866 0.065216 28.223864
v 3.223866 2.124133 27.881048
v 3.223866 0.052075 28.098831
vn -1.0000 -0.0000 -0.0000
vn -0.0000 -0.1045 -0.9945
vn 1.0000 -0.0000 -0.0000
vn -0.0000 0.1045 0.9945
vn -0.0000 0.9945 -0.1045
vn -0.0000 -0.9945 0.1045
vt 0.375000 0.000000
vt 0.625000 0.000000
vt 0.625000 0.250000
vt 0.375000 0.250000
vt 0.625000 0.500000
vt 0.375000 0.500000
vt 0.625000 0.750000
vt 0.375000 0.750000
vt 0.625000 1.000000
vt 0.375000 1.000000
vt 0.125000 0.500000
vt 0.125000 0.750000
vt 0.875000 0.500000
vt 0.875000 0.750000
s 0
f 561/981/421 563/984/421 564/983/421 562/982/421
f 563/984/422 567/986/422 568/985/422 564/983/422
f 567/986/423 565/988/423 566/987/423 568/985/423
f 565/988/424 561/990/424 562/989/424 566/987/424
f 563/991/425 561/992/425 565/988/425 567/986/425
f 568/985/426 566/987/426 562/994/426 564/993/426
o Cube.334
v 4.649589 2.104665 26.520756
v 4.649589 2.147051 26.520756
v 4.649589 2.104665 28.305836
v 4.649589 2.147051 28.305836
v 2.864508 2.104665 26.520756
v 2.864508 2.147051 26.520756
v 2.864508 2.104665 28.305836
v 2.864508 2.147051 28.305836
vn -0.0000 -1.0000 -0.0000
vn -0.0000 -0.0000 1.0000
vn -1.0000 -0.0000 -0.0000
vn -0.0000 1.0000 -0.0000
vn 1.0000 -0.0000 -0.0000
vn -0.0000 -0.0000 -1.0000
vt 0.625000 0.500000
vt 0.875000 0.500000
vt 0.875000 0.750000
vt 0.625000 0.750000
vt 0.375000 0.750000
vt 0.625000 1.000000
vt 0.375000 1.000000
vt 0.375000 0.000000
vt 0.625000 0.000000
vt 0.625000 0.250000
vt 0.375000 0.250000
vt 0.125000 0.500000
vt 0.375000 0.500000
vt 0.125000 0.750000
s 0
usemtl Material.004
f 569/995/427 571/998/427 575/997/427 573/996/427
f 572/999/428 576/1001/428 575/1000/428 571/998/428
f 576/1002/429 574/1005/429 573/1004/429 575/1003/429
f 574/1006/430 576/1008/430 572/999/430 570/1007/430
f 570/1007/431 572/999/431 571/998/431 569/995/431
f 574/1005/432 570/1007/432 569/995/432 573/1004/432
