# Blender 5.2.0 LTS
# www.blender.org
mtllib KursiKayuKasir.mtl
o Cube.104
v -28.629480 2.892096 -67.525078
v -28.600300 2.892096 -67.536285
v -29.127163 2.892096 -68.821106
v -29.097982 2.892096 -68.832314
v -28.629480 2.411932 -67.525078
v -28.600300 2.411932 -67.536285
v -29.127163 2.411932 -68.821106
v -29.097982 2.411932 -68.832314
vn -0.0000 1.0000 -0.0000
vn -0.3585 -0.0000 -0.9335
vn -0.0000 -1.0000 -0.0000
vn 0.3585 -0.0000 0.9335
vn -0.9335 -0.0000 0.3585
vn 0.9335 -0.0000 -0.3585
vt 0.375000 0.000000
vt 0.625000 0.000000
vt 0.625000 0.250000
vt 0.375000 0.250000
vt 0.625000 0.500000
vt 0.375000 0.500000
vt 0.625000 0.750000
vt 0.375000 0.750000
vt 0.625000 1.000000
vt 0.375000 1.000000
vt 0.125000 0.500000
vt 0.125000 0.750000
vt 0.875000 0.500000
vt 0.875000 0.750000
s 0
f 1/1/1 2/2/1 4/3/1 3/4/1
f 3/4/2 4/3/2 8/5/2 7/6/2
f 7/6/3 8/5/3 6/7/3 5/8/3
f 5/8/4 6/7/4 2/9/4 1/10/4
f 3/11/5 7/6/5 5/8/5 1/12/5
f 8/5/6 4/13/6 2/14/6 6/7/6
o Cube.105
v -29.816120 1.437644 -67.069405
v -29.816120 1.468901 -67.069405
v -30.313803 1.437644 -68.365433
v -30.313803 1.468901 -68.365433
v -28.520090 1.437644 -67.567093
v -28.520090 1.468901 -67.567093
v -29.017773 1.437644 -68.863121
v -29.017773 1.468901 -68.863121
vn -0.9335 -0.0000 0.3585
vn -0.3585 -0.0000 -0.9335
vn 0.9335 -0.0000 -0.3585
vn 0.3585 -0.0000 0.9335
vn -0.0000 -1.0000 -0.0000
vn -0.0000 1.0000 -0.0000
vt 0.375000 0.000000
vt 0.625000 0.000000
vt 0.625000 0.250000
vt 0.375000 0.250000
vt 0.625000 0.500000
vt 0.375000 0.500000
vt 0.625000 0.750000
vt 0.375000 0.750000
vt 0.625000 1.000000
vt 0.375000 1.000000
vt 0.125000 0.500000
vt 0.125000 0.750000
vt 0.875000 0.500000
vt 0.875000 0.750000
s 0
f 9/15/7 10/16/7 12/17/7 11/18/7
f 11/18/8 12/17/8 16/19/8 15/20/8
f 15/20/9 16/19/9 14/21/9 13/22/9
f 13/22/10 14/21/10 10/23/10 9/24/10
f 11/25/11 15/20/11 13/22/11 9/26/11
f 16/19/12 12/27/12 10/28/12 14/21/12
o Cube.106
v -28.999001 2.850558 -68.858818
v -28.999001 -0.125199 -68.858818
v -28.959900 2.850558 -68.756989
v -28.959900 -0.125199 -68.756989
v -29.100826 2.850558 -68.819717
v -29.100826 -0.125199 -68.819717
v -29.061726 2.850558 -68.717888
v -29.061726 -0.125199 -68.717888
vn -0.0000 1.0000 -0.0000
vn 0.3585 -0.0000 0.9335
vn -0.9335 -0.0000 0.3585
vn -0.0000 -1.0000 -0.0000
vn 0.9335 -0.0000 -0.3585
vn -0.3585 -0.0000 -0.9335
vt 0.625000 0.500000
vt 0.875000 0.500000
vt 0.875000 0.750000
vt 0.625000 0.750000
vt 0.375000 0.750000
vt 0.625000 1.000000
vt 0.375000 1.000000
vt 0.375000 0.000000
vt 0.625000 0.000000
vt 0.625000 0.250000
vt 0.375000 0.250000
vt 0.125000 0.500000
vt 0.375000 0.500000
vt 0.125000 0.750000
s 0
usemtl Material.013
f 17/29/13 21/30/13 23/31/13 19/32/13
f 20/33/14 19/32/14 23/34/14 24/35/14
f 24/36/15 23/37/15 21/38/15 22/39/15
f 22/40/16 18/41/16 20/33/16 24/42/16
f 18/41/17 17/29/17 19/32/17 20/33/17
f 22/39/18 21/38/18 17/29/18 18/41/18
o Cube.107
v -28.549026 2.850558 -67.687027
v -28.549026 -0.125199 -67.687027
v -28.509926 2.850558 -67.585197
v -28.509926 -0.125199 -67.585197
v -28.650852 2.850558 -67.647926
v -28.650852 -0.125199 -67.647926
v -28.611752 2.850558 -67.546097
v -28.611752 -0.125199 -67.546097
vn -0.0000 1.0000 -0.0000
vn 0.3585 -0.0000 0.9335
vn -0.9335 -0.0000 0.3585
vn -0.0000 -1.0000 -0.0000
vn 0.9335 -0.0000 -0.3585
vn -0.3585 -0.0000 -0.9335
vt 0.625000 0.500000
vt 0.875000 0.500000
vt 0.875000 0.750000
vt 0.625000 0.750000
vt 0.375000 0.750000
vt 0.625000 1.000000
vt 0.375000 1.000000
vt 0.375000 0.000000
vt 0.625000 0.000000
vt 0.625000 0.250000
vt 0.375000 0.250000
vt 0.125000 0.500000
vt 0.375000 0.500000
vt 0.125000 0.750000
s 0
usemtl Material.014
f 25/43/19 29/44/19 31/45/19 27/46/19
f 28/47/20 27/46/20 31/48/20 32/49/20
f 32/50/21 31/51/21 29/52/21 30/53/21
f 30/54/22 26/55/22 28/47/22 32/56/22
f 26/55/23 25/43/23 27/46/23 28/47/23
f 30/53/24 29/52/24 25/43/24 26/55/24
o Cube.108
v -30.200098 1.465881 -68.397591
v -30.200098 -0.133823 -68.397591
v -30.160997 1.465881 -68.295761
v -30.160997 -0.133823 -68.295761
v -30.301924 1.465881 -68.358490
v -30.301924 -0.133823 -68.358490
v -30.262823 1.465881 -68.256660
v -30.262823 -0.133823 -68.256660
vn -0.0000 1.0000 -0.0000
vn 0.3585 -0.0000 0.9335
vn -0.9335 -0.0000 0.3585
vn -0.0000 -1.0000 -0.0000
vn 0.9335 -0.0000 -0.3585
vn -0.3585 -0.0000 -0.9335
vt 0.625000 0.500000
vt 0.875000 0.500000
vt 0.875000 0.750000
vt 0.625000 0.750000
vt 0.375000 0.750000
vt 0.625000 1.000000
vt 0.375000 1.000000
vt 0.375000 0.000000
vt 0.625000 0.000000
vt 0.625000 0.250000
vt 0.375000 0.250000
vt 0.125000 0.500000
vt 0.375000 0.500000
vt 0.125000 0.750000
s 0
usemtl Material.015
f 33/57/25 37/58/25 39/59/25 35/60/25
f 36/61/26 35/60/26 39/62/26 40/63/26
f 40/64/27 39/65/27 37/66/27 38/67/27
f 38/68/28 34/69/28 36/61/28 40/70/28
f 34/69/29 33/57/29 35/60/29 36/61/29
f 38/67/30 37/66/30 33/57/30 34/69/30
o Cube.109
v -29.750124 1.465881 -67.225792
v -29.750124 -0.133823 -67.225792
v -29.711023 1.465881 -67.123962
v -29.711023 -0.133823 -67.123962
v -29.851950 1.465881 -67.186691
v -29.851950 -0.133823 -67.186691
v -29.812849 1.465881 -67.084862
v -29.812849 -0.133823 -67.084862
vn -0.0000 1.0000 -0.0000
vn 0.3585 -0.0000 0.9335
vn -0.9335 -0.0000 0.3585
vn -0.0000 -1.0000 -0.0000
vn 0.9335 -0.0000 -0.3585
vn -0.3585 -0.0000 -0.9335
vt 0.625000 0.500000
vt 0.875000 0.500000
vt 0.875000 0.750000
vt 0.625000 0.750000
vt 0.375000 0.750000
vt 0.625000 1.000000
vt 0.375000 1.000000
vt 0.375000 0.000000
vt 0.625000 0.000000
vt 0.625000 0.250000
vt 0.375000 0.250000
vt 0.125000 0.500000
vt 0.375000 0.500000
vt 0.125000 0.750000
s 0
usemtl Material.016
f 41/71/31 45/72/31 47/73/31 43/74/31
f 44/75/32 43/74/32 47/76/32 48/77/32
f 48/78/33 47/79/33 45/80/33 46/81/33
f 46/82/34 42/83/34 44/75/34 48/84/34
f 42/83/35 41/71/35 43/74/35 44/75/35
f 46/81/36 45/80/36 41/71/36 42/83/36
o Cube.225
v -28.174015 2.892096 -74.811356
v -28.142757 2.892096 -74.811325
v -28.172497 2.892096 -76.199661
v -28.141239 2.892096 -76.199631
v -28.174015 2.411932 -74.811356
v -28.142757 2.411932 -74.811325
v -28.172497 2.411932 -76.199661
v -28.141239 2.411932 -76.199631
vn -0.0000 1.0000 -0.0000
vn 0.0011 -0.0000 -1.0000
vn -0.0000 -1.0000 -0.0000
vn -0.0011 -0.0000 1.0000
vn -1.0000 -0.0000 -0.0011
vn 1.0000 -0.0000 0.0011
vt 0.375000 0.000000
vt 0.625000 0.000000
vt 0.625000 0.250000
vt 0.375000 0.250000
vt 0.625000 0.500000
vt 0.375000 0.500000
vt 0.625000 0.750000
vt 0.375000 0.750000
vt 0.625000 1.000000
vt 0.375000 1.000000
vt 0.125000 0.500000
vt 0.125000 0.750000
vt 0.875000 0.500000
vt 0.875000 0.750000
s 0
f 49/85/37 50/86/37 52/87/37 51/88/37
f 51/88/38 52/87/38 56/89/38 55/90/38
f 55/90/39 56/89/39 54/91/39 53/92/39
f 53/92/40 54/91/40 50/93/40 49/94/40
f 51/95/41 55/90/41 53/92/41 49/96/41
f 56/89/42 52/97/42 50/98/42 54/91/42
o Cube.226
v -29.445137 1.437644 -74.812759
v -29.445137 1.468901 -74.812759
v -29.443619 1.437644 -76.201057
v -29.443619 1.468901 -76.201057
v -28.056835 1.437644 -74.811241
v -28.056835 1.468901 -74.811241
v -28.055317 1.437644 -76.199539
v -28.055317 1.468901 -76.199539
vn -1.0000 -0.0000 -0.0011
vn 0.0011 -0.0000 -1.0000
vn 1.0000 -0.0000 0.0011
vn -0.0011 -0.0000 1.0000
vn -0.0000 -1.0000 -0.0000
vn -0.0000 1.0000 -0.0000
vt 0.375000 0.000000
vt 0.625000 0.000000
vt 0.625000 0.250000
vt 0.375000 0.250000
vt 0.625000 0.500000
vt 0.375000 0.500000
vt 0.625000 0.750000
vt 0.375000 0.750000
vt 0.625000 1.000000
vt 0.375000 1.000000
vt 0.125000 0.500000
vt 0.125000 0.750000
vt 0.875000 0.500000
vt 0.875000 0.750000
s 0
f 57/99/43 58/100/43 60/101/43 59/102/43
f 59/102/44 60/101/44 64/103/44 63/104/44
f 63/104/45 64/103/45 62/105/45 61/106/45
f 61/106/46 62/105/46 58/107/46 57/108/46
f 59/109/47 63/104/47 61/106/47 57/110/47
f 64/103/48 60/111/48 58/112/48 62/105/48
o Cube.227
v -28.039347 2.850558 -76.188782
v -28.039347 -0.125199 -76.188782
v -28.039467 2.850558 -76.079704
v -28.039467 -0.125199 -76.079704
v -28.148422 2.850558 -76.188896
v -28.148422 -0.125199 -76.188896
v -28.148542 2.850558 -76.079819
v -28.148542 -0.125199 -76.079819
vn -0.0000 1.0000 -0.0000
vn -0.0011 -0.0000 1.0000
vn -1.0000 -0.0000 -0.0011
vn -0.0000 -1.0000 -0.0000
vn 1.0000 -0.0000 0.0011
vn 0.0011 -0.0000 -1.0000
vt 0.625000 0.500000
vt 0.875000 0.500000
vt 0.875000 0.750000
vt 0.625000 0.750000
vt 0.375000 0.750000
vt 0.625000 1.000000
vt 0.375000 1.000000
vt 0.375000 0.000000
vt 0.625000 0.000000
vt 0.625000 0.250000
vt 0.375000 0.250000
vt 0.125000 0.500000
vt 0.375000 0.500000
vt 0.125000 0.750000
s 0
usemtl Material.013
f 65/113/49 69/114/49 71/115/49 67/116/49
f 68/117/50 67/116/50 71/118/50 72/119/50
f 72/120/51 71/121/51 69/122/51 70/123/51
f 70/124/52 66/125/52 68/117/52 72/126/52
f 66/125/53 65/113/53 67/116/53 68/117/53
f 70/123/54 69/122/54 65/113/54 66/125/54
o Cube.228
v -28.040720 2.850558 -74.933563
v -28.040720 -0.125199 -74.933563
v -28.040840 2.850558 -74.824486
v -28.040840 -0.125199 -74.824486
v -28.149796 2.850558 -74.933678
v -28.149796 -0.125199 -74.933678
v -28.149916 2.850558 -74.824600
v -28.149916 -0.125199 -74.824600
vn -0.0000 1.0000 -0.0000
vn -0.0011 -0.0000 1.0000
vn -1.0000 -0.0000 -0.0011
vn -0.0000 -1.0000 -0.0000
vn 1.0000 -0.0000 0.0011
vn 0.0011 -0.0000 -1.0000
vt 0.625000 0.500000
vt 0.875000 0.500000
vt 0.875000 0.750000
vt 0.625000 0.750000
vt 0.375000 0.750000
vt 0.625000 1.000000
vt 0.375000 1.000000
vt 0.375000 0.000000
vt 0.625000 0.000000
vt 0.625000 0.250000
vt 0.375000 0.250000
vt 0.125000 0.500000
vt 0.375000 0.500000
vt 0.125000 0.750000
s 0
usemtl Material.014
f 73/127/55 77/128/55 79/129/55 75/130/55
f 76/131/56 75/130/56 79/132/56 80/133/56
f 80/134/57 79/135/57 77/136/57 78/137/57
f 78/138/58 74/139/58 76/131/58 80/140/58
f 74/139/59 73/127/59 75/130/59 76/131/59
f 78/137/60 77/136/60 73/127/60 74/139/60
o Cube.229
v -29.325956 1.465881 -76.190186
v -29.325956 -0.133823 -76.190186
v -29.326077 1.465881 -76.081108
v -29.326077 -0.133823 -76.081108
v -29.435032 1.465881 -76.190300
v -29.435032 -0.133823 -76.190300
v -29.435152 1.465881 -76.081223
v -29.435152 -0.133823 -76.081223
vn -0.0000 1.0000 -0.0000
vn -0.0011 -0.0000 1.0000
vn -1.0000 -0.0000 -0.0011
vn -0.0000 -1.0000 -0.0000
vn 1.0000 -0.0000 0.0011
vn 0.0011 -0.0000 -1.0000
vt 0.625000 0.500000
vt 0.875000 0.500000
vt 0.875000 0.750000
vt 0.625000 0.750000
vt 0.375000 0.750000
vt 0.625000 1.000000
vt 0.375000 1.000000
vt 0.375000 0.000000
vt 0.625000 0.000000
vt 0.625000 0.250000
vt 0.375000 0.250000
vt 0.125000 0.500000
vt 0.375000 0.500000
vt 0.125000 0.750000
s 0
usemtl Material.015
f 81/141/61 85/142/61 87/143/61 83/144/61
f 84/145/62 83/144/62 87/146/62 88/147/62
f 88/148/63 87/149/63 85/150/63 86/151/63
f 86/152/64 82/153/64 84/145/64 88/154/64
f 82/153/65 81/141/65 83/144/65 84/145/65
f 86/151/66 85/150/66 81/141/66 82/153/66
o Cube.230
v -29.327332 1.465881 -74.934959
v -29.327332 -0.133823 -74.934959
v -29.327452 1.465881 -74.825882
v -29.327452 -0.133823 -74.825882
v -29.436407 1.465881 -74.935074
v -29.436407 -0.133823 -74.935074
v -29.436527 1.465881 -74.825996
v -29.436527 -0.133823 -74.825996
vn -0.0000 1.0000 -0.0000
vn -0.0011 -0.0000 1.0000
vn -1.0000 -0.0000 -0.0011
vn -0.0000 -1.0000 -0.0000
vn 1.0000 -0.0000 0.0011
vn 0.0011 -0.0000 -1.0000
vt 0.625000 0.500000
vt 0.875000 0.500000
vt 0.875000 0.750000
vt 0.625000 0.750000
vt 0.375000 0.750000
vt 0.625000 1.000000
vt 0.375000 1.000000
vt 0.375000 0.000000
vt 0.625000 0.000000
vt 0.625000 0.250000
vt 0.375000 0.250000
vt 0.125000 0.500000
vt 0.375000 0.500000
vt 0.125000 0.750000
s 0
usemtl Material.016
f 89/155/67 93/156/67 95/157/67 91/158/67
f 92/159/68 91/158/68 95/160/68 96/161/68
f 96/162/69 95/163/69 93/164/69 94/165/69
f 94/166/70 90/167/70 92/159/70 96/168/70
f 90/167/71 89/155/71 91/158/71 92/159/71
f 94/165/72 93/164/72 89/155/72 90/167/72
o Cube.231
v -27.809946 2.892096 -82.781708
v -27.795565 2.892096 -82.809464
v -29.042574 2.892096 -83.420471
v -29.028193 2.892096 -83.448227
v -27.809946 2.411932 -82.781708
v -27.795565 2.411932 -82.809464
v -29.042574 2.411932 -83.420471
v -29.028193 2.411932 -83.448227
vn -0.0000 1.0000 -0.0000
vn -0.8879 -0.0000 -0.4601
vn -0.0000 -1.0000 -0.0000
vn 0.8879 -0.0000 0.4601
vn -0.4601 -0.0000 0.8879
vn 0.4601 -0.0000 -0.8879
vt 0.375000 0.000000
vt 0.625000 0.000000
vt 0.625000 0.250000
vt 0.375000 0.250000
vt 0.625000 0.500000
vt 0.375000 0.500000
vt 0.625000 0.750000
vt 0.375000 0.750000
vt 0.625000 1.000000
vt 0.375000 1.000000
vt 0.125000 0.500000
vt 0.125000 0.750000
vt 0.875000 0.500000
vt 0.875000 0.750000
s 0
f 97/169/73 98/170/73 100/171/73 99/172/73
f 99/172/74 100/171/74 104/173/74 103/174/74
f 103/174/75 104/173/75 102/175/75 101/176/75
f 101/176/76 102/175/76 98/177/76 97/178/76
f 99/179/77 103/174/77 101/176/77 97/180/77
f 104/173/78 100/181/78 98/182/78 102/175/78
o Cube.232
v -28.394798 1.437644 -81.653130
v -28.394798 1.468901 -81.653130
v -29.627426 1.437644 -82.291885
v -29.627426 1.468901 -82.291885
v -27.756039 1.437644 -82.885757
v -27.756039 1.468901 -82.885757
v -28.988667 1.437644 -83.524513
v -28.988667 1.468901 -83.524513
vn -0.4601 -0.0000 0.8879
vn -0.8879 -0.0000 -0.4601
vn 0.4601 -0.0000 -0.8879
vn 0.8879 -0.0000 0.4601
vn -0.0000 -1.0000 -0.0000
vn -0.0000 1.0000 -0.0000
vt 0.375000 0.000000
vt 0.625000 0.000000
vt 0.625000 0.250000
vt 0.375000 0.250000
vt 0.625000 0.500000
vt 0.375000 0.500000
vt 0.625000 0.750000
vt 0.375000 0.750000
vt 0.625000 1.000000
vt 0.375000 1.000000
vt 0.125000 0.500000
vt 0.125000 0.750000
vt 0.875000 0.500000
vt 0.875000 0.750000
s 0
f 105/183/79 106/184/79 108/185/79 107/186/79
f 107/186/80 108/185/80 112/187/80 111/188/80
f 111/188/81 112/187/81 110/189/81 109/190/81
f 109/190/82 110/189/82 106/191/82 105/192/82
f 107/193/83 111/188/83 109/190/83 105/194/83
f 112/187/84 108/195/84 106/196/84 110/189/84
o Cube.233
v -28.971771 2.850558 -83.533760
v -28.971771 -0.125199 -83.533760
v -28.874928 2.850558 -83.483574
v -28.874928 -0.125199 -83.483574
v -29.021957 2.850558 -83.436913
v -29.021957 -0.125199 -83.436913
v -28.925114 2.850558 -83.386726
v -28.925114 -0.125199 -83.386726
vn -0.0000 1.0000 -0.0000
vn 0.8879 -0.0000 0.4601
vn -0.4601 -0.0000 0.8879
vn -0.0000 -1.0000 -0.0000
vn 0.4601 -0.0000 -0.8879
vn -0.8879 -0.0000 -0.4601
vt 0.625000 0.500000
vt 0.875000 0.500000
vt 0.875000 0.750000
vt 0.625000 0.750000
vt 0.375000 0.750000
vt 0.625000 1.000000
vt 0.375000 1.000000
vt 0.375000 0.000000
vt 0.625000 0.000000
vt 0.625000 0.250000
vt 0.375000 0.250000
vt 0.125000 0.500000
vt 0.375000 0.500000
vt 0.125000 0.750000
s 0
usemtl Material.013
f 113/197/85 117/198/85 119/199/85 115/200/85
f 116/201/86 115/200/86 119/202/86 120/203/86
f 120/204/87 119/205/87 117/206/87 118/207/87
f 118/208/88 114/209/88 116/201/88 120/210/88
f 114/209/89 113/197/89 115/200/89 116/201/89
f 118/207/90 117/206/90 113/197/90 114/209/90
o Cube.234
v -27.857306 2.850558 -82.956238
v -27.857306 -0.125199 -82.956238
v -27.760462 2.850558 -82.906052
v -27.760462 -0.125199 -82.906052
v -27.907492 2.850558 -82.859390
v -27.907492 -0.125199 -82.859390
v -27.810648 2.850558 -82.809204
v -27.810648 -0.125199 -82.809204
vn -0.0000 1.0000 -0.0000
vn 0.8879 -0.0000 0.4601
vn -0.4601 -0.0000 0.8879
vn -0.0000 -1.0000 -0.0000
vn 0.4601 -0.0000 -0.8879
vn -0.8879 -0.0000 -0.4601
vt 0.625000 0.500000
vt 0.875000 0.500000
vt 0.875000 0.750000
vt 0.625000 0.750000
vt 0.375000 0.750000
vt 0.625000 1.000000
vt 0.375000 1.000000
vt 0.375000 0.000000
vt 0.625000 0.000000
vt 0.625000 0.250000
vt 0.375000 0.250000
vt 0.125000 0.500000
vt 0.375000 0.500000
vt 0.125000 0.750000
s 0
usemtl Material.014
f 121/211/91 125/212/91 127/213/91 123/214/91
f 124/215/92 123/214/92 127/216/92 128/217/92
f 128/218/93 127/219/93 125/220/93 126/221/93
f 126/222/94 122/223/94 124/215/94 128/224/94
f 122/223/95 121/211/95 123/214/95 124/215/95
f 126/221/96 125/220/96 121/211/96 122/223/96
o Cube.235
v -29.563740 1.465881 -82.391426
v -29.563740 -0.133823 -82.391426
v -29.466896 1.465881 -82.341240
v -29.466896 -0.133823 -82.341240
v -29.613926 1.465881 -82.294579
v -29.613926 -0.133823 -82.294579
v -29.517082 1.465881 -82.244392
v -29.517082 -0.133823 -82.244392
vn -0.0000 1.0000 -0.0000
vn 0.8879 -0.0000 0.4601
vn -0.4601 -0.0000 0.8879
vn -0.0000 -1.0000 -0.0000
vn 0.4601 -0.0000 -0.8879
vn -0.8879 -0.0000 -0.4601
vt 0.625000 0.500000
vt 0.875000 0.500000
vt 0.875000 0.750000
vt 0.625000 0.750000
vt 0.375000 0.750000
vt 0.625000 1.000000
vt 0.375000 1.000000
vt 0.375000 0.000000
vt 0.625000 0.000000
vt 0.625000 0.250000
vt 0.375000 0.250000
vt 0.125000 0.500000
vt 0.375000 0.500000
vt 0.125000 0.750000
s 0
usemtl Material.015
f 129/225/97 133/226/97 135/227/97 131/228/97
f 132/229/98 131/228/98 135/230/98 136/231/98
f 136/232/99 135/233/99 133/234/99 134/235/99
f 134/236/100 130/237/100 132/229/100 136/238/100
f 130/237/101 129/225/101 131/228/101 132/229/101
f 134/235/102 133/234/102 129/225/102 130/237/102
o Cube.236
v -28.449268 1.465881 -81.813889
v -28.449268 -0.133823 -81.813889
v -28.352425 1.465881 -81.763702
v -28.352425 -0.133823 -81.763702
v -28.499454 1.465881 -81.717041
v -28.499454 -0.133823 -81.717041
v -28.402611 1.465881 -81.666855
v -28.402611 -0.133823 -81.666855
vn -0.0000 1.0000 -0.0000
vn 0.8879 -0.0000 0.4601
vn -0.4601 -0.0000 0.8879
vn -0.0000 -1.0000 -0.0000
vn 0.4601 -0.0000 -0.8879
vn -0.8879 -0.0000 -0.4601
vt 0.625000 0.500000
vt 0.875000 0.500000
vt 0.875000 0.750000
vt 0.625000 0.750000
vt 0.375000 0.750000
vt 0.625000 1.000000
vt 0.375000 1.000000
vt 0.375000 0.000000
vt 0.625000 0.000000
vt 0.625000 0.250000
vt 0.375000 0.250000
vt 0.125000 0.500000
vt 0.375000 0.500000
vt 0.125000 0.750000
s 0
usemtl Material.016
f 137/239/103 141/240/103 143/241/103 139/242/103
f 140/243/104 139/242/104 143/244/104 144/245/104
f 144/246/105 143/247/105 141/248/105 142/249/105
f 142/250/106 138/251/106 140/243/106 144/252/106
f 138/251/107 137/239/107 139/242/107 140/243/107
f 142/249/108 141/248/108 137/239/108 138/251/108
