# Blender 5.2.0 LTS
# www.blender.org
mtllib MejaMakanKayuKotak.mtl
o Cube.002
v 3.186486 3.080405 -1.469392
v 3.186486 0.093264 -1.469392
v 3.186486 3.080405 -1.926365
v 3.186486 0.093264 -1.926365
v 3.620425 3.080405 -1.469392
v 3.620425 0.093264 -1.469392
v 3.620425 3.080405 -1.926365
v 3.620425 0.093264 -1.926365
v 3.186486 2.476448 -1.469392
v 3.186486 2.476448 -1.926365
v 3.620425 2.476448 -1.926365
v 3.620425 2.476448 -1.469392
v 3.186486 3.080405 -1.926365
v 3.186486 3.080405 -1.469392
v 3.186486 2.476448 -1.926365
v 3.620425 2.476448 -1.469392
v 3.620425 3.080405 -1.469392
v 3.186486 2.476448 -1.469392
v 1.416126 3.080405 -1.926365
v 1.416126 3.080405 -1.469392
v 1.416126 2.476448 -1.926365
v 1.416126 2.476448 -1.469392
v 3.620425 2.476448 0.041467
v 3.620425 3.080405 0.041467
v 3.186486 3.080405 0.041467
v 3.186486 2.476448 0.041467
v -0.004733 3.080405 -1.926365
v -0.004733 3.080405 -1.469392
v -0.004733 2.476448 -1.926365
v -0.004733 2.476448 -1.469392
v -3.186486 3.080405 -1.469392
v -3.186486 0.093264 -1.469392
v -3.186486 3.080405 -1.926365
v -3.186486 0.093264 -1.926365
v -3.620425 3.080405 -1.469392
v -3.620425 0.093264 -1.469392
v -3.620425 3.080405 -1.926365
v -3.620425 0.093264 -1.926365
v -3.186486 2.476448 -1.469392
v -3.186486 2.476448 -1.926365
v -3.620425 2.476448 -1.926365
v -3.620425 2.476448 -1.469392
v -3.186486 3.080405 -1.926365
v -3.186486 3.080405 -1.469392
v -3.186486 2.476448 -1.926365
v -3.620425 2.476448 -1.469392
v -3.620425 3.080405 -1.469392
v -3.186486 2.476448 -1.469392
v -1.416126 3.080405 -1.926365
v -1.416126 3.080405 -1.469392
v -1.416126 2.476448 -1.926365
v -1.416126 2.476448 -1.469392
v -3.620425 2.476448 0.041467
v -3.620425 3.080405 0.041467
v -3.186486 3.080405 0.041467
v -3.186486 2.476448 0.041467
v 0.004733 3.080405 -1.926365
v 0.004733 3.080405 -1.469392
v 0.004733 2.476448 -1.926365
v 0.004733 2.476448 -1.469392
v 3.186486 3.080405 1.469393
v 3.186486 0.093264 1.469393
v 3.186486 3.080405 1.926366
v 3.186486 0.093264 1.926366
v 3.620425 3.080405 1.469393
v 3.620425 0.093264 1.469393
v 3.620425 3.080405 1.926366
v 3.620425 0.093264 1.926366
v 3.186486 2.476448 1.469393
v 3.186486 2.476448 1.926366
v 3.620425 2.476448 1.926366
v 3.620425 2.476448 1.469393
v 3.186486 3.080405 1.926366
v 3.186486 3.080405 1.469393
v 3.186486 2.476448 1.926366
v 3.620425 2.476448 1.469393
v 3.620425 3.080405 1.469393
v 3.186486 2.476448 1.469393
v 1.416126 3.080405 1.926366
v 1.416126 3.080405 1.469393
v 1.416126 2.476448 1.926366
v 1.416126 2.476448 1.469393
v 3.620425 2.476448 -0.041467
v 3.620425 3.080405 -0.041467
v 3.186486 3.080405 -0.041467
v 3.186486 2.476448 -0.041467
v -0.004733 3.080405 1.926366
v -0.004733 3.080405 1.469393
v -0.004733 2.476448 1.926366
v -0.004733 2.476448 1.469393
v -3.186485 3.080405 1.469393
v -3.186485 0.093264 1.469393
v -3.186485 3.080405 1.926366
v -3.186485 0.093264 1.926366
v -3.620425 3.080405 1.469393
v -3.620425 0.093264 1.469393
v -3.620425 3.080405 1.926366
v -3.620425 0.093264 1.926366
v -3.186485 2.476448 1.469393
v -3.186485 2.476448 1.926366
v -3.620425 2.476448 1.926366
v -3.620425 2.476448 1.469393
v -3.186485 3.080405 1.926366
v -3.186485 3.080405 1.469393
v -3.186485 2.476448 1.926366
v -3.620425 2.476448 1.469393
v -3.620425 3.080405 1.469393
v -3.186485 2.476448 1.469393
v -1.416125 3.080405 1.926366
v -1.416125 3.080405 1.469393
v -1.416125 2.476448 1.926366
v -1.416125 2.476448 1.469393
v -3.620425 2.476448 -0.041467
v -3.620425 3.080405 -0.041467
v -3.186485 3.080405 -0.041467
v -3.186485 2.476448 -0.041467
v 0.004734 3.080405 1.926366
v 0.004734 3.080405 1.469393
v 0.004734 2.476448 1.926366
v 0.004734 2.476448 1.469393
vn -1.0000 -0.0000 -0.0000
vn -0.0000 -0.0000 -1.0000
vn 1.0000 -0.0000 -0.0000
vn -0.0000 -0.0000 1.0000
vn -0.0000 1.0000 -0.0000
vn -0.0000 -1.0000 -0.0000
vt 0.625000 0.000000
vt 0.425546 0.250000
vt 0.425546 0.000000
vt 0.625000 0.250000
vt 0.425546 0.500000
vt 0.625000 0.500000
vt 0.425546 0.750000
vt 0.625000 0.750000
vt 0.425546 1.000000
vt 0.375000 0.500000
vt 0.125000 0.750000
vt 0.125000 0.500000
vt 0.875000 0.500000
vt 0.375000 0.750000
vt 0.375000 0.250000
vt 0.375000 1.000000
vt 0.375000 0.000000
vt 0.625000 1.000000
vt 0.875000 0.750000
s 0
f 2/1/1 9/3/1 10/2/1
f 4/4/2 10/2/2 11/5/2
f 8/6/3 11/5/3 12/7/3
f 6/8/4 12/7/4 9/9/4
f 7/10/5 3/12/5 1/11/5
f 4/13/6 8/6/6 6/8/6
f 5/14/6 17/14/6 16/7/6
f 11/5/3 7/10/3 5/14/3
f 10/2/2 3/15/2 7/10/2
f 3/12/6 13/12/6 14/11/6
f 14/16/1 18/9/1 26/9/1
f 18/9/4 14/16/4 20/16/4
f 12/7/6 16/7/6 18/9/6
f 10/2/6 15/2/6 13/15/6
f 1/11/6 14/11/6 17/14/6
f 9/3/6 18/3/6 15/2/6
f 20/11/5 19/12/5 27/12/5
f 14/11/5 13/12/5 19/12/5
f 13/15/2 15/2/2 21/2/2
f 15/2/6 18/3/6 22/3/6
f 23/7/4 24/14/4 25/16/4
f 16/7/3 17/14/3 24/14/3
f 18/9/6 16/7/6 23/7/6
f 17/14/5 14/11/5 25/11/5
f 30/3/1 28/17/1 27/15/1
f 21/2/6 22/3/6 30/3/6
f 19/15/2 21/2/2 29/2/2
f 22/9/4 20/16/4 28/16/4
f 40/2/3 39/3/3 32/1/3
f 41/5/2 40/2/2 34/4/2
f 42/7/1 41/5/1 38/6/1
f 39/9/4 42/7/4 36/8/4
f 31/11/5 33/12/5 37/10/5
f 36/8/6 38/6/6 34/13/6
f 35/14/6 42/7/6 46/7/6
f 35/14/1 37/10/1 41/5/1
f 37/10/2 33/15/2 40/2/2
f 33/12/6 31/11/6 44/11/6
f 56/9/3 48/9/3 44/16/3
f 50/16/4 44/16/4 48/9/4
f 42/7/6 39/9/6 48/9/6
f 40/2/6 33/15/6 43/15/6
f 31/11/6 35/14/6 47/14/6
f 39/3/6 40/2/6 45/2/6
f 57/12/5 49/12/5 50/11/5
f 49/12/5 43/12/5 44/11/5
f 51/2/2 45/2/2 43/15/2
f 52/3/6 48/3/6 45/2/6
f 55/16/4 54/14/4 53/7/4
f 54/14/1 47/14/1 46/7/1
f 53/7/6 46/7/6 48/9/6
f 55/11/5 44/11/5 47/14/5
f 57/15/3 58/17/3 60/3/3
f 60/3/6 52/3/6 51/2/6
f 59/2/2 51/2/2 49/15/2
f 58/16/4 50/16/4 52/9/4
f 70/2/1 69/3/1 62/1/1
f 71/5/4 70/2/4 64/4/4
f 72/7/3 71/5/3 68/6/3
f 69/9/2 72/7/2 66/8/2
f 61/11/5 63/12/5 67/10/5
f 66/8/6 68/6/6 64/13/6
f 65/14/6 72/7/6 76/7/6
f 65/14/3 67/10/3 71/5/3
f 67/10/4 63/15/4 70/2/4
f 63/12/6 61/11/6 74/11/6
f 86/9/1 78/9/1 74/16/1
f 80/16/2 74/16/2 78/9/2
f 72/7/6 69/9/6 78/9/6
f 70/2/6 63/15/6 73/15/6
f 61/11/6 65/14/6 77/14/6
f 69/3/6 70/2/6 75/2/6
f 87/12/5 79/12/5 80/11/5
f 79/12/5 73/12/5 74/11/5
f 81/2/4 75/2/4 73/15/4
f 82/3/6 78/3/6 75/2/6
f 85/16/2 84/14/2 83/7/2
f 84/14/3 77/14/3 76/7/3
f 83/7/6 76/7/6 78/9/6
f 85/11/5 74/11/5 77/14/5
f 87/15/1 88/17/1 90/3/1
f 90/3/6 82/3/6 81/2/6
f 89/2/4 81/2/4 79/15/4
f 88/16/2 80/16/2 82/9/2
f 92/1/3 99/3/3 100/2/3
f 94/4/4 100/2/4 101/5/4
f 98/6/1 101/5/1 102/7/1
f 96/8/2 102/7/2 99/9/2
f 97/10/5 93/12/5 91/11/5
f 94/13/6 98/6/6 96/8/6
f 95/14/6 107/14/6 106/7/6
f 101/5/1 97/10/1 95/14/1
f 100/2/4 93/15/4 97/10/4
f 93/12/6 103/12/6 104/11/6
f 104/16/3 108/9/3 116/9/3
f 108/9/2 104/16/2 110/16/2
f 102/7/6 106/7/6 108/9/6
f 100/2/6 105/2/6 103/15/6
f 91/11/6 104/11/6 107/14/6
f 99/3/6 108/3/6 105/2/6
f 110/11/5 109/12/5 117/12/5
f 104/11/5 103/12/5 109/12/5
f 103/15/4 105/2/4 111/2/4
f 105/2/6 108/3/6 112/3/6
f 113/7/2 114/14/2 115/16/2
f 106/7/1 107/14/1 114/14/1
f 108/9/6 106/7/6 113/7/6
f 107/14/5 104/11/5 115/11/5
f 120/3/3 118/17/3 117/15/3
f 111/2/6 112/3/6 120/3/6
f 109/15/4 111/2/4 119/2/4
f 112/9/2 110/16/2 118/16/2
f 2/1/1 10/2/1 4/4/1
f 4/4/2 11/5/2 8/6/2
f 8/6/3 12/7/3 6/8/3
f 6/8/4 9/9/4 2/18/4
f 7/10/5 1/11/5 5/14/5
f 4/13/6 6/8/6 2/19/6
f 5/14/6 16/7/6 12/7/6
f 11/5/3 5/14/3 12/7/3
f 10/2/2 7/10/2 11/5/2
f 3/12/6 14/11/6 1/11/6
f 14/16/1 26/9/1 25/16/1
f 18/9/4 20/16/4 22/9/4
f 12/7/6 18/9/6 9/9/6
f 10/2/6 13/15/6 3/15/6
f 1/11/6 17/14/6 5/14/6
f 9/3/6 15/2/6 10/2/6
f 20/11/5 27/12/5 28/11/5
f 14/11/5 19/12/5 20/11/5
f 13/15/2 21/2/2 19/15/2
f 15/2/6 22/3/6 21/2/6
f 23/7/4 25/16/4 26/9/4
f 16/7/3 24/14/3 23/7/3
f 18/9/6 23/7/6 26/9/6
f 17/14/5 25/11/5 24/14/5
f 30/3/1 27/15/1 29/2/1
f 21/2/6 30/3/6 29/2/6
f 19/15/2 29/2/2 27/15/2
f 22/9/4 28/16/4 30/9/4
f 40/2/3 32/1/3 34/4/3
f 41/5/2 34/4/2 38/6/2
f 42/7/1 38/6/1 36/8/1
f 39/9/4 36/8/4 32/18/4
f 31/11/5 37/10/5 35/14/5
f 36/8/6 34/13/6 32/19/6
f 35/14/6 46/7/6 47/14/6
f 35/14/1 41/5/1 42/7/1
f 37/10/2 40/2/2 41/5/2
f 33/12/6 44/11/6 43/12/6
f 56/9/3 44/16/3 55/16/3
f 50/16/4 48/9/4 52/9/4
f 42/7/6 48/9/6 46/7/6
f 40/2/6 43/15/6 45/2/6
f 31/11/6 47/14/6 44/11/6
f 39/3/6 45/2/6 48/3/6
f 57/12/5 50/11/5 58/11/5
f 49/12/5 44/11/5 50/11/5
f 51/2/2 43/15/2 49/15/2
f 52/3/6 45/2/6 51/2/6
f 55/16/4 53/7/4 56/9/4
f 54/14/1 46/7/1 53/7/1
f 53/7/6 48/9/6 56/9/6
f 55/11/5 47/14/5 54/14/5
f 57/15/3 60/3/3 59/2/3
f 60/3/6 51/2/6 59/2/6
f 59/2/2 49/15/2 57/15/2
f 58/16/4 52/9/4 60/9/4
f 70/2/1 62/1/1 64/4/1
f 71/5/4 64/4/4 68/6/4
f 72/7/3 68/6/3 66/8/3
f 69/9/2 66/8/2 62/18/2
f 61/11/5 67/10/5 65/14/5
f 66/8/6 64/13/6 62/19/6
f 65/14/6 76/7/6 77/14/6
f 65/14/3 71/5/3 72/7/3
f 67/10/4 70/2/4 71/5/4
f 63/12/6 74/11/6 73/12/6
f 86/9/1 74/16/1 85/16/1
f 80/16/2 78/9/2 82/9/2
f 72/7/6 78/9/6 76/7/6
f 70/2/6 73/15/6 75/2/6
f 61/11/6 77/14/6 74/11/6
f 69/3/6 75/2/6 78/3/6
f 87/12/5 80/11/5 88/11/5
f 79/12/5 74/11/5 80/11/5
f 81/2/4 73/15/4 79/15/4
f 82/3/6 75/2/6 81/2/6
f 85/16/2 83/7/2 86/9/2
f 84/14/3 76/7/3 83/7/3
f 83/7/6 78/9/6 86/9/6
f 85/11/5 77/14/5 84/14/5
f 87/15/1 90/3/1 89/2/1
f 90/3/6 81/2/6 89/2/6
f 89/2/4 79/15/4 87/15/4
f 88/16/2 82/9/2 90/9/2
f 92/1/3 100/2/3 94/4/3
f 94/4/4 101/5/4 98/6/4
f 98/6/1 102/7/1 96/8/1
f 96/8/2 99/9/2 92/18/2
f 97/10/5 91/11/5 95/14/5
f 94/13/6 96/8/6 92/19/6
f 95/14/6 106/7/6 102/7/6
f 101/5/1 95/14/1 102/7/1
f 100/2/4 97/10/4 101/5/4
f 93/12/6 104/11/6 91/11/6
f 104/16/3 116/9/3 115/16/3
f 108/9/2 110/16/2 112/9/2
f 102/7/6 108/9/6 99/9/6
f 100/2/6 103/15/6 93/15/6
f 91/11/6 107/14/6 95/14/6
f 99/3/6 105/2/6 100/2/6
f 110/11/5 117/12/5 118/11/5
f 104/11/5 109/12/5 110/11/5
f 103/15/4 111/2/4 109/15/4
f 105/2/6 112/3/6 111/2/6
f 113/7/2 115/16/2 116/9/2
f 106/7/1 114/14/1 113/7/1
f 108/9/6 113/7/6 116/9/6
f 107/14/5 115/11/5 114/14/5
f 120/3/3 117/15/3 119/2/3
f 111/2/6 120/3/6 119/2/6
f 109/15/4 119/2/4 117/15/4
f 112/9/2 118/16/2 120/9/2
o Cube.003
v -4.318442 2.947408 2.639113
v -4.154763 3.103326 2.539085
v -4.318442 2.947408 -2.639113
v -4.154763 3.103326 -2.539085
v 4.318442 2.947408 2.639113
v 4.154763 3.103326 2.539085
v 4.318442 2.947408 -2.639113
v 4.154763 3.103326 -2.539085
v -4.318442 3.103326 2.639113
v -4.318442 3.103326 -2.639113
v 4.318442 3.103326 -2.639113
v 4.318442 3.103326 2.639113
v -4.154763 3.144898 2.539085
v -4.154763 3.144898 -2.539085
v 4.154763 3.144898 -2.539085
v 4.154763 3.144898 2.539085
vn -1.0000 -0.0000 -0.0000
vn -0.0000 -0.0000 -1.0000
vn 1.0000 -0.0000 -0.0000
vn -0.0000 -0.0000 1.0000
vn -0.0000 -1.0000 -0.0000
vn -0.0000 1.0000 -0.0000
vn 0.2462 -0.9692 -0.0000
vn -0.0000 -0.9234 0.3838
vn -0.2462 -0.9692 -0.0000
vn -0.0000 -0.9234 -0.3838
vt 0.625000 0.000000
vt 0.375000 0.250000
vt 0.375000 0.000000
vt 0.625000 0.250000
vt 0.375000 0.500000
vt 0.625000 0.500000
vt 0.375000 0.750000
vt 0.625000 0.750000
vt 0.375000 1.000000
vt 0.125000 0.750000
vt 0.125000 0.500000
vt 0.629738 0.745262
vt 0.870262 0.745262
vt 0.870262 0.504738
vt 0.875000 0.750000
vt 0.629738 0.504738
vt 0.875000 0.500000
vt 0.625000 1.000000
s 0
f 129/20/7 123/21/7 121/22/7
f 130/23/8 127/24/8 123/21/8
f 131/25/9 125/26/9 127/24/9
f 132/27/10 121/28/10 125/26/10
f 127/24/11 121/29/11 123/30/11
f 126/31/10 133/32/10 122/32/10
f 124/33/12 129/34/12 122/32/12
f 128/35/12 130/36/12 124/33/12
f 126/31/12 131/25/12 128/35/12
f 122/32/12 132/27/12 126/31/12
f 134/33/12 136/31/12 135/35/12
f 124/33/8 135/35/8 128/35/8
f 128/35/9 136/31/9 126/31/9
f 122/32/7 134/33/7 124/33/7
f 133/32/13 130/36/13 134/33/13
f 134/33/14 131/25/14 135/35/14
f 135/35/15 132/27/15 136/31/15
f 136/31/16 129/34/16 133/32/16
f 129/20/7 130/23/7 123/21/7
f 130/23/8 131/25/8 127/24/8
f 131/25/9 132/27/9 125/26/9
f 132/27/10 129/37/10 121/28/10
f 127/24/11 125/26/11 121/29/11
f 126/31/10 136/31/10 133/32/10
f 124/33/12 130/36/12 129/34/12
f 128/35/12 131/25/12 130/36/12
f 126/31/12 132/27/12 131/25/12
f 122/32/12 129/34/12 132/27/12
f 134/33/12 133/32/12 136/31/12
f 124/33/8 134/33/8 135/35/8
f 128/35/9 135/35/9 136/31/9
f 122/32/7 133/32/7 134/33/7
f 133/32/13 129/34/13 130/36/13
f 134/33/14 130/36/14 131/25/14
f 135/35/15 131/25/15 132/27/15
f 136/31/16 132/27/16 129/34/16
