# Blender 5.2.0 LTS
# www.blender.org
mtllib MejaKayuKotak.mtl
o Cube.002
v 1.750591 2.171677 -1.469392
v 1.750591 -0.115620 -1.469392
v 1.750591 2.171677 -1.926365
v 1.750591 -0.115620 -1.926365
v 2.184530 2.171677 -1.469392
v 2.184530 -0.115620 -1.469392
v 2.184530 2.171677 -1.926365
v 2.184530 -0.115620 -1.926365
v 1.750591 1.709219 -1.469392
v 1.750591 1.709219 -1.926365
v 2.184530 1.709219 -1.926365
v 2.184530 1.709219 -1.469392
v 1.750591 2.171677 -1.926365
v 1.750591 2.171677 -1.469392
v 1.750591 1.709219 -1.926365
v 2.184530 1.709219 -1.469392
v 2.184530 2.171677 -1.469392
v 1.750591 1.709219 -1.469392
v -0.019769 2.171677 -1.926365
v -0.019769 2.171677 -1.469392
v -0.019769 1.709219 -1.926365
v -0.019769 1.709219 -1.469392
v 2.184530 1.709219 0.041467
v 2.184530 2.171677 0.041467
v 1.750591 2.171677 0.041467
v 1.750591 1.709219 0.041467
v -1.750591 2.171677 -1.469392
v -1.750591 -0.115620 -1.469392
v -1.750591 2.171677 -1.926365
v -1.750591 -0.115620 -1.926365
v -2.184530 2.171677 -1.469392
v -2.184530 -0.115620 -1.469392
v -2.184530 2.171677 -1.926365
v -2.184530 -0.115620 -1.926365
v -1.750591 1.709219 -1.469392
v -1.750591 1.709219 -1.926365
v -2.184530 1.709219 -1.926365
v -2.184530 1.709219 -1.469392
v -1.750591 2.171677 -1.926365
v -1.750591 2.171677 -1.469392
v -1.750591 1.709219 -1.926365
v -2.184530 1.709219 -1.469392
v -2.184530 2.171677 -1.469392
v -1.750591 1.709219 -1.469392
v 0.019769 2.171677 -1.926365
v 0.019769 2.171677 -1.469392
v 0.019769 1.709219 -1.926365
v 0.019769 1.709219 -1.469392
v -2.184530 1.709219 0.041467
v -2.184530 2.171677 0.041467
v -1.750591 2.171677 0.041467
v -1.750591 1.709219 0.041467
v 1.750591 2.171677 1.469393
v 1.750591 -0.115620 1.469393
v 1.750591 2.171677 1.926366
v 1.750591 -0.115620 1.926366
v 2.184530 2.171677 1.469393
v 2.184530 -0.115620 1.469393
v 2.184530 2.171677 1.926366
v 2.184530 -0.115620 1.926366
v 1.750591 1.709219 1.469393
v 1.750591 1.709219 1.926366
v 2.184530 1.709219 1.926366
v 2.184530 1.709219 1.469393
v 1.750591 2.171677 1.926366
v 1.750591 2.171677 1.469393
v 1.750591 1.709219 1.926366
v 2.184530 1.709219 1.469393
v 2.184530 2.171677 1.469393
v 1.750591 1.709219 1.469393
v -0.019769 2.171677 1.926366
v -0.019769 2.171677 1.469393
v -0.019769 1.709219 1.926366
v -0.019769 1.709219 1.469393
v 2.184530 1.709219 -0.041467
v 2.184530 2.171677 -0.041467
v 1.750591 2.171677 -0.041467
v 1.750591 1.709219 -0.041467
v -1.750591 2.171677 1.469393
v -1.750591 -0.115620 1.469393
v -1.750591 2.171677 1.926366
v -1.750591 -0.115620 1.926366
v -2.184530 2.171677 1.469393
v -2.184530 -0.115620 1.469393
v -2.184530 2.171677 1.926366
v -2.184530 -0.115620 1.926366
v -1.750591 1.709219 1.469393
v -1.750591 1.709219 1.926366
v -2.184530 1.709219 1.926366
v -2.184530 1.709219 1.469393
v -1.750591 2.171677 1.926366
v -1.750591 2.171677 1.469393
v -1.750591 1.709219 1.926366
v -2.184530 1.709219 1.469393
v -2.184530 2.171677 1.469393
v -1.750591 1.709219 1.469393
v 0.019769 2.171677 1.926366
v 0.019769 2.171677 1.469393
v 0.019769 1.709219 1.926366
v 0.019769 1.709219 1.469393
v -2.184530 1.709219 -0.041466
v -2.184530 2.171677 -0.041466
v -1.750591 2.171677 -0.041466
v -1.750591 1.709219 -0.041466
vn -1.0000 -0.0000 -0.0000
vn -0.0000 -0.0000 -1.0000
vn 1.0000 -0.0000 -0.0000
vn -0.0000 -0.0000 1.0000
vn -0.0000 1.0000 -0.0000
vn -0.0000 -1.0000 -0.0000
vt 0.625000 0.000000
vt 0.425546 0.250000
vt 0.425546 0.000000
vt 0.625000 0.250000
vt 0.425546 0.500000
vt 0.625000 0.500000
vt 0.425546 0.750000
vt 0.625000 0.750000
vt 0.425546 1.000000
vt 0.375000 0.500000
vt 0.125000 0.750000
vt 0.125000 0.500000
vt 0.875000 0.500000
vt 0.375000 0.750000
vt 0.375000 0.250000
vt 0.375000 1.000000
vt 0.375000 0.000000
vt 0.625000 1.000000
vt 0.875000 0.750000
s 0
f 2/1/1 9/3/1 10/2/1
f 4/4/2 10/2/2 11/5/2
f 8/6/3 11/5/3 12/7/3
f 6/8/4 12/7/4 9/9/4
f 7/10/5 3/12/5 1/11/5
f 4/13/6 8/6/6 6/8/6
f 5/14/6 17/14/6 16/7/6
f 11/5/3 7/10/3 5/14/3
f 10/2/2 3/15/2 7/10/2
f 3/12/6 13/12/6 14/11/6
f 14/16/1 18/9/1 26/9/1
f 18/9/4 14/16/4 20/16/4
f 12/7/6 16/7/6 18/9/6
f 10/2/6 15/2/6 13/15/6
f 1/11/6 14/11/6 17/14/6
f 9/3/6 18/3/6 15/2/6
f 22/3/1 20/17/1 19/15/1
f 14/11/5 13/12/5 19/12/5
f 13/15/2 15/2/2 21/2/2
f 15/2/6 18/3/6 22/3/6
f 23/7/4 24/14/4 25/16/4
f 16/7/3 17/14/3 24/14/3
f 18/9/6 16/7/6 23/7/6
f 17/14/5 14/11/5 25/11/5
f 36/2/3 35/3/3 28/1/3
f 37/5/2 36/2/2 30/4/2
f 38/7/1 37/5/1 34/6/1
f 35/9/4 38/7/4 32/8/4
f 27/11/5 29/12/5 33/10/5
f 32/8/6 34/6/6 30/13/6
f 31/14/6 38/7/6 42/7/6
f 31/14/1 33/10/1 37/5/1
f 33/10/2 29/15/2 36/2/2
f 29/12/6 27/11/6 40/11/6
f 52/9/3 44/9/3 40/16/3
f 46/16/4 40/16/4 44/9/4
f 38/7/6 35/9/6 44/9/6
f 36/2/6 29/15/6 39/15/6
f 27/11/6 31/14/6 43/14/6
f 35/3/6 36/2/6 41/2/6
f 45/15/3 46/17/3 48/3/3
f 45/12/5 39/12/5 40/11/5
f 47/2/2 41/2/2 39/15/2
f 48/3/6 44/3/6 41/2/6
f 51/16/4 50/14/4 49/7/4
f 50/14/1 43/14/1 42/7/1
f 49/7/6 42/7/6 44/9/6
f 51/11/5 40/11/5 43/14/5
f 62/2/1 61/3/1 54/1/1
f 63/5/4 62/2/4 56/4/4
f 64/7/3 63/5/3 60/6/3
f 61/9/2 64/7/2 58/8/2
f 53/11/5 55/12/5 59/10/5
f 58/8/6 60/6/6 56/13/6
f 57/14/6 64/7/6 68/7/6
f 57/14/3 59/10/3 63/5/3
f 59/10/4 55/15/4 62/2/4
f 55/12/6 53/11/6 66/11/6
f 78/9/1 70/9/1 66/16/1
f 72/16/2 66/16/2 70/9/2
f 64/7/6 61/9/6 70/9/6
f 62/2/6 55/15/6 65/15/6
f 53/11/6 57/14/6 69/14/6
f 61/3/6 62/2/6 67/2/6
f 71/15/1 72/17/1 74/3/1
f 71/12/5 65/12/5 66/11/5
f 73/2/4 67/2/4 65/15/4
f 74/3/6 70/3/6 67/2/6
f 77/16/2 76/14/2 75/7/2
f 76/14/3 69/14/3 68/7/3
f 75/7/6 68/7/6 70/9/6
f 77/11/5 66/11/5 69/14/5
f 80/1/3 87/3/3 88/2/3
f 82/4/4 88/2/4 89/5/4
f 86/6/1 89/5/1 90/7/1
f 84/8/2 90/7/2 87/9/2
f 85/10/5 81/12/5 79/11/5
f 82/13/6 86/6/6 84/8/6
f 83/14/6 95/14/6 94/7/6
f 89/5/1 85/10/1 83/14/1
f 88/2/4 81/15/4 85/10/4
f 81/12/6 91/12/6 92/11/6
f 92/16/3 96/9/3 104/9/3
f 96/9/2 92/16/2 98/16/2
f 90/7/6 94/7/6 96/9/6
f 88/2/6 93/2/6 91/15/6
f 79/11/6 92/11/6 95/14/6
f 87/3/6 96/3/6 93/2/6
f 100/3/3 98/17/3 97/15/3
f 92/11/5 91/12/5 97/12/5
f 91/15/4 93/2/4 99/2/4
f 93/2/6 96/3/6 100/3/6
f 101/7/2 102/14/2 103/16/2
f 94/7/1 95/14/1 102/14/1
f 96/9/6 94/7/6 101/7/6
f 95/14/5 92/11/5 103/11/5
f 2/1/1 10/2/1 4/4/1
f 4/4/2 11/5/2 8/6/2
f 8/6/3 12/7/3 6/8/3
f 6/8/4 9/9/4 2/18/4
f 7/10/5 1/11/5 5/14/5
f 4/13/6 6/8/6 2/19/6
f 5/14/6 16/7/6 12/7/6
f 11/5/3 5/14/3 12/7/3
f 10/2/2 7/10/2 11/5/2
f 3/12/6 14/11/6 1/11/6
f 14/16/1 26/9/1 25/16/1
f 18/9/4 20/16/4 22/9/4
f 12/7/6 18/9/6 9/9/6
f 10/2/6 13/15/6 3/15/6
f 1/11/6 17/14/6 5/14/6
f 9/3/6 15/2/6 10/2/6
f 22/3/1 19/15/1 21/2/1
f 14/11/5 19/12/5 20/11/5
f 13/15/2 21/2/2 19/15/2
f 15/2/6 22/3/6 21/2/6
f 23/7/4 25/16/4 26/9/4
f 16/7/3 24/14/3 23/7/3
f 18/9/6 23/7/6 26/9/6
f 17/14/5 25/11/5 24/14/5
f 36/2/3 28/1/3 30/4/3
f 37/5/2 30/4/2 34/6/2
f 38/7/1 34/6/1 32/8/1
f 35/9/4 32/8/4 28/18/4
f 27/11/5 33/10/5 31/14/5
f 32/8/6 30/13/6 28/19/6
f 31/14/6 42/7/6 43/14/6
f 31/14/1 37/5/1 38/7/1
f 33/10/2 36/2/2 37/5/2
f 29/12/6 40/11/6 39/12/6
f 52/9/3 40/16/3 51/16/3
f 46/16/4 44/9/4 48/9/4
f 38/7/6 44/9/6 42/7/6
f 36/2/6 39/15/6 41/2/6
f 27/11/6 43/14/6 40/11/6
f 35/3/6 41/2/6 44/3/6
f 45/15/3 48/3/3 47/2/3
f 45/12/5 40/11/5 46/11/5
f 47/2/2 39/15/2 45/15/2
f 48/3/6 41/2/6 47/2/6
f 51/16/4 49/7/4 52/9/4
f 50/14/1 42/7/1 49/7/1
f 49/7/6 44/9/6 52/9/6
f 51/11/5 43/14/5 50/14/5
f 62/2/1 54/1/1 56/4/1
f 63/5/4 56/4/4 60/6/4
f 64/7/3 60/6/3 58/8/3
f 61/9/2 58/8/2 54/18/2
f 53/11/5 59/10/5 57/14/5
f 58/8/6 56/13/6 54/19/6
f 57/14/6 68/7/6 69/14/6
f 57/14/3 63/5/3 64/7/3
f 59/10/4 62/2/4 63/5/4
f 55/12/6 66/11/6 65/12/6
f 78/9/1 66/16/1 77/16/1
f 72/16/2 70/9/2 74/9/2
f 64/7/6 70/9/6 68/7/6
f 62/2/6 65/15/6 67/2/6
f 53/11/6 69/14/6 66/11/6
f 61/3/6 67/2/6 70/3/6
f 71/15/1 74/3/1 73/2/1
f 71/12/5 66/11/5 72/11/5
f 73/2/4 65/15/4 71/15/4
f 74/3/6 67/2/6 73/2/6
f 77/16/2 75/7/2 78/9/2
f 76/14/3 68/7/3 75/7/3
f 75/7/6 70/9/6 78/9/6
f 77/11/5 69/14/5 76/14/5
f 80/1/3 88/2/3 82/4/3
f 82/4/4 89/5/4 86/6/4
f 86/6/1 90/7/1 84/8/1
f 84/8/2 87/9/2 80/18/2
f 85/10/5 79/11/5 83/14/5
f 82/13/6 84/8/6 80/19/6
f 83/14/6 94/7/6 90/7/6
f 89/5/1 83/14/1 90/7/1
f 88/2/4 85/10/4 89/5/4
f 81/12/6 92/11/6 79/11/6
f 92/16/3 104/9/3 103/16/3
f 96/9/2 98/16/2 100/9/2
f 90/7/6 96/9/6 87/9/6
f 88/2/6 91/15/6 81/15/6
f 79/11/6 95/14/6 83/14/6
f 87/3/6 93/2/6 88/2/6
f 100/3/3 97/15/3 99/2/3
f 92/11/5 97/12/5 98/11/5
f 91/15/4 99/2/4 97/15/4
f 93/2/6 100/3/6 99/2/6
f 101/7/2 103/16/2 104/9/2
f 94/7/1 102/14/1 101/7/1
f 96/9/6 101/7/6 104/9/6
f 95/14/5 103/11/5 102/14/5
o Cube.003
v -2.567050 2.070900 2.266319
v -2.469753 2.226819 2.180420
v -2.567050 2.070900 -2.266319
v -2.469753 2.226819 -2.180420
v 2.567050 2.070900 2.266319
v 2.469753 2.226819 2.180420
v 2.567050 2.070900 -2.266319
v 2.469753 2.226819 -2.180420
v -2.567050 2.226819 2.266319
v -2.567050 2.226819 -2.266319
v 2.567050 2.226819 -2.266319
v 2.567050 2.226819 2.266319
v -2.469753 2.268390 2.180420
v -2.469753 2.268390 -2.180420
v 2.469753 2.268390 -2.180420
v 2.469753 2.268390 2.180420
vn -1.0000 -0.0000 -0.0000
vn -0.0000 -0.0000 -1.0000
vn 1.0000 -0.0000 -0.0000
vn -0.0000 -0.0000 1.0000
vn -0.0000 -1.0000 -0.0000
vn -0.0000 1.0000 -0.0000
vn 0.3929 -0.9196 -0.0000
vn -0.0000 -0.9001 0.4356
vn -0.3929 -0.9196 -0.0000
vn -0.0000 -0.9001 -0.4356
vt 0.625000 0.000000
vt 0.375000 0.250000
vt 0.375000 0.000000
vt 0.625000 0.250000
vt 0.375000 0.500000
vt 0.625000 0.500000
vt 0.375000 0.750000
vt 0.625000 0.750000
vt 0.375000 1.000000
vt 0.125000 0.750000
vt 0.125000 0.500000
vt 0.629738 0.745262
vt 0.870262 0.745262
vt 0.870262 0.504738
vt 0.875000 0.750000
vt 0.629738 0.504738
vt 0.875000 0.500000
vt 0.625000 1.000000
s 0
f 113/20/7 107/21/7 105/22/7
f 114/23/8 111/24/8 107/21/8
f 115/25/9 109/26/9 111/24/9
f 116/27/10 105/28/10 109/26/10
f 111/24/11 105/29/11 107/30/11
f 110/31/10 117/32/10 106/32/10
f 108/33/12 113/34/12 106/32/12
f 112/35/12 114/36/12 108/33/12
f 110/31/12 115/25/12 112/35/12
f 106/32/12 116/27/12 110/31/12
f 118/33/12 120/31/12 119/35/12
f 108/33/8 119/35/8 112/35/8
f 112/35/9 120/31/9 110/31/9
f 106/32/7 118/33/7 108/33/7
f 117/32/13 114/36/13 118/33/13
f 118/33/14 115/25/14 119/35/14
f 119/35/15 116/27/15 120/31/15
f 120/31/16 113/34/16 117/32/16
f 113/20/7 114/23/7 107/21/7
f 114/23/8 115/25/8 111/24/8
f 115/25/9 116/27/9 109/26/9
f 116/27/10 113/37/10 105/28/10
f 111/24/11 109/26/11 105/29/11
f 110/31/10 120/31/10 117/32/10
f 108/33/12 114/36/12 113/34/12
f 112/35/12 115/25/12 114/36/12
f 110/31/12 116/27/12 115/25/12
f 106/32/12 113/34/12 116/27/12
f 118/33/12 117/32/12 120/31/12
f 108/33/8 118/33/8 119/35/8
f 112/35/9 119/35/9 120/31/9
f 106/32/7 117/32/7 118/33/7
f 117/32/13 113/34/13 114/36/13
f 118/33/14 114/36/14 115/25/14
f 119/35/15 115/25/15 116/27/15
f 120/31/16 116/27/16 113/34/16
