# Blender 5.2.0 LTS
# www.blender.org
mtllib MejaBesiKasir.mtl
o Cylinder.002
v -31.434881 2.391961 -65.833214
v -31.434881 2.440620 -65.833214
v -31.502665 2.391961 -66.032196
v -31.502665 2.440620 -66.032196
v -31.530329 2.391961 -66.240578
v -31.530329 2.440620 -66.240578
v -31.516808 2.391961 -66.450348
v -31.516808 2.440620 -66.450348
v -31.462620 2.391961 -66.653450
v -31.462620 2.440620 -66.653450
v -31.369850 2.391961 -66.842087
v -31.369850 2.440620 -66.842087
v -31.242064 2.391961 -67.008995
v -31.242064 2.440620 -67.008995
v -31.084169 2.391961 -67.147766
v -31.084169 2.440620 -67.147766
v -30.902237 2.391961 -67.253067
v -30.902237 2.440620 -67.253067
v -30.703257 2.391961 -67.320847
v -30.703257 2.440620 -67.320847
v -30.494877 2.391961 -67.348511
v -30.494877 2.440620 -67.348511
v -30.285103 2.391961 -67.334991
v -30.285103 2.440620 -67.334991
v -30.081997 2.391961 -67.280807
v -30.081997 2.440620 -67.280807
v -29.893366 2.391961 -67.188034
v -29.893366 2.440620 -67.188034
v -29.726458 2.391961 -67.060249
v -29.726458 2.440620 -67.060249
v -29.587687 2.391961 -66.902351
v -29.587687 2.440620 -66.902351
v -29.482386 2.391961 -66.720421
v -29.482386 2.440620 -66.720421
v -29.414602 2.391961 -66.521439
v -29.414602 2.440620 -66.521439
v -29.386938 2.391961 -66.313057
v -29.386938 2.440620 -66.313057
v -29.400459 2.391961 -66.103287
v -29.400459 2.440620 -66.103287
v -29.454647 2.391961 -65.900185
v -29.454647 2.440620 -65.900185
v -29.547417 2.391961 -65.711548
v -29.547417 2.440620 -65.711548
v -29.675203 2.391961 -65.544640
v -29.675203 2.440620 -65.544640
v -29.833097 2.391961 -65.405869
v -29.833097 2.440620 -65.405869
v -30.015030 2.391961 -65.300568
v -30.015030 2.440620 -65.300568
v -30.214010 2.391961 -65.232788
v -30.214010 2.440620 -65.232788
v -30.422390 2.391961 -65.205124
v -30.422390 2.440620 -65.205124
v -30.632164 2.391961 -65.218643
v -30.632164 2.440620 -65.218643
v -30.835270 2.391961 -65.272827
v -30.835270 2.440620 -65.272827
v -31.023901 2.391961 -65.365601
v -31.023901 2.440620 -65.365601
v -31.190809 2.391961 -65.493385
v -31.190809 2.440620 -65.493385
v -31.329580 2.391961 -65.651283
v -31.329580 2.440620 -65.651283
vn -0.9466 -0.0000 0.3225
vn -0.9913 -0.0000 0.1316
vn -0.9979 -0.0000 -0.0643
vn -0.9662 -0.0000 -0.2578
vn -0.8974 -0.0000 -0.4413
vn -0.7940 -0.0000 -0.6079
vn -0.6602 -0.0000 -0.7511
vn -0.5009 -0.0000 -0.8655
vn -0.3225 -0.0000 -0.9466
vn -0.1316 -0.0000 -0.9913
vn 0.0643 -0.0000 -0.9979
vn 0.2578 -0.0000 -0.9662
vn 0.4413 -0.0000 -0.8974
vn 0.6079 -0.0000 -0.7940
vn 0.7511 -0.0000 -0.6602
vn 0.8655 -0.0000 -0.5009
vn 0.9466 -0.0000 -0.3225
vn 0.9913 -0.0000 -0.1316
vn 0.9979 -0.0000 0.0643
vn 0.9662 -0.0000 0.2578
vn 0.8974 -0.0000 0.4413
vn 0.7940 -0.0000 0.6079
vn 0.6602 -0.0000 0.7511
vn 0.5009 -0.0000 0.8655
vn 0.3225 -0.0000 0.9466
vn 0.1316 -0.0000 0.9913
vn -0.0643 -0.0000 0.9979
vn -0.2578 -0.0000 0.9662
vn -0.4413 -0.0000 0.8974
vn -0.6079 -0.0000 0.7940
vn -0.0000 1.0000 -0.0000
vn -0.7511 -0.0000 0.6602
vn -0.8655 -0.0000 0.5009
vn -0.0000 -1.0000 -0.0000
vt 1.000000 0.500000
vt 1.000000 1.000000
vt 0.968750 1.000000
vt 0.968750 0.500000
vt 0.937500 1.000000
vt 0.937500 0.500000
vt 0.906250 1.000000
vt 0.906250 0.500000
vt 0.875000 1.000000
vt 0.875000 0.500000
vt 0.843750 1.000000
vt 0.843750 0.500000
vt 0.812500 1.000000
vt 0.812500 0.500000
vt 0.781250 1.000000
vt 0.781250 0.500000
vt 0.750000 1.000000
vt 0.750000 0.500000
vt 0.718750 1.000000
vt 0.718750 0.500000
vt 0.687500 1.000000
vt 0.687500 0.500000
vt 0.656250 1.000000
vt 0.656250 0.500000
vt 0.625000 1.000000
vt 0.625000 0.500000
vt 0.593750 1.000000
vt 0.593750 0.500000
vt 0.562500 1.000000
vt 0.562500 0.500000
vt 0.531250 1.000000
vt 0.531250 0.500000
vt 0.500000 1.000000
vt 0.500000 0.500000
vt 0.468750 1.000000
vt 0.468750 0.500000
vt 0.437500 1.000000
vt 0.437500 0.500000
vt 0.406250 1.000000
vt 0.406250 0.500000
vt 0.375000 1.000000
vt 0.375000 0.500000
vt 0.343750 1.000000
vt 0.343750 0.500000
vt 0.312500 1.000000
vt 0.312500 0.500000
vt 0.281250 1.000000
vt 0.281250 0.500000
vt 0.250000 1.000000
vt 0.250000 0.500000
vt 0.218750 1.000000
vt 0.218750 0.500000
vt 0.187500 1.000000
vt 0.187500 0.500000
vt 0.156250 1.000000
vt 0.156250 0.500000
vt 0.125000 1.000000
vt 0.125000 0.500000
vt 0.093750 1.000000
vt 0.093750 0.500000
vt 0.062500 1.000000
vt 0.062500 0.500000
vt 0.296822 0.485388
vt 0.250000 0.490000
vt 0.203178 0.485388
vt 0.158156 0.471731
vt 0.116663 0.449553
vt 0.080294 0.419706
vt 0.050447 0.383337
vt 0.028269 0.341844
vt 0.014612 0.296822
vt 0.010000 0.250000
vt 0.014612 0.203178
vt 0.028269 0.158156
vt 0.050447 0.116663
vt 0.080294 0.080294
vt 0.116663 0.050447
vt 0.158156 0.028269
vt 0.203178 0.014612
vt 0.250000 0.010000
vt 0.296822 0.014612
vt 0.341844 0.028269
vt 0.383337 0.050447
vt 0.419706 0.080294
vt 0.449553 0.116663
vt 0.471731 0.158156
vt 0.485388 0.203178
vt 0.490000 0.250000
vt 0.485388 0.296822
vt 0.471731 0.341844
vt 0.449553 0.383337
vt 0.419706 0.419706
vt 0.383337 0.449553
vt 0.341844 0.471731
vt 0.031250 1.000000
vt 0.031250 0.500000
vt 0.000000 1.000000
vt 0.000000 0.500000
vt 0.750000 0.490000
vt 0.796822 0.485388
vt 0.841844 0.471731
vt 0.883337 0.449553
vt 0.919706 0.419706
vt 0.949553 0.383337
vt 0.971731 0.341844
vt 0.985388 0.296822
vt 0.990000 0.250000
vt 0.985388 0.203178
vt 0.971731 0.158156
vt 0.949553 0.116663
vt 0.919706 0.080294
vt 0.883337 0.050447
vt 0.841844 0.028269
vt 0.796822 0.014612
vt 0.750000 0.010000
vt 0.703178 0.014612
vt 0.658156 0.028269
vt 0.616663 0.050447
vt 0.580294 0.080294
vt 0.550447 0.116663
vt 0.528269 0.158156
vt 0.514612 0.203178
vt 0.510000 0.250000
vt 0.514612 0.296822
vt 0.528269 0.341844
vt 0.550447 0.383337
vt 0.580294 0.419706
vt 0.616663 0.449553
vt 0.658156 0.471731
vt 0.703178 0.485388
s 0
f 1/1/1 2/2/1 4/3/1 3/4/1
f 3/4/2 4/3/2 6/5/2 5/6/2
f 5/6/3 6/5/3 8/7/3 7/8/3
f 7/8/4 8/7/4 10/9/4 9/10/4
f 9/10/5 10/9/5 12/11/5 11/12/5
f 11/12/6 12/11/6 14/13/6 13/14/6
f 13/14/7 14/13/7 16/15/7 15/16/7
f 15/16/8 16/15/8 18/17/8 17/18/8
f 17/18/9 18/17/9 20/19/9 19/20/9
f 19/20/10 20/19/10 22/21/10 21/22/10
f 21/22/11 22/21/11 24/23/11 23/24/11
f 23/24/12 24/23/12 26/25/12 25/26/12
f 25/26/13 26/25/13 28/27/13 27/28/13
f 27/28/14 28/27/14 30/29/14 29/30/14
f 29/30/15 30/29/15 32/31/15 31/32/15
f 31/32/16 32/31/16 34/33/16 33/34/16
f 33/34/17 34/33/17 36/35/17 35/36/17
f 35/36/18 36/35/18 38/37/18 37/38/18
f 37/38/19 38/37/19 40/39/19 39/40/19
f 39/40/20 40/39/20 42/41/20 41/42/20
f 41/42/21 42/41/21 44/43/21 43/44/21
f 43/44/22 44/43/22 46/45/22 45/46/22
f 45/46/23 46/45/23 48/47/23 47/48/23
f 47/48/24 48/47/24 50/49/24 49/50/24
f 49/50/25 50/49/25 52/51/25 51/52/25
f 51/52/26 52/51/26 54/53/26 53/54/26
f 53/54/27 54/53/27 56/55/27 55/56/27
f 55/56/28 56/55/28 58/57/28 57/58/28
f 57/58/29 58/57/29 60/59/29 59/60/29
f 59/60/30 60/59/30 62/61/30 61/62/30
f 4/63/31 2/64/31 64/65/31 62/66/31 60/67/31 58/68/31 56/69/31 54/70/31 52/71/31 50/72/31 48/73/31 46/74/31 44/75/31 42/76/31 40/77/31 38/78/31 36/79/31 34/80/31 32/81/31 30/82/31 28/83/31 26/84/31 24/85/31 22/86/31 20/87/31 18/88/31 16/89/31 14/90/31 12/91/31 10/92/31 8/93/31 6/94/31
f 61/62/32 62/61/32 64/95/32 63/96/32
f 63/96/33 64/95/33 2/97/33 1/98/33
f 1/99/34 3/100/34 5/101/34 7/102/34 9/103/34 11/104/34 13/105/34 15/106/34 17/107/34 19/108/34 21/109/34 23/110/34 25/111/34 27/112/34 29/113/34 31/114/34 33/115/34 35/116/34 37/117/34 39/118/34 41/119/34 43/120/34 45/121/34 47/122/34 49/123/34 51/124/34 53/125/34 55/126/34 57/127/34 59/128/34 61/129/34 63/130/34
o Cube.100
v -31.244495 -0.393379 -66.468712
v -30.318186 2.402061 -66.889626
v -31.317833 -0.364060 -66.435387
v -30.391523 2.431381 -66.856300
v -31.279959 -0.393379 -66.546761
v -30.353649 2.402061 -66.967674
v -31.353296 -0.364060 -66.513435
v -30.426987 2.431381 -66.934349
vn 0.4137 -0.0000 0.9104
vn -0.8555 0.3420 0.3887
vn -0.4137 -0.0000 -0.9104
vn 0.8555 -0.3420 -0.3887
vn -0.3114 -0.9397 0.1415
vn 0.3114 0.9397 -0.1415
vt 0.375000 0.000000
vt 0.625000 0.000000
vt 0.625000 0.250000
vt 0.375000 0.250000
vt 0.625000 0.500000
vt 0.375000 0.500000
vt 0.625000 0.750000
vt 0.375000 0.750000
vt 0.625000 1.000000
vt 0.375000 1.000000
vt 0.125000 0.500000
vt 0.125000 0.750000
vt 0.875000 0.500000
vt 0.875000 0.750000
s 0
f 65/131/35 66/132/35 68/133/35 67/134/35
f 67/134/36 68/133/36 72/135/36 71/136/36
f 71/136/37 72/135/37 70/137/37 69/138/37
f 69/138/38 70/137/38 66/139/38 65/140/38
f 67/141/39 71/136/39 69/138/39 65/142/39
f 72/135/40 68/143/40 66/144/40 70/137/40
o Cube.101
v -30.009890 -0.364060 -67.029709
v -30.936199 2.431381 -66.608795
v -30.083227 -0.393379 -66.996384
v -31.009537 2.402061 -66.575470
v -30.045353 -0.364060 -67.107758
v -30.971663 2.431381 -66.686844
v -30.118690 -0.393379 -67.074432
v -31.045000 2.402061 -66.653519
vn 0.4137 -0.0000 0.9104
vn -0.8555 -0.3420 0.3887
vn -0.4137 -0.0000 -0.9104
vn 0.8555 0.3420 -0.3887
vn 0.3114 -0.9397 -0.1415
vn -0.3114 0.9397 0.1415
vt 0.375000 0.000000
vt 0.625000 0.000000
vt 0.625000 0.250000
vt 0.375000 0.250000
vt 0.625000 0.500000
vt 0.375000 0.500000
vt 0.625000 0.750000
vt 0.375000 0.750000
vt 0.625000 1.000000
vt 0.375000 1.000000
vt 0.125000 0.500000
vt 0.125000 0.750000
vt 0.875000 0.500000
vt 0.875000 0.750000
s 0
f 73/145/41 74/146/41 76/147/41 75/148/41
f 75/148/42 76/147/42 80/149/42 79/150/42
f 79/150/43 80/149/43 78/151/43 77/152/43
f 77/152/44 78/151/44 74/153/44 73/154/44
f 75/155/45 79/150/45 77/152/45 73/156/45
f 80/149/46 76/157/46 74/158/46 78/151/46
o Cube.102
v -29.560375 -0.364060 -66.040459
v -30.486685 2.431381 -65.619545
v -29.633713 -0.393379 -66.007133
v -30.560022 2.402061 -65.586220
v -29.595839 -0.364060 -66.118507
v -30.522148 2.431381 -65.697594
v -29.669176 -0.393379 -66.085182
v -30.595486 2.402061 -65.664268
vn 0.4137 -0.0000 0.9104
vn -0.8555 -0.3420 0.3887
vn -0.4137 -0.0000 -0.9104
vn 0.8555 0.3420 -0.3887
vn 0.3114 -0.9397 -0.1415
vn -0.3114 0.9397 0.1415
vt 0.375000 0.000000
vt 0.625000 0.000000
vt 0.625000 0.250000
vt 0.375000 0.250000
vt 0.625000 0.500000
vt 0.375000 0.500000
vt 0.625000 0.750000
vt 0.375000 0.750000
vt 0.625000 1.000000
vt 0.375000 1.000000
vt 0.125000 0.500000
vt 0.125000 0.750000
vt 0.875000 0.500000
vt 0.875000 0.750000
s 0
f 81/159/47 82/160/47 84/161/47 83/162/47
f 83/162/48 84/161/48 88/163/48 87/164/48
f 87/164/49 88/163/49 86/165/49 85/166/49
f 85/166/50 86/165/50 82/167/50 81/168/50
f 83/169/51 87/164/51 85/166/51 81/170/51
f 88/163/52 84/171/52 82/172/52 86/165/52
o Cube.103
v -30.794981 -0.393379 -65.479454
v -29.868671 2.402061 -65.900368
v -30.868319 -0.364060 -65.446129
v -29.942009 2.431381 -65.867043
v -30.830444 -0.393379 -65.557503
v -29.904135 2.402061 -65.978416
v -30.903782 -0.364060 -65.524178
v -29.977472 2.431381 -65.945091
vn 0.4137 -0.0000 0.9104
vn -0.8555 0.3420 0.3887
vn -0.4137 -0.0000 -0.9104
vn 0.8555 -0.3420 -0.3887
vn -0.3114 -0.9397 0.1415
vn 0.3114 0.9397 -0.1415
vt 0.375000 0.000000
vt 0.625000 0.000000
vt 0.625000 0.250000
vt 0.375000 0.250000
vt 0.625000 0.500000
vt 0.375000 0.500000
vt 0.625000 0.750000
vt 0.375000 0.750000
vt 0.625000 1.000000
vt 0.375000 1.000000
vt 0.125000 0.500000
vt 0.125000 0.750000
vt 0.875000 0.500000
vt 0.875000 0.750000
s 0
f 89/173/53 90/174/53 92/175/53 91/176/53
f 91/176/54 92/175/54 96/177/54 95/178/54
f 95/178/55 96/177/55 94/179/55 93/180/55
f 93/180/56 94/179/56 90/181/56 89/182/56
f 91/183/57 95/178/57 93/180/57 89/184/57
f 96/177/58 92/185/58 90/186/58 94/179/58
o Cylinder.010
v -31.312614 2.391961 -76.032990
v -31.312614 2.440620 -76.032990
v -31.169846 2.391961 -76.187279
v -31.169846 2.440620 -76.187279
v -30.999718 2.391961 -76.310753
v -30.999718 2.440620 -76.310753
v -30.808773 2.391961 -76.398659
v -30.808773 2.440620 -76.398659
v -30.604347 2.391961 -76.447624
v -30.604347 2.440620 -76.447624
v -30.394297 2.391961 -76.455765
v -30.394297 2.440620 -76.455765
v -30.186691 2.391961 -76.422775
v -30.186691 2.440620 -76.422775
v -29.989513 2.391961 -76.349922
v -29.989513 2.440620 -76.349922
v -29.810337 2.391961 -76.239990
v -29.810337 2.440620 -76.239990
v -29.656050 2.391961 -76.097221
v -29.656050 2.440620 -76.097221
v -29.532579 2.391961 -75.927094
v -29.532579 2.440620 -75.927094
v -29.444672 2.391961 -75.736153
v -29.444672 2.440620 -75.736153
v -29.395704 2.391961 -75.531723
v -29.395704 2.440620 -75.531723
v -29.387560 2.391961 -75.321671
v -29.387560 2.440620 -75.321671
v -29.420551 2.391961 -75.114067
v -29.420551 2.440620 -75.114067
v -29.493410 2.391961 -74.916893
v -29.493410 2.440620 -74.916893
v -29.603336 2.391961 -74.737717
v -29.603336 2.440620 -74.737717
v -29.746105 2.391961 -74.583427
v -29.746105 2.440620 -74.583427
v -29.916233 2.391961 -74.459953
v -29.916233 2.440620 -74.459953
v -30.107178 2.391961 -74.372047
v -30.107178 2.440620 -74.372047
v -30.311604 2.391961 -74.323082
v -30.311604 2.440620 -74.323082
v -30.521654 2.391961 -74.314941
v -30.521654 2.440620 -74.314941
v -30.729259 2.391961 -74.347931
v -30.729259 2.440620 -74.347931
v -30.926437 2.391961 -74.420784
v -30.926437 2.440620 -74.420784
v -31.105614 2.391961 -74.530716
v -31.105614 2.440620 -74.530716
v -31.259901 2.391961 -74.673485
v -31.259901 2.440620 -74.673485
v -31.383371 2.391961 -74.843613
v -31.383371 2.440620 -74.843613
v -31.471279 2.391961 -75.034554
v -31.471279 2.440620 -75.034554
v -31.520247 2.391961 -75.238983
v -31.520247 2.440620 -75.238983
v -31.528391 2.391961 -75.449036
v -31.528391 2.440620 -75.449036
v -31.495399 2.391961 -75.656639
v -31.495399 2.440620 -75.656639
v -31.422541 2.391961 -75.853813
v -31.422541 2.440620 -75.853813
vn -0.7340 -0.0000 -0.6792
vn -0.5874 -0.0000 -0.8093
vn -0.4182 -0.0000 -0.9084
vn -0.2329 -0.0000 -0.9725
vn -0.0387 -0.0000 -0.9992
vn 0.1569 -0.0000 -0.9876
vn 0.3466 -0.0000 -0.9380
vn 0.5229 -0.0000 -0.8524
vn 0.6792 -0.0000 -0.7340
vn 0.8093 -0.0000 -0.5874
vn 0.9084 -0.0000 -0.4182
vn 0.9725 -0.0000 -0.2329
vn 0.9992 -0.0000 -0.0387
vn 0.9876 -0.0000 0.1569
vn 0.9380 -0.0000 0.3466
vn 0.8524 -0.0000 0.5229
vn 0.7340 -0.0000 0.6792
vn 0.5874 -0.0000 0.8093
vn 0.4182 -0.0000 0.9084
vn 0.2329 -0.0000 0.9725
vn 0.0387 -0.0000 0.9992
vn -0.1569 -0.0000 0.9876
vn -0.3466 -0.0000 0.9380
vn -0.5229 -0.0000 0.8524
vn -0.6792 -0.0000 0.7340
vn -0.8093 -0.0000 0.5874
vn -0.9084 -0.0000 0.4182
vn -0.9725 -0.0000 0.2329
vn -0.9992 -0.0000 0.0387
vn -0.9876 -0.0000 -0.1569
vn -0.0000 1.0000 -0.0000
vn -0.9380 -0.0000 -0.3466
vn -0.8524 -0.0000 -0.5229
vn -0.0000 -1.0000 -0.0000
vt 1.000000 0.500000
vt 1.000000 1.000000
vt 0.968750 1.000000
vt 0.968750 0.500000
vt 0.937500 1.000000
vt 0.937500 0.500000
vt 0.906250 1.000000
vt 0.906250 0.500000
vt 0.875000 1.000000
vt 0.875000 0.500000
vt 0.843750 1.000000
vt 0.843750 0.500000
vt 0.812500 1.000000
vt 0.812500 0.500000
vt 0.781250 1.000000
vt 0.781250 0.500000
vt 0.750000 1.000000
vt 0.750000 0.500000
vt 0.718750 1.000000
vt 0.718750 0.500000
vt 0.687500 1.000000
vt 0.687500 0.500000
vt 0.656250 1.000000
vt 0.656250 0.500000
vt 0.625000 1.000000
vt 0.625000 0.500000
vt 0.593750 1.000000
vt 0.593750 0.500000
vt 0.562500 1.000000
vt 0.562500 0.500000
vt 0.531250 1.000000
vt 0.531250 0.500000
vt 0.500000 1.000000
vt 0.500000 0.500000
vt 0.468750 1.000000
vt 0.468750 0.500000
vt 0.437500 1.000000
vt 0.437500 0.500000
vt 0.406250 1.000000
vt 0.406250 0.500000
vt 0.375000 1.000000
vt 0.375000 0.500000
vt 0.343750 1.000000
vt 0.343750 0.500000
vt 0.312500 1.000000
vt 0.312500 0.500000
vt 0.281250 1.000000
vt 0.281250 0.500000
vt 0.250000 1.000000
vt 0.250000 0.500000
vt 0.218750 1.000000
vt 0.218750 0.500000
vt 0.187500 1.000000
vt 0.187500 0.500000
vt 0.156250 1.000000
vt 0.156250 0.500000
vt 0.125000 1.000000
vt 0.125000 0.500000
vt 0.093750 1.000000
vt 0.093750 0.500000
vt 0.062500 1.000000
vt 0.062500 0.500000
vt 0.296822 0.485388
vt 0.250000 0.490000
vt 0.203178 0.485388
vt 0.158156 0.471731
vt 0.116663 0.449553
vt 0.080294 0.419706
vt 0.050447 0.383337
vt 0.028269 0.341844
vt 0.014612 0.296822
vt 0.010000 0.250000
vt 0.014612 0.203178
vt 0.028269 0.158156
vt 0.050447 0.116663
vt 0.080294 0.080294
vt 0.116663 0.050447
vt 0.158156 0.028269
vt 0.203178 0.014612
vt 0.250000 0.010000
vt 0.296822 0.014612
vt 0.341844 0.028269
vt 0.383337 0.050447
vt 0.419706 0.080294
vt 0.449553 0.116663
vt 0.471731 0.158156
vt 0.485388 0.203178
vt 0.490000 0.250000
vt 0.485388 0.296822
vt 0.471731 0.341844
vt 0.449553 0.383337
vt 0.419706 0.419706
vt 0.383337 0.449553
vt 0.341844 0.471731
vt 0.031250 1.000000
vt 0.031250 0.500000
vt 0.000000 1.000000
vt 0.000000 0.500000
vt 0.750000 0.490000
vt 0.796822 0.485388
vt 0.841844 0.471731
vt 0.883337 0.449553
vt 0.919706 0.419706
vt 0.949553 0.383337
vt 0.971731 0.341844
vt 0.985388 0.296822
vt 0.990000 0.250000
vt 0.985388 0.203178
vt 0.971731 0.158156
vt 0.949553 0.116663
vt 0.919706 0.080294
vt 0.883337 0.050447
vt 0.841844 0.028269
vt 0.796822 0.014612
vt 0.750000 0.010000
vt 0.703178 0.014612
vt 0.658156 0.028269
vt 0.616663 0.050447
vt 0.580294 0.080294
vt 0.550447 0.116663
vt 0.528269 0.158156
vt 0.514612 0.203178
vt 0.510000 0.250000
vt 0.514612 0.296822
vt 0.528269 0.341844
vt 0.550447 0.383337
vt 0.580294 0.419706
vt 0.616663 0.449553
vt 0.658156 0.471731
vt 0.703178 0.485388
s 0
f 97/187/59 98/188/59 100/189/59 99/190/59
f 99/190/60 100/189/60 102/191/60 101/192/60
f 101/192/61 102/191/61 104/193/61 103/194/61
f 103/194/62 104/193/62 106/195/62 105/196/62
f 105/196/63 106/195/63 108/197/63 107/198/63
f 107/198/64 108/197/64 110/199/64 109/200/64
f 109/200/65 110/199/65 112/201/65 111/202/65
f 111/202/66 112/201/66 114/203/66 113/204/66
f 113/204/67 114/203/67 116/205/67 115/206/67
f 115/206/68 116/205/68 118/207/68 117/208/68
f 117/208/69 118/207/69 120/209/69 119/210/69
f 119/210/70 120/209/70 122/211/70 121/212/70
f 121/212/71 122/211/71 124/213/71 123/214/71
f 123/214/72 124/213/72 126/215/72 125/216/72
f 125/216/73 126/215/73 128/217/73 127/218/73
f 127/218/74 128/217/74 130/219/74 129/220/74
f 129/220/75 130/219/75 132/221/75 131/222/75
f 131/222/76 132/221/76 134/223/76 133/224/76
f 133/224/77 134/223/77 136/225/77 135/226/77
f 135/226/78 136/225/78 138/227/78 137/228/78
f 137/228/79 138/227/79 140/229/79 139/230/79
f 139/230/80 140/229/80 142/231/80 141/232/80
f 141/232/81 142/231/81 144/233/81 143/234/81
f 143/234/82 144/233/82 146/235/82 145/236/82
f 145/236/83 146/235/83 148/237/83 147/238/83
f 147/238/84 148/237/84 150/239/84 149/240/84
f 149/240/85 150/239/85 152/241/85 151/242/85
f 151/242/86 152/241/86 154/243/86 153/244/86
f 153/244/87 154/243/87 156/245/87 155/246/87
f 155/246/88 156/245/88 158/247/88 157/248/88
f 100/249/89 98/250/89 160/251/89 158/252/89 156/253/89 154/254/89 152/255/89 150/256/89 148/257/89 146/258/89 144/259/89 142/260/89 140/261/89 138/262/89 136/263/89 134/264/89 132/265/89 130/266/89 128/267/89 126/268/89 124/269/89 122/270/89 120/271/89 118/272/89 116/273/89 114/274/89 112/275/89 110/276/89 108/277/89 106/278/89 104/279/89 102/280/89
f 157/248/90 158/247/90 160/281/90 159/282/90
f 159/282/91 160/281/91 98/283/91 97/284/91
f 97/285/92 99/286/92 101/287/92 103/288/92 105/289/92 107/290/92 109/291/92 111/292/92 113/293/92 115/294/92 117/295/92 119/296/92 121/297/92 123/298/92 125/299/92 127/300/92 129/301/92 131/302/92 133/303/92 135/304/92 137/305/92 139/306/92 141/307/92 143/308/92 145/309/92 147/310/92 149/311/92 151/312/92 153/313/92 155/314/92 157/315/92 159/316/92
o Cube.217
v -30.663065 -0.393379 -76.167877
v -29.852142 2.402061 -75.553360
v -30.727266 -0.364060 -76.216522
v -29.916344 2.431381 -75.602013
v -30.611290 -0.393379 -76.236198
v -29.800367 2.402061 -75.621689
v -30.675491 -0.364060 -76.284851
v -29.864569 2.431381 -75.670334
vn -0.6040 -0.0000 0.7970
vn -0.7489 0.3420 -0.5675
vn 0.6040 -0.0000 -0.7970
vn 0.7489 -0.3420 0.5675
vn -0.2726 -0.9397 -0.2066
vn 0.2726 0.9397 0.2066
vt 0.375000 0.000000
vt 0.625000 0.000000
vt 0.625000 0.250000
vt 0.375000 0.250000
vt 0.625000 0.500000
vt 0.375000 0.500000
vt 0.625000 0.750000
vt 0.375000 0.750000
vt 0.625000 1.000000
vt 0.375000 1.000000
vt 0.125000 0.500000
vt 0.125000 0.750000
vt 0.875000 0.500000
vt 0.875000 0.750000
s 0
f 161/317/93 162/318/93 164/319/93 163/320/93
f 163/320/94 164/319/94 168/321/94 167/322/94
f 167/322/95 168/321/95 166/323/95 165/324/95
f 165/324/96 166/323/96 162/325/96 161/326/96
f 163/327/97 167/322/97 165/324/97 161/328/97
f 168/321/98 164/329/98 162/330/98 166/323/98
o Cube.218
v -29.582254 -0.364060 -75.348839
v -30.393177 2.431381 -75.963356
v -29.646456 -0.393379 -75.397491
v -30.457378 2.402061 -76.012001
v -29.530479 -0.364060 -75.417168
v -30.341402 2.431381 -76.031677
v -29.594681 -0.393379 -75.465813
v -30.405603 2.402061 -76.080330
vn -0.6040 -0.0000 0.7970
vn -0.7489 -0.3420 -0.5675
vn 0.6040 -0.0000 -0.7970
vn 0.7489 0.3420 0.5675
vn 0.2726 -0.9397 0.2066
vn -0.2726 0.9397 -0.2066
vt 0.375000 0.000000
vt 0.625000 0.000000
vt 0.625000 0.250000
vt 0.375000 0.250000
vt 0.625000 0.500000
vt 0.375000 0.500000
vt 0.625000 0.750000
vt 0.375000 0.750000
vt 0.625000 1.000000
vt 0.375000 1.000000
vt 0.125000 0.500000
vt 0.125000 0.750000
vt 0.875000 0.500000
vt 0.875000 0.750000
s 0
f 169/331/99 170/332/99 172/333/99 171/334/99
f 171/334/100 172/333/100 176/335/100 175/336/100
f 175/336/101 176/335/101 174/337/101 173/338/101
f 173/338/102 174/337/102 170/339/102 169/340/102
f 171/341/103 175/336/103 173/338/103 169/342/103
f 176/335/104 172/343/104 170/344/104 174/337/104
o Cube.219
v -30.238518 -0.364060 -74.482811
v -31.049440 2.431381 -75.097328
v -30.302719 -0.393379 -74.531464
v -31.113642 2.402061 -75.145973
v -30.186743 -0.364060 -74.551140
v -30.997665 2.431381 -75.165649
v -30.250944 -0.393379 -74.599785
v -31.061867 2.402061 -75.214302
vn -0.6040 -0.0000 0.7970
vn -0.7489 -0.3420 -0.5675
vn 0.6040 -0.0000 -0.7970
vn 0.7489 0.3420 0.5675
vn 0.2726 -0.9397 0.2066
vn -0.2726 0.9397 -0.2066
vt 0.375000 0.000000
vt 0.625000 0.000000
vt 0.625000 0.250000
vt 0.375000 0.250000
vt 0.625000 0.500000
vt 0.375000 0.500000
vt 0.625000 0.750000
vt 0.375000 0.750000
vt 0.625000 1.000000
vt 0.375000 1.000000
vt 0.125000 0.500000
vt 0.125000 0.750000
vt 0.875000 0.500000
vt 0.875000 0.750000
s 0
f 177/345/105 178/346/105 180/347/105 179/348/105
f 179/348/106 180/347/106 184/349/106 183/350/106
f 183/350/107 184/349/107 182/351/107 181/352/107
f 181/352/108 182/351/108 178/353/108 177/354/108
f 179/355/109 183/350/109 181/352/109 177/356/109
f 184/349/110 180/357/110 178/358/110 182/351/110
o Cube.220
v -31.319336 -0.393379 -75.301849
v -30.508413 2.402061 -74.687332
v -31.383537 -0.364060 -75.350494
v -30.572615 2.431381 -74.735985
v -31.267561 -0.393379 -75.370171
v -30.456638 2.402061 -74.755661
v -31.331762 -0.364060 -75.418823
v -30.520840 2.431381 -74.804306
vn -0.6040 -0.0000 0.7970
vn -0.7489 0.3420 -0.5675
vn 0.6040 -0.0000 -0.7970
vn 0.7489 -0.3420 0.5675
vn -0.2726 -0.9397 -0.2066
vn 0.2726 0.9397 0.2066
vt 0.375000 0.000000
vt 0.625000 0.000000
vt 0.625000 0.250000
vt 0.375000 0.250000
vt 0.625000 0.500000
vt 0.375000 0.500000
vt 0.625000 0.750000
vt 0.375000 0.750000
vt 0.625000 1.000000
vt 0.375000 1.000000
vt 0.125000 0.500000
vt 0.125000 0.750000
vt 0.875000 0.500000
vt 0.875000 0.750000
s 0
f 185/359/111 186/360/111 188/361/111 187/362/111
f 187/362/112 188/361/112 192/363/112 191/364/112
f 191/364/113 192/363/113 190/365/113 189/366/113
f 189/366/114 190/365/114 186/367/114 185/368/114
f 187/369/115 191/364/115 189/366/115 185/370/115
f 192/363/116 188/371/116 186/372/116 190/365/116
o Cylinder.011
v -31.512693 2.391961 -82.581863
v -31.512693 2.440620 -82.581863
v -31.454212 2.391961 -82.783775
v -31.454212 2.440620 -82.783775
v -31.357464 2.391961 -82.970390
v -31.357464 2.440620 -82.970390
v -31.226168 2.391961 -83.134552
v -31.226168 2.440620 -83.134552
v -31.065367 2.391961 -83.269943
v -31.065367 2.440620 -83.269943
v -30.881243 2.391961 -83.371368
v -30.881243 2.440620 -83.371368
v -30.680870 2.391961 -83.434914
v -30.680870 2.440620 -83.434914
v -30.471949 2.391961 -83.458153
v -30.471949 2.440620 -83.458153
v -30.262508 2.391961 -83.440186
v -30.262508 2.440620 -83.440186
v -30.060598 2.391961 -83.381706
v -30.060598 2.440620 -83.381706
v -29.873976 2.391961 -83.284958
v -29.873976 2.440620 -83.284958
v -29.709816 2.391961 -83.153664
v -29.709816 2.440620 -83.153664
v -29.574423 2.391961 -82.992859
v -29.574423 2.440620 -82.992859
v -29.473003 2.391961 -82.808739
v -29.473003 2.440620 -82.808739
v -29.409452 2.391961 -82.608368
v -29.409452 2.440620 -82.608368
v -29.386215 2.391961 -82.399445
v -29.386215 2.440620 -82.399445
v -29.404181 2.391961 -82.190002
v -29.404181 2.440620 -82.190002
v -29.462662 2.391961 -81.988091
v -29.462662 2.440620 -81.988091
v -29.559410 2.391961 -81.801476
v -29.559410 2.440620 -81.801476
v -29.690706 2.391961 -81.637314
v -29.690706 2.440620 -81.637314
v -29.851507 2.391961 -81.501923
v -29.851507 2.440620 -81.501923
v -30.035631 2.391961 -81.400497
v -30.035631 2.440620 -81.400497
v -30.236004 2.391961 -81.336952
v -30.236004 2.440620 -81.336952
v -30.444925 2.391961 -81.313713
v -30.444925 2.440620 -81.313713
v -30.654366 2.391961 -81.331680
v -30.654366 2.440620 -81.331680
v -30.856276 2.391961 -81.390160
v -30.856276 2.440620 -81.390160
v -31.042898 2.391961 -81.486908
v -31.042898 2.440620 -81.486908
v -31.207058 2.391961 -81.618202
v -31.207058 2.440620 -81.618202
v -31.342451 2.391961 -81.779007
v -31.342451 2.440620 -81.779007
v -31.443871 2.391961 -81.963127
v -31.443871 2.440620 -81.963127
v -31.507421 2.391961 -82.163498
v -31.507421 2.440620 -82.163498
v -31.530659 2.391961 -82.372421
v -31.530659 2.440620 -82.372421
vn -0.9605 -0.0000 -0.2782
vn -0.8878 -0.0000 -0.4602
vn -0.7809 -0.0000 -0.6246
vn -0.6441 -0.0000 -0.7650
vn -0.4825 -0.0000 -0.8759
vn -0.3023 -0.0000 -0.9532
vn -0.1105 -0.0000 -0.9939
vn 0.0855 -0.0000 -0.9963
vn 0.2782 -0.0000 -0.9605
vn 0.4602 -0.0000 -0.8878
vn 0.6246 -0.0000 -0.7809
vn 0.7650 -0.0000 -0.6441
vn 0.8759 -0.0000 -0.4825
vn 0.9532 -0.0000 -0.3023
vn 0.9939 -0.0000 -0.1105
vn 0.9963 -0.0000 0.0855
vn 0.9605 -0.0000 0.2782
vn 0.8878 -0.0000 0.4602
vn 0.7809 -0.0000 0.6246
vn 0.6441 -0.0000 0.7650
vn 0.4825 -0.0000 0.8759
vn 0.3023 -0.0000 0.9532
vn 0.1105 -0.0000 0.9939
vn -0.0855 -0.0000 0.9963
vn -0.2782 -0.0000 0.9605
vn -0.4602 -0.0000 0.8878
vn -0.6246 -0.0000 0.7809
vn -0.7650 -0.0000 0.6441
vn -0.8759 -0.0000 0.4825
vn -0.9532 -0.0000 0.3023
vn -0.0000 1.0000 -0.0000
vn -0.9939 -0.0000 0.1105
vn -0.9963 -0.0000 -0.0855
vn -0.0000 -1.0000 -0.0000
vt 1.000000 0.500000
vt 1.000000 1.000000
vt 0.968750 1.000000
vt 0.968750 0.500000
vt 0.937500 1.000000
vt 0.937500 0.500000
vt 0.906250 1.000000
vt 0.906250 0.500000
vt 0.875000 1.000000
vt 0.875000 0.500000
vt 0.843750 1.000000
vt 0.843750 0.500000
vt 0.812500 1.000000
vt 0.812500 0.500000
vt 0.781250 1.000000
vt 0.781250 0.500000
vt 0.750000 1.000000
vt 0.750000 0.500000
vt 0.718750 1.000000
vt 0.718750 0.500000
vt 0.687500 1.000000
vt 0.687500 0.500000
vt 0.656250 1.000000
vt 0.656250 0.500000
vt 0.625000 1.000000
vt 0.625000 0.500000
vt 0.593750 1.000000
vt 0.593750 0.500000
vt 0.562500 1.000000
vt 0.562500 0.500000
vt 0.531250 1.000000
vt 0.531250 0.500000
vt 0.500000 1.000000
vt 0.500000 0.500000
vt 0.468750 1.000000
vt 0.468750 0.500000
vt 0.437500 1.000000
vt 0.437500 0.500000
vt 0.406250 1.000000
vt 0.406250 0.500000
vt 0.375000 1.000000
vt 0.375000 0.500000
vt 0.343750 1.000000
vt 0.343750 0.500000
vt 0.312500 1.000000
vt 0.312500 0.500000
vt 0.281250 1.000000
vt 0.281250 0.500000
vt 0.250000 1.000000
vt 0.250000 0.500000
vt 0.218750 1.000000
vt 0.218750 0.500000
vt 0.187500 1.000000
vt 0.187500 0.500000
vt 0.156250 1.000000
vt 0.156250 0.500000
vt 0.125000 1.000000
vt 0.125000 0.500000
vt 0.093750 1.000000
vt 0.093750 0.500000
vt 0.062500 1.000000
vt 0.062500 0.500000
vt 0.296822 0.485388
vt 0.250000 0.490000
vt 0.203178 0.485388
vt 0.158156 0.471731
vt 0.116663 0.449553
vt 0.080294 0.419706
vt 0.050447 0.383337
vt 0.028269 0.341844
vt 0.014612 0.296822
vt 0.010000 0.250000
vt 0.014612 0.203178
vt 0.028269 0.158156
vt 0.050447 0.116663
vt 0.080294 0.080294
vt 0.116663 0.050447
vt 0.158156 0.028269
vt 0.203178 0.014612
vt 0.250000 0.010000
vt 0.296822 0.014612
vt 0.341844 0.028269
vt 0.383337 0.050447
vt 0.419706 0.080294
vt 0.449553 0.116663
vt 0.471731 0.158156
vt 0.485388 0.203178
vt 0.490000 0.250000
vt 0.485388 0.296822
vt 0.471731 0.341844
vt 0.449553 0.383337
vt 0.419706 0.419706
vt 0.383337 0.449553
vt 0.341844 0.471731
vt 0.031250 1.000000
vt 0.031250 0.500000
vt 0.000000 1.000000
vt 0.000000 0.500000
vt 0.750000 0.490000
vt 0.796822 0.485388
vt 0.841844 0.471731
vt 0.883337 0.449553
vt 0.919706 0.419706
vt 0.949553 0.383337
vt 0.971731 0.341844
vt 0.985388 0.296822
vt 0.990000 0.250000
vt 0.985388 0.203178
vt 0.971731 0.158156
vt 0.949553 0.116663
vt 0.919706 0.080294
vt 0.883337 0.050447
vt 0.841844 0.028269
vt 0.796822 0.014612
vt 0.750000 0.010000
vt 0.703178 0.014612
vt 0.658156 0.028269
vt 0.616663 0.050447
vt 0.580294 0.080294
vt 0.550447 0.116663
vt 0.528269 0.158156
vt 0.514612 0.203178
vt 0.510000 0.250000
vt 0.514612 0.296822
vt 0.528269 0.341844
vt 0.550447 0.383337
vt 0.580294 0.419706
vt 0.616663 0.449553
vt 0.658156 0.471731
vt 0.703178 0.485388
s 0
f 193/373/117 194/374/117 196/375/117 195/376/117
f 195/376/118 196/375/118 198/377/118 197/378/118
f 197/378/119 198/377/119 200/379/119 199/380/119
f 199/380/120 200/379/120 202/381/120 201/382/120
f 201/382/121 202/381/121 204/383/121 203/384/121
f 203/384/122 204/383/122 206/385/122 205/386/122
f 205/386/123 206/385/123 208/387/123 207/388/123
f 207/388/124 208/387/124 210/389/124 209/390/124
f 209/390/125 210/389/125 212/391/125 211/392/125
f 211/392/126 212/391/126 214/393/126 213/394/126
f 213/394/127 214/393/127 216/395/127 215/396/127
f 215/396/128 216/395/128 218/397/128 217/398/128
f 217/398/129 218/397/129 220/399/129 219/400/129
f 219/400/130 220/399/130 222/401/130 221/402/130
f 221/402/131 222/401/131 224/403/131 223/404/131
f 223/404/132 224/403/132 226/405/132 225/406/132
f 225/406/133 226/405/133 228/407/133 227/408/133
f 227/408/134 228/407/134 230/409/134 229/410/134
f 229/410/135 230/409/135 232/411/135 231/412/135
f 231/412/136 232/411/136 234/413/136 233/414/136
f 233/414/137 234/413/137 236/415/137 235/416/137
f 235/416/138 236/415/138 238/417/138 237/418/138
f 237/418/139 238/417/139 240/419/139 239/420/139
f 239/420/140 240/419/140 242/421/140 241/422/140
f 241/422/141 242/421/141 244/423/141 243/424/141
f 243/424/142 244/423/142 246/425/142 245/426/142
f 245/426/143 246/425/143 248/427/143 247/428/143
f 247/428/144 248/427/144 250/429/144 249/430/144
f 249/430/145 250/429/145 252/431/145 251/432/145
f 251/432/146 252/431/146 254/433/146 253/434/146
f 196/435/147 194/436/147 256/437/147 254/438/147 252/439/147 250/440/147 248/441/147 246/442/147 244/443/147 242/444/147 240/445/147 238/446/147 236/447/147 234/448/147 232/449/147 230/450/147 228/451/147 226/452/147 224/453/147 222/454/147 220/455/147 218/456/147 216/457/147 214/458/147 212/459/147 210/460/147 208/461/147 206/462/147 204/463/147 202/464/147 200/465/147 198/466/147
f 253/434/148 254/433/148 256/467/148 255/468/148
f 255/468/149 256/467/149 194/469/149 193/470/149
f 193/471/150 195/472/150 197/473/150 199/474/150 201/475/150 203/476/150 205/477/150 207/478/150 209/479/150 211/480/150 213/481/150 215/482/150 217/483/150 219/484/150 221/485/150 223/486/150 225/487/150 227/488/150 229/489/150 231/490/150 233/491/150 235/492/150 237/493/150 239/494/150 241/495/150 243/496/150 245/497/150 247/498/150 249/499/150 251/500/150 253/501/150 255/502/150
o Cube.221
v -30.992479 -0.393379 -82.993546
v -29.992151 2.402061 -82.807632
v -31.071676 -0.364060 -83.008263
v -30.071348 2.431381 -82.822357
v -30.976816 -0.393379 -83.077820
v -29.976488 2.402061 -82.891914
v -31.056013 -0.364060 -83.092545
v -30.055685 2.431381 -82.906631
vn -0.1827 -0.0000 0.9832
vn -0.9239 0.3420 -0.1717
vn 0.1827 -0.0000 -0.9832
vn 0.9239 -0.3420 0.1717
vn -0.3363 -0.9397 -0.0625
vn 0.3363 0.9397 0.0625
vt 0.375000 0.000000
vt 0.625000 0.000000
vt 0.625000 0.250000
vt 0.375000 0.250000
vt 0.625000 0.500000
vt 0.375000 0.500000
vt 0.625000 0.750000
vt 0.375000 0.750000
vt 0.625000 1.000000
vt 0.375000 1.000000
vt 0.125000 0.500000
vt 0.125000 0.750000
vt 0.875000 0.500000
vt 0.875000 0.750000
s 0
f 257/503/151 258/504/151 260/505/151 259/506/151
f 259/506/152 260/505/152 264/507/152 263/508/152
f 263/508/153 264/507/153 262/509/153 261/510/153
f 261/510/154 262/509/154 258/511/154 257/512/154
f 259/513/155 263/508/155 261/510/155 257/514/155
f 264/507/156 260/515/156 258/516/156 262/509/156
o Cube.222
v -29.659225 -0.364060 -82.745758
v -30.659554 2.431381 -82.931671
v -29.738422 -0.393379 -82.760483
v -30.738750 2.402061 -82.946388
v -29.643562 -0.364060 -82.830040
v -30.643890 2.431381 -83.015945
v -29.722759 -0.393379 -82.844757
v -30.723087 2.402061 -83.030670
vn -0.1827 -0.0000 0.9832
vn -0.9239 -0.3420 -0.1717
vn 0.1827 -0.0000 -0.9832
vn 0.9239 0.3420 0.1717
vn 0.3363 -0.9397 0.0625
vn -0.3363 0.9397 -0.0625
vt 0.375000 0.000000
vt 0.625000 0.000000
vt 0.625000 0.250000
vt 0.375000 0.250000
vt 0.625000 0.500000
vt 0.375000 0.500000
vt 0.625000 0.750000
vt 0.375000 0.750000
vt 0.625000 1.000000
vt 0.375000 1.000000
vt 0.125000 0.500000
vt 0.125000 0.750000
vt 0.875000 0.500000
vt 0.875000 0.750000
s 0
f 265/517/157 266/518/157 268/519/157 267/520/157
f 267/520/158 268/519/158 272/521/158 271/522/158
f 271/522/159 272/521/159 270/523/159 269/524/159
f 269/524/160 270/523/160 266/525/160 265/526/160
f 267/527/161 271/522/161 269/524/161 265/528/161
f 272/521/162 268/529/162 266/530/162 270/523/162
o Cube.223
v -29.857759 -0.364060 -81.677460
v -30.858088 2.431381 -81.863373
v -29.936956 -0.393379 -81.692184
v -30.937284 2.402061 -81.878090
v -29.842096 -0.364060 -81.761742
v -30.842424 2.431381 -81.947647
v -29.921293 -0.393379 -81.776459
v -30.921621 2.402061 -81.962372
vn -0.1827 -0.0000 0.9832
vn -0.9239 -0.3420 -0.1717
vn 0.1827 -0.0000 -0.9832
vn 0.9239 0.3420 0.1717
vn 0.3363 -0.9397 0.0625
vn -0.3363 0.9397 -0.0625
vt 0.375000 0.000000
vt 0.625000 0.000000
vt 0.625000 0.250000
vt 0.375000 0.250000
vt 0.625000 0.500000
vt 0.375000 0.500000
vt 0.625000 0.750000
vt 0.375000 0.750000
vt 0.625000 1.000000
vt 0.375000 1.000000
vt 0.125000 0.500000
vt 0.125000 0.750000
vt 0.875000 0.500000
vt 0.875000 0.750000
s 0
f 273/531/163 274/532/163 276/533/163 275/534/163
f 275/534/164 276/533/164 280/535/164 279/536/164
f 279/536/165 280/535/165 278/537/165 277/538/165
f 277/538/166 278/537/166 274/539/166 273/540/166
f 275/541/167 279/536/167 277/538/167 273/542/167
f 280/535/168 276/543/168 274/544/168 278/537/168
o Cube.224
v -31.191021 -0.393379 -81.925247
v -30.190693 2.402061 -81.739334
v -31.270218 -0.364060 -81.939964
v -30.269890 2.431381 -81.754059
v -31.175358 -0.393379 -82.009521
v -30.175030 2.402061 -81.823616
v -31.254555 -0.364060 -82.024246
v -30.254227 2.431381 -81.838333
vn -0.1827 -0.0000 0.9832
vn -0.9239 0.3420 -0.1717
vn 0.1827 -0.0000 -0.9832
vn 0.9239 -0.3420 0.1717
vn -0.3363 -0.9397 -0.0625
vn 0.3363 0.9397 0.0625
vt 0.375000 0.000000
vt 0.625000 0.000000
vt 0.625000 0.250000
vt 0.375000 0.250000
vt 0.625000 0.500000
vt 0.375000 0.500000
vt 0.625000 0.750000
vt 0.375000 0.750000
vt 0.625000 1.000000
vt 0.375000 1.000000
vt 0.125000 0.500000
vt 0.125000 0.750000
vt 0.875000 0.500000
vt 0.875000 0.750000
s 0
f 281/545/169 282/546/169 284/547/169 283/548/169
f 283/548/170 284/547/170 288/549/170 287/550/170
f 287/550/171 288/549/171 286/551/171 285/552/171
f 285/552/172 286/551/172 282/553/172 281/554/172
f 283/555/173 287/550/173 285/552/173 281/556/173
f 288/549/174 284/557/174 282/558/174 286/551/174
