# Blender 5.2.0 LTS
# www.blender.org
mtllib PintuLuar.mtl
o Cube.034
v -29.958435 -0.054850 -91.180389
v -29.958435 10.093087 -91.180389
v -29.958435 -0.054850 -91.889618
v -29.958435 10.093087 -91.889618
v -3.864079 -0.054850 -91.180389
v -3.864079 10.093087 -91.180389
v -3.864079 -0.054850 -91.889618
v -3.864079 10.093087 -91.889618
v -19.386271 0.012002 -91.889618
v -19.558170 10.093087 -91.889618
v -19.558170 -0.054850 -91.180389
v -19.558170 10.093087 -91.180389
v -14.475159 10.093087 -91.889618
v -14.475159 -0.054850 -91.180389
v -14.647059 0.012002 -91.889618
v -14.475159 10.093087 -91.180389
v -29.040764 -0.054850 -91.889618
v -29.040764 10.093087 -91.180389
v -29.040764 10.093087 -91.889618
v -29.040764 -0.054850 -91.180389
v -4.615306 10.093087 -91.889618
v -4.615306 -0.054850 -91.180389
v -4.615306 -0.054850 -91.889618
v -4.615306 10.093087 -91.180389
v -29.958435 6.966948 -91.180389
v -29.958435 6.966948 -91.889618
v -3.864079 6.966948 -91.889618
v -3.864079 6.966948 -91.180389
v -19.558170 6.966948 -91.180389
v -19.558170 6.966948 -91.889618
v -14.475159 6.966948 -91.180389
v -14.475159 6.966948 -91.889618
v -29.040764 6.966948 -91.889618
v -29.040764 6.966948 -91.180389
v -4.615306 6.966948 -91.180389
v -4.615306 6.966948 -91.889618
v -29.958435 7.890044 -91.180389
v -29.958435 7.890044 -91.889618
v -3.864079 7.890044 -91.889618
v -3.864079 7.890044 -91.180389
v -19.558170 7.890044 -91.180389
v -19.558170 7.890044 -91.889618
v -14.475159 7.890044 -91.180389
v -14.475159 7.890044 -91.889618
v -29.040764 7.890044 -91.889618
v -29.040764 7.890044 -91.180389
v -4.615306 7.890044 -91.180389
v -4.615306 7.890044 -91.889618
v -20.039570 10.093087 -91.889618
v -20.039570 -0.054850 -91.180389
v -20.039570 -0.054850 -91.889618
v -20.039570 10.093087 -91.180389
v -20.039570 6.966948 -91.180389
v -20.039570 6.966948 -91.889618
v -20.039570 7.890044 -91.180389
v -20.039570 7.890044 -91.889618
v -14.010906 -0.054850 -91.889618
v -14.010906 10.093087 -91.180389
v -14.010906 10.093087 -91.889618
v -14.010906 -0.054850 -91.180389
v -14.010906 6.966948 -91.889618
v -14.010906 6.966948 -91.180389
v -14.010906 7.890044 -91.889618
v -14.010906 7.890044 -91.180389
v -20.039570 -0.054850 -91.183830
v -29.040764 -0.054850 -91.183830
v -29.040764 6.966948 -91.183830
v -4.615306 6.966948 -91.183830
v -4.615306 -0.054850 -91.183830
v -29.040764 7.890044 -91.183830
v -4.615306 7.890044 -91.183830
v -14.010906 6.966948 -91.183830
v -14.010906 7.890044 -91.183830
v -20.039570 6.966948 -91.183830
v -20.039570 7.890044 -91.183830
v -14.010906 -0.054850 -91.183830
v -19.366644 6.606163 -91.889618
v -14.666686 6.606163 -91.889618
v -20.039570 6.680647 -91.889618
v -14.010906 6.680647 -91.889618
v -20.039570 6.680647 -91.183830
v -14.010906 6.680647 -91.183830
v -19.558170 7.890044 -91.278198
v -19.558170 6.966948 -91.278198
v -14.475159 7.890044 -91.278198
v -14.475159 6.966948 -91.278198
v -19.366644 3.387383 -91.889618
v -14.666686 3.387383 -91.889618
v -20.039570 3.312899 -91.889618
v -14.010906 3.312899 -91.889618
v -20.039570 3.312899 -91.183830
v -14.010906 3.312899 -91.183830
v -19.558170 6.680647 -91.889618
v -14.475159 6.680647 -91.889618
v -19.386271 3.246047 -91.889618
v -14.647059 3.246047 -91.889618
v -14.475159 -0.054850 -91.889618
v -19.558170 -0.054850 -91.889618
v -19.558170 3.312899 -91.889618
v -14.475159 3.312899 -91.889618
v -19.366644 6.606163 -91.296684
v -14.666686 6.606163 -91.296684
v -19.366644 3.387383 -91.296684
v -14.666686 3.387383 -91.296684
v -14.647059 0.012002 -91.189217
v -19.386271 0.012002 -91.189217
v -19.386271 3.246047 -91.189217
v -14.647059 3.246047 -91.189217
v -29.958435 6.966948 -93.737846
v -29.958435 -0.054850 -93.737846
v -29.040764 -0.054850 -93.737846
v -4.615306 10.093087 -93.737854
v -3.864079 10.093087 -93.737854
v -3.864079 6.966948 -93.737854
v -3.864079 -0.054850 -93.737854
v -29.958435 10.093087 -93.737846
v -29.040764 10.093087 -93.737846
v -29.040764 6.966948 -93.737846
v -4.615306 -0.054850 -93.737854
v -4.615306 6.966948 -93.737854
v -29.958435 7.890044 -93.737846
v -3.864079 7.890044 -93.737854
v -29.040764 7.890044 -93.737846
v -4.615306 7.890044 -93.737854
vn -1.0000 -0.0000 -0.0000
vn 1.0000 -0.0000 -0.0000
vn -0.0000 -0.0000 1.0000
vn -0.0000 -1.0000 -0.0000
vn -0.0000 1.0000 -0.0000
vn -0.0000 -0.0000 -1.0000
vt 0.625000 0.000000
vt 0.570727 0.250000
vt 0.570727 0.000000
vt 0.570727 0.500000
vt 0.625000 0.500000
vt 0.570727 0.750000
vt 0.625000 0.991208
vt 0.570727 1.000000
vt 0.570727 0.991208
vt 0.375000 0.500000
vt 0.367803 0.750000
vt 0.367803 0.500000
vt 0.875000 0.500000
vt 0.866208 0.750000
vt 0.866208 0.500000
vt 0.775359 0.500000
vt 0.726661 0.750000
vt 0.726661 0.500000
vt 0.224641 0.500000
vt 0.220029 0.750000
vt 0.220029 0.500000
vt 0.625000 0.851661
vt 0.570727 0.900359
vt 0.570727 0.851661
vt 0.625000 0.345029
vt 0.570727 0.349641
vt 0.570727 0.345029
vt 0.625000 0.847213
vt 0.570727 0.847213
vt 0.722213 0.750000
vt 0.722213 0.500000
vt 0.273339 0.500000
vt 0.224641 0.750000
vt 0.625000 0.349641
vt 0.570727 0.398339
vt 0.133792 0.500000
vt 0.125000 0.750000
vt 0.125000 0.500000
vt 0.779971 0.750000
vt 0.779971 0.500000
vt 0.625000 0.904971
vt 0.570727 0.904971
vt 0.632197 0.500000
vt 0.625000 0.750000
vt 0.570727 0.757197
vt 0.277787 0.750000
vt 0.277787 0.500000
vt 0.625000 0.402787
vt 0.570727 0.492803
vt 0.570727 0.402787
vt 0.547986 0.492803
vt 0.547986 0.750000
vt 0.375000 0.757197
vt 0.375000 0.750000
vt 0.547986 0.250000
vt 0.547986 0.349641
vt 0.540933 0.398339
vt 0.540933 0.349641
vt 0.547986 0.847213
vt 0.375000 0.851661
vt 0.375000 0.847213
vt 0.547986 0.345029
vt 0.540933 0.345029
vt 0.547986 0.991208
vt 0.375000 1.000000
vt 0.375000 0.991208
vt 0.547986 0.500000
vt 0.625000 0.250000
vt 0.547986 0.000000
vt 0.375000 0.250000
vt 0.375000 0.000000
vt 0.570727 0.258792
vt 0.547986 0.757197
vt 0.547986 0.851661
vt 0.456319 0.396692
vt 0.456319 0.351288
vt 0.547986 1.000000
vt 0.547986 0.258792
vt 0.375000 0.345029
vt 0.457966 0.345029
vt 0.547986 0.904971
vt 0.547986 0.900359
vt 0.547986 0.402787
vt 0.540933 0.402787
vt 0.540933 0.402787
vt 0.375000 0.904971
vt 0.375000 0.900359
vt 0.625000 0.900359
vt 0.775359 0.750000
vt 0.625000 0.258792
vt 0.133792 0.750000
vt 0.547986 0.398339
vt 0.625000 0.398339
vt 0.273339 0.750000
vt 0.632197 0.750000
vt 0.625000 0.757197
vt 0.375000 0.258792
vt 0.375000 0.492803
vt 0.457966 0.402787
vt 0.457966 0.398339
vt 0.457966 0.402787
vt 0.457966 0.349641
vt 0.459801 0.396504
vt 0.539098 0.396504
vt 0.375000 0.349641
vt 0.375000 0.402787
vt 0.375000 0.398339
vt 0.539098 0.351476
vt 0.459801 0.351476
vt 0.376647 0.396692
vt 0.376647 0.351288
vt 0.625000 0.492803
vt 0.625000 1.000000
vt 0.875000 0.750000
s 0
f 2/1/1 38/2/1 37/3/1
f 39/4/2 113/5/2 8/5/2
f 8/5/2 40/6/2 39/4/2
f 18/7/3 37/8/3 46/9/3
f 7/10/4 22/11/4 23/12/4
f 4/13/5 18/14/5 19/15/5
f 10/16/5 16/17/5 13/18/5
f 98/19/4 50/20/4 51/21/4
f 16/22/3 41/23/3 43/24/3
f 49/25/6 42/26/6 56/27/6
f 58/28/3 43/24/3 64/29/3
f 13/18/5 58/30/5 59/31/5
f 97/32/4 11/33/4 98/19/4
f 10/34/6 44/35/6 42/26/6
f 23/12/4 115/10/4 7/10/4
f 17/36/4 1/37/4 3/38/4
f 19/15/5 52/39/5 49/40/5
f 52/41/3 46/9/3 55/42/3
f 21/43/5 6/44/5 8/5/5
f 6/44/3 47/45/3 40/6/3
f 23/12/4 60/46/4 57/47/4
f 59/48/6 48/49/6 63/50/6
f 36/51/1 71/49/1 48/49/1
f 28/52/3 22/53/3 5/54/3
f 38/2/1 109/55/1 26/55/1
f 30/56/6 94/57/6 93/58/6
f 62/59/3 14/60/3 60/61/3
f 54/62/6 93/58/6 79/63/6
f 34/64/3 1/65/3 20/66/3
f 27/67/2 5/54/2 7/10/2
f 4/68/1 121/2/1 38/2/1
f 25/69/1 3/70/1 1/71/1
f 56/27/4 70/72/4 45/72/4
f 40/6/3 35/73/3 28/52/3
f 19/15/5 116/13/5 4/13/5
f 42/26/2 84/56/2 30/56/2
f 64/29/3 31/74/3 62/59/3
f 56/27/6 30/56/6 54/62/6
f 96/75/4 107/76/4 95/76/4
f 46/9/3 25/77/3 34/64/3
f 39/4/2 28/52/2 27/67/2
f 33/78/2 123/72/2 45/72/2
f 37/3/1 26/55/1 25/69/1
f 51/79/1 91/80/1 89/80/1
f 41/23/3 53/81/3 29/82/3
f 61/83/2 82/84/2 80/85/2
f 29/82/3 50/86/3 11/87/3
f 12/88/3 55/42/3 41/23/3
f 49/40/5 12/89/5 10/16/5
f 19/90/6 56/27/6 45/72/6
f 51/21/4 20/91/4 17/36/4
f 44/35/6 61/83/6 32/92/6
f 32/92/6 80/85/6 94/57/6
f 13/93/6 63/50/6 44/35/6
f 57/47/4 14/94/4 97/32/4
f 59/31/5 24/95/5 21/43/5
f 24/96/3 64/29/3 47/45/3
f 17/36/5 65/21/5 51/21/5
f 45/72/2 67/78/2 33/78/2
f 63/50/2 72/83/2 61/83/2
f 33/78/2 66/97/2 17/97/2
f 54/62/1 75/27/1 56/27/1
f 48/49/4 73/50/4 63/50/4
f 23/98/1 68/51/1 36/51/1
f 57/47/5 69/12/5 23/12/5
f 94/57/6 90/99/6 100/100/6
f 80/85/2 92/101/2 90/99/2
f 79/63/1 74/62/1 54/62/1
f 79/63/6 99/102/6 89/80/6
f 88/103/1 102/104/1 78/104/1
f 89/80/6 98/105/6 51/79/6
f 44/35/4 83/26/4 42/26/4
f 30/56/5 86/92/5 32/92/5
f 32/92/1 85/35/1 44/35/1
f 90/99/2 76/106/2 57/106/2
f 100/100/6 57/106/6 97/107/6
f 89/80/1 81/63/1 79/63/1
f 77/108/6 94/57/6 78/104/6
f 87/109/6 93/58/6 77/108/6
f 78/104/6 100/100/6 88/103/6
f 88/103/6 99/102/6 87/109/6
f 15/110/6 98/105/6 9/111/6
f 9/111/6 99/102/6 95/76/6
f 96/75/6 97/107/6 15/110/6
f 95/76/6 100/100/6 96/75/6
f 78/104/4 101/108/4 77/108/4
f 87/109/5 104/103/5 88/103/5
f 77/108/2 103/109/2 87/109/2
f 95/76/2 106/111/2 9/111/2
f 15/110/1 108/75/1 96/75/1
f 9/111/5 105/110/5 15/110/5
f 112/112/6 122/4/6 124/49/6
f 116/68/6 123/72/6 121/2/6
f 109/55/6 111/97/6 110/70/6
f 120/51/6 115/10/6 119/98/6
f 121/2/6 118/78/6 109/55/6
f 124/49/6 114/67/6 120/51/6
f 27/67/2 122/4/2 39/4/2
f 17/97/2 118/78/2 33/78/2
f 21/112/1 124/49/1 48/49/1
f 26/55/1 110/70/1 3/70/1
f 48/49/1 120/51/1 36/51/1
f 3/38/4 111/36/4 17/36/4
f 8/5/5 112/43/5 21/43/5
f 7/10/2 114/67/2 27/67/2
f 36/51/1 119/98/1 23/98/1
f 45/72/2 117/90/2 19/90/2
f 2/1/1 4/68/1 38/2/1
f 39/4/2 122/4/2 113/5/2
f 8/5/2 6/44/2 40/6/2
f 18/7/3 2/113/3 37/8/3
f 7/10/4 5/54/4 22/11/4
f 4/13/5 2/114/5 18/14/5
f 10/16/5 12/89/5 16/17/5
f 98/19/4 11/33/4 50/20/4
f 16/22/3 12/88/3 41/23/3
f 49/25/6 10/34/6 42/26/6
f 58/28/3 16/22/3 43/24/3
f 13/18/5 16/17/5 58/30/5
f 97/32/4 14/94/4 11/33/4
f 10/34/6 13/93/6 44/35/6
f 23/12/4 119/12/4 115/10/4
f 17/36/4 20/91/4 1/37/4
f 19/15/5 18/14/5 52/39/5
f 52/41/3 18/7/3 46/9/3
f 21/43/5 24/95/5 6/44/5
f 6/44/3 24/96/3 47/45/3
f 23/12/4 22/11/4 60/46/4
f 59/48/6 21/112/6 48/49/6
f 36/51/1 68/51/1 71/49/1
f 28/52/3 35/73/3 22/53/3
f 38/2/1 121/2/1 109/55/1
f 30/56/6 32/92/6 94/57/6
f 62/59/3 31/74/3 14/60/3
f 54/62/6 30/56/6 93/58/6
f 34/64/3 25/77/3 1/65/3
f 27/67/2 28/52/2 5/54/2
f 4/68/1 116/68/1 121/2/1
f 25/69/1 26/55/1 3/70/1
f 56/27/4 75/27/4 70/72/4
f 40/6/3 47/45/3 35/73/3
f 19/15/5 117/15/5 116/13/5
f 42/26/2 83/26/2 84/56/2
f 64/29/3 43/24/3 31/74/3
f 56/27/6 42/26/6 30/56/6
f 96/75/4 108/75/4 107/76/4
f 46/9/3 37/8/3 25/77/3
f 39/4/2 40/6/2 28/52/2
f 33/78/2 118/78/2 123/72/2
f 37/3/1 38/2/1 26/55/1
f 51/79/1 65/79/1 91/80/1
f 41/23/3 55/42/3 53/81/3
f 61/83/2 72/83/2 82/84/2
f 29/82/3 53/81/3 50/86/3
f 12/88/3 52/41/3 55/42/3
f 49/40/5 52/39/5 12/89/5
f 19/90/6 49/25/6 56/27/6
f 51/21/4 50/20/4 20/91/4
f 44/35/6 63/50/6 61/83/6
f 32/92/6 61/83/6 80/85/6
f 13/93/6 59/48/6 63/50/6
f 57/47/4 60/46/4 14/94/4
f 59/31/5 58/30/5 24/95/5
f 24/96/3 58/28/3 64/29/3
f 17/36/5 66/36/5 65/21/5
f 45/72/2 70/72/2 67/78/2
f 63/50/2 73/50/2 72/83/2
f 33/78/2 67/78/2 66/97/2
f 54/62/1 74/62/1 75/27/1
f 48/49/4 71/49/4 73/50/4
f 23/98/1 69/98/1 68/51/1
f 57/47/5 76/47/5 69/12/5
f 94/57/6 80/85/6 90/99/6
f 80/85/2 82/84/2 92/101/2
f 79/63/1 81/63/1 74/62/1
f 79/63/6 93/58/6 99/102/6
f 88/103/1 104/103/1 102/104/1
f 89/80/6 99/102/6 98/105/6
f 44/35/4 85/35/4 83/26/4
f 30/56/5 84/56/5 86/92/5
f 32/92/1 86/92/1 85/35/1
f 90/99/2 92/101/2 76/106/2
f 100/100/6 90/99/6 57/106/6
f 89/80/1 91/80/1 81/63/1
f 77/108/6 93/58/6 94/57/6
f 87/109/6 99/102/6 93/58/6
f 78/104/6 94/57/6 100/100/6
f 88/103/6 100/100/6 99/102/6
f 15/110/6 97/107/6 98/105/6
f 9/111/6 98/105/6 99/102/6
f 96/75/6 100/100/6 97/107/6
f 95/76/6 99/102/6 100/100/6
f 78/104/4 102/104/4 101/108/4
f 87/109/5 103/109/5 104/103/5
f 77/108/2 101/108/2 103/109/2
f 95/76/2 107/76/2 106/111/2
f 15/110/1 105/110/1 108/75/1
f 9/111/5 106/111/5 105/110/5
f 112/112/6 113/5/6 122/4/6
f 116/68/6 117/90/6 123/72/6
f 109/55/6 118/78/6 111/97/6
f 120/51/6 114/67/6 115/10/6
f 121/2/6 123/72/6 118/78/6
f 124/49/6 122/4/6 114/67/6
f 27/67/2 114/67/2 122/4/2
f 17/97/2 111/97/2 118/78/2
f 21/112/1 112/112/1 124/49/1
f 26/55/1 109/55/1 110/70/1
f 48/49/1 124/49/1 120/51/1
f 3/38/4 110/38/4 111/36/4
f 8/5/5 113/5/5 112/43/5
f 7/10/2 115/10/2 114/67/2
f 36/51/1 120/51/1 119/98/1
f 45/72/2 123/72/2 117/90/2
o Cube.040
v -37.498428 -0.054850 -96.196953
v -37.498428 10.093087 -96.196953
v -36.789200 -0.054850 -96.196953
v -36.789200 10.093087 -96.196953
v -37.498428 -0.054850 -91.903709
v -37.498428 10.093087 -91.903709
v -36.789200 -0.054850 -91.903709
v -36.789200 10.093087 -91.903709
vn -0.0000 -0.0000 -1.0000
vn 1.0000 -0.0000 -0.0000
vn -0.0000 -0.0000 1.0000
vn -1.0000 -0.0000 -0.0000
vn -0.0000 -1.0000 -0.0000
vn -0.0000 1.0000 -0.0000
vt 0.625000 0.000000
vt 0.375000 0.250000
vt 0.375000 0.000000
vt 0.625000 0.250000
vt 0.375000 0.500000
vt 0.625000 0.500000
vt 0.375000 0.750000
vt 0.625000 0.750000
vt 0.375000 1.000000
vt 0.125000 0.750000
vt 0.125000 0.500000
vt 0.875000 0.500000
vt 0.625000 1.000000
vt 0.875000 0.750000
s 0
f 126/115/7 127/116/7 125/117/7
f 128/118/8 131/119/8 127/116/8
f 132/120/9 129/121/9 131/119/9
f 130/122/10 125/123/10 129/121/10
f 131/119/11 125/124/11 127/125/11
f 128/126/12 130/122/12 132/120/12
f 126/115/7 128/118/7 127/116/7
f 128/118/8 132/120/8 131/119/8
f 132/120/9 130/122/9 129/121/9
f 130/122/10 126/127/10 125/123/10
f 131/119/11 129/121/11 125/124/11
f 128/126/12 126/128/12 130/122/12
o Cube.041
v -36.826595 -0.054850 -93.050659
v -36.826595 10.093087 -93.050659
v -36.826595 -0.054850 -93.759888
v -36.826595 10.093087 -93.759888
v -29.894360 -0.054850 -93.050659
v -29.894360 10.093087 -93.050659
v -29.894360 -0.054850 -93.759888
v -29.894360 10.093087 -93.759888
v -36.826595 7.890184 -93.050659
v -36.826595 7.890184 -93.759888
v -29.894360 7.890184 -93.759888
v -29.894360 7.890184 -93.050659
v -30.247158 -0.054850 -93.759888
v -30.247158 10.093087 -93.759888
v -30.247158 -0.054850 -93.050659
v -30.247158 10.093087 -93.050659
v -30.247158 7.890184 -93.050659
v -30.247158 7.890184 -93.759888
v -36.507591 -0.054850 -93.759888
v -36.507591 10.093087 -93.050659
v -36.507591 7.890184 -93.050659
v -36.507591 10.093087 -93.759888
v -36.507591 -0.054850 -93.050659
v -36.507591 7.890184 -93.759888
v -36.507591 7.890184 -93.038681
v -30.247158 7.890184 -93.038681
v -30.247158 -0.054850 -93.038681
v -36.507591 -0.054850 -93.038681
vn -1.0000 -0.0000 -0.0000
vn -0.0000 -0.0000 -1.0000
vn 1.0000 -0.0000 -0.0000
vn -0.0000 -0.0000 1.0000
vn -0.0000 -1.0000 -0.0000
vn -0.0000 1.0000 -0.0000
vt 0.625000 0.000000
vt 0.570730 0.250000
vt 0.570730 0.000000
vt 0.625000 0.487277
vt 0.570730 0.500000
vt 0.570730 0.487277
vt 0.625000 0.500000
vt 0.570730 0.750000
vt 0.625000 0.988496
vt 0.570730 1.000000
vt 0.570730 0.988496
vt 0.375000 0.500000
vt 0.362277 0.750000
vt 0.362277 0.500000
vt 0.875000 0.500000
vt 0.863496 0.750000
vt 0.863496 0.500000
vt 0.375000 1.000000
vt 0.375000 0.988496
vt 0.375000 0.750000
vt 0.375000 0.487277
vt 0.375000 0.250000
vt 0.375000 0.000000
vt 0.375000 0.762723
vt 0.637723 0.500000
vt 0.625000 0.750000
vt 0.136504 0.750000
vt 0.136504 0.500000
vt 0.570730 0.762723
vt 0.625000 0.261504
vt 0.570730 0.261504
vt 0.625000 0.250000
vt 0.125000 0.750000
vt 0.125000 0.500000
vt 0.375000 0.261504
vt 0.637723 0.750000
vt 0.625000 0.762723
vt 0.625000 1.000000
vt 0.875000 0.750000
s 0
f 134/129/13 142/130/13 141/131/13
f 146/132/14 143/133/14 150/134/14
f 140/135/15 144/136/15 143/133/15
f 152/137/16 141/138/16 153/139/16
f 139/140/17 147/141/17 145/142/17
f 136/143/18 152/144/18 154/145/18
f 153/139/16 133/146/16 155/147/16
f 143/133/15 137/148/15 139/140/15
f 150/134/14 139/140/14 145/149/14
f 141/131/13 135/150/13 133/151/13
f 145/149/13 158/134/13 150/134/13
f 144/136/16 147/152/16 137/148/16
f 146/153/18 138/154/18 140/135/18
f 145/142/17 155/155/17 151/156/17
f 138/154/16 149/157/16 144/136/16
f 154/158/14 150/134/14 156/159/14
f 136/160/14 156/159/14 142/130/14
f 151/156/17 133/161/17 135/162/17
f 142/130/14 151/163/14 135/150/14
f 154/145/18 148/164/18 146/153/18
f 148/165/16 153/139/16 149/157/16
f 156/159/15 160/163/15 151/163/15
f 150/134/17 157/159/17 156/159/17
f 151/156/18 159/142/18 145/142/18
f 134/129/13 136/160/13 142/130/13
f 146/132/14 140/135/14 143/133/14
f 140/135/15 138/154/15 144/136/15
f 152/137/16 134/166/16 141/138/16
f 139/140/17 137/148/17 147/141/17
f 136/143/18 134/167/18 152/144/18
f 153/139/16 141/138/16 133/146/16
f 143/133/15 144/136/15 137/148/15
f 150/134/14 143/133/14 139/140/14
f 141/131/13 142/130/13 135/150/13
f 145/149/13 159/149/13 158/134/13
f 144/136/16 149/157/16 147/152/16
f 146/153/18 148/164/18 138/154/18
f 145/142/17 147/141/17 155/155/17
f 138/154/16 148/165/16 149/157/16
f 154/158/14 146/132/14 150/134/14
f 136/160/14 154/158/14 156/159/14
f 151/156/17 155/155/17 133/161/17
f 142/130/14 156/159/14 151/163/14
f 154/145/18 152/144/18 148/164/18
f 148/165/16 152/137/16 153/139/16
f 156/159/15 157/159/15 160/163/15
f 150/134/17 158/134/17 157/159/17
f 151/156/18 160/156/18 159/142/18
o Cube.042
v -3.975722 -0.054850 -93.050659
v -3.975722 10.093087 -93.050659
v -3.975722 -0.054850 -93.759888
v -3.975722 10.093087 -93.759888
v 9.478116 -0.054850 -93.050659
v 9.478116 10.093087 -93.050659
v 9.478116 -0.054850 -93.759888
v 9.478116 10.093087 -93.759888
vn -1.0000 -0.0000 -0.0000
vn -0.0000 -0.0000 -1.0000
vn 1.0000 -0.0000 -0.0000
vn -0.0000 -0.0000 1.0000
vn -0.0000 -1.0000 -0.0000
vn -0.0000 1.0000 -0.0000
vt 0.625000 0.000000
vt 0.375000 0.250000
vt 0.375000 0.000000
vt 0.625000 0.250000
vt 0.375000 0.500000
vt 0.625000 0.500000
vt 0.375000 0.750000
vt 0.625000 0.750000
vt 0.375000 1.000000
vt 0.125000 0.750000
vt 0.125000 0.500000
vt 0.875000 0.500000
vt 0.625000 1.000000
vt 0.875000 0.750000
s 0
f 162/168/19 163/169/19 161/170/19
f 164/171/20 167/172/20 163/169/20
f 168/173/21 165/174/21 167/172/21
f 166/175/22 161/176/22 165/174/22
f 167/172/23 161/177/23 163/178/23
f 164/179/24 166/175/24 168/173/24
f 162/168/19 164/171/19 163/169/19
f 164/171/20 168/173/20 167/172/20
f 168/173/21 166/175/21 165/174/21
f 166/175/22 162/180/22 161/176/22
f 167/172/23 165/174/23 161/177/23
f 164/179/24 162/181/24 166/175/24
o Cube.043
v 9.627005 -0.054850 -90.544136
v 9.627005 10.093087 -90.544136
v 8.917779 -0.054850 -90.544136
v 8.917779 10.093087 -90.544136
v 9.627004 -0.054850 -93.684273
v 9.627004 10.093087 -93.684273
v 8.917778 -0.054850 -93.684273
v 8.917778 10.093087 -93.684273
vn -0.0000 -0.0000 1.0000
vn -1.0000 -0.0000 -0.0000
vn -0.0000 -0.0000 -1.0000
vn 1.0000 -0.0000 -0.0000
vn -0.0000 -1.0000 -0.0000
vn -0.0000 1.0000 -0.0000
vt 0.625000 0.000000
vt 0.375000 0.250000
vt 0.375000 0.000000
vt 0.625000 0.250000
vt 0.375000 0.500000
vt 0.625000 0.500000
vt 0.375000 0.750000
vt 0.625000 0.750000
vt 0.375000 1.000000
vt 0.125000 0.750000
vt 0.125000 0.500000
vt 0.875000 0.500000
vt 0.625000 1.000000
vt 0.875000 0.750000
s 0
f 170/182/25 171/183/25 169/184/25
f 172/185/26 175/186/26 171/183/26
f 176/187/27 173/188/27 175/186/27
f 174/189/28 169/190/28 173/188/28
f 175/186/29 169/191/29 171/192/29
f 172/193/30 174/189/30 176/187/30
f 170/182/25 172/185/25 171/183/25
f 172/185/26 176/187/26 175/186/26
f 176/187/27 174/189/27 173/188/27
f 174/189/28 170/194/28 169/190/28
f 175/186/29 173/188/29 169/191/29
f 172/193/30 170/195/30 174/189/30
