# Blender 5.2.0 LTS
# www.blender.org
mtllib sofa3.mtl
o Cube.001
v -4.032904 1.300842 2.365803
v -4.032904 2.310942 2.365804
v -4.032904 1.300842 -2.365803
v -4.032904 2.310942 -2.365803
v 4.032904 1.300842 2.365803
v 4.032904 2.310942 2.365804
v 4.032904 1.300842 -2.365803
v 4.032904 2.310942 -2.365803
v 3.017148 1.300842 -2.365804
v -3.017148 1.300842 -2.365804
v -3.017148 2.310942 -2.365804
v 3.017148 2.310942 -2.365804
v -3.017148 1.300842 2.365804
v 3.017148 1.300842 2.365804
v 3.017148 2.310942 2.365804
v -3.017148 2.310942 2.365804
v -4.032904 1.300842 -1.499787
v -4.032904 2.310942 -1.499788
v 4.032904 1.300842 -1.499787
v 4.032904 2.310942 -1.499788
v 3.017148 2.310942 -1.499788
v -3.017148 2.310942 -1.499788
v -4.032904 5.086833 -2.365803
v 3.017148 5.086833 -2.365804
v 4.032904 5.086833 -2.365803
v -3.017148 5.086833 -2.365804
v -4.032904 4.973165 -1.499787
v -4.032904 5.086833 -2.032247
v -4.032904 5.029999 -1.571123
v -4.032904 5.071605 -1.766017
v 4.032904 5.086833 -2.032247
v 4.032904 4.973165 -1.499787
v 4.032904 5.071605 -1.766017
v 4.032904 5.029999 -1.571123
v 3.017148 4.973165 -1.499787
v 3.017148 5.086833 -2.032247
v 3.017148 5.029999 -1.571123
v 3.017148 5.071605 -1.766017
v -3.017148 5.086833 -2.032247
v -3.017148 4.973165 -1.499787
v -3.017148 5.071605 -1.766017
v -3.017148 5.029999 -1.571123
v -3.017148 2.310942 -0.924381
v 3.017148 2.310942 -0.924381
v 4.032904 2.310942 -0.928589
v 3.017148 2.310942 -0.928589
v -3.017148 2.310942 -0.924381
v -3.017148 4.973165 -1.499787
v -3.017148 3.329731 -0.968181
v -3.017148 4.193418 -1.092914
v -3.017148 4.770514 -1.279589
v 3.017148 4.973165 -1.499787
v 3.017148 2.310942 -0.924381
v 3.017148 4.770514 -1.279589
v 3.017148 4.193418 -1.092914
v 3.017148 3.329731 -0.968181
v -4.032904 2.310942 -0.928589
v -3.017148 2.310942 -0.928589
v 3.017148 2.310942 -0.928589
v 3.017148 4.973165 -1.499787
v 3.017148 3.329731 -0.972069
v 3.017148 4.193418 -1.095889
v 3.017148 4.770514 -1.281199
v 4.032904 4.973165 -1.499787
v 4.032904 2.310942 -0.928589
v 4.032904 4.770514 -1.281199
v 4.032904 4.193418 -1.095889
v 4.032904 3.329731 -0.972069
v -4.032904 2.310942 -0.928589
v -4.032904 4.973165 -1.499787
v -4.032904 3.329731 -0.972069
v -4.032904 4.193418 -1.095889
v -4.032904 4.770514 -1.281199
v -3.017148 4.973165 -1.499787
v -3.017148 2.310942 -0.928589
v -3.017148 4.770514 -1.281199
v -3.017148 4.193418 -1.095889
v -3.017148 3.329731 -0.972069
v -4.032904 0.589632 -1.499787
v -4.032904 0.589632 2.365803
v -3.017148 0.589632 -2.365804
v -4.032904 0.589632 -2.365803
v 4.032904 0.589632 -1.499787
v 4.032904 0.589632 -2.365803
v 3.017148 0.589632 2.365804
v 4.032904 0.589632 2.365803
v 3.017148 0.589632 -2.365804
v -3.017148 0.589632 2.365804
v -3.017148 0.589632 -1.499787
v 3.017148 0.589632 -1.499787
vn -1.0000 -0.0000 -0.0000
vn -0.0000 -0.0000 -1.0000
vn 1.0000 -0.0000 -0.0000
vn -0.0000 -0.0000 1.0000
vn -0.0000 1.0000 -0.0000
vn -0.0000 0.7821 0.6231
vn -0.0000 0.9780 0.2088
vn -0.0000 0.9984 0.0571
vn -0.0000 -1.0000 -0.0000
vn -0.0000 0.0430 0.9991
vn -0.0000 0.1429 0.9897
vn -0.0000 0.3078 0.9515
vn -0.0000 0.7358 0.6772
vn -0.0000 0.0426 0.9991
vn -0.0000 0.1419 0.9899
vn -0.0000 0.3057 0.9521
vn -0.0000 0.7333 0.6799
vt 0.523190 0.353664
vt 0.564299 0.129058
vt 0.523190 0.129058
vt 0.584018 0.353664
vt 0.612303 0.129058
vt 0.584018 0.129058
vt 0.339693 0.129058
vt 0.415982 0.353664
vt 0.387697 0.129058
vt 0.415982 0.129058
vt 0.612303 -0.029087
vt 0.387697 0.523190
vt 0.415982 0.339693
vt 0.415982 0.523190
vt 0.584018 0.523190
vt 0.612303 0.339693
vt 0.612303 0.523190
vt 0.584018 0.339693
vt 0.415982 -0.029087
vt 0.523190 -0.029087
vt 0.612303 0.353664
vt 0.387697 0.353664
vt 0.584018 -0.029087
vt 0.564299 0.353664
vt 0.339693 0.353664
vt 0.612303 0.970913
vt 0.415982 0.970913
vt 0.584018 0.970913
vt 0.584018 0.945637
vt 0.415982 0.958275
vt 0.415982 0.945637
vt 0.584018 0.958275
vt 0.415982 0.967527
vt 0.584018 0.535828
vt 0.415982 0.548465
vt 0.415982 0.535828
vt 0.612303 0.945637
vt 0.612303 0.958275
vt 0.584018 0.967527
vt 0.612303 0.535828
vt 0.584018 0.548465
vt 0.387697 0.958275
vt 0.387697 0.945637
vt 0.387697 0.967527
vt 0.387697 0.548465
vt 0.387697 0.535828
vt 0.526576 0.958275
vt 0.548465 0.970913
vt 0.387697 0.564299
vt 0.415982 0.564299
vt 0.415982 0.496075
vt 0.387697 0.496075
vt 0.612303 0.564299
vt 0.612303 0.548465
vt 0.584018 0.564299
vt 0.415982 0.495876
vt 0.584018 0.353664
vt 0.415982 0.580203
vt 0.415982 0.353664
vt 0.584018 0.772252
vt 0.415982 0.772252
vt 0.415982 0.900576
vt 0.584018 0.900576
vt 0.584018 0.495876
vt 0.523190 0.945637
vt 0.495876 0.353664
vt 0.512737 0.900576
vt 0.497955 0.580203
vt 0.584018 0.496075
vt 0.387697 0.580203
vt 0.387697 0.353664
vt 0.387697 0.772252
vt 0.387697 0.900576
vt 0.612303 0.353664
vt 0.584018 0.580203
vt 0.612303 0.580203
vt 0.612303 0.772252
vt 0.612303 0.900576
vt 0.612303 0.496075
vt 0.496075 0.353664
vt 0.498139 0.580203
vt 0.387697 0.523190
vt 0.584018 0.339693
vt 0.415982 0.339693
vt 0.387697 0.339693
vt 0.339693 -0.029087
vt 0.564299 -0.029087
vt 0.387697 -0.029087
vt 0.387697 0.353664
vt 0.387697 0.339693
vt 0.387697 0.970913
vt 0.612303 0.967527
vt 0.564299 0.970913
vt 0.535828 0.967527
vt 0.503876 0.772252
vt 0.498139 0.580203
vt 0.504017 0.772252
vt 0.512814 0.900576
vt 0.512814 0.900576
vt 0.612303 0.339693
s 0
usemtl Material.001
f 18/1/1 3/2/1 17/3/1
f 12/4/2 7/5/2 9/6/2
f 20/1/3 5/7/3 19/3/3
f 16/8/4 1/9/4 13/10/4
f 14/6/4 86/11/4 5/5/4
f 18/12/5 16/13/5 22/14/5
f 21/15/5 6/16/5 20/17/5
f 22/14/5 15/18/5 21/15/5
f 9/6/2 81/19/2 10/10/2
f 5/7/3 83/20/3 19/3/3
f 6/21/4 14/6/4 5/5/4
f 15/4/4 13/10/4 14/6/4
f 4/22/2 10/10/2 3/9/2
f 11/8/2 9/6/2 10/10/2
f 1/9/4 88/19/4 13/10/4
f 7/5/2 87/23/2 9/6/2
f 3/2/1 79/20/1 17/3/1
f 8/24/3 19/3/3 7/2/3
f 2/25/1 17/3/1 1/7/1
f 12/4/2 25/26/2 8/21/2
f 4/22/2 26/27/2 11/8/2
f 11/8/2 24/28/2 12/4/2
f 35/29/6 42/30/6 40/31/6
f 37/32/7 41/33/7 42/30/7
f 38/34/8 39/35/8 41/36/8
f 32/37/6 37/32/6 35/29/6
f 34/38/7 38/39/7 37/32/7
f 33/40/8 36/41/8 38/34/8
f 40/31/6 29/42/6 27/43/6
f 42/30/7 30/44/7 29/42/7
f 41/36/8 28/45/8 30/46/8
f 18/1/1 29/47/1 28/48/1
f 23/49/5 39/35/5 26/50/5
f 18/12/9 58/51/9 57/52/9
f 8/24/3 31/48/3 34/47/3
f 25/53/5 36/41/5 31/54/5
f 26/50/5 36/41/5 24/55/5
f 21/15/9 43/56/9 22/14/9
f 53/57/10 49/58/10 47/59/10
f 49/58/11 55/60/11 50/61/11
f 55/60/12 51/62/12 50/61/12
f 54/63/13 48/31/13 51/62/13
f 35/15/5 48/14/5 52/15/5
f 43/56/5 53/64/5 47/56/5
f 40/65/1 47/66/1 51/67/1
f 35/65/3 56/68/3 53/66/3
f 20/17/9 46/69/9 21/15/9
f 75/59/14 71/70/14 69/71/14
f 78/58/15 72/72/15 71/70/15
f 77/61/16 73/73/16 72/72/16
f 76/62/17 70/43/17 73/73/17
f 65/74/14 61/75/14 59/57/14
f 68/76/15 62/60/15 61/75/15
f 67/77/16 63/63/16 62/60/16
f 66/78/17 60/29/17 63/63/17
f 46/69/5 65/79/5 59/69/5
f 21/1/1 59/80/1 60/65/1
f 32/17/5 60/15/5 64/17/5
f 64/65/3 68/81/3 45/80/3
f 18/1/1 69/80/1 70/65/1
f 57/52/5 75/51/5 69/52/5
f 40/14/5 70/82/5 74/14/5
f 40/65/5 74/65/5 75/80/5
f 83/17/9 85/83/9 90/15/9
f 79/82/9 88/84/9 80/85/9
f 90/15/9 88/84/9 89/14/9
f 87/55/9 89/14/9 81/50/9
f 82/49/9 89/14/9 79/82/9
f 84/53/9 90/15/9 87/55/9
f 13/10/4 85/23/4 14/6/4
f 17/3/1 80/86/1 1/7/1
f 19/3/3 84/87/3 7/2/3
f 10/10/2 82/88/2 3/9/2
f 18/1/1 4/24/1 3/2/1
f 12/4/2 8/21/2 7/5/2
f 20/1/3 6/25/3 5/7/3
f 16/8/4 2/89/4 1/9/4
f 14/6/4 85/23/4 86/11/4
f 18/12/5 2/90/5 16/13/5
f 21/15/5 15/18/5 6/16/5
f 22/14/5 16/13/5 15/18/5
f 9/6/2 87/23/2 81/19/2
f 5/7/3 86/86/3 83/20/3
f 6/21/4 15/4/4 14/6/4
f 15/4/4 16/8/4 13/10/4
f 4/22/2 11/8/2 10/10/2
f 11/8/2 12/4/2 9/6/2
f 1/9/4 80/88/4 88/19/4
f 7/5/2 84/11/2 87/23/2
f 3/2/1 82/87/1 79/20/1
f 8/24/3 20/1/3 19/3/3
f 2/25/1 18/1/1 17/3/1
f 12/4/2 24/28/2 25/26/2
f 4/22/2 23/91/2 26/27/2
f 11/8/2 26/27/2 24/28/2
f 35/29/6 37/32/6 42/30/6
f 37/32/7 38/39/7 41/33/7
f 38/34/8 36/41/8 39/35/8
f 32/37/6 34/38/6 37/32/6
f 34/38/7 33/92/7 38/39/7
f 33/40/8 31/54/8 36/41/8
f 40/31/6 42/30/6 29/42/6
f 42/30/7 41/33/7 30/44/7
f 41/36/8 39/35/8 28/45/8
f 23/93/1 4/24/1 18/1/1
f 18/1/1 27/65/1 29/47/1
f 29/47/1 30/94/1 28/48/1
f 28/48/1 23/93/1 18/1/1
f 23/49/5 28/45/5 39/35/5
f 18/12/9 22/14/9 58/51/9
f 32/65/3 20/1/3 8/24/3
f 8/24/3 25/93/3 31/48/3
f 31/48/3 33/94/3 34/47/3
f 34/47/3 32/65/3 8/24/3
f 25/53/5 24/55/5 36/41/5
f 26/50/5 39/35/5 36/41/5
f 21/15/9 44/64/9 43/56/9
f 53/57/10 56/75/10 49/58/10
f 49/58/11 56/75/11 55/60/11
f 55/60/12 54/63/12 51/62/12
f 54/63/13 52/29/13 48/31/13
f 35/15/5 40/14/5 48/14/5
f 43/56/5 44/64/5 53/64/5
f 49/68/1 50/95/1 51/67/1
f 47/66/1 49/68/1 51/67/1
f 22/1/5 43/66/5 47/66/5
f 40/65/1 22/1/1 47/66/1
f 51/67/5 48/65/5 40/65/5
f 52/65/3 54/67/3 55/95/3
f 52/65/3 55/95/3 56/68/3
f 53/66/5 44/66/5 21/1/5
f 53/66/3 21/1/3 35/65/3
f 35/65/5 52/65/5 56/68/5
f 20/17/9 45/79/9 46/69/9
f 75/59/14 78/58/14 71/70/14
f 78/58/15 77/61/15 72/72/15
f 77/61/16 76/62/16 73/73/16
f 76/62/17 74/31/17 70/43/17
f 65/74/14 68/76/14 61/75/14
f 68/76/15 67/77/15 62/60/15
f 67/77/16 66/78/16 63/63/16
f 66/78/17 64/37/17 60/29/17
f 46/69/5 45/79/5 65/79/5
f 61/96/1 62/97/1 63/98/1
f 60/65/5 35/65/5 21/1/5
f 61/96/1 63/98/1 60/65/1
f 59/80/1 61/96/1 60/65/1
f 21/1/5 46/80/5 59/80/5
f 32/17/5 35/15/5 60/15/5
f 66/99/3 67/97/3 68/81/3
f 64/65/3 66/99/3 68/81/3
f 20/1/5 32/65/5 64/65/5
f 45/80/3 20/1/3 64/65/3
f 68/81/5 65/80/5 45/80/5
f 71/81/1 72/97/1 73/99/1
f 70/65/5 27/65/5 18/1/5
f 71/81/1 73/99/1 70/65/1
f 69/80/1 71/81/1 70/65/1
f 18/1/5 57/80/5 69/80/5
f 57/52/5 58/51/5 75/51/5
f 40/14/5 27/82/5 70/82/5
f 58/80/3 22/1/3 40/65/3
f 74/65/3 76/98/3 77/97/3
f 74/65/3 77/97/3 78/96/3
f 75/80/5 58/80/5 40/65/5
f 74/65/3 78/96/3 75/80/3
f 83/17/9 86/100/9 85/83/9
f 79/82/9 89/14/9 88/84/9
f 90/15/9 85/83/9 88/84/9
f 87/55/9 90/15/9 89/14/9
f 82/49/9 81/50/9 89/14/9
f 84/53/9 83/17/9 90/15/9
f 13/10/4 88/19/4 85/23/4
f 17/3/1 79/20/1 80/86/1
f 19/3/3 83/20/3 84/87/3
f 10/10/2 81/19/2 82/88/2
o Cube.002
v 3.268773 1.024814 -1.469392
v 3.268773 0.343635 -1.469392
v 3.268773 1.024814 -1.926365
v 3.268773 0.343635 -1.926365
v 3.702712 1.024814 -1.469392
v 3.702712 0.343635 -1.469392
v 3.702712 1.024814 -1.926365
v 3.702712 0.343635 -1.926365
v -3.268773 1.024814 -1.469392
v -3.268773 0.343635 -1.469392
v -3.268773 1.024814 -1.926365
v -3.268773 0.343635 -1.926365
v -3.702712 1.024814 -1.469392
v -3.702712 0.343635 -1.469392
v -3.702712 1.024814 -1.926365
v -3.702712 0.343635 -1.926365
v 3.268773 1.024814 1.469393
v 3.268773 0.343635 1.469393
v 3.268773 1.024814 1.926366
v 3.268773 0.343635 1.926366
v 3.702712 1.024814 1.469393
v 3.702712 0.343635 1.469393
v 3.702712 1.024814 1.926366
v 3.702712 0.343635 1.926366
v -3.268773 1.024814 1.469393
v -3.268773 0.343635 1.469393
v -3.268773 1.024814 1.926366
v -3.268773 0.343635 1.926366
v -3.702712 1.024814 1.469393
v -3.702712 0.343635 1.469393
v -3.702712 1.024814 1.926366
v -3.702712 0.343635 1.926366
vn -1.0000 -0.0000 -0.0000
vn -0.0000 -0.0000 -1.0000
vn 1.0000 -0.0000 -0.0000
vn -0.0000 -0.0000 1.0000
vn -0.0000 1.0000 -0.0000
vn -0.0000 -1.0000 -0.0000
vt 0.625000 0.000000
vt 0.375000 0.250000
vt 0.375000 0.000000
vt 0.625000 0.250000
vt 0.375000 0.500000
vt 0.625000 0.500000
vt 0.375000 0.750000
vt 0.625000 0.750000
vt 0.375000 1.000000
vt 0.125000 0.750000
vt 0.125000 0.500000
vt 0.875000 0.500000
vt 0.625000 1.000000
vt 0.875000 0.750000
s 0
f 92/101/18 91/103/18 93/102/18
f 94/104/19 93/102/19 97/105/19
f 98/106/20 97/105/20 95/107/20
f 96/108/21 95/107/21 91/109/21
f 97/105/22 93/111/22 91/110/22
f 94/112/23 98/106/23 96/108/23
f 101/102/20 99/103/20 100/101/20
f 105/105/19 101/102/19 102/104/19
f 103/107/18 105/105/18 106/106/18
f 99/109/21 103/107/21 104/108/21
f 99/110/22 101/111/22 105/105/22
f 104/108/23 106/106/23 102/112/23
f 109/102/18 107/103/18 108/101/18
f 113/105/21 109/102/21 110/104/21
f 111/107/20 113/105/20 114/106/20
f 107/109/19 111/107/19 112/108/19
f 107/110/22 109/111/22 113/105/22
f 112/108/23 114/106/23 110/112/23
f 116/101/20 115/103/20 117/102/20
f 118/104/21 117/102/21 121/105/21
f 122/106/18 121/105/18 119/107/18
f 120/108/19 119/107/19 115/109/19
f 121/105/22 117/111/22 115/110/22
f 118/112/23 122/106/23 120/108/23
f 92/101/18 93/102/18 94/104/18
f 94/104/19 97/105/19 98/106/19
f 98/106/20 95/107/20 96/108/20
f 96/108/21 91/109/21 92/113/21
f 97/105/22 91/110/22 95/107/22
f 94/112/23 96/108/23 92/114/23
f 101/102/20 100/101/20 102/104/20
f 105/105/19 102/104/19 106/106/19
f 103/107/18 106/106/18 104/108/18
f 99/109/21 104/108/21 100/113/21
f 99/110/22 105/105/22 103/107/22
f 104/108/23 102/112/23 100/114/23
f 109/102/18 108/101/18 110/104/18
f 113/105/21 110/104/21 114/106/21
f 111/107/20 114/106/20 112/108/20
f 107/109/19 112/108/19 108/113/19
f 107/110/22 113/105/22 111/107/22
f 112/108/23 110/112/23 108/114/23
f 116/101/20 117/102/20 118/104/20
f 118/104/21 121/105/21 122/106/21
f 122/106/18 119/107/18 120/108/18
f 120/108/19 115/109/19 116/113/19
f 121/105/22 115/110/22 119/107/22
f 118/112/23 120/108/23 116/114/23
