# Blender 5.2.0 LTS
# www.blender.org
mtllib WC.mtl
o Cube.020
v 9.490600 -0.054850 -36.087219
v 9.490600 10.093087 -36.087219
v 9.490600 -0.054850 -35.377995
v 9.490600 10.093087 -35.377995
v -9.490600 -0.054850 -36.087215
v -9.490600 10.093087 -36.087215
v -9.490600 -0.054850 -35.377991
v -9.490600 10.093087 -35.377991
vn 1.0000 -0.0000 -0.0000
vn -0.0000 -0.0000 1.0000
vn -1.0000 -0.0000 -0.0000
vn -0.0000 -0.0000 -1.0000
vn -0.0000 -1.0000 -0.0000
vn -0.0000 1.0000 -0.0000
vt 0.625000 0.000000
vt 0.375000 0.250000
vt 0.375000 0.000000
vt 0.625000 0.250000
vt 0.375000 0.500000
vt 0.625000 0.500000
vt 0.375000 0.750000
vt 0.625000 0.750000
vt 0.375000 1.000000
vt 0.125000 0.750000
vt 0.125000 0.500000
vt 0.875000 0.500000
vt 0.625000 1.000000
vt 0.875000 0.750000
s 0
f 2/1/1 3/2/1 1/3/1
f 4/4/2 7/5/2 3/2/2
f 8/6/3 5/7/3 7/5/3
f 6/8/4 1/9/4 5/7/4
f 7/5/5 1/10/5 3/11/5
f 4/12/6 6/8/6 8/6/6
f 2/1/1 4/4/1 3/2/1
f 4/4/2 8/6/2 7/5/2
f 8/6/3 6/8/3 5/7/3
f 6/8/4 2/13/4 1/9/4
f 7/5/5 5/7/5 1/10/5
f 4/12/6 2/14/6 6/8/6
o Cube.021
v 8.972721 -0.054850 -35.460716
v 8.972721 10.093087 -35.460716
v 9.681947 -0.054850 -35.460716
v 9.681947 10.093087 -35.460716
v 8.972722 -0.054850 -28.795822
v 8.972722 10.093087 -28.795822
v 9.681948 -0.054850 -28.795822
v 9.681948 10.093087 -28.795822
vn -0.0000 -0.0000 -1.0000
vn 1.0000 -0.0000 -0.0000
vn -0.0000 -0.0000 1.0000
vn -1.0000 -0.0000 -0.0000
vn -0.0000 -1.0000 -0.0000
vn -0.0000 1.0000 -0.0000
vt 0.625000 0.000000
vt 0.375000 0.250000
vt 0.375000 0.000000
vt 0.625000 0.250000
vt 0.375000 0.500000
vt 0.625000 0.500000
vt 0.375000 0.750000
vt 0.625000 0.750000
vt 0.375000 1.000000
vt 0.125000 0.750000
vt 0.125000 0.500000
vt 0.875000 0.500000
vt 0.625000 1.000000
vt 0.875000 0.750000
s 0
f 10/15/7 11/16/7 9/17/7
f 12/18/8 15/19/8 11/16/8
f 16/20/9 13/21/9 15/19/9
f 14/22/10 9/23/10 13/21/10
f 15/19/11 9/24/11 11/25/11
f 12/26/12 14/22/12 16/20/12
f 10/15/7 12/18/7 11/16/7
f 12/18/8 16/20/8 15/19/8
f 16/20/9 14/22/9 13/21/9
f 14/22/10 10/27/10 9/23/10
f 15/19/11 13/21/11 9/24/11
f 12/26/12 10/28/12 14/22/12
o Cube.023
v -9.563684 -0.054850 -35.460716
v -9.563684 10.093087 -35.460716
v -8.854459 -0.054850 -35.460716
v -8.854459 10.093087 -35.460716
v -9.563684 -0.054850 -28.795822
v -9.563684 10.093087 -28.795822
v -8.854458 -0.054850 -28.795822
v -8.854458 10.093087 -28.795822
v -8.854459 -0.054850 -34.206287
v -9.563684 -0.054850 -34.206287
v -9.563684 -0.054850 -30.290567
v -8.854458 -0.054850 -30.290567
v -9.563684 5.795812 -35.460716
v -8.854459 5.795812 -35.460716
v -8.854458 5.795812 -28.795822
v -9.563684 5.795812 -28.795822
v -9.563684 5.795812 -34.206287
v -8.854459 5.795812 -34.206287
v -9.563684 5.795812 -30.290567
v -8.854458 5.795812 -30.290567
v -9.556115 -0.054850 -30.290567
v -9.556115 -0.054850 -34.206287
v -9.556115 5.795812 -34.206287
v -9.556115 5.795812 -30.290567
vn -0.0000 -0.0000 -1.0000
vn -0.0000 -0.0000 1.0000
vn -1.0000 -0.0000 -0.0000
vn -0.0000 -1.0000 -0.0000
vn -0.0000 1.0000 -0.0000
vn 1.0000 -0.0000 -0.0000
vt 0.625000 0.000000
vt 0.519134 0.250000
vt 0.519134 0.000000
vt 0.625000 0.500000
vt 0.519134 0.750000
vt 0.519134 0.500000
vt 0.519134 0.952946
vt 0.519134 0.806068
vt 0.625000 0.750000
vt 0.375000 0.500000
vt 0.318932 0.750000
vt 0.318932 0.500000
vt 0.875000 0.500000
vt 0.172054 0.500000
vt 0.125000 0.750000
vt 0.125000 0.500000
vt 0.519134 0.443932
vt 0.519134 0.297054
vt 0.172054 0.750000
vt 0.375000 0.297054
vt 0.375000 0.806068
vt 0.375000 0.750000
vt 0.375000 0.250000
vt 0.375000 1.000000
vt 0.375000 0.952946
vt 0.375000 0.443932
vt 0.375000 0.000000
vt 0.625000 0.250000
vt 0.625000 1.000000
vt 0.519134 1.000000
vt 0.875000 0.750000
s 0
f 18/29/13 30/30/13 29/31/13
f 24/32/14 32/33/14 31/34/14
f 33/35/15 35/36/15 22/37/15
f 23/38/16 27/39/16 28/40/16
f 20/41/17 22/37/17 24/32/17
f 25/42/16 17/43/16 19/44/16
f 24/32/18 36/45/18 34/46/18
f 28/40/16 26/47/16 25/42/16
f 34/46/14 38/48/14 25/48/14
f 32/33/15 27/49/15 21/50/15
f 30/30/18 25/48/18 19/51/18
f 33/35/15 17/52/15 26/53/15
f 31/34/14 21/50/14 23/38/14
f 36/45/18 23/38/18 28/54/18
f 29/31/13 19/51/13 17/55/13
f 28/54/13 40/45/13 36/45/13
f 36/45/16 39/46/16 34/46/16
f 25/42/17 37/40/17 28/40/17
f 18/29/13 20/56/13 30/30/13
f 24/32/14 22/37/14 32/33/14
f 22/37/15 18/57/15 29/58/15
f 22/37/15 29/58/15 33/35/15
f 35/36/15 32/33/15 22/37/15
f 23/38/16 21/50/16 27/39/16
f 20/41/17 18/59/17 22/37/17
f 25/42/16 26/47/16 17/43/16
f 30/30/18 20/56/18 24/32/18
f 24/32/18 31/34/18 36/45/18
f 34/46/18 30/30/18 24/32/18
f 28/40/16 27/39/16 26/47/16
f 34/46/14 39/46/14 38/48/14
f 32/33/15 35/36/15 27/49/15
f 30/30/18 34/46/18 25/48/18
f 33/35/15 29/58/15 17/52/15
f 31/34/14 32/33/14 21/50/14
f 36/45/18 31/34/18 23/38/18
f 29/31/13 30/30/13 19/51/13
f 28/54/13 37/54/13 40/45/13
f 36/45/16 40/45/16 39/46/16
f 25/42/17 38/42/17 37/40/17
