# Blender 5.2.0 LTS
# www.blender.org
mtllib Atap.mtl
o Cube.054
v -37.463249 10.058805 -57.763546
v -37.463249 12.521881 -57.763546
v -37.463249 10.058805 -90.969803
v -37.463249 12.521881 -90.969803
v 10.349599 10.058805 -57.763546
v 10.349599 12.521881 -57.763546
v 10.349599 10.058805 -90.969803
v 10.349599 12.521881 -90.969803
vn -1.0000 -0.0000 -0.0000
vn -0.0000 -0.0000 -1.0000
vn 1.0000 -0.0000 -0.0000
vn -0.0000 -0.0000 1.0000
vn -0.0000 -1.0000 -0.0000
vn -0.0000 1.0000 -0.0000
vt 0.375000 0.000000
vt 0.625000 0.000000
vt 0.625000 0.250000
vt 0.375000 0.250000
vt 0.625000 0.500000
vt 0.375000 0.500000
vt 0.625000 0.750000
vt 0.375000 0.750000
vt 0.625000 1.000000
vt 0.375000 1.000000
vt 0.125000 0.500000
vt 0.125000 0.750000
vt 0.875000 0.500000
vt 0.875000 0.750000
s 0
f 1/1/1 2/2/1 4/3/1 3/4/1
f 3/4/2 4/3/2 8/5/2 7/6/2
f 7/6/3 8/5/3 6/7/3 5/8/3
f 5/8/4 6/7/4 2/9/4 1/10/4
f 3/11/5 7/6/5 5/8/5 1/12/5
f 8/5/6 4/13/6 2/14/6 6/7/6
o Cube.055
v -37.463249 10.058805 -47.311314
v -37.463249 12.521881 -47.311314
v -37.463249 10.058805 -57.812298
v -37.463249 12.521881 -57.812298
v 10.349599 10.058805 -47.311314
v 10.349599 12.521881 -47.311314
v 10.349599 10.058805 -57.812298
v 10.349599 12.521881 -57.812298
vn -1.0000 -0.0000 -0.0000
vn -0.0000 -0.0000 -1.0000
vn 1.0000 -0.0000 -0.0000
vn -0.0000 -0.0000 1.0000
vn -0.0000 -1.0000 -0.0000
vn -0.0000 1.0000 -0.0000
vt 0.375000 0.000000
vt 0.625000 0.000000
vt 0.625000 0.250000
vt 0.375000 0.250000
vt 0.625000 0.500000
vt 0.375000 0.500000
vt 0.625000 0.750000
vt 0.375000 0.750000
vt 0.625000 1.000000
vt 0.375000 1.000000
vt 0.125000 0.500000
vt 0.125000 0.750000
vt 0.875000 0.500000
vt 0.875000 0.750000
s 0
f 9/15/7 10/16/7 12/17/7 11/18/7
f 11/18/8 12/17/8 16/19/8 15/20/8
f 15/20/9 16/19/9 14/21/9 13/22/9
f 13/22/10 14/21/10 10/23/10 9/24/10
f 11/25/11 15/20/11 13/22/11 9/26/11
f 16/19/12 12/27/12 10/28/12 14/21/12
o Cube.056
v -18.006134 10.058805 21.102732
v -18.006134 10.058805 -48.425163
v 10.412115 10.058805 21.102732
v 10.412115 10.058805 -48.425163
v -0.529272 12.521881 21.102732
v -18.006134 11.007121 21.102732
v -18.006134 11.007121 -48.425163
v -0.529272 12.521881 -48.425163
v 10.412115 11.577192 21.102732
v -0.487431 12.521881 21.102732
v -0.487431 12.521881 -48.425163
v 10.412115 11.577192 -48.425163
vn -0.0000 -1.0000 -0.0000
vn -0.0863 0.9963 -0.0000
vn -1.0000 -0.0000 -0.0000
vn 0.0863 0.9963 -0.0000
vn -0.0000 1.0000 -0.0000
vn 1.0000 -0.0000 -0.0000
vn -0.0000 -0.0000 1.0000
vn -0.0000 -0.0000 -1.0000
vt 0.125000 0.500000
vt 0.375000 0.500000
vt 0.375000 0.750000
vt 0.125000 0.750000
vt 0.625000 0.000000
vt 0.625000 0.326873
vt 0.471253 0.250000
vt 0.471253 0.000000
vt 0.375000 0.000000
vt 0.375000 0.250000
vt 0.688923 0.442512
vt 0.688923 0.781962
vt 0.529115 0.750000
vt 0.529115 0.500000
vt 0.721253 0.500000
vt 0.721253 0.750000
vt 0.625000 0.846253
vt 0.471253 1.000000
vt 0.375000 1.000000
s 0
f 18/29/13 20/30/13 19/31/13 17/32/13
f 21/33/14 24/34/14 23/35/14 22/36/14
f 17/37/15 22/36/15 23/35/15 18/38/15
f 27/39/16 26/40/16 25/41/16 28/42/16
f 27/39/17 24/43/17 21/44/17 26/40/17
f 20/30/18 28/42/18 25/41/18 19/31/18
f 19/31/19 25/41/19 26/40/19 21/45/19 22/46/19 17/47/19
f 18/38/20 23/35/20 24/34/20 27/39/20 28/42/20 20/30/20
o Cube.057
v -60.528305 9.893888 32.900887
v -60.528305 12.356964 32.900887
v -60.528305 9.893888 -48.285378
v -60.528305 12.356964 -48.285378
v -23.484390 9.893888 32.900887
v -23.484390 12.356964 32.900887
v -23.484390 9.893888 -48.285378
v -23.484390 12.356964 -48.285378
vn -1.0000 -0.0000 -0.0000
vn -0.0000 -0.0000 -1.0000
vn 1.0000 -0.0000 -0.0000
vn -0.0000 -0.0000 1.0000
vn -0.0000 -1.0000 -0.0000
vn -0.0000 1.0000 -0.0000
vt 0.375000 0.000000
vt 0.625000 0.000000
vt 0.625000 0.250000
vt 0.375000 0.250000
vt 0.625000 0.500000
vt 0.375000 0.500000
vt 0.625000 0.750000
vt 0.375000 0.750000
vt 0.625000 1.000000
vt 0.375000 1.000000
vt 0.125000 0.500000
vt 0.125000 0.750000
vt 0.875000 0.500000
vt 0.875000 0.750000
s 0
f 29/48/21 30/49/21 32/50/21 31/51/21
f 31/51/22 32/50/22 36/52/22 35/53/22
f 35/53/23 36/52/23 34/54/23 33/55/23
f 33/55/24 34/54/24 30/56/24 29/57/24
f 31/58/25 35/53/25 33/55/25 29/59/25
f 36/52/26 32/60/26 30/61/26 34/54/26
