# Blender 5.1.2
# www.blender.org
mtllib BlenderKopi.mtl
o Cone
v 25.315754 24.913151 -19.005716
v 25.624676 24.913151 -19.036142
v 25.921724 24.913151 -19.126251
v 26.195488 24.913151 -19.272581
v 26.435442 24.913151 -19.469507
v 26.632368 24.913151 -19.709461
v 26.778696 24.913151 -19.983225
v 26.868805 24.913151 -20.280273
v 26.899231 24.913151 -20.589195
v 26.868805 24.913151 -20.898117
v 26.778696 24.913151 -21.195166
v 26.632368 24.913151 -21.468929
v 26.435442 24.913151 -21.708883
v 26.195488 24.913151 -21.905809
v 25.921724 24.913151 -22.052137
v 25.624676 24.913151 -22.142246
v 25.315754 24.913151 -22.172672
v 25.006832 24.913151 -22.142246
v 24.709784 24.913151 -22.052137
v 24.436020 24.913151 -21.905809
v 24.196066 24.913151 -21.708883
v 23.999140 24.913151 -21.468929
v 23.852812 24.913151 -21.195166
v 23.762703 24.913151 -20.898117
v 23.732277 24.913151 -20.589195
v 23.762703 24.913151 -20.280273
v 23.852812 24.913151 -19.983225
v 23.999140 24.913151 -19.709461
v 24.196066 24.913151 -19.469507
v 24.436020 24.913151 -19.272581
v 24.709784 24.913151 -19.126251
v 25.006832 24.913151 -19.036142
v 25.315754 20.492702 -20.589195
v 25.315754 24.913151 -18.378971
v 25.746948 24.913151 -18.421440
v 26.161570 24.913151 -18.547215
v 26.543690 24.913151 -18.751461
v 26.878618 24.913151 -19.026331
v 27.153488 24.913151 -19.361259
v 27.357735 24.913151 -19.743380
v 27.483509 24.913151 -20.158001
v 27.525978 24.913151 -20.589195
v 27.483509 24.913151 -21.020388
v 27.357735 24.913151 -21.435011
v 27.153488 24.913151 -21.817131
v 26.878618 24.913151 -22.152060
v 26.543690 24.913151 -22.426929
v 26.161570 24.913151 -22.631176
v 25.746948 24.913151 -22.756950
v 25.315754 24.913151 -22.799419
v 24.884560 24.913151 -22.756950
v 24.469938 24.913151 -22.631176
v 24.087818 24.913151 -22.426929
v 23.752890 24.913151 -22.152060
v 23.478020 24.913151 -21.817131
v 23.273773 24.913151 -21.435011
v 23.147999 24.913151 -21.020388
v 23.105530 24.913151 -20.589195
v 23.147999 24.913151 -20.158001
v 23.273773 24.913151 -19.743380
v 23.478020 24.913151 -19.361259
v 23.752890 24.913151 -19.026331
v 24.087818 24.913151 -18.751461
v 24.469938 24.913151 -18.547215
v 24.884560 24.913151 -18.421440
v 25.315754 23.694019 -19.005716
v 25.624676 23.694019 -19.036142
v 25.921724 23.694019 -19.126251
v 26.195488 23.694019 -19.272581
v 26.435442 23.694019 -19.469507
v 26.632368 23.694019 -19.709461
v 26.778696 23.694019 -19.983225
v 26.868805 23.694019 -20.280273
v 26.899231 23.694019 -20.589195
v 26.868805 23.694019 -20.898117
v 26.778696 23.694021 -21.195166
v 26.632368 23.694021 -21.468929
v 26.435442 23.694021 -21.708883
v 26.195488 23.694021 -21.905809
v 25.921724 23.694021 -22.052137
v 25.624676 23.694021 -22.142246
v 25.315754 23.694021 -22.172672
v 25.006832 23.694021 -22.142246
v 24.709784 23.694021 -22.052137
v 24.436020 23.694021 -21.905809
v 24.196066 23.694021 -21.708883
v 23.999140 23.694021 -21.468929
v 23.852812 23.694021 -21.195166
v 23.762703 23.694019 -20.898117
v 23.732277 23.694019 -20.589195
v 23.762703 23.694019 -20.280273
v 23.852812 23.694019 -19.983225
v 23.999140 23.694019 -19.709461
v 24.196066 23.694019 -19.469507
v 24.436020 23.694019 -19.272581
v 24.709784 23.694019 -19.126251
v 25.006832 23.694019 -19.036142
vn 0.0878 -0.4455 0.8910
vn 0.2599 -0.4455 0.8567
vn 0.4220 -0.4455 0.7896
vn 0.5680 -0.4455 0.6921
vn 0.6921 -0.4455 0.5680
vn 0.7896 -0.4455 0.4220
vn 0.8567 -0.4455 0.2599
vn 0.8910 -0.4455 0.0878
vn 0.8910 -0.4455 -0.0878
vn 0.8567 -0.4455 -0.2599
vn 0.7896 -0.4455 -0.4220
vn 0.6921 -0.4455 -0.5680
vn 0.5680 -0.4455 -0.6921
vn 0.4220 -0.4455 -0.7896
vn 0.2599 -0.4455 -0.8567
vn 0.0878 -0.4455 -0.8910
vn -0.0878 -0.4455 -0.8910
vn -0.2599 -0.4455 -0.8567
vn -0.4220 -0.4455 -0.7896
vn -0.5680 -0.4455 -0.6921
vn -0.6921 -0.4455 -0.5680
vn -0.7896 -0.4455 -0.4220
vn -0.8567 -0.4455 -0.2599
vn -0.8910 -0.4455 -0.0878
vn -0.8910 -0.4455 0.0878
vn -0.8567 -0.4455 0.2599
vn -0.7896 -0.4455 0.4220
vn -0.6921 -0.4455 0.5680
vn -0.5680 -0.4455 0.6921
vn -0.4220 -0.4455 0.7896
vn -0.4714 -0.0000 -0.8819
vn -0.2599 -0.4455 0.8567
vn -0.0878 -0.4455 0.8910
vn -0.0000 1.0000 -0.0000
vn 0.4714 -0.0000 -0.8819
vn 0.0980 -0.0000 0.9952
vn -0.6344 -0.0000 -0.7730
vn 0.2903 -0.0000 -0.9569
vn 0.2903 -0.0000 0.9569
vn -0.7730 -0.0000 -0.6344
vn 0.0980 -0.0000 -0.9952
vn 0.4714 -0.0000 0.8819
vn -0.8819 -0.0000 -0.4714
vn 0.6344 -0.0000 0.7730
vn -0.9569 -0.0000 -0.2903
vn 0.7730 -0.0000 0.6344
vn -0.9952 -0.0000 -0.0980
vn 0.8819 -0.0000 0.4714
vn -0.9952 -0.0000 0.0980
vn 0.9569 -0.0000 0.2903
vn -0.9569 -0.0000 0.2903
vn 0.9952 -0.0000 0.0980
vn -0.8819 -0.0000 0.4714
vn 0.9952 -0.0000 -0.0980
vn -0.7730 -0.0000 0.6344
vn 0.9569 -0.0000 -0.2903
vn -0.6344 -0.0000 0.7730
vn 0.8819 -0.0000 -0.4714
vn -0.4714 -0.0000 0.8819
vn -0.0980 -0.0000 -0.9952
vn 0.7730 -0.0000 -0.6344
vn -0.2903 -0.0000 0.9569
vn -0.2903 -0.0000 -0.9569
vn 0.6344 -0.0000 -0.7730
vn -0.0980 -0.0000 0.9952
vt 0.250000 0.490000
vt 0.250000 0.250000
vt 0.296822 0.485388
vt 0.341844 0.471731
vt 0.383337 0.449553
vt 0.419706 0.419706
vt 0.449553 0.383337
vt 0.471731 0.341844
vt 0.485388 0.296822
vt 0.490000 0.250000
vt 0.485388 0.203178
vt 0.471731 0.158156
vt 0.449553 0.116663
vt 0.419706 0.080294
vt 0.383337 0.050447
vt 0.341844 0.028269
vt 0.296822 0.014612
vt 0.250000 0.010000
vt 0.203178 0.014612
vt 0.158156 0.028269
vt 0.116663 0.050447
vt 0.080294 0.080294
vt 0.050447 0.116663
vt 0.028269 0.158156
vt 0.014612 0.203178
vt 0.010000 0.250000
vt 0.014612 0.296822
vt 0.028269 0.341844
vt 0.050447 0.383337
vt 0.080294 0.419706
vt 0.116663 0.449553
vt 0.158156 0.471731
vt 0.815800 0.408855
vt 0.845527 0.392966
vt 0.203178 0.485388
vt 0.783545 0.418640
vt 0.750000 0.421944
vt 0.750000 0.490000
vt 0.796822 0.485388
vt 0.841844 0.471731
vt 0.883337 0.449553
vt 0.871583 0.371583
vt 0.919706 0.419706
vt 0.892966 0.345527
vt 0.949553 0.383337
vt 0.908855 0.315800
vt 0.971731 0.341844
vt 0.918640 0.283545
vt 0.985388 0.296822
vt 0.921944 0.250000
vt 0.990000 0.250000
vt 0.918640 0.216455
vt 0.985388 0.203178
vt 0.908856 0.184200
vt 0.971731 0.158156
vt 0.892966 0.154473
vt 0.949553 0.116663
vt 0.871583 0.128417
vt 0.919706 0.080294
vt 0.845527 0.107034
vt 0.883337 0.050447
vt 0.815800 0.091145
vt 0.841844 0.028269
vt 0.783545 0.081360
vt 0.796822 0.014612
vt 0.750000 0.078056
vt 0.750000 0.010000
vt 0.716455 0.081360
vt 0.703178 0.014612
vt 0.684200 0.091145
vt 0.658156 0.028269
vt 0.654473 0.107034
vt 0.616663 0.050447
vt 0.628417 0.128417
vt 0.580294 0.080294
vt 0.607034 0.154473
vt 0.550447 0.116663
vt 0.591145 0.184200
vt 0.528269 0.158156
vt 0.581360 0.216455
vt 0.514612 0.203178
vt 0.578056 0.250000
vt 0.510000 0.250000
vt 0.581360 0.283545
vt 0.514612 0.296822
vt 0.591145 0.315800
vt 0.528269 0.341844
vt 0.607034 0.345527
vt 0.550447 0.383337
vt 0.628417 0.371583
vt 0.580294 0.419706
vt 0.654473 0.392966
vt 0.616663 0.449553
vt 0.684200 0.408855
vt 0.658156 0.471731
vt 0.716455 0.418640
vt 0.703178 0.485388
s 0
f 34/1/1 33/2/1 35/3/1
f 35/3/2 33/2/2 36/4/2
f 36/4/3 33/2/3 37/5/3
f 37/5/4 33/2/4 38/6/4
f 38/6/5 33/2/5 39/7/5
f 39/7/6 33/2/6 40/8/6
f 40/8/7 33/2/7 41/9/7
f 41/9/8 33/2/8 42/10/8
f 42/10/9 33/2/9 43/11/9
f 43/11/10 33/2/10 44/12/10
f 44/12/11 33/2/11 45/13/11
f 45/13/12 33/2/12 46/14/12
f 46/14/13 33/2/13 47/15/13
f 47/15/14 33/2/14 48/16/14
f 48/16/15 33/2/15 49/17/15
f 49/17/16 33/2/16 50/18/16
f 50/18/17 33/2/17 51/19/17
f 51/19/18 33/2/18 52/20/18
f 52/20/19 33/2/19 53/21/19
f 53/21/20 33/2/20 54/22/20
f 54/22/21 33/2/21 55/23/21
f 55/23/22 33/2/22 56/24/22
f 56/24/23 33/2/23 57/25/23
f 57/25/24 33/2/24 58/26/24
f 58/26/25 33/2/25 59/27/25
f 59/27/26 33/2/26 60/28/26
f 60/28/27 33/2/27 61/29/27
f 61/29/28 33/2/28 62/30/28
f 62/30/29 33/2/29 63/31/29
f 63/31/30 33/2/30 64/32/30
f 3/33/31 4/34/31 69/34/31 68/33/31
f 64/32/32 33/2/32 65/35/32
f 65/35/33 33/2/33 34/1/33
f 2/36/34 1/37/34 34/38/34 35/39/34
f 3/33/34 2/36/34 35/39/34 36/40/34
f 4/34/34 3/33/34 36/40/34 37/41/34
f 5/42/34 4/34/34 37/41/34 38/43/34
f 6/44/34 5/42/34 38/43/34 39/45/34
f 7/46/34 6/44/34 39/45/34 40/47/34
f 8/48/34 7/46/34 40/47/34 41/49/34
f 9/50/34 8/48/34 41/49/34 42/51/34
f 10/52/34 9/50/34 42/51/34 43/53/34
f 11/54/34 10/52/34 43/53/34 44/55/34
f 12/56/34 11/54/34 44/55/34 45/57/34
f 13/58/34 12/56/34 45/57/34 46/59/34
f 14/60/34 13/58/34 46/59/34 47/61/34
f 15/62/34 14/60/34 47/61/34 48/63/34
f 16/64/34 15/62/34 48/63/34 49/65/34
f 17/66/34 16/64/34 49/65/34 50/67/34
f 18/68/34 17/66/34 50/67/34 51/69/34
f 19/70/34 18/68/34 51/69/34 52/71/34
f 20/72/34 19/70/34 52/71/34 53/73/34
f 21/74/34 20/72/34 53/73/34 54/75/34
f 22/76/34 21/74/34 54/75/34 55/77/34
f 23/78/34 22/76/34 55/77/34 56/79/34
f 24/80/34 23/78/34 56/79/34 57/81/34
f 25/82/34 24/80/34 57/81/34 58/83/34
f 26/84/34 25/82/34 58/83/34 59/85/34
f 27/86/34 26/84/34 59/85/34 60/87/34
f 28/88/34 27/86/34 60/87/34 61/89/34
f 29/90/34 28/88/34 61/89/34 62/91/34
f 30/92/34 29/90/34 62/91/34 63/93/34
f 31/94/34 30/92/34 63/93/34 64/95/34
f 32/96/34 31/94/34 64/95/34 65/97/34
f 1/37/34 32/96/34 65/97/34 34/38/34
f 66/37/34 67/36/34 68/33/34 69/34/34 70/42/34 71/44/34 72/46/34 73/48/34 74/50/34 75/52/34 76/54/34 77/56/34 78/58/34 79/60/34 80/62/34 81/64/34 82/66/34 83/68/34 84/70/34 85/72/34 86/74/34 87/76/34 88/78/34 89/80/34 90/82/34 91/84/34 92/86/34 93/88/34 94/90/34 95/92/34 96/94/34 97/96/34
f 30/92/35 31/94/35 96/94/35 95/92/35
f 17/66/36 18/68/36 83/68/36 82/66/36
f 4/34/37 5/42/37 70/42/37 69/34/37
f 31/94/38 32/96/38 97/96/38 96/94/38
f 18/68/39 19/70/39 84/70/39 83/68/39
f 5/42/40 6/44/40 71/44/40 70/42/40
f 32/96/41 1/37/41 66/37/41 97/96/41
f 19/70/42 20/72/42 85/72/42 84/70/42
f 6/44/43 7/46/43 72/46/43 71/44/43
f 20/72/44 21/74/44 86/74/44 85/72/44
f 7/46/45 8/48/45 73/48/45 72/46/45
f 21/74/46 22/76/46 87/76/46 86/74/46
f 8/48/47 9/50/47 74/50/47 73/48/47
f 22/76/48 23/78/48 88/78/48 87/76/48
f 9/50/49 10/52/49 75/52/49 74/50/49
f 23/78/50 24/80/50 89/80/50 88/78/50
f 10/52/51 11/54/51 76/54/51 75/52/51
f 24/80/52 25/82/52 90/82/52 89/80/52
f 11/54/53 12/56/53 77/56/53 76/54/53
f 25/82/54 26/84/54 91/84/54 90/82/54
f 12/56/55 13/58/55 78/58/55 77/56/55
f 26/84/56 27/86/56 92/86/56 91/84/56
f 13/58/57 14/60/57 79/60/57 78/58/57
f 27/86/58 28/88/58 93/88/58 92/86/58
f 14/60/59 15/62/59 80/62/59 79/60/59
f 1/37/60 2/36/60 67/36/60 66/37/60
f 28/88/61 29/90/61 94/90/61 93/88/61
f 15/62/62 16/64/62 81/64/62 80/62/62
f 2/36/63 3/33/63 68/33/63 67/36/63
f 29/90/64 30/92/64 95/92/64 94/90/64
f 16/64/65 17/66/65 82/66/65 81/64/65
o Cube.003
v 23.359434 18.033239 -18.673281
v 23.359434 23.170618 -18.673281
v 23.359434 18.033239 -22.472029
v 23.359434 23.170618 -22.472029
v 27.158182 18.033239 -18.673281
v 27.158182 23.170618 -18.673281
v 27.158182 18.033239 -22.472029
v 27.158182 23.170618 -22.472029
vn -1.0000 -0.0000 -0.0000
vn -0.0000 -0.0000 -1.0000
vn 1.0000 -0.0000 -0.0000
vn -0.0000 -0.0000 1.0000
vn -0.0000 -1.0000 -0.0000
vn -0.0000 1.0000 -0.0000
vt 0.375000 0.000000
vt 0.625000 0.000000
vt 0.625000 0.250000
vt 0.375000 0.250000
vt 0.625000 0.500000
vt 0.375000 0.500000
vt 0.625000 0.750000
vt 0.375000 0.750000
vt 0.625000 1.000000
vt 0.375000 1.000000
vt 0.125000 0.500000
vt 0.125000 0.750000
vt 0.875000 0.500000
vt 0.875000 0.750000
s 0
f 98/98/66 99/99/66 101/100/66 100/101/66
f 100/101/67 101/100/67 105/102/67 104/103/67
f 104/103/68 105/102/68 103/104/68 102/105/68
f 102/105/69 103/104/69 99/106/69 98/107/69
f 100/108/70 104/103/70 102/105/70 98/109/70
f 105/102/71 101/110/71 99/111/71 103/104/71
