# Blender 5.2.0 LTS
# www.blender.org
mtllib DoorFrame.mtl
o Cube.032
v -14.839019 -0.008718 -57.767601
v -14.839019 6.312957 -57.767601
v -14.839019 -0.008718 -58.476830
v -14.839019 6.312957 -58.476830
v -11.362224 -0.008718 -57.767601
v -11.362224 6.312957 -57.767601
v -11.362224 -0.008718 -58.476830
v -11.362224 6.312957 -58.476830
v -14.990015 -0.283267 -57.767601
v -14.990015 6.587506 -57.767601
v -14.990015 6.587506 -58.476830
v -14.990015 -0.283267 -58.476830
v -11.211227 -0.283267 -58.476830
v -11.211227 6.587506 -58.476830
v -11.211227 6.587506 -57.767601
v -11.211227 -0.283267 -57.767601
v -14.839019 6.312957 -57.809315
v -14.839019 -0.008718 -57.809315
v -11.362224 -0.008718 -57.809315
v -11.362224 6.312957 -57.809315
v -14.839019 -0.008718 -58.434635
v -14.839019 6.312957 -58.434635
v -11.362224 6.312957 -58.434635
v -11.362224 -0.008718 -58.434635
vn -1.0000 -0.0000 -0.0000
vn 1.0000 -0.0000 -0.0000
vn -0.0000 1.0000 -0.0000
vn -0.0000 -1.0000 -0.0000
vn -0.0000 -0.0000 1.0000
vn -0.0000 -0.0000 -1.0000
vt 0.625000 0.000000
vt 0.375000 0.250000
vt 0.375000 0.000000
vt 0.384990 0.490010
vt 0.615010 0.490010
vt 0.625000 0.500000
vt 0.375000 0.750000
vt 0.375000 0.500000
vt 0.384990 0.759990
vt 0.384990 0.990010
vt 0.125000 0.750000
vt 0.125000 0.500000
vt 0.875000 0.500000
vt 0.625000 0.750000
vt 0.625000 1.000000
vt 0.375000 1.000000
vt 0.615010 0.259990
vt 0.625000 0.250000
vt 0.384990 0.259990
vt 0.615010 0.759990
vt 0.615010 0.990010
vt 0.875000 0.750000
s 0
f 10/1/1 12/2/1 9/3/1
f 7/4/1 20/5/1 8/5/1
f 14/6/2 16/7/2 13/8/2
f 5/9/3 21/10/3 1/10/3
f 13/8/4 9/11/4 12/12/4
f 11/13/3 15/14/3 14/6/3
f 1/10/5 10/15/5 9/16/5
f 4/17/6 12/2/6 11/18/6
f 3/19/6 13/8/6 12/2/6
f 8/5/6 11/18/6 14/6/6
f 7/4/6 14/6/6 13/8/6
f 6/20/5 16/7/5 15/14/5
f 5/9/5 9/16/5 16/7/5
f 2/21/5 15/14/5 10/15/5
f 3/19/3 19/4/3 7/4/3
f 8/5/4 17/17/4 4/17/4
f 4/17/2 18/19/2 3/19/2
f 1/10/2 22/21/2 2/21/2
f 2/21/4 23/20/4 6/20/4
f 6/20/1 24/9/1 5/9/1
f 10/1/1 11/18/1 12/2/1
f 7/4/1 19/4/1 20/5/1
f 14/6/2 15/14/2 16/7/2
f 5/9/3 24/9/3 21/10/3
f 13/8/4 16/7/4 9/11/4
f 11/13/3 10/22/3 15/14/3
f 1/10/5 2/21/5 10/15/5
f 4/17/6 3/19/6 12/2/6
f 3/19/6 7/4/6 13/8/6
f 8/5/6 4/17/6 11/18/6
f 7/4/6 8/5/6 14/6/6
f 6/20/5 5/9/5 16/7/5
f 5/9/5 1/10/5 9/16/5
f 2/21/5 6/20/5 15/14/5
f 3/19/3 18/19/3 19/4/3
f 8/5/4 20/5/4 17/17/4
f 4/17/2 17/17/2 18/19/2
f 1/10/2 21/10/2 22/21/2
f 2/21/4 22/21/4 23/20/4
f 6/20/1 23/20/1 24/9/1
o Cube.037
v -4.020031 -0.212372 -62.550022
v -4.020031 5.830809 -62.550022
v -4.729257 -0.212372 -62.550022
v -4.729257 5.830809 -62.550022
v -4.020032 -0.212372 -66.599823
v -4.020032 5.830809 -66.599823
v -4.729258 -0.212372 -66.599823
v -4.729258 5.830809 -66.599823
v -4.020030 -0.474826 -62.374138
v -4.020030 6.093263 -62.374138
v -4.729256 6.093263 -62.374138
v -4.729256 -0.474826 -62.374138
v -4.729258 -0.474826 -66.775703
v -4.729258 6.093263 -66.775703
v -4.020032 6.093263 -66.775703
v -4.020032 -0.474826 -66.775703
v -4.061744 5.830809 -62.550022
v -4.061744 -0.212372 -62.550022
v -4.061745 -0.212372 -66.599823
v -4.061745 5.830809 -66.599823
v -4.687064 -0.212372 -62.550022
v -4.687064 5.830809 -62.550022
v -4.687065 5.830809 -66.599823
v -4.687065 -0.212372 -66.599823
vn -0.0000 -0.0000 1.0000
vn -0.0000 -0.0000 -1.0000
vn -0.0000 1.0000 -0.0000
vn -0.0000 -1.0000 -0.0000
vn 1.0000 -0.0000 -0.0000
vn -1.0000 -0.0000 -0.0000
vt 0.625000 0.000000
vt 0.375000 0.250000
vt 0.375000 0.000000
vt 0.384990 0.490010
vt 0.615010 0.490010
vt 0.625000 0.500000
vt 0.375000 0.750000
vt 0.375000 0.500000
vt 0.384990 0.759990
vt 0.384990 0.990010
vt 0.125000 0.750000
vt 0.125000 0.500000
vt 0.875000 0.500000
vt 0.625000 0.750000
vt 0.625000 1.000000
vt 0.375000 1.000000
vt 0.615010 0.259990
vt 0.625000 0.250000
vt 0.384990 0.259990
vt 0.615010 0.759990
vt 0.615010 0.990010
vt 0.875000 0.750000
s 0
f 34/23/7 36/24/7 33/25/7
f 31/26/7 44/27/7 32/27/7
f 38/28/8 40/29/8 37/30/8
f 29/31/9 45/32/9 25/32/9
f 37/30/10 33/33/10 36/34/10
f 35/35/9 39/36/9 38/28/9
f 25/32/11 34/37/11 33/38/11
f 28/39/12 36/24/12 35/40/12
f 27/41/12 37/30/12 36/24/12
f 32/27/12 35/40/12 38/28/12
f 31/26/12 38/28/12 37/30/12
f 30/42/11 40/29/11 39/36/11
f 29/31/11 33/38/11 40/29/11
f 26/43/11 39/36/11 34/37/11
f 27/41/9 43/26/9 31/26/9
f 32/27/10 41/39/10 28/39/10
f 28/39/8 42/41/8 27/41/8
f 25/32/8 46/43/8 26/43/8
f 26/43/10 47/42/10 30/42/10
f 30/42/7 48/31/7 29/31/7
f 34/23/7 35/40/7 36/24/7
f 31/26/7 43/26/7 44/27/7
f 38/28/8 39/36/8 40/29/8
f 29/31/9 48/31/9 45/32/9
f 37/30/10 40/29/10 33/33/10
f 35/35/9 34/44/9 39/36/9
f 25/32/11 26/43/11 34/37/11
f 28/39/12 27/41/12 36/24/12
f 27/41/12 31/26/12 37/30/12
f 32/27/12 28/39/12 35/40/12
f 31/26/12 32/27/12 38/28/12
f 30/42/11 29/31/11 40/29/11
f 29/31/11 25/32/11 33/38/11
f 26/43/11 30/42/11 39/36/11
f 27/41/9 42/41/9 43/26/9
f 32/27/10 44/27/10 41/39/10
f 28/39/8 41/39/8 42/41/8
f 25/32/8 45/32/8 46/43/8
f 26/43/10 46/43/10 47/42/10
f 30/42/7 47/42/7 48/31/7
o Cube.038
v -4.020031 -0.212372 -78.555374
v -4.020031 5.830809 -78.555374
v -4.729257 -0.212372 -78.555374
v -4.729257 5.830809 -78.555374
v -4.020032 -0.212372 -82.605179
v -4.020032 5.830809 -82.605179
v -4.729258 -0.212372 -82.605179
v -4.729258 5.830809 -82.605179
v -4.020030 -0.474826 -78.379494
v -4.020030 6.093263 -78.379494
v -4.729256 6.093263 -78.379494
v -4.729256 -0.474826 -78.379494
v -4.729258 -0.474826 -82.781059
v -4.729258 6.093263 -82.781059
v -4.020032 6.093263 -82.781059
v -4.020032 -0.474826 -82.781059
v -4.061744 5.830809 -78.555374
v -4.061744 -0.212372 -78.555374
v -4.061745 -0.212372 -82.605179
v -4.061745 5.830809 -82.605179
v -4.687064 -0.212372 -78.555374
v -4.687064 5.830809 -78.555374
v -4.687065 5.830809 -82.605179
v -4.687065 -0.212372 -82.605179
vn -0.0000 -0.0000 1.0000
vn -0.0000 -0.0000 -1.0000
vn -0.0000 1.0000 -0.0000
vn -0.0000 -1.0000 -0.0000
vn 1.0000 -0.0000 -0.0000
vn -1.0000 -0.0000 -0.0000
vt 0.625000 0.000000
vt 0.375000 0.250000
vt 0.375000 0.000000
vt 0.384990 0.490010
vt 0.615010 0.490010
vt 0.625000 0.500000
vt 0.375000 0.750000
vt 0.375000 0.500000
vt 0.384990 0.759990
vt 0.384990 0.990010
vt 0.125000 0.750000
vt 0.125000 0.500000
vt 0.875000 0.500000
vt 0.625000 0.750000
vt 0.625000 1.000000
vt 0.375000 1.000000
vt 0.615010 0.259990
vt 0.625000 0.250000
vt 0.384990 0.259990
vt 0.615010 0.759990
vt 0.615010 0.990010
vt 0.875000 0.750000
s 0
f 58/45/13 60/46/13 57/47/13
f 55/48/13 68/49/13 56/49/13
f 62/50/14 64/51/14 61/52/14
f 53/53/15 69/54/15 49/54/15
f 61/52/16 57/55/16 60/56/16
f 59/57/15 63/58/15 62/50/15
f 49/54/17 58/59/17 57/60/17
f 52/61/18 60/46/18 59/62/18
f 51/63/18 61/52/18 60/46/18
f 56/49/18 59/62/18 62/50/18
f 55/48/18 62/50/18 61/52/18
f 54/64/17 64/51/17 63/58/17
f 53/53/17 57/60/17 64/51/17
f 50/65/17 63/58/17 58/59/17
f 51/63/15 67/48/15 55/48/15
f 56/49/16 65/61/16 52/61/16
f 52/61/14 66/63/14 51/63/14
f 49/54/14 70/65/14 50/65/14
f 50/65/16 71/64/16 54/64/16
f 54/64/13 72/53/13 53/53/13
f 58/45/13 59/62/13 60/46/13
f 55/48/13 67/48/13 68/49/13
f 62/50/14 63/58/14 64/51/14
f 53/53/15 72/53/15 69/54/15
f 61/52/16 64/51/16 57/55/16
f 59/57/15 58/66/15 63/58/15
f 49/54/17 50/65/17 58/59/17
f 52/61/18 51/63/18 60/46/18
f 51/63/18 55/48/18 61/52/18
f 56/49/18 52/61/18 59/62/18
f 55/48/18 56/49/18 62/50/18
f 54/64/17 53/53/17 64/51/17
f 53/53/17 49/54/17 57/60/17
f 50/65/17 54/64/17 63/58/17
f 51/63/15 66/63/15 67/48/15
f 56/49/16 68/49/16 65/61/16
f 52/61/14 65/61/14 66/63/14
f 49/54/14 69/54/14 70/65/14
f 50/65/16 70/65/16 71/64/16
f 54/64/13 71/64/13 72/53/13
o Cube.039
v -8.793818 -0.031671 -30.403799
v -8.793818 5.668370 -30.403799
v -9.600800 -0.031671 -30.403799
v -9.600800 5.668370 -30.403799
v -8.793819 -0.031671 -34.086292
v -8.793819 5.668370 -34.086292
v -9.600801 -0.031671 -34.086288
v -9.600801 5.668370 -34.086288
v -8.793818 -0.279222 -30.243870
v -8.793818 5.915922 -30.243870
v -9.600800 5.915922 -30.243870
v -9.600800 -0.279222 -30.243870
v -9.600801 -0.279222 -34.246220
v -9.600801 5.915922 -34.246220
v -8.793819 5.915922 -34.246220
v -8.793819 -0.279222 -34.246220
v -8.841281 5.668370 -30.403799
v -8.841281 -0.031671 -30.403799
v -8.841282 -0.031671 -34.086292
v -8.841282 5.668370 -34.086292
v -9.552792 -0.031671 -30.403799
v -9.552792 5.668370 -30.403799
v -9.552793 5.668370 -34.086288
v -9.552793 -0.031671 -34.086288
vn -0.0000 -0.0000 1.0000
vn -0.0000 -0.0000 -1.0000
vn -0.0000 1.0000 -0.0000
vn -0.0000 -1.0000 -0.0000
vn 1.0000 -0.0000 -0.0000
vn -1.0000 -0.0000 -0.0000
vt 0.625000 0.000000
vt 0.375000 0.250000
vt 0.375000 0.000000
vt 0.384990 0.490010
vt 0.615010 0.490010
vt 0.625000 0.500000
vt 0.375000 0.750000
vt 0.375000 0.500000
vt 0.384990 0.759990
vt 0.384990 0.990010
vt 0.125000 0.750000
vt 0.125000 0.500000
vt 0.875000 0.500000
vt 0.625000 0.750000
vt 0.625000 1.000000
vt 0.375000 1.000000
vt 0.615010 0.259990
vt 0.625000 0.250000
vt 0.384990 0.259990
vt 0.615010 0.759990
vt 0.615010 0.990010
vt 0.875000 0.750000
s 0
f 82/67/19 84/68/19 81/69/19
f 79/70/19 92/71/19 80/71/19
f 86/72/20 88/73/20 85/74/20
f 77/75/21 93/76/21 73/76/21
f 85/74/22 81/77/22 84/78/22
f 83/79/21 87/80/21 86/72/21
f 73/76/23 82/81/23 81/82/23
f 76/83/24 84/68/24 83/84/24
f 75/85/24 85/74/24 84/68/24
f 80/71/24 83/84/24 86/72/24
f 79/70/24 86/72/24 85/74/24
f 78/86/23 88/73/23 87/80/23
f 77/75/23 81/82/23 88/73/23
f 74/87/23 87/80/23 82/81/23
f 75/85/21 91/70/21 79/70/21
f 80/71/22 89/83/22 76/83/22
f 76/83/20 90/85/20 75/85/20
f 73/76/20 94/87/20 74/87/20
f 74/87/22 95/86/22 78/86/22
f 78/86/19 96/75/19 77/75/19
f 82/67/19 83/84/19 84/68/19
f 79/70/19 91/70/19 92/71/19
f 86/72/20 87/80/20 88/73/20
f 77/75/21 96/75/21 93/76/21
f 85/74/22 88/73/22 81/77/22
f 83/79/21 82/88/21 87/80/21
f 73/76/23 74/87/23 82/81/23
f 76/83/24 75/85/24 84/68/24
f 75/85/24 79/70/24 85/74/24
f 80/71/24 76/83/24 83/84/24
f 79/70/24 80/71/24 86/72/24
f 78/86/23 77/75/23 88/73/23
f 77/75/23 73/76/23 81/82/23
f 74/87/23 78/86/23 87/80/23
f 75/85/21 90/85/21 91/70/21
f 80/71/22 92/71/22 89/83/22
f 76/83/20 89/83/20 90/85/20
f 73/76/20 93/76/20 94/87/20
f 74/87/22 94/87/22 95/86/22
f 78/86/19 95/86/19 96/75/19
