# Blender 5.2.0 LTS
# www.blender.org
mtllib FloorIndoorRoom.mtl
o Plane.004
v -16.436687 0.000000 9.814602
v 9.887157 0.000000 9.814602
v -16.436687 0.000000 -16.509243
v 9.887157 0.000000 -16.509243
vn -0.0000 1.0000 -0.0000
vt 1.000000 0.000000
vt 0.000000 1.000000
vt 0.000000 0.000000
vt 1.000000 1.000000
s 0
f 2/1/1 3/2/1 1/3/1
f 2/1/1 4/4/1 3/2/1
o Plane.009
v -16.436687 0.000000 -16.401039
v 9.887157 0.000000 -16.401039
v -16.436687 0.000000 -39.185272
v 9.887157 0.000000 -39.185272
vn -0.0000 1.0000 -0.0000
vt 1.000000 0.000000
vt 0.000000 1.000000
vt 0.000000 0.000000
vt 1.000000 1.000000
s 0
f 6/5/2 7/6/2 5/7/2
f 6/5/2 8/8/2 7/6/2
o Plane.010
v -16.436687 0.000000 -39.126701
v 9.887157 0.000000 -39.126701
v -16.436687 0.000000 -58.379494
v 9.887157 0.000000 -58.379494
vn -0.0000 1.0000 -0.0000
vt 1.000000 0.000000
vt 0.000000 1.000000
vt 0.000000 0.000000
vt 1.000000 1.000000
s 0
f 10/9/3 11/10/3 9/11/3
f 10/9/3 12/12/3 11/10/3
o Plane.011
v -37.469776 0.000000 -58.374596
v 9.081265 0.000000 -58.374596
v -37.469776 0.000000 -91.725044
v 9.081265 0.000000 -91.725044
vn -0.0000 1.0000 -0.0000
vt 1.000000 0.000000
vt 0.000000 1.000000
vt 0.000000 0.000000
vt 1.000000 1.000000
s 0
f 14/13/4 15/14/4 13/15/4
f 14/13/4 16/16/4 15/14/4
