# Blender 5.2.0 LTS
# www.blender.org
mtllib FloorOpenArea.mtl
o Plane.025
v -25.991339 0.000000 31.542992
v -17.047125 0.000000 31.542992
v -25.991339 0.000000 -47.373909
v -17.047125 0.000000 -47.373909
v -25.991339 0.000000 9.850665
v -17.047125 0.000000 9.850665
vn -0.0000 1.0000 -0.0000
vt 1.000000 0.274876
vt 0.000000 1.000000
vt 0.000000 0.274876
vt 1.000000 0.000000
vt 0.000000 0.000000
vt 1.000000 1.000000
s 0
f 6/1/1 3/2/1 5/3/1
f 2/4/1 5/3/1 1/5/1
f 6/1/1 4/6/1 3/2/1
f 2/4/1 6/1/1 5/3/1
o Plane.026
v -17.118605 0.000000 31.804852
v -8.174391 0.000000 31.804852
v -17.118605 0.000000 9.712292
v -8.174391 0.000000 9.712292
v -17.118605 0.000000 25.732147
v -8.174391 0.000000 25.732147
vn -0.0000 1.0000 -0.0000
vt 1.000000 0.274876
vt 0.000000 1.000000
vt 0.000000 0.274876
vt 1.000000 0.000000
vt 0.000000 0.000000
vt 1.000000 1.000000
s 0
f 12/7/2 9/8/2 11/9/2
f 8/10/2 11/9/2 7/11/2
f 12/7/2 10/12/2 9/8/2
f 8/10/2 12/7/2 11/9/2
o Plane.027
v -8.212455 0.000000 31.804852
v 0.731760 0.000000 31.804852
v -8.212455 0.000000 9.712292
v 0.731760 0.000000 9.712292
v -8.212455 0.000000 25.732147
v 0.731760 0.000000 25.732147
vn -0.0000 1.0000 -0.0000
vt 1.000000 0.274876
vt 0.000000 1.000000
vt 0.000000 0.274876
vt 1.000000 0.000000
vt 0.000000 0.000000
vt 1.000000 1.000000
s 0
f 18/13/3 15/14/3 17/15/3
f 14/16/3 17/15/3 13/17/3
f 18/13/3 16/18/3 15/14/3
f 14/16/3 18/13/3 17/15/3
o Plane.028
v 0.671105 0.000000 31.804852
v 9.615320 0.000000 31.804852
v 0.671105 0.000000 9.712292
v 9.615320 0.000000 9.712292
v 0.671105 0.000000 25.732147
v 9.615320 0.000000 25.732147
vn -0.0000 1.0000 -0.0000
vt 1.000000 0.274876
vt 0.000000 1.000000
vt 0.000000 0.274876
vt 1.000000 0.000000
vt 0.000000 0.000000
vt 1.000000 1.000000
s 0
f 24/19/4 21/20/4 23/21/4
f 20/22/4 23/21/4 19/23/4
f 24/19/4 22/24/4 21/20/4
f 20/22/4 24/19/4 23/21/4
o Plane.029
v 9.589836 0.000000 31.804852
v 18.534052 0.000000 31.804852
v 9.589836 0.000000 9.712292
v 18.534052 0.000000 9.712292
v 9.589836 0.000000 25.732147
v 18.534052 0.000000 25.732147
vn -0.0000 1.0000 -0.0000
vt 1.000000 0.274876
vt 0.000000 1.000000
vt 0.000000 0.274876
vt 1.000000 0.000000
vt 0.000000 0.000000
vt 1.000000 1.000000
s 0
f 30/25/5 27/26/5 29/27/5
f 26/28/5 29/27/5 25/29/5
f 30/25/5 28/30/5 27/26/5
f 26/28/5 30/25/5 29/27/5
o Plane.030
v 18.562836 0.000000 31.804852
v 27.507050 0.000000 31.804852
v 18.562836 0.000000 9.712292
v 27.507050 0.000000 9.712292
v 18.562836 0.000000 25.732147
v 27.507050 0.000000 25.732147
vn -0.0000 1.0000 -0.0000
vt 1.000000 0.274876
vt 0.000000 1.000000
vt 0.000000 0.274876
vt 1.000000 0.000000
vt 0.000000 0.000000
vt 1.000000 1.000000
s 0
f 36/31/6 33/32/6 35/33/6
f 32/34/6 35/33/6 31/35/6
f 36/31/6 34/36/6 33/32/6
f 32/34/6 36/31/6 35/33/6
