# Blender 5.2.0 LTS
# www.blender.org
mtllib FloorKrikil.mtl
o Plane.032
v -19.475769 0.157333 29.301041
v -16.365070 0.157333 29.301041
v -19.475769 0.157333 21.407265
v -16.365070 0.157333 21.407265
vn -0.0000 1.0000 -0.0000
vt 0.000000 0.000000
vt 1.000000 0.000000
vt 1.000000 1.000000
vt 0.000000 1.000000
s 0
f 1/1/1 2/2/1 4/3/1 3/4/1
o Plane.033
v -8.556517 0.157333 27.227556
v -8.556517 0.157333 23.480749
v -16.450294 0.157333 27.227556
v -16.450294 0.157333 23.480749
vn -0.0000 1.0000 -0.0000
vt 0.000000 0.000000
vt 1.000000 0.000000
vt 1.000000 1.000000
vt 0.000000 1.000000
s 0
f 5/5/2 6/6/2 8/7/2 7/8/2
o Plane.034
v -0.619200 0.157333 27.227556
v -0.619200 0.157333 23.480749
v -8.512978 0.157333 27.227556
v -8.512978 0.157333 23.480749
vn -0.0000 1.0000 -0.0000
vt 0.000000 0.000000
vt 1.000000 0.000000
vt 1.000000 1.000000
vt 0.000000 1.000000
s 0
f 9/9/3 10/10/3 12/11/3 11/12/3
o Plane.035
v 7.299459 0.157333 27.227556
v 7.299459 0.157333 23.480749
v -0.594317 0.157333 27.227556
v -0.594317 0.157333 23.480749
vn -0.0000 1.0000 -0.0000
vt 0.000000 0.000000
vt 1.000000 0.000000
vt 1.000000 1.000000
vt 0.000000 1.000000
s 0
f 13/13/4 14/14/4 16/15/4 15/16/4
o Plane.036
v 12.215384 0.157333 30.229553
v 22.179541 0.157333 30.229553
v 12.215384 0.157333 20.478752
v 22.179541 0.157333 20.478752
vn -0.0000 1.0000 -0.0000
vt 0.000000 0.000000
vt 1.000000 0.000000
vt 1.000000 1.000000
vt 0.000000 1.000000
s 0
f 17/17/5 18/18/5 20/19/5 19/20/5
