# Blender 5.2.0 LTS
# www.blender.org
mtllib FloorTileOpenArea.mtl
o Plane.031
v -60.195961 0.000000 31.542992
v -25.775179 0.000000 31.542992
v -60.195961 0.000000 -47.373909
v -25.775179 0.000000 -47.373909
v -60.195961 0.000000 9.850665
v -25.775179 0.000000 9.850665
vn -0.0000 1.0000 -0.0000
vt 1.000000 0.274876
vt 0.000000 1.000000
vt 0.000000 0.274876
vt 1.000000 0.000000
vt 0.000000 0.000000
vt 1.000000 1.000000
s 0
f 6/1/1 3/2/1 5/3/1
f 2/4/1 5/3/1 1/5/1
f 6/1/1 4/6/1 3/2/1
f 2/4/1 6/1/1 5/3/1
