# Blender 5.2.0 LTS
# www.blender.org
mtllib Kaca.mtl
o Plane.017
v -30.225534 8.100801 -93.772263
v -36.734241 8.100801 -93.772263
v -30.225534 -0.605956 -93.772263
v -36.734241 -0.605956 -93.772263
vn -0.0000 -0.0000 -1.0000
vt 1.000000 0.000000
vt 0.000000 1.000000
vt 0.000000 0.000000
vt 1.000000 1.000000
s 0
f 2/1/1 1/3/1 3/2/1
f 2/1/1 3/2/1 4/4/1
o Plane.018
v -19.899220 8.100801 -91.498268
v -29.175541 8.100801 -91.498268
v -19.899220 -0.605956 -91.498268
v -29.175541 -0.605956 -91.498268
vn -0.0000 -0.0000 -1.0000
vt 1.000000 0.000000
vt 0.000000 1.000000
vt 0.000000 0.000000
vt 1.000000 1.000000
s 0
f 6/5/2 5/7/2 7/6/2
f 6/5/2 7/6/2 8/8/2
o Plane.019
v -4.405675 8.100801 -91.498268
v -14.223338 8.100801 -91.498268
v -4.405675 -0.605956 -91.498268
v -14.223338 -0.605956 -91.498268
vn -0.0000 -0.0000 -1.0000
vt 1.000000 0.000000
vt 0.000000 1.000000
vt 0.000000 0.000000
vt 1.000000 1.000000
s 0
f 10/9/3 9/11/3 11/10/3
f 10/9/3 11/10/3 12/12/3
o Plane.020
v -14.242401 8.100801 -91.498268
v -19.807487 8.100801 -91.498268
v -14.242401 -0.605956 -91.498268
v -19.807487 -0.605956 -91.498268
vn -0.0000 -0.0000 -1.0000
vt 1.000000 0.000000
vt 0.000000 1.000000
vt 0.000000 0.000000
vt 1.000000 1.000000
s 0
f 14/13/4 13/15/4 15/14/4
f 14/13/4 15/14/4 16/16/4
