# Blender 5.2.0 LTS
# www.blender.org
mtllib KursiKayuIndor.mtl
o Plane
v 0.785600 1.893657 4.053244
v 0.785600 1.897257 4.052344
v 0.800000 1.897257 4.053244
v 0.800000 2.290057 4.053244
v 0.785600 2.290057 4.052344
v 0.785600 2.293657 4.053244
v -0.785600 1.893657 4.053245
v -0.800000 1.897257 4.053245
v -0.785600 1.897257 4.052344
v -0.785600 2.293657 4.053245
v -0.785600 2.290057 4.052344
v -0.800000 2.290057 4.053245
v -0.785600 1.893657 4.146699
v -0.785600 1.897257 4.147599
v -0.800000 1.897257 4.146699
v 0.785600 1.893657 4.146699
v 0.800000 1.897257 4.146699
v 0.785600 1.897257 4.147599
v 0.800000 2.290057 4.146699
v 0.785600 2.293657 4.146699
v 0.785600 2.290057 4.147599
v -0.785600 2.293657 4.146699
v -0.800000 2.290057 4.146699
v -0.785600 2.290057 4.147599
v 0.785600 2.393657 4.085855
v 0.785600 2.397257 4.084955
v 0.800000 2.397257 4.085855
v 0.800000 2.790057 4.085855
v 0.785600 2.790057 4.084955
v 0.785600 2.793657 4.085855
v -0.785600 2.393657 4.085855
v -0.800000 2.397257 4.085855
v -0.785600 2.397257 4.084955
v -0.785600 2.793657 4.085855
v -0.785600 2.790057 4.084955
v -0.800000 2.790057 4.085855
v -0.785600 2.393657 4.179310
v -0.785600 2.397257 4.180210
v -0.800000 2.397257 4.179310
v 0.785600 2.393657 4.179310
v 0.800000 2.397257 4.179310
v 0.785600 2.397257 4.180210
v 0.800000 2.790057 4.179310
v 0.785600 2.793657 4.179310
v 0.785600 2.790057 4.180210
v -0.785600 2.793657 4.179310
v -0.800000 2.790057 4.179310
v -0.785600 2.790057 4.180210
v 0.785600 2.893657 4.118466
v 0.785600 2.897257 4.117566
v 0.800000 2.897257 4.118466
v 0.800000 3.290057 4.118466
v 0.785600 3.290057 4.117566
v 0.785600 3.293657 4.118466
v -0.785600 2.893657 4.118466
v -0.800000 2.897257 4.118466
v -0.785600 2.897257 4.117566
v -0.785600 3.293657 4.118466
v -0.785600 3.290057 4.117566
v -0.800000 3.290057 4.118466
v -0.785600 2.893657 4.211921
v -0.785600 2.897257 4.212821
v -0.800000 2.897257 4.211921
v 0.785600 2.893657 4.211921
v 0.800000 2.897257 4.211921
v 0.785600 2.897257 4.212821
v 0.800000 3.290057 4.211921
v 0.785600 3.293657 4.211921
v 0.785600 3.290057 4.212821
v -0.785600 3.293657 4.211921
v -0.800000 3.290057 4.211921
v -0.785600 3.290057 4.212821
v 0.785600 3.393657 4.151077
v 0.785600 3.397257 4.150177
v 0.800000 3.397257 4.151077
v 0.800000 3.790057 4.151077
v 0.785600 3.790057 4.150177
v 0.785600 3.793657 4.151077
v -0.785600 3.393657 4.151077
v -0.800000 3.397257 4.151077
v -0.785600 3.397257 4.150177
v -0.785600 3.793657 4.151077
v -0.785600 3.790057 4.150177
v -0.800000 3.790057 4.151077
v -0.785600 3.393657 4.244532
v -0.785600 3.397257 4.245432
v -0.800000 3.397257 4.244532
v 0.785600 3.393657 4.244532
v 0.800000 3.397257 4.244532
v 0.785600 3.397257 4.245432
v 0.800000 3.790057 4.244532
v 0.785600 3.793657 4.244532
v 0.785600 3.790057 4.245432
v -0.785600 3.793657 4.244532
v -0.800000 3.790057 4.244532
v -0.785600 3.790057 4.245432
vn 0.0605 -0.2421 -0.9684
vn 0.0605 0.2421 -0.9684
vn -0.0605 -0.2421 -0.9684
vn -0.0605 0.2421 -0.9684
vn -0.0605 -0.2421 0.9684
vn 0.0605 -0.2421 0.9684
vn 0.0605 0.2421 0.9684
vn -0.0605 0.2421 0.9684
vn -0.0000 -0.2425 -0.9701
vn 0.0624 -0.0000 -0.9981
vn -0.0000 0.2425 -0.9701
vn -0.0624 -0.0000 -0.9981
vn -0.0000 -0.2425 0.9701
vn 0.0624 -0.0000 0.9981
vn -0.0000 0.2425 0.9701
vn -0.0624 -0.0000 0.9981
vn 0.2425 -0.9701 -0.0000
vn -0.2425 -0.9701 -0.0000
vn -0.2425 0.9701 -0.0000
vn 0.2425 0.9701 -0.0000
vn -0.0000 -1.0000 -0.0000
vn -0.0000 -0.0000 -1.0000
vn 1.0000 -0.0000 -0.0000
vn -0.0000 1.0000 -0.0000
vn -1.0000 -0.0000 -0.0000
vn -0.0000 -0.0000 1.0000
vt 0.000000 0.009000
vt 0.009000 0.009000
vt 0.009000 0.000000
vt 0.991000 0.000000
vt 0.991000 0.009000
vt 1.000000 0.009000
vt 0.000000 0.991000
vt 0.009000 1.000000
vt 0.009000 0.991000
vt 1.000000 0.991000
vt 0.991000 0.991000
vt 0.991000 1.000000
vt 0.009000 1.000000
vt 0.000000 0.009000
vt 0.009000 0.000000
vt 0.991000 0.000000
vt 1.000000 0.009000
vt 1.000000 0.991000
s 0
usemtl 
f 1/1/1 2/2/1 3/3/1
f 4/4/2 5/5/2 6/6/2
f 7/7/3 8/8/3 9/9/3
f 10/10/4 11/11/4 12/12/4
f 13/7/5 14/9/5 15/13/5
f 16/14/6 17/15/6 18/2/6
f 19/16/7 20/17/7 21/5/7
f 22/18/8 23/12/8 24/11/8
f 2/2/9 7/7/9 9/9/9
f 5/5/10 3/3/10 2/2/10
f 11/11/11 6/6/11 5/5/11
f 9/9/12 12/12/12 11/11/12
f 16/14/13 14/9/13 13/7/13
f 19/16/14 18/2/14 17/15/14
f 22/18/15 21/5/15 20/17/15
f 15/13/16 24/11/16 23/12/16
f 17/15/17 1/1/17 3/3/17
f 8/8/18 13/7/18 15/13/18
f 10/10/19 23/12/19 22/18/19
f 20/17/20 4/4/20 6/6/20
f 1/1/21 13/7/21 7/7/21
f 9/9/22 5/5/22 2/2/22
f 4/4/23 17/15/23 3/3/23
f 10/10/24 20/17/24 6/6/24
f 8/8/25 23/12/25 12/12/25
f 21/5/26 14/9/26 18/2/26
f 25/1/1 26/2/1 27/3/1
f 28/4/2 29/5/2 30/6/2
f 31/7/3 32/8/3 33/9/3
f 34/10/4 35/11/4 36/12/4
f 37/7/5 38/9/5 39/13/5
f 40/14/6 41/15/6 42/2/6
f 43/16/7 44/17/7 45/5/7
f 46/18/8 47/12/8 48/11/8
f 26/2/9 31/7/9 33/9/9
f 29/5/10 27/3/10 26/2/10
f 35/11/11 30/6/11 29/5/11
f 33/9/12 36/12/12 35/11/12
f 40/14/13 38/9/13 37/7/13
f 43/16/14 42/2/14 41/15/14
f 46/18/15 45/5/15 44/17/15
f 39/13/16 48/11/16 47/12/16
f 41/15/17 25/1/17 27/3/17
f 32/8/18 37/7/18 39/13/18
f 34/10/19 47/12/19 46/18/19
f 44/17/20 28/4/20 30/6/20
f 25/1/21 37/7/21 31/7/21
f 33/9/22 29/5/22 26/2/22
f 28/4/23 41/15/23 27/3/23
f 34/10/24 44/17/24 30/6/24
f 32/8/25 47/12/25 36/12/25
f 45/5/26 38/9/26 42/2/26
f 49/1/1 50/2/1 51/3/1
f 52/4/2 53/5/2 54/6/2
f 55/7/3 56/8/3 57/9/3
f 58/10/4 59/11/4 60/12/4
f 61/7/5 62/9/5 63/13/5
f 64/14/6 65/15/6 66/2/6
f 67/16/7 68/17/7 69/5/7
f 70/18/8 71/12/8 72/11/8
f 50/2/9 55/7/9 57/9/9
f 53/5/10 51/3/10 50/2/10
f 59/11/11 54/6/11 53/5/11
f 57/9/12 60/12/12 59/11/12
f 64/14/13 62/9/13 61/7/13
f 67/16/14 66/2/14 65/15/14
f 70/18/15 69/5/15 68/17/15
f 63/13/16 72/11/16 71/12/16
f 65/15/17 49/1/17 51/3/17
f 56/8/18 61/7/18 63/13/18
f 58/10/19 71/12/19 70/18/19
f 68/17/20 52/4/20 54/6/20
f 49/1/21 61/7/21 55/7/21
f 57/9/22 53/5/22 50/2/22
f 52/4/23 65/15/23 51/3/23
f 58/10/24 68/17/24 54/6/24
f 56/8/25 71/12/25 60/12/25
f 69/5/26 62/9/26 66/2/26
f 73/1/1 74/2/1 75/3/1
f 76/4/2 77/5/2 78/6/2
f 79/7/3 80/8/3 81/9/3
f 82/10/4 83/11/4 84/12/4
f 85/7/5 86/9/5 87/13/5
f 88/14/6 89/15/6 90/2/6
f 91/16/7 92/17/7 93/5/7
f 94/18/8 95/12/8 96/11/8
f 74/2/9 79/7/9 81/9/9
f 77/5/10 75/3/10 74/2/10
f 83/11/11 78/6/11 77/5/11
f 81/9/12 84/12/12 83/11/12
f 88/14/13 86/9/13 85/7/13
f 91/16/14 90/2/14 89/15/14
f 94/18/15 93/5/15 92/17/15
f 87/13/16 96/11/16 95/12/16
f 89/15/17 73/1/17 75/3/17
f 80/8/18 85/7/18 87/13/18
f 82/10/19 95/12/19 94/18/19
f 92/17/20 76/4/20 78/6/20
f 73/1/21 85/7/21 79/7/21
f 81/9/22 77/5/22 74/2/22
f 76/4/23 89/15/23 75/3/23
f 82/10/24 92/17/24 78/6/24
f 80/8/25 95/12/25 84/12/25
f 93/5/26 86/9/26 90/2/26
f 2/2/9 1/1/9 7/7/9
f 5/5/10 4/4/10 3/3/10
f 11/11/11 10/10/11 6/6/11
f 9/9/12 8/8/12 12/12/12
f 16/14/13 18/2/13 14/9/13
f 19/16/14 21/5/14 18/2/14
f 22/18/15 24/11/15 21/5/15
f 15/13/16 14/9/16 24/11/16
f 17/15/17 16/14/17 1/1/17
f 8/8/18 7/7/18 13/7/18
f 10/10/19 12/12/19 23/12/19
f 20/17/20 19/16/20 4/4/20
f 1/1/21 16/14/21 13/7/21
f 9/9/22 11/11/22 5/5/22
f 4/4/23 19/16/23 17/15/23
f 10/10/24 22/18/24 20/17/24
f 8/8/25 15/13/25 23/12/25
f 21/5/26 24/11/26 14/9/26
f 26/2/9 25/1/9 31/7/9
f 29/5/10 28/4/10 27/3/10
f 35/11/11 34/10/11 30/6/11
f 33/9/12 32/8/12 36/12/12
f 40/14/13 42/2/13 38/9/13
f 43/16/14 45/5/14 42/2/14
f 46/18/15 48/11/15 45/5/15
f 39/13/16 38/9/16 48/11/16
f 41/15/17 40/14/17 25/1/17
f 32/8/18 31/7/18 37/7/18
f 34/10/19 36/12/19 47/12/19
f 44/17/20 43/16/20 28/4/20
f 25/1/21 40/14/21 37/7/21
f 33/9/22 35/11/22 29/5/22
f 28/4/23 43/16/23 41/15/23
f 34/10/24 46/18/24 44/17/24
f 32/8/25 39/13/25 47/12/25
f 45/5/26 48/11/26 38/9/26
f 50/2/9 49/1/9 55/7/9
f 53/5/10 52/4/10 51/3/10
f 59/11/11 58/10/11 54/6/11
f 57/9/12 56/8/12 60/12/12
f 64/14/13 66/2/13 62/9/13
f 67/16/14 69/5/14 66/2/14
f 70/18/15 72/11/15 69/5/15
f 63/13/16 62/9/16 72/11/16
f 65/15/17 64/14/17 49/1/17
f 56/8/18 55/7/18 61/7/18
f 58/10/19 60/12/19 71/12/19
f 68/17/20 67/16/20 52/4/20
f 49/1/21 64/14/21 61/7/21
f 57/9/22 59/11/22 53/5/22
f 52/4/23 67/16/23 65/15/23
f 58/10/24 70/18/24 68/17/24
f 56/8/25 63/13/25 71/12/25
f 69/5/26 72/11/26 62/9/26
f 74/2/9 73/1/9 79/7/9
f 77/5/10 76/4/10 75/3/10
f 83/11/11 82/10/11 78/6/11
f 81/9/12 80/8/12 84/12/12
f 88/14/13 90/2/13 86/9/13
f 91/16/14 93/5/14 90/2/14
f 94/18/15 96/11/15 93/5/15
f 87/13/16 86/9/16 96/11/16
f 89/15/17 88/14/17 73/1/17
f 80/8/18 79/7/18 85/7/18
f 82/10/19 84/12/19 95/12/19
f 92/17/20 91/16/20 76/4/20
f 73/1/21 88/14/21 85/7/21
f 81/9/22 83/11/22 77/5/22
f 76/4/23 91/16/23 89/15/23
f 82/10/24 94/18/24 92/17/24
f 80/8/25 87/13/25 95/12/25
f 93/5/26 96/11/26 86/9/26
o Cube.005
v 0.000000 1.830402 3.323663
v 0.000000 1.720447 3.323663
v 0.000000 1.775425 4.323664
v 1.000000 1.775425 3.323663
v 0.000000 1.775425 2.304364
v -1.000000 1.775425 3.323663
v 0.000000 1.830402 3.823663
v 0.000000 1.830402 2.823663
v 0.500000 1.830402 3.323663
v -0.500000 1.830402 3.323663
v 0.000000 1.720447 3.823663
v 0.000000 1.720447 2.823663
v -0.500000 1.720447 3.323663
v 0.500000 1.720447 3.323663
v -0.500000 1.775425 4.323664
v 0.500000 1.775425 4.323664
v 0.000000 1.747936 4.323664
v 0.000000 1.802913 4.323664
v 1.000000 1.775425 3.823663
v 1.000000 1.775425 2.823663
v 1.000000 1.747936 3.323663
v 1.000000 1.802913 3.323663
v 0.500000 1.775425 2.304364
v -0.500000 1.775425 2.304364
v 0.000000 1.747936 2.323663
v 0.000000 1.802913 2.304364
v -1.000000 1.775425 2.823663
v -1.000000 1.775425 3.823663
v -1.000000 1.747936 3.323663
v -1.000000 1.802913 3.323663
v -1.000000 1.802913 3.823663
v -1.000000 1.747936 3.823663
v -1.000000 1.747936 2.823663
v -0.500000 1.802913 2.304364
v -0.500000 1.747936 2.323663
v 0.500000 1.747936 2.323663
v 1.000000 1.802913 2.823663
v 1.000000 1.747936 2.823663
v 1.000000 1.747936 3.823663
v 0.500000 1.802913 4.323664
v 0.500000 1.747936 4.323664
v -0.500000 1.747936 4.323664
v 0.500000 1.720447 2.823663
v -0.500000 1.720447 2.823663
v -0.500000 1.720447 3.823663
v -0.500000 1.830402 2.823663
v 0.500000 1.830402 2.823663
v 0.500000 1.830402 3.823663
v -0.500000 1.830402 3.823663
v 0.500000 1.720447 3.823663
v -0.500000 1.802913 4.323664
v 1.000000 1.802913 3.823663
v 0.500000 1.802913 2.304364
v -1.000000 1.802913 2.823663
v 0.000000 1.830402 4.073664
v 0.000000 1.830402 3.073663
v 0.750000 1.830402 3.323663
v -0.250000 1.830402 3.323663
v 0.000000 1.720447 4.073664
v 0.000000 1.720447 3.073663
v -0.750000 1.720447 3.323663
v 0.250000 1.720447 3.323663
v -0.750000 1.775425 4.323664
v 0.250000 1.775425 4.323664
v 0.000000 1.734192 4.323664
v 0.000000 1.789169 4.323664
v 1.000000 1.775425 4.073664
v 1.000000 1.775425 3.073663
v 1.000000 1.734192 3.323663
v 1.000000 1.789169 3.323663
v 0.750000 1.775425 2.304364
v -0.250000 1.775425 2.304364
v 0.000000 1.734192 2.323663
v 0.000000 1.789169 2.304364
v -1.000000 1.775425 2.573663
v -1.000000 1.775425 3.573663
v -1.000000 1.734192 3.323663
v -1.000000 1.789169 3.323663
v 0.000000 1.830402 3.573663
v 0.000000 1.830402 2.573663
v 0.250000 1.830402 3.323663
v -0.750000 1.830402 3.323663
v 0.000000 1.720447 3.573663
v 0.000000 1.720447 2.573663
v -0.250000 1.720447 3.323663
v 0.750000 1.720447 3.323663
v -0.250000 1.775425 4.323664
v 0.750000 1.775425 4.323664
v 0.000000 1.761680 4.323664
v 0.000000 1.816658 4.323664
v 1.000000 1.775425 3.573663
v 1.000000 1.775425 2.573663
v 1.000000 1.761680 3.323663
v 1.000000 1.816658 3.323663
v 0.250000 1.775425 2.304364
v -0.750000 1.775425 2.304364
v 0.000000 1.761680 2.323663
v 0.000000 1.816658 2.323663
v -1.000000 1.775425 3.073663
v -1.000000 1.775425 4.073664
v -1.000000 1.761680 3.323663
v -1.000000 1.816658 3.323663
v -1.000000 1.802913 3.573663
v -1.000000 1.802913 4.073664
v -1.000000 1.789169 3.823663
v -1.000000 1.816658 3.823663
v -1.000000 1.747936 3.573663
v -1.000000 1.747936 4.073664
v -1.000000 1.734192 3.823663
v -1.000000 1.761680 3.823663
v -1.000000 1.747936 2.573663
v -1.000000 1.747936 3.073663
v -1.000000 1.734192 2.823663
v -1.000000 1.761680 2.823663
v -0.250000 1.802913 2.304364
v -0.750000 1.802913 2.304364
v -0.500000 1.789169 2.304364
v -0.500000 1.816658 2.323663
v -0.250000 1.747936 2.323663
v -0.750000 1.747936 2.323663
v -0.500000 1.734192 2.323663
v -0.500000 1.761680 2.323663
v 0.750000 1.747936 2.323663
v 0.250000 1.747936 2.323663
v 0.500000 1.734192 2.323663
v 0.500000 1.761680 2.323663
v 1.000000 1.802913 3.073663
v 1.000000 1.802913 2.573663
v 1.000000 1.789169 2.823663
v 1.000000 1.816658 2.823663
v 1.000000 1.747936 3.073663
v 1.000000 1.747936 2.573663
v 1.000000 1.734192 2.823663
v 1.000000 1.761680 2.823663
v 1.000000 1.747936 4.073664
v 1.000000 1.747936 3.573663
v 1.000000 1.734192 3.823663
v 1.000000 1.761680 3.823663
v 0.250000 1.802913 4.323664
v 0.750000 1.802913 4.323664
v 0.500000 1.789169 4.323664
v 0.500000 1.816658 4.323664
v 0.250000 1.747936 4.323664
v 0.750000 1.747936 4.323664
v 0.500000 1.734192 4.323664
v 0.500000 1.761680 4.323664
v -0.750000 1.747936 4.323664
v -0.250000 1.747936 4.323664
v -0.500000 1.734192 4.323664
v -0.500000 1.761680 4.323664
v 0.500000 1.720447 3.073663
v 0.500000 1.720447 2.573663
v 0.250000 1.720447 2.823663
v 0.750000 1.720447 2.823663
v -0.500000 1.720447 3.073663
v -0.500000 1.720447 2.573663
v -0.750000 1.720447 2.823663
v -0.250000 1.720447 2.823663
v -0.500000 1.720447 4.073664
v -0.500000 1.720447 3.573663
v -0.750000 1.720447 3.823663
v -0.250000 1.720447 3.823663
v -0.500000 1.830402 3.073663
v -0.500000 1.830402 2.573663
v -0.250000 1.830402 2.823663
v -0.750000 1.830402 2.823663
v 0.500000 1.830402 3.073663
v 0.500000 1.830402 2.573663
v 0.750000 1.830402 2.823663
v 0.250000 1.830402 2.823663
v 0.500000 1.830402 4.073664
v 0.500000 1.830402 3.573663
v 0.750000 1.830402 3.823663
v 0.250000 1.830402 3.823663
v -0.500000 1.830402 4.073664
v -0.500000 1.830402 3.573663
v -0.250000 1.830402 3.823663
v -0.750000 1.830402 3.823663
v 0.500000 1.720447 4.073664
v 0.500000 1.720447 3.573663
v 0.250000 1.720447 3.823663
v 0.750000 1.720447 3.823663
v -0.750000 1.802913 4.323664
v -0.250000 1.802913 4.323664
v -0.500000 1.789169 4.323664
v -0.500000 1.816658 4.323664
v 1.000000 1.802913 4.073664
v 1.000000 1.802913 3.573663
v 1.000000 1.789169 3.823663
v 1.000000 1.816658 3.823663
v 0.750000 1.802913 2.304364
v 0.250000 1.802913 2.304364
v 0.500000 1.789169 2.304364
v 0.500000 1.816658 2.323663
v -1.000000 1.802913 2.573663
v -1.000000 1.802913 3.073663
v -1.000000 1.789169 2.823663
v -1.000000 1.816658 2.823663
v -1.000000 1.816658 3.073663
v -1.000000 1.789169 3.073663
v -1.000000 1.789169 2.573663
v 0.250000 1.816658 2.323663
v 0.250000 1.789169 2.304364
v 0.750000 1.789169 2.304364
v 1.000000 1.816658 3.573663
v 1.000000 1.789169 3.573663
v 1.000000 1.789169 4.073664
v -0.250000 1.816658 4.323664
v -0.250000 1.789169 4.323664
v -0.750000 1.789169 4.323664
v 0.750000 1.720447 3.573663
v 0.250000 1.720447 3.573663
v 0.250000 1.720447 4.073664
v -0.750000 1.830402 3.573663
v -0.250000 1.830402 3.573663
v -0.250000 1.830402 4.073664
v 0.250000 1.830402 3.573663
v 0.750000 1.830402 3.573663
v 0.250000 1.830402 2.573663
v 0.750000 1.830402 2.573663
v 0.750000 1.830402 3.073663
v -0.750000 1.830402 2.573663
v -0.250000 1.830402 2.573663
v -0.250000 1.830402 3.073663
v -0.250000 1.720447 3.573663
v -0.750000 1.720447 3.573663
v -0.250000 1.720447 2.573663
v -0.750000 1.720447 3.073663
v 0.250000 1.720447 2.573663
v 0.250000 1.720447 3.073663
v -0.250000 1.761680 4.323664
v -0.250000 1.734192 4.323664
v -0.750000 1.734192 4.323664
v 0.750000 1.761680 4.323664
v 0.750000 1.734192 4.323664
v 0.250000 1.734192 4.323664
v 0.750000 1.816658 4.323664
v 0.750000 1.789169 4.323664
v 0.250000 1.789169 4.323664
v 1.000000 1.761680 3.573663
v 1.000000 1.734192 3.573663
v 1.000000 1.734192 4.073664
v 1.000000 1.761680 2.573663
v 1.000000 1.734192 2.573663
v 1.000000 1.734192 3.073663
v 1.000000 1.816658 2.573663
v 1.000000 1.789169 2.573663
v 1.000000 1.789169 3.073663
v 0.250000 1.761680 2.323663
v 0.250000 1.734192 2.323663
v 0.750000 1.734192 2.323663
v -0.750000 1.761680 2.323663
v -0.750000 1.734192 2.323663
v -0.250000 1.734192 2.323663
v -0.750000 1.816658 2.323663
v -0.750000 1.789169 2.304364
v -0.250000 1.789169 2.304364
v -1.000000 1.761680 3.073663
v -1.000000 1.734192 3.073663
v -1.000000 1.734192 2.573663
v -1.000000 1.761680 4.073664
v -1.000000 1.734192 4.073664
v -1.000000 1.734192 3.573663
v -1.000000 1.816658 4.073664
v -1.000000 1.789169 4.073664
v -1.000000 1.789169 3.573663
v -1.000000 1.816658 3.573663
v -1.000000 1.761680 3.573663
v -1.000000 1.761680 2.573663
v -0.250000 1.816658 2.323663
v -0.250000 1.761680 2.323663
v 0.750000 1.761680 2.323663
v 1.000000 1.816658 3.073663
v 1.000000 1.761680 3.073663
v 1.000000 1.761680 4.073664
v 0.250000 1.816658 4.323664
v 0.250000 1.761680 4.323664
v -0.750000 1.761680 4.323664
v 0.750000 1.720447 3.073663
v -0.250000 1.720447 3.073663
v -0.250000 1.720447 4.073664
v -0.750000 1.830402 3.073663
v 0.250000 1.830402 3.073663
v 0.250000 1.830402 4.073664
v -0.750000 1.816658 4.323664
v 1.000000 1.816658 4.073664
v 0.750000 1.816658 2.323663
v -1.000000 1.816658 2.573663
v -1.000000 1.720447 4.205655
v -0.980000 1.720447 4.225958
v -0.980000 1.830402 4.232361
v -1.000000 1.830402 4.212080
v -0.979977 1.720447 2.323663
v -1.000000 1.720447 2.343695
v -1.037903 1.830402 2.284306
v -1.033470 1.829332 2.268946
v -1.053589 1.829329 2.288856
v 0.980000 1.720447 4.225958
v 1.000000 1.720447 4.205655
v 1.000000 1.830402 4.212080
v 0.980000 1.830402 4.232361
v 1.000000 1.720447 2.343705
v 0.979990 1.720447 2.323663
v 1.017178 1.830402 2.284323
v 1.034369 1.829314 2.288941
v 1.014361 1.829332 2.268962
v -0.980000 1.720447 3.323663
v -1.000000 1.721547 3.323663
v -0.980000 1.775425 4.323664
v -1.000000 1.775425 4.303464
v -1.037742 1.830402 3.268000
v -1.053581 1.829327 3.268721
v -0.980011 1.775425 2.322120
v -1.000000 1.775425 2.343730
v 0.000000 1.720447 2.343663
v 0.000000 1.721547 2.323663
v 0.000000 1.830402 2.287864
v 0.000000 1.829329 2.272220
v 1.000000 1.775425 2.324448
v 0.979980 1.775425 2.304364
v 0.980000 1.720447 3.323663
v 1.000000 1.721547 3.323663
v 1.017073 1.830402 3.268258
v 1.034367 1.829313 3.268781
v 0.980000 1.775425 4.323664
v 1.000000 1.775425 4.303464
v 0.000000 1.720447 4.303261
v 0.000000 1.721547 4.323664
v 0.000000 1.830402 4.303306
v 0.000000 1.829303 4.323664
v -0.980000 1.720447 3.823663
v -1.000000 1.721547 3.823663
v -0.980000 1.802913 4.323664
v -1.000000 1.802913 4.303438
v -1.037866 1.830402 2.767976
v -1.053587 1.829328 2.768714
v -0.979969 1.747936 2.323663
v -1.000000 1.747936 2.343706
v -0.500000 1.720447 2.343663
v -0.500000 1.721547 2.323663
v 0.500000 1.830402 2.287864
v 0.500000 1.829329 2.272220
v 1.000000 1.747936 2.343718
v 0.979987 1.747936 2.323663
v 0.980000 1.720447 2.823663
v 1.000000 1.721547 2.823663
v 0.980186 1.830402 3.823663
v 1.000000 1.829304 3.823663
v 0.980000 1.747936 4.323664
v 1.000000 1.747936 4.303426
v 0.500000 1.720447 4.303195
v 0.500000 1.721547 4.323664
v -0.500000 1.830402 4.303247
v -0.500000 1.829303 4.323664
v -0.980000 1.720447 2.823663
v -1.000000 1.721547 2.823663
v -0.980000 1.747936 4.323664
v -1.000000 1.747936 4.303426
v -0.980254 1.830402 3.823663
v -1.000000 1.829307 3.823663
v -0.979978 1.802913 2.322118
v -1.000000 1.802913 2.343767
v 0.500000 1.720447 2.343663
v 0.500000 1.721547 2.323663
v -0.500000 1.830402 2.287864
v -0.500000 1.829329 2.272220
v 1.000000 1.802913 2.324487
v 0.979966 1.802913 2.304364
v 0.980000 1.720447 3.823663
v 1.000000 1.721547 3.823663
v 1.017153 1.830402 2.768241
v 1.034369 1.829313 2.768778
v 0.980000 1.802913 4.323664
v 1.000000 1.802913 4.303438
v -0.500000 1.720447 4.303195
v -0.500000 1.721547 4.323664
v 0.500000 1.830402 4.303247
v 0.500000 1.829303 4.323664
v -0.980000 1.720447 3.978616
v -0.980000 1.719348 3.998666
v -1.000000 1.721547 4.018565
v -1.000000 1.816658 4.303399
v -0.980000 1.816658 4.323664
v -1.053588 1.829328 2.518713
v -1.037894 1.830402 2.517971
v -1.000000 1.734192 2.343699
v -0.979974 1.734192 2.323663
v -0.730000 1.720447 2.343663
v -0.750000 1.719348 2.343663
v -0.770000 1.721547 2.323663
v 0.750000 1.829329 2.272220
v 0.750000 1.830402 2.287864
v 0.979989 1.734192 2.323663
v 1.000000 1.734192 2.343709
v 0.980000 1.720447 2.593663
v 0.980000 1.719348 2.573663
v 1.000000 1.721547 2.553663
v 0.980179 1.830402 3.982458
v 0.980000 1.831502 4.002496
v 1.000000 1.829304 4.022420
v 1.000000 1.734192 4.303379
v 0.980000 1.734192 4.323664
v 0.730000 1.720447 4.213267
v 0.750000 1.719348 4.206024
v 0.769931 1.721339 4.232298
v -0.730000 1.830402 4.219215
v -0.750000 1.831502 4.212409
v -0.769944 1.829488 4.238433
v -1.000000 1.721547 3.073663
v -0.980000 1.720447 3.073663
v -1.000000 1.761680 4.303453
v -0.980000 1.761680 4.323664
v -1.000000 1.829308 3.573663
v -0.980284 1.830402 3.573663
v -1.000000 1.789169 2.324448
v -0.979938 1.789169 2.304364
v 0.250000 1.721547 2.323663
v 0.250000 1.720447 2.343663
v -0.250000 1.829329 2.272220
v -0.250000 1.830402 2.287864
v 0.980033 1.789169 2.322122
v 1.000000 1.789169 2.343765
v 1.000000 1.721547 3.573663
v 0.980000 1.720447 3.573663
v 1.034368 1.829313 3.018779
v 1.017121 1.830402 3.018248
v 1.000000 1.789169 4.303460
v 0.980000 1.789169 4.323664
v -0.250000 1.721547 4.323664
v -0.250000 1.720447 4.303245
v 0.250000 1.829303 4.323664
v 0.250000 1.830402 4.303292
v -1.000000 1.721547 3.573663
v -0.980000 1.720447 3.573663
v -1.000000 1.789169 4.303460
v -0.980000 1.789169 4.323664
v -1.053584 1.829327 3.018717
v -1.037816 1.830402 3.017986
v -1.000000 1.761680 2.343716
v -0.979962 1.761680 2.323663
v -0.250000 1.721547 2.323663
v -0.250000 1.720447 2.343663
v 0.250000 1.829329 2.272220
v 0.250000 1.830402 2.287864
v 0.979984 1.761680 2.323663
v 1.000000 1.761680 2.343731
v 1.000000 1.721547 3.073663
v 0.980000 1.720447 3.073663
v 1.000000 1.829305 3.573663
v 0.980209 1.830402 3.573663
v 1.000000 1.761680 4.303453
v 0.980000 1.761680 4.323664
v 0.250000 1.721547 4.323664
v 0.250000 1.720447 4.303245
v -0.250000 1.829303 4.323664
v -0.250000 1.830402 4.303292
v -1.000000 1.721547 2.553663
v -0.980000 1.719348 2.573663
v -0.980000 1.720447 2.593663
v -1.000000 1.734192 4.303379
v -0.980000 1.734192 4.323664
v -0.980245 1.830402 3.982458
v -1.000000 1.829307 4.022420
v -0.980000 1.831502 4.002496
v -1.000000 1.816658 2.343791
v -0.979893 1.816658 2.323663
v 0.770000 1.721547 2.323663
v 0.750000 1.719348 2.343663
v 0.730000 1.720447 2.343663
v -0.750000 1.829329 2.272220
v -0.750000 1.830402 2.287864
v 0.979955 1.816658 2.323663
v 1.000000 1.816658 2.343812
v 0.980000 1.720447 3.978616
v 1.000000 1.721547 4.018565
v 0.980000 1.719348 3.998666
v 1.034369 1.829314 2.518777
v 1.017172 1.830402 2.518237
v 1.000000 1.816658 4.303399
v 0.980000 1.816658 4.323664
v -0.769931 1.721339 4.232298
v -0.750000 1.719348 4.206024
v -0.730000 1.720447 4.213267
v 0.769944 1.829488 4.238433
v 0.750000 1.831502 4.212409
v 0.730000 1.830402 4.219215
v 0.750000 1.831502 4.022496
v 0.770000 1.831502 4.002496
v 0.730000 1.830402 3.982458
v -0.750000 1.719348 4.018666
v -0.770000 1.719348 3.998666
v -0.730000 1.720447 3.978616
v -0.750000 1.719348 2.553663
v -0.730000 1.720447 2.593663
v -0.770000 1.719348 2.573663
v 0.750000 1.719348 2.553663
v 0.770000 1.719348 2.573663
v 0.730000 1.720447 2.593663
v -0.750000 1.831502 4.022496
v -0.730000 1.830402 3.982458
v -0.770000 1.831502 4.002496
v 0.750000 1.719348 4.018666
v 0.730000 1.720447 3.978616
v 0.770000 1.719348 3.998666
v 1.000000 3.897666 4.093626
v 0.980000 3.897666 4.073626
v 0.980000 3.898765 4.093663
v 1.000000 3.897666 4.303346
v 0.980000 3.898765 4.303663
v 0.980000 3.897666 4.323615
v -0.770000 3.897666 4.323615
v -0.750000 3.897666 4.303615
v -0.770000 3.898765 4.303663
v -0.980000 3.897666 4.323615
v -0.980000 3.898765 4.303663
v -1.000000 3.897666 4.303346
v -1.000000 3.897666 4.093626
v -0.980000 3.898765 4.093663
v -0.980000 3.897666 4.073626
v 0.770000 3.897666 4.323615
v 0.770000 3.898765 4.303663
v 0.750000 3.897666 4.303615
v 0.750000 3.897666 4.093626
v 0.770000 3.898765 4.093663
v 0.770000 3.897666 4.073626
v -0.750000 3.897666 4.093626
v -0.770000 3.897666 4.073626
v -0.770000 3.898765 4.093663
v -1.000000 0.087254 4.093613
v -0.980000 0.087254 4.073613
v -0.980000 0.086155 4.093663
v -1.000000 0.087254 4.303306
v -0.980000 0.086155 4.303663
v -0.980000 0.087254 4.323598
v -0.770000 0.087254 2.323663
v -0.750000 0.087254 2.343663
v -0.770000 0.086155 2.343663
v -0.979978 0.087254 2.323663
v -0.980000 0.086155 2.343663
v -1.000000 0.087254 2.343694
v 1.000000 0.087254 2.553663
v 0.980000 0.087254 2.573663
v 0.980000 0.086155 2.553663
v 1.000000 0.087254 2.343703
v 0.980000 0.086155 2.343663
v 0.979991 0.087254 2.323663
v 0.770000 0.087254 4.323598
v 0.750000 0.087254 4.303597
v 0.770000 0.086155 4.303663
v 0.980000 0.087254 4.323598
v 0.980000 0.086155 4.303663
v 1.000000 0.087254 4.303306
v -1.000000 0.087254 2.553663
v -0.980000 0.086155 2.553663
v -0.980000 0.087254 2.573663
v 0.770000 0.087254 2.323663
v 0.770000 0.086155 2.343663
v 0.750000 0.087254 2.343663
v 1.000000 0.087254 4.093613
v 0.980000 0.086155 4.093663
v 0.980000 0.087254 4.073613
v -0.770000 0.087254 4.323598
v -0.770000 0.086155 4.303663
v -0.750000 0.087254 4.303597
v -0.750000 0.087254 4.093613
v -0.770000 0.086155 4.093663
v -0.770000 0.087254 4.073613
v -0.750000 0.087254 2.553663
v -0.770000 0.087254 2.573663
v -0.770000 0.086155 2.553663
v 0.750000 0.087254 2.553663
v 0.770000 0.086155 2.553663
v 0.770000 0.087254 2.573663
v 0.750000 0.087254 4.093613
v 0.770000 0.087254 4.073613
v 0.770000 0.086155 4.093663
vn -0.0000 1.0000 -0.0000
vn -0.0000 -1.0000 -0.0000
vn -0.0000 -0.0000 1.0000
vn 1.0000 -0.0000 -0.0000
vn -0.0000 -0.8146 -0.5801
vn -1.0000 -0.0000 -0.0000
vn -0.0000 -0.0000 -1.0000
vn -0.0000 0.8145 -0.5801
vn -0.0959 0.9907 -0.0967
vn 0.0857 0.9927 -0.0849
vn -0.1621 -0.9853 -0.0540
vn 0.0542 -0.9852 -0.1625
vn 0.1625 -0.9852 0.0542
vn 0.1607 0.9856 -0.0526
vn -0.0215 -0.9955 0.0918
vn 0.0226 0.9953 0.0943
vn -0.1625 -0.9852 0.0542
vn -0.1601 0.9857 -0.0521
vn -0.0542 -0.9852 -0.1625
vn 0.1621 -0.9853 -0.0540
vn 0.0215 -0.9955 0.0918
vn -0.0226 0.9953 0.0943
vn -0.0183 0.9997 -0.0183
vn 0.0183 -0.9997 -0.0183
vn 0.0183 -0.9997 0.0183
vn -0.0183 -0.9997 0.0183
vn 0.0183 0.9997 -0.0183
vn -0.0183 -0.9997 -0.0183
vn 0.0547 0.9970 -0.0547
vn 0.0557 0.9969 0.0549
vn 0.0549 0.9970 0.0549
vn -0.0557 0.9969 0.0549
vn -0.0547 0.9970 -0.0547
vn -0.0549 0.9970 0.0549
vn -0.0547 -0.9970 -0.0547
vn -0.0558 -0.9969 0.0550
vn 0.0548 -0.9970 -0.0548
vn -0.0549 -0.9970 -0.0549
vn 0.0548 -0.9970 0.0548
vn 0.0549 -0.9970 -0.0548
vn -0.0550 -0.9970 0.0550
vn 0.0558 -0.9969 0.0550
vn -0.0548 -0.9970 0.0548
vn -0.0548 -0.9970 -0.0548
vn 0.0547 -0.9970 -0.0547
vn 0.0550 -0.9970 0.0550
vn -0.1491 0.9778 0.1472
vn -0.0683 0.9977 -0.0000
vn -0.7073 0.0002 -0.7069
vn -0.0009 0.9977 -0.0684
vn 0.7077 0.0002 -0.7065
vn 0.1399 -0.9805 0.1379
vn -0.0549 -0.9985 -0.0000
vn -0.7108 -0.0006 0.7034
vn -0.0554 0.9984 0.0104
vn -0.5235 -0.6727 -0.5229
vn -0.0000 -0.9985 -0.0549
vn -0.0000 0.9977 -0.0684
vn 0.5321 0.6899 -0.4909
vn 0.0549 -0.9985 -0.0000
vn 0.0630 0.9980 -0.0000
vn 0.7107 0.0003 0.7035
vn -0.0000 -0.9986 0.0538
vn -0.0000 0.9985 0.0539
vn -0.7107 -0.0000 0.7035
vn -0.0680 0.9977 -0.0000
vn -0.7074 0.0005 -0.7068
vn 0.7080 0.0007 -0.7062
vn 0.0554 0.9985 -0.0000
vn 0.7108 -0.0000 0.7034
vn -0.7121 -0.0024 0.7021
vn -0.0554 0.9985 -0.0000
vn -0.7075 0.0013 -0.7067
vn 0.5034 0.7041 -0.5008
vn 0.0632 0.9980 -0.0000
vn 0.7117 0.0020 0.7024
vn -0.0088 -0.9996 0.0283
vn 0.0086 0.9995 0.0296
vn -0.7111 -0.0000 0.7031
vn -0.0682 0.9977 -0.0000
vn -0.7073 0.0003 -0.7069
vn 0.7078 0.0004 -0.7064
vn 0.0553 0.9985 -0.0000
vn 0.7113 -0.0000 0.7029
vn 0.0210 -0.9983 0.0536
vn -0.0196 0.9984 0.0538
vn -0.7113 -0.0014 0.7029
vn -0.5311 0.6904 -0.4912
vn 0.5246 -0.6723 -0.5223
vn 0.0631 0.9980 -0.0000
vn 0.7111 0.0011 0.7031
vn -0.0000 -0.9986 0.0536
vn -0.0000 0.9986 0.0538
vn -0.7106 -0.0000 0.7036
vn -0.0678 0.9977 -0.0000
vn -0.7318 -0.0786 -0.6769
vn 0.5030 -0.7039 -0.5014
vn 0.0627 0.9980 0.0071
vn 0.7106 -0.0000 0.7036
vn -0.1400 -0.9805 0.1379
vn -0.1148 -0.9866 -0.1161
vn 0.0009 0.9976 -0.0693
vn 0.1388 -0.9804 -0.1399
vn 0.1492 0.9778 0.1472
vn -0.0549 0.9985 -0.0000
vn -0.0000 0.9985 -0.0548
vn -0.0000 -0.9985 -0.0548
vn -0.0000 -0.9985 0.0549
vn 0.0549 0.9985 -0.0000
vn -0.0000 0.9985 0.0550
vn 0.7069 0.0243 -0.7069
vn 0.7068 -0.0312 0.7068
vn -0.7117 -0.0310 0.7018
vn -0.7069 0.0243 -0.7069
vn 0.7117 -0.0310 0.7018
vn -0.7068 -0.0312 0.7068
vn -0.0000 -0.9985 0.0551
vn -0.7071 -0.0000 0.7071
vn 0.7071 -0.0000 0.7071
vn -0.7975 0.0336 0.6024
vn 0.7116 0.0419 0.7013
vn -0.7118 0.0419 0.7011
vn 0.7065 0.0422 0.7065
vn 0.7067 -0.0325 -0.7067
vn -0.7067 -0.0325 -0.7067
vn 0.7071 -0.0000 -0.7071
vn -0.7073 -0.0000 -0.7070
vn 0.7077 -0.0000 -0.7066
vn -0.7071 -0.0000 -0.7071
vn -0.0000 -0.9903 0.1393
vn -0.0304 0.0558 0.9980
vn -0.0000 0.9889 0.1489
vn -0.0000 -0.0441 0.9990
vn -0.2301 -0.9732 -0.0000
vn -0.0000 -0.9710 -0.2392
vn -0.0000 0.0597 0.9982
vn 0.0291 -0.0411 0.9987
vn 0.3455 -0.9384 -0.0000
vn -0.0472 -0.7898 -0.6115
vn -0.0000 -0.1116 -0.9938
vn 0.0499 -0.9875 0.1498
vn -0.0447 0.8137 -0.5795
vn 0.0472 -0.7898 -0.6115
vn -0.0499 -0.9875 0.1498
vn -0.0000 -0.0459 -0.9989
vn -0.0000 0.0344 -0.9994
vn -0.0000 -0.8145 -0.5801
vn -0.0000 0.8146 -0.5801
vn -0.1492 0.9778 0.1472
vn -0.7073 0.0001 -0.7070
vn -0.0009 0.9976 -0.0693
vn 0.7077 0.0001 -0.7066
vn 0.1400 -0.9805 0.1379
vn -0.0672 0.9977 0.0119
vn -0.5315 -0.6898 -0.4917
vn 0.5240 0.6728 -0.5223
vn 0.0629 0.9980 -0.0000
vn -0.7111 0.0011 0.7031
vn -0.7073 0.0004 -0.7069
vn 0.7078 0.0002 -0.7064
vn 0.7113 -0.0014 0.7029
vn -0.7113 -0.0000 0.7029
vn -0.7318 0.0806 -0.6768
vn 0.5033 0.7040 -0.5011
vn 0.7111 -0.0000 0.7031
vn -0.0210 -0.9983 0.0536
vn 0.0196 0.9984 0.0538
vn -0.7117 0.0020 0.7024
vn 0.7077 0.0001 -0.7065
vn 0.7121 -0.0024 0.7021
vn 0.0088 -0.9996 0.0283
vn -0.0086 0.9995 0.0296
vn -0.7108 -0.0000 0.7034
vn -0.5231 0.6734 -0.5225
vn 0.5326 -0.6892 -0.4913
vn 0.7107 -0.0000 0.7035
vn -0.7107 0.0003 0.7035
vn -0.7074 0.0007 -0.7068
vn 0.5029 -0.7038 -0.5017
vn 0.0554 0.9984 0.0067
vn 0.7108 -0.0006 0.7034
vn -0.1399 -0.9805 0.1379
vn -0.1153 -0.9866 -0.1151
vn 0.0008 0.9977 -0.0684
vn 0.1395 -0.9805 -0.1388
vn 0.1491 0.9778 0.1472
vn 0.7944 -0.0250 0.6069
vn -0.7115 -0.0310 0.7020
vn 0.7115 -0.0310 0.7020
vn -0.7944 -0.0250 0.6069
vn -0.7065 0.0422 0.7065
vn 0.7118 0.0419 0.7011
vn -0.7116 0.0419 0.7013
vn 0.7975 0.0336 0.6024
vn 0.7076 -0.0000 -0.7066
vn -0.0291 -0.0411 0.9987
vn 0.0026 -0.9736 -0.2281
vn 0.0304 0.0558 0.9980
vn -0.0028 -0.9738 -0.2274
vn -0.2767 -0.9597 0.0486
vn -0.0447 -0.8137 -0.5795
vn 0.0472 0.7899 -0.6115
vn 0.4092 -0.9113 0.0461
vn -0.0499 0.9858 0.1601
vn -0.0472 0.7898 -0.6115
vn -0.0000 0.1118 -0.9937
vn 0.0499 0.9858 0.1601
vt 0.750000 0.593750
vt 0.718750 0.625000
vt 0.718750 0.593750
vt 0.250000 0.593750
vt 0.218750 0.625000
vt 0.218750 0.593750
vt 0.500000 0.843750
vt 0.468750 0.875000
vt 0.468750 0.843750
vt 0.500000 0.593750
vt 0.468750 0.625000
vt 0.468750 0.593750
vt 0.500000 0.343750
vt 0.468750 0.375000
vt 0.468750 0.343750
vt 0.500000 0.093750
vt 0.468750 0.125000
vt 0.468750 0.093750
vt 0.562500 0.093750
vt 0.531250 0.125000
vt 0.531250 0.093750
vt 0.562500 0.031250
vt 0.531250 0.062500
vt 0.531250 0.031250
vt 0.437500 0.093750
vt 0.406250 0.125000
vt 0.406250 0.093750
vt 0.437500 0.031250
vt 0.406250 0.062500
vt 0.406250 0.031250
vt 0.500000 0.031250
vt 0.468750 0.062500
vt 0.468750 0.031250
vt 0.437500 0.156250
vt 0.406250 0.187500
vt 0.406250 0.156250
vt 0.500000 0.156250
vt 0.468750 0.187500
vt 0.468750 0.156250
vt 0.562500 0.343750
vt 0.531250 0.375000
vt 0.531250 0.343750
vt 0.562500 0.281250
vt 0.531250 0.312500
vt 0.531250 0.281250
vt 0.437500 0.343750
vt 0.406250 0.375000
vt 0.406250 0.343750
vt 0.437500 0.281250
vt 0.406250 0.312500
vt 0.406250 0.281250
vt 0.500000 0.281250
vt 0.468750 0.312500
vt 0.468750 0.281250
vt 0.437500 0.406250
vt 0.406250 0.437500
vt 0.406250 0.406250
vt 0.500000 0.406250
vt 0.468750 0.437500
vt 0.468750 0.406250
vt 0.562500 0.593750
vt 0.531250 0.625000
vt 0.531250 0.593750
vt 0.562500 0.531250
vt 0.531250 0.562500
vt 0.531250 0.531250
vt 0.437500 0.593750
vt 0.406250 0.625000
vt 0.406250 0.593750
vt 0.437500 0.531250
vt 0.406250 0.562500
vt 0.406250 0.531250
vt 0.500000 0.531250
vt 0.468750 0.562500
vt 0.468750 0.531250
vt 0.437500 0.656250
vt 0.406250 0.687500
vt 0.406250 0.656250
vt 0.500000 0.656250
vt 0.468750 0.687500
vt 0.468750 0.656250
vt 0.562500 0.843750
vt 0.531250 0.875000
vt 0.531250 0.843750
vt 0.562500 0.781250
vt 0.531250 0.812500
vt 0.531250 0.781250
vt 0.437500 0.843750
vt 0.406250 0.875000
vt 0.406250 0.843750
vt 0.437500 0.781250
vt 0.406250 0.812500
vt 0.406250 0.781250
vt 0.500000 0.781250
vt 0.468750 0.812500
vt 0.468750 0.781250
vt 0.437500 0.906250
vt 0.406250 0.937500
vt 0.406250 0.906250
vt 0.500000 0.906250
vt 0.468750 0.937500
vt 0.468750 0.906250
vt 0.312500 0.593750
vt 0.281250 0.625000
vt 0.281250 0.593750
vt 0.312500 0.531250
vt 0.281250 0.562500
vt 0.281250 0.531250
vt 0.187500 0.593750
vt 0.156250 0.625000
vt 0.156250 0.593750
vt 0.250000 0.531250
vt 0.218750 0.562500
vt 0.218750 0.531250
vt 0.187500 0.656250
vt 0.156250 0.687500
vt 0.156250 0.656250
vt 0.250000 0.656250
vt 0.218750 0.687500
vt 0.218750 0.656250
vt 0.812500 0.593750
vt 0.781250 0.625000
vt 0.781250 0.593750
vt 0.812500 0.531250
vt 0.781250 0.562500
vt 0.781250 0.531250
vt 0.687500 0.593750
vt 0.656250 0.625000
vt 0.656250 0.593750
vt 0.687500 0.531250
vt 0.656250 0.562500
vt 0.656250 0.531250
vt 0.750000 0.531250
vt 0.718750 0.562500
vt 0.718750 0.531250
vt 0.687500 0.656250
vt 0.656250 0.687500
vt 0.656250 0.656250
vt 0.750000 0.656250
vt 0.718750 0.687500
vt 0.718750 0.656250
vt 0.812500 0.656250
vt 0.781250 0.687500
vt 0.781250 0.656250
vt 0.312500 0.656250
vt 0.281250 0.687500
vt 0.281250 0.656250
vt 0.562500 0.906250
vt 0.531250 0.937500
vt 0.531250 0.906250
vt 0.562500 0.656250
vt 0.531250 0.687500
vt 0.531250 0.656250
vt 0.562500 0.406250
vt 0.531250 0.437500
vt 0.531250 0.406250
vt 0.562500 0.156250
vt 0.531250 0.187500
vt 0.531250 0.156250
vt 0.593750 0.156250
vt 0.562500 0.187500
vt 0.593750 0.125000
vt 0.562500 0.125000
vt 0.500000 0.187500
vt 0.500000 0.125000
vt 0.500000 0.218750
vt 0.531250 0.218750
vt 0.593750 0.406250
vt 0.562500 0.437500
vt 0.593750 0.375000
vt 0.562500 0.375000
vt 0.500000 0.437500
vt 0.500000 0.375000
vt 0.500000 0.468750
vt 0.531250 0.468750
vt 0.593750 0.656250
vt 0.562500 0.687500
vt 0.593750 0.625000
vt 0.562500 0.625000
vt 0.500000 0.687500
vt 0.500000 0.625000
vt 0.500000 0.718750
vt 0.531250 0.718750
vt 0.593750 0.906250
vt 0.562500 0.937500
vt 0.593750 0.875000
vt 0.562500 0.875000
vt 0.500000 0.937500
vt 0.500000 0.875000
vt 0.500000 0.968750
vt 0.531250 0.968750
vt 0.343750 0.656250
vt 0.312500 0.687500
vt 0.343750 0.625000
vt 0.312500 0.625000
vt 0.250000 0.687500
vt 0.250000 0.625000
vt 0.250000 0.718750
vt 0.281250 0.718750
vt 0.843750 0.656250
vt 0.812500 0.687500
vt 0.843750 0.625000
vt 0.812500 0.625000
vt 0.750000 0.687500
vt 0.750000 0.625000
vt 0.750000 0.718750
vt 0.781250 0.718750
vt 0.687500 0.687500
vt 0.687500 0.625000
vt 0.687500 0.562500
vt 0.843750 0.531250
vt 0.812500 0.562500
vt 0.750000 0.562500
vt 0.187500 0.687500
vt 0.187500 0.625000
vt 0.187500 0.562500
vt 0.187500 0.531250
vt 0.156250 0.562500
vt 0.250000 0.562500
vt 0.312500 0.562500
vt 0.437500 0.937500
vt 0.437500 0.875000
vt 0.406250 0.968750
vt 0.437500 0.812500
vt 0.593750 0.781250
vt 0.562500 0.812500
vt 0.500000 0.812500
vt 0.437500 0.687500
vt 0.437500 0.625000
vt 0.406250 0.718750
vt 0.437500 0.562500
vt 0.593750 0.531250
vt 0.562500 0.562500
vt 0.500000 0.562500
vt 0.437500 0.437500
vt 0.437500 0.375000
vt 0.406250 0.468750
vt 0.437500 0.312500
vt 0.593750 0.281250
vt 0.562500 0.312500
vt 0.500000 0.312500
vt 0.437500 0.187500
vt 0.437500 0.125000
vt 0.406250 0.218750
vt 0.437500 0.062500
vt 0.593750 0.031250
vt 0.562500 0.062500
vt 0.500000 0.062500
vt 0.593750 0.093750
vt 0.593750 0.062500
vt 0.437500 0.218750
vt 0.468750 0.218750
vt 0.593750 0.343750
vt 0.593750 0.312500
vt 0.437500 0.468750
vt 0.468750 0.468750
vt 0.593750 0.593750
vt 0.593750 0.562500
vt 0.437500 0.718750
vt 0.468750 0.718750
vt 0.593750 0.843750
vt 0.593750 0.812500
vt 0.437500 0.968750
vt 0.468750 0.968750
vt 0.343750 0.593750
vt 0.343750 0.562500
vt 0.187500 0.718750
vt 0.218750 0.718750
vt 0.843750 0.593750
vt 0.843750 0.562500
vt 0.687500 0.718750
vt 0.718750 0.718750
vt 0.593750 0.937500
vt 0.562500 0.968750
vt 0.593750 0.687500
vt 0.562500 0.718750
vt 0.593750 0.437500
vt 0.562500 0.468750
vt 0.593750 0.187500
vt 0.562500 0.218750
vt 0.624814 0.249049
vt 0.622432 0.251582
vt 0.622559 0.247482
vt 0.625959 0.500111
vt 0.622386 0.501890
vt 0.622566 0.497766
vt 0.375000 0.031250
vt 0.376000 0.028803
vt 0.375000 0.281250
vt 0.375000 0.281250
vt 0.376000 0.278750
vt 0.372500 0.533750
vt 0.372500 0.531250
vt 0.376667 0.528750
vt 0.627478 0.715254
vt 0.627500 0.718750
vt 0.623336 0.721040
vt 0.341875 0.747510
vt 0.343750 0.747251
vt 0.343750 0.750000
vt 0.625000 0.967074
vt 0.625000 0.968750
vt 0.623586 0.970799
vt 0.376000 0.221250
vt 0.375000 0.218750
vt 0.625000 0.034746
vt 0.623261 0.029314
vt 0.625000 0.031250
vt 0.343750 0.500000
vt 0.343750 0.502500
vt 0.341875 0.502500
vt 0.372500 0.715178
vt 0.376250 0.721141
vt 0.372500 0.718750
vt 0.375831 0.971222
vt 0.375000 0.968750
vt 0.623303 0.779290
vt 0.625000 0.781250
vt 0.625000 0.782926
vt 0.656250 0.721468
vt 0.653750 0.718750
vt 0.658750 0.715198
vt 0.156250 0.721499
vt 0.153750 0.718750
vt 0.158750 0.715119
vt 0.156250 0.528750
vt 0.158750 0.533750
vt 0.153750 0.531250
vt 0.343750 0.528750
vt 0.346250 0.531250
vt 0.341250 0.533750
vt 0.843750 0.721468
vt 0.841250 0.715179
vt 0.846250 0.718750
vt 0.343750 0.721498
vt 0.341250 0.715099
vt 0.346250 0.718750
vt 0.625000 0.721250
vt 0.627500 0.721250
vt 0.625000 0.748099
vt 0.626250 0.750000
vt 0.625000 0.752500
vt 0.625000 0.971250
vt 0.625000 0.971250
vt 0.625000 0.000000
vt 0.625000 0.002500
vt 0.625000 0.002534
vt 0.625000 0.028750
vt 0.625000 0.028750
vt 0.656250 0.750000
vt 0.654583 0.747500
vt 0.656250 0.747500
vt 0.656250 0.721250
vt 0.653750 0.721250
vt 0.653750 0.718750
vt 0.843750 0.721250
vt 0.846250 0.718750
vt 0.846250 0.721250
vt 0.125000 0.721244
vt 0.127500 0.718750
vt 0.127500 0.721250
vt 0.125000 0.747455
vt 0.127500 0.747500
vt 0.127500 0.749996
vt 0.153750 0.500000
vt 0.156250 0.502500
vt 0.153750 0.502500
vt 0.127503 0.500000
vt 0.127500 0.502500
vt 0.125000 0.502504
vt 0.375000 0.528750
vt 0.372500 0.528750
vt 0.375000 0.502505
vt 0.372500 0.502500
vt 0.373749 0.498749
vt 0.345417 0.749997
vt 0.343750 0.747497
vt 0.346250 0.747500
vt 0.373750 0.751248
vt 0.372500 0.747500
vt 0.375000 0.747461
vt 0.125000 0.528750
vt 0.127500 0.528750
vt 0.127500 0.531250
vt 0.345417 0.500000
vt 0.346250 0.502500
vt 0.343750 0.502500
vt 0.375000 0.721251
vt 0.372500 0.721250
vt 0.372500 0.718750
vt 0.153750 0.749996
vt 0.153750 0.747500
vt 0.156250 0.747497
vt 0.156250 0.721251
vt 0.153750 0.721250
vt 0.153750 0.718750
vt 0.156250 0.528750
vt 0.153750 0.531250
vt 0.153750 0.528750
vt 0.343750 0.528750
vt 0.346250 0.528750
vt 0.346250 0.531250
vt 0.343750 0.721251
vt 0.346250 0.718750
vt 0.346250 0.721250
vt 0.593750 0.002533
vt 0.593750 0.000000
vt 0.625000 0.218505
vt 0.622558 0.218750
vt 0.406250 0.252503
vt 0.375000 0.247496
vt 0.406250 0.247496
vt 0.625000 0.468750
vt 0.622560 0.468750
vt 0.375000 0.502505
vt 0.406250 0.497499
vt 0.406250 0.502506
vt 0.375000 0.752500
vt 0.406250 0.747464
vt 0.406250 0.752500
vt 0.127500 0.625000
vt 0.125000 0.593750
vt 0.127500 0.593750
vt 0.468750 0.000000
vt 0.500000 0.002525
vt 0.468750 0.002526
vt 0.625000 0.124621
vt 0.622511 0.093750
vt 0.625000 0.093750
vt 0.500000 0.252499
vt 0.531250 0.247669
vt 0.531250 0.252508
vt 0.250000 0.502500
vt 0.281250 0.500000
vt 0.281250 0.502500
vt 0.625000 0.375000
vt 0.622560 0.343750
vt 0.625000 0.343750
vt 0.500000 0.502331
vt 0.531250 0.497504
vt 0.531250 0.502513
vt 0.372500 0.625000
vt 0.377500 0.656250
vt 0.372500 0.656250
vt 0.627203 0.625000
vt 0.622524 0.593750
vt 0.627198 0.593750
vt 0.531250 0.752500
vt 0.500000 0.747475
vt 0.531250 0.747474
vt 0.250000 0.747450
vt 0.218750 0.750000
vt 0.218750 0.747448
vt 0.625000 0.875000
vt 0.622500 0.843750
vt 0.625000 0.843750
vt 0.127500 0.687500
vt 0.125000 0.656250
vt 0.127500 0.656250
vt 0.562500 0.000000
vt 0.531250 0.002526
vt 0.531250 0.000000
vt 0.625000 0.156004
vt 0.622558 0.187500
vt 0.622556 0.156250
vt 0.468750 0.252505
vt 0.437500 0.247495
vt 0.468750 0.247493
vt 0.187500 0.502500
vt 0.218750 0.500000
vt 0.218750 0.502500
vt 0.625000 0.437500
vt 0.622560 0.406250
vt 0.625000 0.406250
vt 0.437500 0.502507
vt 0.468750 0.497498
vt 0.468750 0.502508
vt 0.372500 0.562500
vt 0.377500 0.593750
vt 0.372500 0.593750
vt 0.627474 0.656250
vt 0.622504 0.687500
vt 0.622504 0.656250
vt 0.437500 0.752500
vt 0.468750 0.747474
vt 0.468750 0.752500
vt 0.281250 0.747448
vt 0.312500 0.750000
vt 0.281250 0.750000
vt 0.625000 0.906250
vt 0.622500 0.937500
vt 0.622500 0.906250
vt 0.127500 0.533750
vt 0.125000 0.562500
vt 0.125000 0.531250
vt 0.406250 0.000000
vt 0.437500 0.002530
vt 0.406250 0.002536
vt 0.622510 0.062500
vt 0.593750 0.252513
vt 0.562500 0.247487
vt 0.593750 0.247484
vt 0.312500 0.500000
vt 0.625000 0.312500
vt 0.622560 0.281250
vt 0.625000 0.281250
vt 0.562500 0.502335
vt 0.593750 0.497494
vt 0.593750 0.502519
vt 0.377500 0.687500
vt 0.627194 0.562500
vt 0.622525 0.531250
vt 0.627192 0.531250
vt 0.593750 0.752500
vt 0.562500 0.747472
vt 0.593750 0.747467
vt 0.158750 0.747261
vt 0.187500 0.750000
vt 0.156250 0.750000
vt 0.622500 0.812500
vt 0.127500 0.715178
vt 0.125000 0.687500
vt 0.562500 0.002528
vt 0.625000 0.187255
vt 0.437500 0.252504
vt 0.158750 0.502500
vt 0.187500 0.500000
vt 0.622560 0.437500
vt 0.437500 0.497498
vt 0.377500 0.562500
vt 0.627477 0.687500
vt 0.437500 0.747470
vt 0.312500 0.747441
vt 0.625000 0.937911
vt 0.127500 0.562500
vt 0.437500 0.000000
vt 0.625000 0.062500
vt 0.562500 0.252503
vt 0.312500 0.502500
vt 0.622560 0.312500
vt 0.562500 0.497496
vt 0.372500 0.687500
vt 0.622524 0.562500
vt 0.562500 0.752500
vt 0.187500 0.747441
vt 0.625000 0.812089
vt 0.125000 0.625000
vt 0.500000 0.000000
vt 0.622554 0.125000
vt 0.500000 0.247492
vt 0.250000 0.500000
vt 0.622560 0.375000
vt 0.500000 0.497497
vt 0.377500 0.625000
vt 0.622523 0.625000
vt 0.500000 0.752500
vt 0.250000 0.750000
vt 0.622500 0.875000
vt 0.375000 0.000000
vt 0.375000 0.002791
vt 0.625000 0.752500
vt 0.625000 0.747243
vt 0.658750 0.747289
vt 0.156250 0.502500
vt 0.841250 0.747289
vt 0.872531 0.715254
vt 0.872500 0.718750
vt 0.625000 0.997500
vt 0.625000 0.778750
vt 0.843750 0.747500
vt 0.872500 0.721250
vt 0.625000 0.002757
vt 0.656250 0.747282
vt 0.375000 0.002537
vt 0.375000 0.971250
vt 0.375000 0.968750
vt 0.375000 0.278750
vt 0.375000 0.252503
vt 0.375000 0.247496
vt 0.375000 0.497499
vt 0.375000 0.028749
vt 0.375000 0.221250
vt 0.406250 0.997500
vt 0.375000 0.997500
vt 0.593750 0.997500
vt 0.593750 0.968750
vt 0.625000 0.997500
vt 0.375000 0.252503
vt 0.843750 0.502044
vt 0.872948 0.531250
vt 0.593750 0.218750
vt 0.375000 0.747209
vt 0.376384 0.778791
vt 0.375000 0.778750
vt 0.593750 0.718750
vt 0.376667 0.471250
vt 0.375000 0.471250
vt 0.656250 0.502044
vt 0.593750 0.468750
vt 0.377500 0.156250
vt 0.377500 0.125000
vt 0.377500 0.093750
vt 0.468750 0.997500
vt 0.500000 0.997500
vt 0.872536 0.656250
vt 0.872932 0.625000
vt 0.377500 0.406250
vt 0.377500 0.375000
vt 0.377500 0.343750
vt 0.781250 0.502044
vt 0.750000 0.502044
vt 0.718750 0.502044
vt 0.377500 0.906250
vt 0.377500 0.875000
vt 0.377500 0.843750
vt 0.718750 0.747454
vt 0.781250 0.747454
vt 0.750000 0.747455
vt 0.377500 0.062500
vt 0.531250 0.997500
vt 0.562500 0.997500
vt 0.872940 0.593750
vt 0.872945 0.562500
vt 0.377500 0.312500
vt 0.687500 0.502044
vt 0.377500 0.812500
vt 0.312500 0.718750
vt 0.812500 0.747448
vt 0.812500 0.718750
vt 0.377500 0.187500
vt 0.437500 0.997500
vt 0.843750 0.687500
vt 0.872532 0.687500
vt 0.377500 0.437500
vt 0.812500 0.502044
vt 0.343750 0.687500
vt 0.377500 0.937500
vt 0.687500 0.747448
vt 0.127500 0.718750
vt 0.843750 0.747282
vt 0.127500 0.531250
vt 0.156250 0.747251
vt 0.846250 0.747500
vt 0.125000 0.718750
vt 0.156250 0.500000
vt 0.872949 0.502411
vt 0.872500 0.747500
s 0
f 152/19/27 177/20/27 379/21/27
f 156/22/28 181/23/28 376/24/28
f 160/25/29 185/26/29 373/27/29
f 164/28/30 189/29/30 370/30/30
f 168/31/31 193/32/31 367/33/31
f 172/34/32 197/35/32 364/36/32
f 199/37/32 174/38/32 362/39/32
f 200/40/32 201/41/32 361/42/32
f 203/43/32 173/44/32 359/45/32
f 204/46/32 205/47/32 358/48/32
f 196/49/32 206/50/32 357/51/32
f 208/52/32 209/53/32 355/54/32
f 195/55/32 210/56/32 354/57/32
f 211/58/33 170/59/33 353/60/33
f 212/61/33 213/62/33 352/63/33
f 215/64/33 169/65/33 350/66/33
f 216/67/33 217/68/33 349/69/33
f 192/70/31 218/71/31 348/72/31
f 220/73/33 221/74/33 346/75/33
f 191/76/31 222/77/31 345/78/31
f 223/79/30 166/80/30 344/81/30
f 224/82/30 225/83/30 343/84/30
f 227/85/30 165/86/30 341/87/30
f 228/88/30 229/89/30 340/90/30
f 188/91/30 230/92/30 339/93/30
f 232/94/30 233/95/30 337/96/30
f 187/97/30 234/98/30 336/99/30
f 235/100/29 162/101/29 335/102/29
f 236/103/29 237/104/29 334/105/29
f 239/106/29 161/107/29 332/108/29
f 240/109/29 241/110/29 331/111/29
f 184/112/29 242/113/29 330/114/29
f 244/115/29 245/116/29 328/117/29
f 183/118/29 246/119/29 327/120/29
f 247/121/28 158/122/28 326/123/28
f 248/124/28 249/125/28 325/126/28
f 251/127/28 157/128/28 324/129/28
f 180/130/28 254/131/28 323/132/28
f 256/133/28 257/134/28 322/135/28
f 179/136/28 258/137/28 321/138/28
f 259/139/27 154/140/27 320/141/27
f 260/142/27 261/143/27 319/144/27
f 263/145/27 153/146/27 317/147/27
f 264/148/27 265/149/27 316/150/27
f 176/151/27 266/152/27 315/153/27
f 268/154/27 269/155/27 314/156/27
f 175/157/27 270/158/27 313/159/27
f 272/160/27 273/161/27 311/162/27
f 276/163/28 277/164/28 308/165/28
f 280/166/29 281/167/29 305/168/29
f 284/169/30 285/170/30 302/171/30
f 288/172/33 289/173/33 299/174/33
f 292/175/32 293/176/32 296/177/32
f 295/178/32 150/179/32 292/175/32
f 198/180/32 292/175/32 126/181/32
f 296/177/32 123/182/32 195/55/32
f 174/38/32 195/55/32 102/183/32
f 126/181/32 296/177/32 174/38/32
f 293/176/32 171/184/32 123/182/32
f 150/179/32 297/185/32 293/176/32
f 298/186/34 149/187/34 288/172/34
f 194/188/34 288/172/34 122/189/34
f 299/174/33 119/190/33 191/76/33
f 170/59/33 191/76/33 101/191/33
f 122/189/33 299/174/33 170/59/33
f 289/173/33 167/192/33 119/190/33
f 149/187/33 300/193/33 289/173/33
f 301/194/30 148/195/30 284/169/30
f 190/196/30 284/169/30 118/197/30
f 302/171/30 115/198/30 187/97/30
f 166/80/30 187/97/30 100/199/30
f 118/197/30 302/171/30 166/80/30
f 285/170/30 163/200/30 115/198/30
f 148/195/30 303/201/30 285/170/30
f 304/202/29 147/203/29 280/166/29
f 186/204/29 280/166/29 114/205/29
f 305/168/29 111/206/29 183/118/29
f 162/101/29 183/118/29 99/207/29
f 114/205/29 305/168/29 162/101/29
f 281/167/29 159/208/29 111/206/29
f 147/203/29 306/209/29 281/167/29
f 307/210/28 146/211/28 276/163/28
f 182/212/28 276/163/28 110/213/28
f 308/165/28 107/214/28 179/136/28
f 158/122/28 179/136/28 98/215/28
f 110/213/28 308/165/28 158/122/28
f 277/164/28 155/216/28 107/214/28
f 146/211/28 309/217/28 277/164/28
f 310/218/27 145/219/27 272/160/27
f 178/220/27 272/160/27 106/221/27
f 311/162/27 103/222/27 175/157/27
f 154/140/27 175/157/27 97/223/27
f 106/221/27 311/162/27 154/140/27
f 273/161/27 151/224/27 103/222/27
f 145/219/27 312/225/27 273/161/27
f 313/159/27 144/226/27 268/154/27
f 177/20/27 268/154/27 105/227/27
f 97/223/27 313/159/27 177/20/27
f 105/227/27 314/156/27 153/146/27
f 315/153/27 143/228/27 264/148/27
f 143/228/27 317/147/27 265/149/27
f 318/229/27 142/230/27 260/142/27
f 319/144/27 104/231/27 176/151/27
f 320/141/27 97/223/27 152/19/27
f 261/143/27 152/19/27 104/231/27
f 142/230/27 320/141/27 261/143/27
f 321/138/28 141/232/28 256/133/28
f 181/23/28 256/133/28 109/233/28
f 98/215/28 321/138/28 181/23/28
f 109/233/28 322/135/28 157/128/28
f 323/132/28 140/234/28 252/235/28
f 140/234/28 324/129/28 253/236/28
f 325/126/28 108/237/28 180/130/28
f 326/123/28 98/215/28 156/22/28
f 249/125/28 156/22/28 108/237/28
f 139/238/28 326/123/28 249/125/28
f 327/120/29 138/239/29 244/115/29
f 185/26/29 244/115/29 113/240/29
f 99/207/29 327/120/29 185/26/29
f 113/240/29 328/117/29 161/107/29
f 138/239/29 329/241/29 245/116/29
f 330/114/29 137/242/29 240/109/29
f 137/242/29 332/108/29 241/110/29
f 333/243/29 136/244/29 236/103/29
f 334/105/29 112/245/29 184/112/29
f 335/102/29 99/207/29 160/25/29
f 237/104/29 160/25/29 112/245/29
f 136/244/29 335/102/29 237/104/29
f 336/99/30 135/246/30 232/94/30
f 189/29/30 232/94/30 117/247/30
f 100/199/30 336/99/30 189/29/30
f 117/247/30 337/96/30 165/86/30
f 135/246/30 338/248/30 233/95/30
f 339/93/30 134/249/30 228/88/30
f 134/249/30 341/87/30 229/89/30
f 342/250/30 133/251/30 224/82/30
f 343/84/30 116/252/30 188/91/30
f 344/81/30 100/199/30 164/28/30
f 225/83/30 164/28/30 116/252/30
f 133/251/30 344/81/30 225/83/30
f 345/78/33 132/253/33 220/73/33
f 193/32/33 220/73/33 121/254/33
f 101/191/31 345/78/31 193/32/31
f 121/254/33 346/75/33 169/65/33
f 132/253/33 347/255/33 221/74/33
f 348/72/33 131/256/33 216/67/33
f 131/256/33 350/66/33 217/68/33
f 351/257/34 130/258/34 212/61/34
f 352/63/33 120/259/33 192/70/33
f 353/60/33 101/191/33 168/31/33
f 213/62/33 168/31/33 120/259/33
f 130/258/33 353/60/33 213/62/33
f 354/57/32 129/260/32 208/52/32
f 197/35/32 208/52/32 125/261/32
f 102/183/32 354/57/32 197/35/32
f 125/261/32 355/54/32 173/44/32
f 129/260/32 356/262/32 209/53/32
f 357/51/32 128/263/32 204/46/32
f 128/263/32 359/45/32 205/47/32
f 360/264/32 127/265/32 200/40/32
f 361/42/32 124/266/32 196/49/32
f 362/39/32 102/183/32 172/34/32
f 201/41/32 172/34/32 124/266/32
f 127/265/32 362/39/32 201/41/32
f 363/267/32 126/181/32 199/37/32
f 202/268/32 199/37/32 127/265/32
f 364/36/32 125/261/32 203/43/32
f 206/50/32 203/43/32 128/263/32
f 124/266/32 364/36/32 206/50/32
f 210/56/32 207/269/32 129/260/32
f 123/182/32 365/270/32 210/56/32
f 366/271/34 122/189/34 211/58/34
f 214/272/34 211/58/34 130/258/34
f 367/33/33 121/254/33 215/64/33
f 218/71/33 215/64/33 131/256/33
f 120/259/31 367/33/31 218/71/31
f 222/77/33 219/273/33 132/253/33
f 119/190/31 368/274/31 222/77/31
f 369/275/30 118/197/30 223/79/30
f 226/276/30 223/79/30 133/251/30
f 370/30/30 117/247/30 227/85/30
f 230/92/30 227/85/30 134/249/30
f 116/252/30 370/30/30 230/92/30
f 234/98/30 231/277/30 135/246/30
f 115/198/30 371/278/30 234/98/30
f 372/279/29 114/205/29 235/100/29
f 238/280/29 235/100/29 136/244/29
f 373/27/29 113/240/29 239/106/29
f 242/113/29 239/106/29 137/242/29
f 112/245/29 373/27/29 242/113/29
f 246/119/29 243/281/29 138/239/29
f 111/206/29 374/282/29 246/119/29
f 375/283/28 110/213/28 247/121/28
f 250/284/28 247/121/28 139/238/28
f 376/24/28 109/233/28 251/127/28
f 254/131/28 251/127/28 140/234/28
f 108/237/28 376/24/28 254/131/28
f 258/137/28 255/285/28 141/232/28
f 107/214/28 377/286/28 258/137/28
f 378/287/27 106/221/27 259/139/27
f 262/288/27 259/139/27 142/230/27
f 379/21/27 105/227/27 263/145/27
f 266/152/27 263/145/27 143/228/27
f 104/231/27 379/21/27 266/152/27
f 270/158/27 267/289/27 144/226/27
f 103/222/27 380/290/27 270/158/27
f 282/291/29 279/292/29 147/203/29
f 286/293/30 283/294/30 148/195/30
f 290/295/34 287/296/34 149/187/34
f 294/297/32 291/298/32 150/179/32
f 391/299/35 392/300/35 393/301/35
f 400/302/36 401/303/36 402/304/36
f 475/305/37 476/305/37 477/306/37
f 484/307/38 485/308/38 486/309/38
f 491/310/39 492/311/39 493/312/39
f 494/313/40 495/314/40 496/315/40
f 499/316/41 500/317/41 501/318/41
f 502/319/42 503/320/42 504/321/42
f 553/322/43 554/323/43 555/323/43
f 558/324/44 559/325/44 560/326/44
f 563/327/45 564/328/45 565/329/45
f 570/330/46 571/331/46 572/332/46
f 577/333/47 578/334/47 579/334/47
f 580/335/48 581/336/48 582/337/48
f 583/338/49 584/339/49 585/340/49
f 586/341/50 587/342/50 588/343/50
f 589/344/51 590/345/51 591/346/51
f 592/347/52 593/348/52 594/349/52
f 595/350/53 596/351/53 597/352/53
f 598/353/54 599/354/54 600/355/54
f 601/356/55 602/314/55 603/357/55
f 604/358/56 605/359/56 606/360/56
f 607/361/57 608/320/57 609/362/57
f 610/363/58 611/364/58 612/365/58
f 613/366/59 614/367/59 615/326/59
f 616/368/60 617/369/60 618/370/60
f 619/371/59 620/372/59 621/373/59
f 622/374/55 623/375/55 624/376/55
f 625/377/61 626/378/61 627/379/61
f 628/380/62 629/381/62 630/382/62
f 631/383/63 632/384/63 633/385/63
f 634/386/64 635/387/64 636/388/64
f 637/389/65 638/311/65 639/390/65
f 640/391/66 641/392/66 642/393/66
f 643/394/67 644/395/67 645/396/67
f 646/397/68 647/398/68 648/399/68
f 649/400/69 650/401/69 651/402/69
f 652/403/70 653/404/70 654/405/70
f 655/406/71 656/407/71 657/408/71
f 658/409/72 659/410/72 660/411/72
f 661/412/71 662/413/71 663/414/71
f 664/415/65 665/416/65 666/417/65
f 667/418/69 668/419/69 669/420/69
f 670/421/61 671/422/61 672/423/61
f 387/363/73 478/424/73 479/425/73
f 481/426/74 393/301/74 480/427/74
f 483/428/75 390/429/75 482/430/75
f 488/431/76 402/304/76 487/432/76
f 398/433/77 489/434/77 490/435/77
f 394/436/78 497/437/78 498/438/78
f 403/439/79 505/440/79 506/441/79
f 508/442/80 406/443/80 507/444/80
f 407/445/81 509/446/81 510/447/81
f 409/448/82 511/449/82 512/450/82
f 411/451/83 513/452/83 514/453/83
f 413/454/84 515/455/84 516/456/84
f 415/457/85 517/458/85 518/459/85
f 417/460/86 519/461/86 520/462/86
f 419/463/87 521/464/87 522/465/87
f 524/466/88 422/467/88 523/468/88
f 423/469/89 525/470/89 526/471/89
f 425/472/90 527/473/90 528/474/90
f 427/475/79 529/476/79 530/477/79
f 429/478/91 531/479/91 532/480/91
f 534/481/92 432/482/92 533/483/92
f 536/484/93 434/485/93 535/486/93
f 435/487/83 537/488/83 538/489/83
f 437/490/84 539/491/84 540/492/84
f 439/493/94 541/494/94 542/495/94
f 441/496/86 543/497/86 544/498/86
f 546/499/95 444/500/95 545/501/95
f 445/502/96 547/503/96 548/504/96
f 550/505/89 448/506/89 549/507/89
f 552/508/90 450/509/90 551/510/90
f 555/511/79 452/512/79 553/513/79
f 557/514/97 454/515/97 556/516/97
f 558/324/98 456/517/98 559/325/98
f 562/518/99 458/519/99 561/520/99
f 565/329/83 460/521/83 563/327/83
f 461/522/84 566/523/84 567/524/84
f 463/525/100 568/526/100 569/527/100
f 570/330/86 466/528/86 571/331/86
f 467/529/101 573/530/101 574/531/101
f 576/532/102 470/533/102 575/534/102
f 579/535/103 472/536/103 577/537/103
f 582/337/104 474/538/104 580/335/104
f 475/539/79 428/540/79 427/475/79
f 479/425/105 430/541/105 429/478/105
f 431/542/106 480/427/106 432/482/106
f 433/543/107 482/430/107 434/485/107
f 484/544/83 436/545/83 435/487/83
f 488/431/84 438/546/84 437/490/84
f 490/435/108 440/547/108 439/493/108
f 491/310/86 442/548/86 441/496/86
f 494/313/109 444/500/109 443/549/109
f 498/438/110 446/550/110 445/502/110
f 499/316/111 448/506/111 447/551/111
f 502/319/112 450/509/112 449/552/112
f 506/441/79 452/512/79 451/553/79
f 453/554/113 507/444/113 454/515/113
f 510/447/98 456/517/98 455/555/98
f 457/556/114 511/449/114 458/519/114
f 514/453/83 460/521/83 459/557/83
f 516/456/84 462/558/84 461/522/84
f 463/525/115 517/458/115 464/559/115
f 520/462/86 466/528/86 465/560/86
f 522/465/116 468/561/116 467/529/116
f 469/562/117 523/468/117 470/533/117
f 526/471/118 472/536/118 471/563/118
f 528/474/119 474/538/119 473/564/119
f 530/477/79 404/565/79 403/439/79
f 532/480/120 406/443/120 405/566/120
f 407/445/121 533/483/121 408/567/121
f 536/484/122 410/568/122 409/448/122
f 538/489/83 412/569/83 411/451/83
f 540/492/84 414/570/84 413/454/84
f 415/457/123 541/494/123 416/571/123
f 544/498/86 418/572/86 417/460/86
f 419/463/124 545/501/124 420/573/124
f 548/504/125 422/467/125 421/574/125
f 423/469/89 549/507/89 424/575/89
f 425/472/90 551/510/90 426/576/90
f 386/577/126 556/516/126 385/578/126
f 562/518/127 393/301/127 392/300/127
f 567/524/128 392/300/128 391/299/128
f 401/303/129 568/526/129 402/304/129
f 574/531/101 401/303/101 400/302/101
f 397/579/130 575/534/130 396/580/130
f 582/581/131 583/338/131 585/340/131
f 584/339/132 494/313/132 585/340/132
f 579/535/86 586/341/86 588/343/86
f 587/342/133 475/539/133 588/343/133
f 484/544/86 589/344/86 485/582/86
f 555/511/134 591/346/134 590/345/134
f 592/347/79 565/329/79 564/328/79
f 491/310/134 593/348/134 492/311/134
f 595/350/135 502/583/135 596/351/135
f 597/352/132 558/584/132 560/585/132
f 598/353/79 499/316/79 599/354/79
f 600/355/133 570/330/133 572/332/133
f 603/357/135 604/358/135 601/356/135
f 611/586/136 607/361/136 609/362/136
f 614/367/131 612/365/131 611/364/131
f 617/587/136 606/360/136 605/359/136
f 618/370/131 620/372/131 619/371/131
f 603/357/132 621/373/132 620/372/132
f 624/376/135 608/588/135 622/374/135
f 624/376/132 615/585/132 614/589/132
f 623/375/137 595/350/137 597/352/137
f 607/361/138 503/320/138 608/320/138
f 387/363/139 612/365/139 388/590/139
f 560/326/140 613/366/140 615/326/140
f 604/358/141 397/579/141 396/580/141
f 581/591/142 616/368/142 618/370/142
f 495/314/137 601/356/137 496/315/137
f 583/338/140 621/373/140 584/339/140
f 627/379/79 628/380/79 625/377/79
f 633/385/83 634/386/83 631/383/83
f 639/390/86 640/391/86 637/389/86
f 647/398/143 643/394/143 645/396/143
f 650/401/79 636/388/79 635/387/79
f 653/404/83 642/393/83 641/392/83
f 656/407/86 648/399/86 647/398/86
f 659/410/143 630/382/143 629/381/143
f 660/411/86 662/413/86 661/412/86
f 627/379/133 663/414/133 662/413/133
f 664/415/86 633/385/86 632/384/86
f 651/402/134 666/417/134 665/416/134
f 668/419/79 654/405/79 653/404/79
f 669/420/134 639/390/134 638/311/134
f 672/423/79 644/395/79 670/421/79
f 672/423/133 657/408/133 656/407/133
f 667/418/144 593/348/144 592/347/144
f 637/389/145 492/311/145 638/311/145
f 500/317/146 643/394/146 501/318/146
f 648/399/147 394/436/147 646/397/147
f 628/592/148 386/577/148 385/578/148
f 578/334/149 658/593/149 660/594/149
f 655/406/150 572/332/150 571/331/150
f 598/353/151 671/422/151 670/421/151
f 485/308/152 631/595/152 486/309/152
f 390/429/153 634/596/153 636/597/153
f 663/414/150 586/341/150 661/412/150
f 640/391/154 399/598/154 398/433/154
f 564/328/155 652/403/155 654/405/155
f 665/416/145 589/344/145 591/346/145
f 625/599/151 476/305/151 626/305/151
f 649/600/144 554/323/144 553/322/144
f 385/578/32 625/599/32 628/592/32
f 385/578/32 358/48/32 477/306/32
f 577/333/156 557/601/156 386/602/156
f 386/602/157 658/593/157 577/333/157
f 388/590/32 360/264/32 478/424/32
f 388/590/32 613/366/32 559/325/32
f 504/321/158 479/603/158 381/604/158
f 387/586/159 607/361/159 610/605/159
f 553/322/32 482/430/32 390/429/32
f 390/429/32 649/600/32 553/322/32
f 483/428/33 486/309/33 389/606/33
f 389/606/33 631/595/33 634/596/33
f 567/607/27 481/608/27 318/229/27
f 480/427/160 561/520/160 384/609/160
f 562/518/161 566/523/161 351/257/161
f 338/248/30 395/610/30 571/331/30
f 395/610/30 655/406/30 571/331/30
f 498/438/156 501/611/156 394/436/156
f 394/436/162 643/612/162 646/397/162
f 396/580/30 601/356/30 604/358/30
f 382/613/30 396/580/30 575/534/30
f 576/532/158 580/335/158 333/243/158
f 397/579/163 616/587/163 580/335/163
f 563/614/33 489/434/33 399/598/33
f 399/598/33 652/615/33 563/614/33
f 490/435/30 493/312/30 398/433/30
f 398/433/30 637/389/30 640/391/30
f 488/616/27 574/531/27 400/302/27
f 487/432/161 568/526/161 383/617/161
f 569/527/164 573/530/164 342/250/164
f 173/44/32 505/618/32 404/619/32
f 359/45/32 404/619/32 529/620/32
f 324/129/28 403/439/28 506/441/28
f 157/128/28 530/477/28 403/439/28
f 507/444/32 196/49/32 357/51/32
f 159/208/29 508/621/29 374/282/29
f 306/209/29 405/622/29 159/208/29
f 531/479/32 196/49/32 406/443/32
f 178/220/27 510/623/27 310/218/27
f 408/567/160 295/178/160 198/180/160
f 378/287/27 407/624/27 178/220/27
f 509/446/32 198/180/32 363/267/32
f 512/450/165 192/70/165 409/448/165
f 297/185/32 410/568/32 171/184/32
f 365/270/32 410/568/32 535/486/32
f 409/448/166 348/72/166 536/484/166
f 169/65/33 513/625/33 412/626/33
f 350/66/33 412/626/33 537/627/33
f 411/451/28 323/132/28 538/489/28
f 514/453/28 180/130/28 411/451/28
f 516/628/27 176/151/27 413/629/27
f 414/570/161 298/186/161 194/188/161
f 413/629/27 315/153/27 540/630/27
f 515/455/161 194/188/161 366/271/161
f 518/459/30 188/91/30 415/457/30
f 300/193/33 416/571/33 167/192/33
f 368/274/31 416/571/31 541/494/31
f 542/495/30 188/91/30 339/93/30
f 165/86/30 519/461/30 418/572/30
f 341/87/30 418/572/30 543/497/30
f 544/498/28 182/212/28 375/283/28
f 417/460/28 307/210/28 182/212/28
f 317/147/27 419/463/27 522/465/27
f 153/146/27 546/499/27 419/463/27
f 190/196/30 545/501/30 301/194/30
f 369/275/164 420/573/164 190/196/164
f 524/466/29 184/112/29 421/574/29
f 163/200/30 523/468/30 422/467/30
f 163/200/30 547/503/30 371/278/30
f 421/574/29 330/114/29 548/504/29
f 161/107/29 525/631/29 424/632/29
f 332/108/29 424/632/29 549/633/29
f 155/216/28 526/471/28 377/286/28
f 155/216/28 550/505/28 423/469/28
f 527/473/29 186/204/29 372/279/29
f 151/224/27 528/634/27 380/290/27
f 151/224/27 552/635/27 425/636/27
f 426/576/29 304/202/29 186/204/29
f 205/47/32 529/620/32 428/637/32
f 257/134/28 475/539/28 427/475/28
f 477/306/32 205/47/32 428/637/32
f 322/135/28 427/475/28 530/477/28
f 430/541/32 361/42/32 531/479/32
f 279/292/29 532/638/29 306/209/29
f 381/604/29 429/639/29 279/292/29
f 478/424/32 200/40/32 430/541/32
f 262/288/27 534/640/27 378/287/27
f 432/482/160 384/609/160 294/297/160
f 318/229/27 431/641/27 262/288/27
f 533/483/160 294/297/160 295/178/160
f 207/269/32 535/486/32 434/485/32
f 356/262/32 434/485/32 482/430/32
f 433/543/33 349/69/33 483/428/33
f 536/484/33 216/67/33 433/543/33
f 217/68/33 537/627/33 436/642/33
f 349/69/33 436/642/33 486/309/33
f 484/544/28 252/235/28 590/345/28
f 538/489/28 252/235/28 435/487/28
f 540/630/27 264/148/27 437/643/27
f 438/546/161 383/617/161 290/295/161
f 437/643/27 316/150/27 488/616/27
f 539/491/161 290/295/161 298/186/161
f 219/273/33 541/494/33 440/547/33
f 347/255/33 440/547/33 489/434/33
f 439/493/30 340/90/30 490/435/30
f 542/495/30 228/88/30 439/493/30
f 441/496/28 375/283/28 250/284/28
f 229/89/30 543/497/30 442/548/30
f 340/90/30 442/548/30 493/312/30
f 491/310/28 250/284/28 594/349/28
f 314/156/27 443/549/27 546/499/27
f 269/155/27 494/313/27 443/549/27
f 286/293/30 496/315/30 382/613/30
f 301/194/30 444/500/30 286/293/30
f 371/278/30 446/550/30 231/277/30
f 231/277/30 497/437/30 338/248/30
f 445/502/29 331/111/29 498/438/29
f 548/504/29 240/109/29 445/502/29
f 241/110/29 549/633/29 448/644/29
f 275/645/28 499/316/28 447/551/28
f 331/111/167 448/644/167 501/611/167
f 309/217/28 447/551/28 550/505/28
f 551/510/29 282/291/29 304/202/29
f 312/225/27 449/646/27 552/635/27
f 271/647/27 502/583/27 449/646/27
f 450/509/29 381/604/29 282/291/29
f 452/648/32 356/262/32 553/322/32
f 253/236/28 506/441/28 451/553/28
f 355/54/32 452/648/32 505/618/32
f 555/511/28 253/236/28 451/553/28
f 556/516/32 204/46/32 358/48/32
f 243/281/29 557/601/29 329/241/29
f 374/282/29 453/649/29 243/281/29
f 454/515/32 357/51/32 204/46/32
f 274/650/27 558/584/27 596/351/27
f 456/517/32 363/267/32 202/268/32
f 559/325/32 202/268/32 360/264/32
f 310/218/27 455/651/27 274/650/27
f 291/298/32 561/520/32 458/519/32
f 297/185/32 458/519/32 511/449/32
f 512/450/33 212/61/33 352/63/33
f 457/556/168 351/257/168 212/61/168
f 460/652/33 347/255/33 563/614/33
f 346/75/33 460/652/33 513/625/33
f 459/557/28 325/126/28 514/453/28
f 565/329/28 248/124/28 459/557/28
f 567/607/27 260/142/27 461/653/27
f 462/558/161 366/271/161 214/272/161
f 566/523/161 214/272/161 351/257/161
f 461/653/27 319/144/27 516/628/27
f 287/296/34 568/526/34 464/559/34
f 300/193/169 464/559/169 517/458/169
f 518/459/30 224/82/30 343/84/30
f 569/527/30 224/82/30 463/525/30
f 278/654/28 570/330/28 599/354/28
f 233/95/30 571/331/30 466/528/30
f 337/96/30 466/528/30 519/461/30
f 520/462/28 278/654/28 307/210/28
f 316/150/27 467/529/27 574/531/27
f 265/149/27 522/465/27 467/529/27
f 226/276/164 521/464/164 369/275/164
f 342/250/164 468/561/164 226/276/164
f 283/294/30 575/534/30 470/533/30
f 303/201/30 470/533/30 523/468/30
f 469/562/29 334/105/29 524/466/29
f 576/532/29 236/103/29 469/562/29
f 472/655/170 329/241/170 577/333/170
f 377/286/28 471/563/28 255/285/28
f 328/117/29 472/655/29 525/631/29
f 255/285/28 579/535/28 588/343/28
f 267/289/27 582/581/27 585/340/27
f 380/290/27 473/656/27 267/289/27
f 474/538/29 372/279/29 238/280/29
f 333/243/29 474/538/29 238/280/29
f 587/342/171 626/378/171 476/657/171
f 589/344/30 632/384/30 485/582/30
f 593/348/29 638/311/29 492/311/29
f 584/339/172 602/314/172 495/314/172
f 500/317/32 670/421/32 644/395/32
f 503/658/30 622/374/30 608/588/30
f 554/659/29 665/416/29 591/346/29
f 560/585/172 623/375/172 597/352/172
f 564/328/32 667/418/32 592/347/32
f 572/332/171 671/422/171 600/355/171
f 578/660/30 661/412/30 586/341/30
f 581/591/32 619/371/32 583/338/32
f 144/226/27 585/340/27 269/155/27
f 141/232/28 588/343/28 257/134/28
f 590/345/28 140/234/28 253/236/28
f 594/349/28 139/238/28 248/124/28
f 145/219/27 596/351/27 271/647/27
f 146/211/28 599/354/28 275/645/28
f 620/372/27 605/359/27 603/357/27
f 614/589/27 609/661/27 624/376/27
f 662/413/28 629/381/28 627/379/28
f 633/385/28 650/401/28 635/387/28
f 641/392/28 668/419/28 653/404/28
f 656/407/28 645/396/28 672/423/28
f 152/19/27 97/223/27 177/20/27
f 156/22/28 98/215/28 181/23/28
f 160/25/29 99/207/29 185/26/29
f 164/28/30 100/199/30 189/29/30
f 168/31/173 101/191/173 193/32/173
f 172/34/32 102/183/32 197/35/32
f 199/37/32 126/181/32 174/38/32
f 200/40/32 127/265/32 201/41/32
f 203/43/32 125/261/32 173/44/32
f 204/46/32 128/263/32 205/47/32
f 196/49/32 124/266/32 206/50/32
f 208/52/32 129/260/32 209/53/32
f 195/55/32 123/182/32 210/56/32
f 211/58/33 122/189/33 170/59/33
f 212/61/33 130/258/33 213/62/33
f 215/64/33 121/254/33 169/65/33
f 216/67/33 131/256/33 217/68/33
f 192/70/173 120/259/173 218/71/173
f 220/73/33 132/253/33 221/74/33
f 191/76/173 119/190/173 222/77/173
f 223/79/30 118/197/30 166/80/30
f 224/82/30 133/251/30 225/83/30
f 227/85/30 117/247/30 165/86/30
f 228/88/30 134/249/30 229/89/30
f 188/91/30 116/252/30 230/92/30
f 232/94/30 135/246/30 233/95/30
f 187/97/30 115/198/30 234/98/30
f 235/100/29 114/205/29 162/101/29
f 236/103/29 136/244/29 237/104/29
f 239/106/29 113/240/29 161/107/29
f 240/109/29 137/242/29 241/110/29
f 184/112/29 112/245/29 242/113/29
f 244/115/29 138/239/29 245/116/29
f 183/118/29 111/206/29 246/119/29
f 247/121/28 110/213/28 158/122/28
f 248/124/28 139/238/28 249/125/28
f 251/127/28 109/233/28 157/128/28
f 180/130/28 108/237/28 254/131/28
f 256/133/28 141/232/28 257/134/28
f 179/136/28 107/214/28 258/137/28
f 259/139/27 106/221/27 154/140/27
f 260/142/27 142/230/27 261/143/27
f 263/145/27 105/227/27 153/146/27
f 264/148/27 143/228/27 265/149/27
f 176/151/27 104/231/27 266/152/27
f 268/154/27 144/226/27 269/155/27
f 175/157/27 103/222/27 270/158/27
f 272/160/27 145/219/27 273/161/27
f 276/163/28 146/211/28 277/164/28
f 280/166/29 147/203/29 281/167/29
f 284/169/30 148/195/30 285/170/30
f 288/172/33 149/187/33 289/173/33
f 292/175/32 150/179/32 293/176/32
f 295/178/32 294/297/32 150/179/32
f 198/180/32 295/178/32 292/175/32
f 296/177/32 293/176/32 123/182/32
f 174/38/32 296/177/32 195/55/32
f 126/181/32 292/175/32 296/177/32
f 293/176/32 297/185/32 171/184/32
f 150/179/32 291/298/32 297/185/32
f 298/186/174 290/295/174 149/187/174
f 194/188/174 298/186/174 288/172/174
f 299/174/33 289/173/33 119/190/33
f 170/59/33 299/174/33 191/76/33
f 122/189/33 288/172/33 299/174/33
f 289/173/33 300/193/33 167/192/33
f 149/187/33 287/296/33 300/193/33
f 301/194/30 286/293/30 148/195/30
f 190/196/30 301/194/30 284/169/30
f 302/171/30 285/170/30 115/198/30
f 166/80/30 302/171/30 187/97/30
f 118/197/30 284/169/30 302/171/30
f 285/170/30 303/201/30 163/200/30
f 148/195/30 283/294/30 303/201/30
f 304/202/29 282/291/29 147/203/29
f 186/204/29 304/202/29 280/166/29
f 305/168/29 281/167/29 111/206/29
f 162/101/29 305/168/29 183/118/29
f 114/205/29 280/166/29 305/168/29
f 281/167/29 306/209/29 159/208/29
f 147/203/29 279/292/29 306/209/29
f 307/210/28 278/654/28 146/211/28
f 182/212/28 307/210/28 276/163/28
f 308/165/28 277/164/28 107/214/28
f 158/122/28 308/165/28 179/136/28
f 110/213/28 276/163/28 308/165/28
f 277/164/28 309/217/28 155/216/28
f 146/211/28 275/645/28 309/217/28
f 310/218/27 274/650/27 145/219/27
f 178/220/27 310/218/27 272/160/27
f 311/162/27 273/161/27 103/222/27
f 154/140/27 311/162/27 175/157/27
f 106/221/27 272/160/27 311/162/27
f 273/161/27 312/225/27 151/224/27
f 145/219/27 271/647/27 312/225/27
f 313/159/27 270/158/27 144/226/27
f 177/20/27 313/159/27 268/154/27
f 97/223/27 175/157/27 313/159/27
f 105/227/27 268/154/27 314/156/27
f 315/153/27 266/152/27 143/228/27
f 143/228/27 263/145/27 317/147/27
f 318/229/27 262/288/27 142/230/27
f 319/144/27 261/143/27 104/231/27
f 320/141/27 154/140/27 97/223/27
f 261/143/27 320/141/27 152/19/27
f 142/230/27 259/139/27 320/141/27
f 321/138/28 258/137/28 141/232/28
f 181/23/28 321/138/28 256/133/28
f 98/215/28 179/136/28 321/138/28
f 109/233/28 256/133/28 322/135/28
f 323/132/28 254/131/28 140/234/28
f 140/234/28 251/127/28 324/129/28
f 325/126/28 249/125/28 108/237/28
f 326/123/28 158/122/28 98/215/28
f 249/125/28 326/123/28 156/22/28
f 139/238/28 247/121/28 326/123/28
f 327/120/29 246/119/29 138/239/29
f 185/26/29 327/120/29 244/115/29
f 99/207/29 183/118/29 327/120/29
f 113/240/29 244/115/29 328/117/29
f 138/239/29 243/281/29 329/241/29
f 330/114/29 242/113/29 137/242/29
f 137/242/29 239/106/29 332/108/29
f 333/243/29 238/280/29 136/244/29
f 334/105/29 237/104/29 112/245/29
f 335/102/29 162/101/29 99/207/29
f 237/104/29 335/102/29 160/25/29
f 136/244/29 235/100/29 335/102/29
f 336/99/30 234/98/30 135/246/30
f 189/29/30 336/99/30 232/94/30
f 100/199/30 187/97/30 336/99/30
f 117/247/30 232/94/30 337/96/30
f 135/246/30 231/277/30 338/248/30
f 339/93/30 230/92/30 134/249/30
f 134/249/30 227/85/30 341/87/30
f 342/250/30 226/276/30 133/251/30
f 343/84/30 225/83/30 116/252/30
f 344/81/30 166/80/30 100/199/30
f 225/83/30 344/81/30 164/28/30
f 133/251/30 223/79/30 344/81/30
f 345/78/33 222/77/33 132/253/33
f 193/32/33 345/78/33 220/73/33
f 101/191/173 191/76/173 345/78/173
f 121/254/33 220/73/33 346/75/33
f 132/253/33 219/273/33 347/255/33
f 348/72/33 218/71/33 131/256/33
f 131/256/33 215/64/33 350/66/33
f 351/257/174 214/272/174 130/258/174
f 352/63/33 213/62/33 120/259/33
f 353/60/33 170/59/33 101/191/33
f 213/62/33 353/60/33 168/31/33
f 130/258/33 211/58/33 353/60/33
f 354/57/32 210/56/32 129/260/32
f 197/35/32 354/57/32 208/52/32
f 102/183/32 195/55/32 354/57/32
f 125/261/32 208/52/32 355/54/32
f 129/260/32 207/269/32 356/262/32
f 357/51/32 206/50/32 128/263/32
f 128/263/32 203/43/32 359/45/32
f 360/264/32 202/268/32 127/265/32
f 361/42/32 201/41/32 124/266/32
f 362/39/32 174/38/32 102/183/32
f 201/41/32 362/39/32 172/34/32
f 127/265/32 199/37/32 362/39/32
f 363/267/32 198/180/32 126/181/32
f 202/268/32 363/267/32 199/37/32
f 364/36/32 197/35/32 125/261/32
f 206/50/32 364/36/32 203/43/32
f 124/266/32 172/34/32 364/36/32
f 210/56/32 365/270/32 207/269/32
f 123/182/32 171/184/32 365/270/32
f 366/271/174 194/188/174 122/189/174
f 214/272/174 366/271/174 211/58/174
f 367/33/33 193/32/33 121/254/33
f 218/71/33 367/33/33 215/64/33
f 120/259/173 168/31/173 367/33/173
f 222/77/33 368/274/33 219/273/33
f 119/190/173 167/192/173 368/274/173
f 369/275/30 190/196/30 118/197/30
f 226/276/30 369/275/30 223/79/30
f 370/30/30 189/29/30 117/247/30
f 230/92/30 370/30/30 227/85/30
f 116/252/30 164/28/30 370/30/30
f 234/98/30 371/278/30 231/277/30
f 115/198/30 163/200/30 371/278/30
f 372/279/29 186/204/29 114/205/29
f 238/280/29 372/279/29 235/100/29
f 373/27/29 185/26/29 113/240/29
f 242/113/29 373/27/29 239/106/29
f 112/245/29 160/25/29 373/27/29
f 246/119/29 374/282/29 243/281/29
f 111/206/29 159/208/29 374/282/29
f 375/283/28 182/212/28 110/213/28
f 250/284/28 375/283/28 247/121/28
f 376/24/28 181/23/28 109/233/28
f 254/131/28 376/24/28 251/127/28
f 108/237/28 156/22/28 376/24/28
f 258/137/28 377/286/28 255/285/28
f 107/214/28 155/216/28 377/286/28
f 378/287/27 178/220/27 106/221/27
f 262/288/27 378/287/27 259/139/27
f 379/21/27 177/20/27 105/227/27
f 266/152/27 379/21/27 263/145/27
f 104/231/27 152/19/27 379/21/27
f 270/158/27 380/290/27 267/289/27
f 103/222/27 151/224/27 380/290/27
f 282/291/29 381/604/29 279/292/29
f 286/293/30 382/613/30 283/294/30
f 290/295/174 383/617/174 287/296/174
f 294/297/32 384/609/32 291/298/32
f 387/363/175 388/590/175 478/424/175
f 481/426/74 391/299/74 393/301/74
f 483/428/176 389/606/176 390/429/176
f 488/431/177 400/302/177 402/304/177
f 398/433/178 399/598/178 489/434/178
f 394/436/179 395/610/179 497/437/179
f 403/439/79 404/565/79 505/440/79
f 508/442/120 405/566/120 406/443/120
f 407/445/180 408/567/180 509/446/180
f 409/448/181 410/568/181 511/449/181
f 411/451/83 412/569/83 513/452/83
f 413/454/84 414/570/84 515/455/84
f 415/457/182 416/571/182 517/458/182
f 417/460/86 418/572/86 519/461/86
f 419/463/183 420/573/183 521/464/183
f 524/466/125 421/574/125 422/467/125
f 423/469/89 424/575/89 525/470/89
f 425/472/90 426/576/90 527/473/90
f 427/475/79 428/540/79 529/476/79
f 429/478/184 430/541/184 531/479/184
f 534/481/106 431/542/106 432/482/106
f 536/484/185 433/543/185 434/485/185
f 435/487/83 436/545/83 537/488/83
f 437/490/84 438/546/84 539/491/84
f 439/493/186 440/547/186 541/494/186
f 441/496/86 442/548/86 543/497/86
f 546/499/109 443/549/109 444/500/109
f 445/502/187 446/550/187 547/503/187
f 550/505/118 447/551/118 448/506/118
f 552/508/119 449/552/119 450/509/119
f 555/511/79 451/553/79 452/512/79
f 557/514/188 453/554/188 454/515/188
f 558/324/98 455/555/98 456/517/98
f 562/518/189 457/556/189 458/519/189
f 565/329/83 459/557/83 460/521/83
f 461/522/84 462/558/84 566/523/84
f 463/525/190 464/559/190 568/526/190
f 570/330/86 465/560/86 466/528/86
f 467/529/116 468/561/116 573/530/116
f 576/532/191 469/562/191 470/533/191
f 579/535/192 471/563/192 472/536/192
f 582/337/193 473/564/193 474/538/193
f 475/539/79 477/662/79 428/540/79
f 479/425/194 478/424/194 430/541/194
f 431/542/74 481/426/74 480/427/74
f 433/543/75 483/428/75 482/430/75
f 484/544/83 486/663/83 436/545/83
f 488/431/84 487/432/84 438/546/84
f 490/435/195 489/434/195 440/547/195
f 491/310/86 493/312/86 442/548/86
f 494/313/109 496/315/109 444/500/109
f 498/438/196 497/437/196 446/550/196
f 499/316/197 501/318/197 448/506/197
f 502/319/198 504/321/198 450/509/198
f 506/441/79 505/440/79 452/512/79
f 453/554/199 508/442/199 507/444/199
f 510/447/98 509/446/98 456/517/98
f 457/556/200 512/450/200 511/449/200
f 514/453/83 513/452/83 460/521/83
f 516/456/84 515/455/84 462/558/84
f 463/525/201 518/459/201 517/458/201
f 520/462/86 519/461/86 466/528/86
f 522/465/87 521/464/87 468/561/87
f 469/562/202 524/466/202 523/468/202
f 526/471/89 525/470/89 472/536/89
f 528/474/90 527/473/90 474/538/90
f 530/477/79 529/476/79 404/565/79
f 532/480/203 531/479/203 406/443/203
f 407/445/92 534/481/92 533/483/92
f 536/484/204 535/486/204 410/568/204
f 538/489/83 537/488/83 412/569/83
f 540/492/84 539/491/84 414/570/84
f 415/457/205 542/495/205 541/494/205
f 544/498/86 543/497/86 418/572/86
f 419/463/206 546/499/206 545/501/206
f 548/504/207 547/503/207 422/467/207
f 423/469/89 550/505/89 549/507/89
f 425/472/90 552/508/90 551/510/90
f 386/577/208 557/514/208 556/516/208
f 562/518/209 561/520/209 393/301/209
f 567/524/210 566/523/210 392/300/210
f 401/303/211 569/527/211 568/526/211
f 574/531/101 573/530/101 401/303/101
f 397/579/212 576/532/212 575/534/212
f 582/581/131 581/591/131 583/338/131
f 584/339/132 495/314/132 494/313/132
f 579/535/86 578/660/86 586/341/86
f 587/342/133 476/657/133 475/539/133
f 484/544/86 590/345/86 589/344/86
f 555/511/134 554/659/134 591/346/134
f 592/347/79 594/349/79 565/329/79
f 491/310/134 594/349/134 593/348/134
f 595/350/135 503/658/135 502/583/135
f 597/352/132 596/351/132 558/584/132
f 598/353/79 500/317/79 499/316/79
f 600/355/133 599/354/133 570/330/133
f 603/357/135 605/359/135 604/358/135
f 611/586/136 610/605/136 607/361/136
f 614/367/131 613/366/131 612/365/131
f 617/587/136 616/587/136 606/360/136
f 618/370/131 617/369/131 620/372/131
f 603/357/132 602/314/132 621/373/132
f 624/376/135 609/661/135 608/588/135
f 624/376/132 623/375/132 615/585/132
f 623/375/137 622/374/137 595/350/137
f 607/361/213 504/321/213 503/320/213
f 387/363/214 610/363/214 612/365/214
f 560/326/140 559/325/140 613/366/140
f 604/358/215 606/360/215 397/579/215
f 581/591/216 580/368/216 616/368/216
f 495/314/137 602/314/137 601/356/137
f 583/338/140 619/371/140 621/373/140
f 627/379/79 629/381/79 628/380/79
f 633/385/83 635/387/83 634/386/83
f 639/390/86 641/392/86 640/391/86
f 647/398/143 646/397/143 643/394/143
f 650/401/79 649/400/79 636/388/79
f 653/404/83 652/403/83 642/393/83
f 656/407/86 655/406/86 648/399/86
f 659/410/143 658/409/143 630/382/143
f 660/411/86 659/410/86 662/413/86
f 627/379/133 626/378/133 663/414/133
f 664/415/86 666/417/86 633/385/86
f 651/402/134 650/401/134 666/417/134
f 668/419/79 667/418/79 654/405/79
f 669/420/134 668/419/134 639/390/134
f 672/423/79 645/396/79 644/395/79
f 672/423/133 671/422/133 657/408/133
f 667/418/144 669/420/144 593/348/144
f 637/389/145 493/312/145 492/311/145
f 500/317/217 644/395/217 643/394/217
f 648/399/218 395/610/218 394/436/218
f 628/592/219 630/577/219 386/577/219
f 578/334/220 577/333/220 658/593/220
f 655/406/150 657/408/150 572/332/150
f 598/353/151 600/355/151 671/422/151
f 485/308/152 632/307/152 631/595/152
f 390/429/153 389/606/153 634/596/153
f 663/414/150 587/342/150 586/341/150
f 640/391/221 642/393/221 399/598/221
f 564/328/155 563/327/155 652/403/155
f 665/416/145 664/415/145 589/344/145
f 625/599/151 477/306/151 476/305/151
f 649/600/144 651/323/144 554/323/144
f 385/578/32 477/306/32 625/599/32
f 385/578/32 556/516/32 358/48/32
f 577/333/156 329/241/156 557/601/156
f 386/602/162 630/602/162 658/593/162
f 388/590/32 559/325/32 360/264/32
f 388/590/32 612/365/32 613/366/32
f 504/321/158 387/586/158 479/603/158
f 387/586/222 504/321/222 607/361/222
f 553/322/32 356/262/32 482/430/32
f 390/429/32 636/597/32 649/600/32
f 483/428/33 349/69/33 486/309/33
f 389/606/33 486/309/33 631/595/33
f 567/607/27 391/664/27 481/608/27
f 480/427/160 393/301/160 561/520/160
f 562/518/223 392/300/223 566/523/223
f 338/248/30 497/437/30 395/610/30
f 395/610/30 648/399/30 655/406/30
f 498/438/156 331/111/156 501/611/156
f 394/436/224 501/611/224 643/612/224
f 396/580/30 496/315/30 601/356/30
f 382/613/30 496/315/30 396/580/30
f 576/532/158 397/579/158 580/335/158
f 397/579/159 606/360/159 616/587/159
f 563/614/33 347/255/33 489/434/33
f 399/598/33 642/393/33 652/615/33
f 490/435/30 340/90/30 493/312/30
f 398/433/30 493/312/30 637/389/30
f 488/616/27 316/150/27 574/531/27
f 487/432/225 402/304/225 568/526/225
f 569/527/164 401/303/164 573/530/164
f 173/44/32 355/54/32 505/618/32
f 359/45/32 173/44/32 404/619/32
f 324/129/28 157/128/28 403/439/28
f 157/128/28 322/135/28 530/477/28
f 507/444/32 406/443/32 196/49/32
f 159/208/29 405/622/29 508/621/29
f 306/209/29 532/638/29 405/622/29
f 531/479/32 361/42/32 196/49/32
f 178/220/27 407/624/27 510/623/27
f 408/567/160 533/483/160 295/178/160
f 378/287/27 534/640/27 407/624/27
f 509/446/226 408/567/226 198/180/226
f 512/450/33 352/63/33 192/70/33
f 297/185/32 511/449/32 410/568/32
f 365/270/32 171/184/32 410/568/32
f 409/448/227 192/70/227 348/72/227
f 169/65/33 346/75/33 513/625/33
f 350/66/33 169/65/33 412/626/33
f 411/451/28 180/130/28 323/132/28
f 514/453/28 325/126/28 180/130/28
f 516/628/27 319/144/27 176/151/27
f 414/570/161 539/491/161 298/186/161
f 413/629/27 176/151/27 315/153/27
f 515/455/161 414/570/161 194/188/161
f 518/459/30 343/84/30 188/91/30
f 300/193/228 517/458/228 416/571/228
f 368/274/173 167/192/173 416/571/173
f 542/495/30 415/457/30 188/91/30
f 165/86/30 337/96/30 519/461/30
f 341/87/30 165/86/30 418/572/30
f 544/498/28 417/460/28 182/212/28
f 417/460/28 520/462/28 307/210/28
f 317/147/27 153/146/27 419/463/27
f 153/146/27 314/156/27 546/499/27
f 190/196/229 420/573/229 545/501/229
f 369/275/164 521/464/164 420/573/164
f 524/466/29 334/105/29 184/112/29
f 163/200/30 303/201/30 523/468/30
f 163/200/30 422/467/30 547/503/30
f 421/574/29 184/112/29 330/114/29
f 161/107/29 328/117/29 525/631/29
f 332/108/29 161/107/29 424/632/29
f 155/216/28 423/469/28 526/471/28
f 155/216/28 309/217/28 550/505/28
f 527/473/29 426/576/29 186/204/29
f 151/224/27 425/636/27 528/634/27
f 151/224/27 312/225/27 552/635/27
f 426/576/29 551/510/29 304/202/29
f 205/47/32 359/45/32 529/620/32
f 257/134/28 588/343/28 475/539/28
f 477/306/32 358/48/32 205/47/32
f 322/135/28 257/134/28 427/475/28
f 430/541/32 200/40/32 361/42/32
f 279/292/29 429/639/29 532/638/29
f 381/604/29 479/603/29 429/639/29
f 478/424/32 360/264/32 200/40/32
f 262/288/27 431/641/27 534/640/27
f 432/482/160 480/427/160 384/609/160
f 318/229/27 481/608/27 431/641/27
f 533/483/160 432/482/160 294/297/160
f 207/269/32 365/270/32 535/486/32
f 356/262/32 207/269/32 434/485/32
f 433/543/33 216/67/33 349/69/33
f 536/484/33 348/72/33 216/67/33
f 217/68/33 350/66/33 537/627/33
f 349/69/33 217/68/33 436/642/33
f 484/544/28 435/487/28 252/235/28
f 538/489/28 323/132/28 252/235/28
f 540/630/27 315/153/27 264/148/27
f 438/546/161 487/432/161 383/617/161
f 437/643/27 264/148/27 316/150/27
f 539/491/161 438/546/161 290/295/161
f 219/273/33 368/274/33 541/494/33
f 347/255/33 219/273/33 440/547/33
f 439/493/30 228/88/30 340/90/30
f 542/495/30 339/93/30 228/88/30
f 441/496/28 544/498/28 375/283/28
f 229/89/30 341/87/30 543/497/30
f 340/90/30 229/89/30 442/548/30
f 491/310/28 441/496/28 250/284/28
f 314/156/27 269/155/27 443/549/27
f 269/155/27 585/340/27 494/313/27
f 286/293/30 444/500/30 496/315/30
f 301/194/30 545/501/30 444/500/30
f 371/278/30 547/503/30 446/550/30
f 231/277/30 446/550/30 497/437/30
f 445/502/29 240/109/29 331/111/29
f 548/504/29 330/114/29 240/109/29
f 241/110/29 332/108/29 549/633/29
f 275/645/28 599/354/28 499/316/28
f 331/111/29 241/110/29 448/644/29
f 309/217/28 275/645/28 447/551/28
f 551/510/29 450/509/29 282/291/29
f 312/225/27 271/647/27 449/646/27
f 271/647/27 596/351/27 502/583/27
f 450/509/230 504/321/230 381/604/230
f 452/648/32 209/53/32 356/262/32
f 253/236/28 324/129/28 506/441/28
f 355/54/32 209/53/32 452/648/32
f 555/511/28 590/345/28 253/236/28
f 556/516/32 454/515/32 204/46/32
f 243/281/29 453/649/29 557/601/29
f 374/282/29 508/621/29 453/649/29
f 454/515/32 507/444/32 357/51/32
f 274/650/27 455/651/27 558/584/27
f 456/517/32 509/446/32 363/267/32
f 559/325/32 456/517/32 202/268/32
f 310/218/27 510/623/27 455/651/27
f 291/298/32 384/609/32 561/520/32
f 297/185/32 291/298/32 458/519/32
f 512/450/231 457/556/231 212/61/231
f 457/556/232 562/518/232 351/257/232
f 460/652/33 221/74/33 347/255/33
f 346/75/33 221/74/33 460/652/33
f 459/557/28 248/124/28 325/126/28
f 565/329/28 594/349/28 248/124/28
f 567/607/27 318/229/27 260/142/27
f 462/558/161 515/455/161 366/271/161
f 566/523/161 462/558/161 214/272/161
f 461/653/27 260/142/27 319/144/27
f 287/296/174 383/617/174 568/526/174
f 300/193/33 287/296/33 464/559/33
f 518/459/30 463/525/30 224/82/30
f 569/527/30 342/250/30 224/82/30
f 278/654/28 465/560/28 570/330/28
f 233/95/30 338/248/30 571/331/30
f 337/96/30 233/95/30 466/528/30
f 520/462/28 465/560/28 278/654/28
f 316/150/27 265/149/27 467/529/27
f 265/149/27 317/147/27 522/465/27
f 226/276/164 468/561/164 521/464/164
f 342/250/164 573/530/164 468/561/164
f 283/294/30 382/613/30 575/534/30
f 303/201/30 283/294/30 470/533/30
f 469/562/29 236/103/29 334/105/29
f 576/532/29 333/243/29 236/103/29
f 472/655/29 245/116/29 329/241/29
f 377/286/28 526/471/28 471/563/28
f 328/117/29 245/116/29 472/655/29
f 255/285/28 471/563/28 579/535/28
f 267/289/27 473/656/27 582/581/27
f 380/290/27 528/634/27 473/656/27
f 474/538/29 527/473/29 372/279/29
f 333/243/233 580/335/233 474/538/233
f 587/342/171 663/414/171 626/378/171
f 589/344/30 664/415/30 632/384/30
f 593/348/29 669/420/29 638/311/29
f 584/339/172 621/373/172 602/314/172
f 500/317/32 598/353/32 670/421/32
f 503/658/30 595/350/30 622/374/30
f 554/659/29 651/402/29 665/416/29
f 560/585/172 615/585/172 623/375/172
f 564/328/32 654/405/32 667/418/32
f 572/332/171 657/408/171 671/422/171
f 578/660/30 660/411/30 661/412/30
f 581/591/32 618/370/32 619/371/32
f 144/226/27 267/289/27 585/340/27
f 141/232/28 255/285/28 588/343/28
f 590/345/28 252/235/28 140/234/28
f 594/349/28 250/284/28 139/238/28
f 145/219/27 274/650/27 596/351/27
f 146/211/28 278/654/28 599/354/28
f 620/372/27 617/369/27 605/359/27
f 614/589/27 611/665/27 609/661/27
f 662/413/28 659/410/28 629/381/28
f 633/385/28 666/417/28 650/401/28
f 641/392/28 639/390/28 668/419/28
f 656/407/28 647/398/28 645/396/28
