# Blender 5.2.0 LTS
# www.blender.org
mtllib KursiKotakPillowKasir.mtl
o Cube.098
v -23.917170 1.323095 -58.820957
v -23.917170 1.329898 -58.716022
v -24.022108 1.329898 -58.820957
v -23.917170 1.407860 -58.716022
v -23.917170 1.414663 -58.820957
v -24.022108 1.407860 -58.820957
v -23.917170 1.323095 -60.023602
v -24.022108 1.329898 -60.023602
v -23.917170 1.329898 -60.128536
v -23.917170 1.414663 -60.023602
v -23.917170 1.407860 -60.128536
v -24.022108 1.407860 -60.023602
v -22.714529 1.323095 -58.820957
v -22.609591 1.329898 -58.820957
v -22.714529 1.329898 -58.716022
v -22.714529 1.414663 -58.820957
v -22.714529 1.407860 -58.716022
v -22.609591 1.407860 -58.820957
v -22.714529 1.323095 -60.023602
v -22.714529 1.329898 -60.128536
v -22.609591 1.329898 -60.023602
v -22.714529 1.414663 -60.023602
v -22.609591 1.407860 -60.023602
v -22.714529 1.407860 -60.128536
vn -0.0646 -0.9958 0.0646
vn -0.0646 0.9958 0.0646
vn -0.0646 -0.9958 -0.0646
vn -0.0646 0.9958 -0.0646
vn 0.0646 -0.9958 0.0646
vn 0.0646 0.9958 0.0646
vn 0.0646 -0.9958 -0.0646
vn 0.0646 0.9958 -0.0646
vn -0.0647 -0.9979 -0.0000
vn -0.7071 -0.0000 0.7071
vn -0.0647 0.9979 -0.0000
vn -0.7071 -0.0000 -0.7071
vn -0.0000 -0.9979 -0.0647
vn -0.0000 0.9979 -0.0647
vn 0.7071 -0.0000 -0.7071
vn 0.0647 -0.9979 -0.0000
vn 0.0647 0.9979 -0.0000
vn 0.7071 -0.0000 0.7071
vn -0.0000 -0.9979 0.0647
vn -0.0000 0.9979 0.0647
vn -0.0000 -1.0000 -0.0000
vn -1.0000 -0.0000 -0.0000
vn -0.0000 -0.0000 1.0000
vn -0.0000 1.0000 -0.0000
vn -0.0000 -0.0000 -1.0000
vn 1.0000 -0.0000 -0.0000
vt 0.143573 0.731427
vt 0.143573 0.750000
vt 0.125000 0.731427
vt 0.606427 0.000000
vt 0.625000 0.018573
vt 0.606427 0.018573
vt 0.143573 0.518573
vt 0.125000 0.518573
vt 0.143573 0.500000
vt 0.625000 0.243809
vt 0.606427 0.263930
vt 0.606427 0.231427
vt 0.356427 0.731427
vt 0.388930 0.731427
vt 0.375000 0.759286
vt 0.634286 0.750000
vt 0.606427 0.768573
vt 0.606427 0.736070
vt 0.356427 0.518573
vt 0.375000 0.490714
vt 0.388930 0.518573
vt 0.634286 0.500000
vt 0.606427 0.513930
vt 0.606427 0.481427
vt 0.393573 0.000000
vt 0.393573 0.018573
vt 0.393573 0.268573
vt 0.393573 0.231427
vt 0.625000 0.981427
vt 0.606427 0.981427
vt 0.393573 0.981427
vt 0.856427 0.518573
vt 0.856427 0.731427
s 0
f 1/1/1 2/2/1 3/3/1
f 4/4/2 5/5/2 6/6/2
f 7/7/3 8/8/3 9/9/3
f 10/10/4 11/11/4 12/12/4
f 13/13/5 14/14/5 15/15/5
f 16/16/6 17/17/6 18/18/6
f 19/19/7 20/20/7 21/21/7
f 22/22/8 23/23/8 24/24/8
f 7/7/9 1/1/9 3/3/9 8/8/9
f 2/25/10 4/4/10 6/6/10 3/26/10
f 5/5/11 10/10/11 12/12/11 6/6/11
f 11/11/12 9/27/12 8/28/12 12/12/12
f 19/19/13 7/7/13 9/9/13 20/20/13
f 10/10/14 22/22/14 24/24/14 11/11/14
f 23/23/15 21/21/15 20/20/15 24/24/15
f 13/13/16 19/19/16 21/21/16 14/14/16
f 22/22/17 16/16/17 18/18/17 23/23/17
f 17/17/18 15/15/18 14/14/18 18/18/18
f 1/1/19 13/13/19 15/15/19 2/2/19
f 16/16/20 5/29/20 4/30/20 17/17/20
f 7/7/21 19/19/21 13/13/21 1/1/21
f 3/26/22 6/6/22 12/12/22 8/28/22
f 15/15/23 17/17/23 4/30/23 2/31/23
f 22/22/24 10/32/24 5/33/24 16/16/24
f 9/27/25 11/11/25 24/24/25 20/20/25
f 21/21/26 23/23/26 18/18/26 14/14/26
o Cube.237
v -19.186182 1.323095 -58.725342
v -19.167889 1.329898 -58.622009
v -19.289513 1.329898 -58.707047
v -19.167889 1.407860 -58.622009
v -19.186182 1.414663 -58.725342
v -19.289513 1.407860 -58.707047
v -19.395832 1.323095 -59.909569
v -19.499165 1.329898 -59.891273
v -19.414125 1.329898 -60.012897
v -19.395832 1.414663 -59.909569
v -19.414125 1.407860 -60.012897
v -19.499165 1.407860 -59.891273
v -18.001957 1.323095 -58.934990
v -17.898624 1.329898 -58.953285
v -17.983664 1.329898 -58.831661
v -18.001957 1.414663 -58.934990
v -17.983664 1.407860 -58.831661
v -17.898624 1.407860 -58.953285
v -18.211607 1.323095 -60.119217
v -18.229900 1.329898 -60.222549
v -18.108276 1.329898 -60.137512
v -18.211607 1.414663 -60.119217
v -18.108276 1.407860 -60.137512
v -18.229900 1.407860 -60.222549
vn -0.0523 -0.9958 0.0748
vn -0.0523 0.9958 0.0748
vn -0.0748 -0.9958 -0.0523
vn -0.0748 0.9958 -0.0523
vn 0.0748 -0.9958 0.0523
vn 0.0748 0.9958 0.0523
vn 0.0523 -0.9958 -0.0748
vn 0.0523 0.9958 -0.0748
vn -0.0637 -0.9979 0.0113
vn -0.5730 -0.0000 0.8195
vn -0.0637 0.9979 0.0113
vn -0.8195 -0.0000 -0.5730
vn -0.0113 -0.9979 -0.0637
vn -0.0113 0.9979 -0.0637
vn 0.5730 -0.0000 -0.8195
vn 0.0637 -0.9979 -0.0113
vn 0.0637 0.9979 -0.0113
vn 0.8195 -0.0000 0.5730
vn 0.0113 -0.9979 0.0637
vn 0.0113 0.9979 0.0637
vn -0.0000 -1.0000 -0.0000
vn -0.9847 -0.0000 0.1743
vn 0.1743 -0.0000 0.9847
vn -0.0000 1.0000 -0.0000
vn -0.1743 -0.0000 -0.9847
vn 0.9847 -0.0000 -0.1743
vt 0.143573 0.731427
vt 0.143573 0.750000
vt 0.125000 0.731427
vt 0.606427 0.000000
vt 0.625000 0.018573
vt 0.606427 0.018573
vt 0.143573 0.518573
vt 0.125000 0.518573
vt 0.143573 0.500000
vt 0.625000 0.243809
vt 0.606427 0.263930
vt 0.606427 0.231427
vt 0.356427 0.731427
vt 0.388930 0.731427
vt 0.375000 0.759286
vt 0.634286 0.750000
vt 0.606427 0.768573
vt 0.606427 0.736070
vt 0.356427 0.518573
vt 0.375000 0.490714
vt 0.388930 0.518573
vt 0.634286 0.500000
vt 0.606427 0.513930
vt 0.606427 0.481427
vt 0.393573 0.000000
vt 0.393573 0.018573
vt 0.393573 0.268573
vt 0.393573 0.231427
vt 0.625000 0.981427
vt 0.606427 0.981427
vt 0.393573 0.981427
vt 0.856427 0.518573
vt 0.856427 0.731427
s 0
f 25/34/27 26/35/27 27/36/27
f 28/37/28 29/38/28 30/39/28
f 31/40/29 32/41/29 33/42/29
f 34/43/30 35/44/30 36/45/30
f 37/46/31 38/47/31 39/48/31
f 40/49/32 41/50/32 42/51/32
f 43/52/33 44/53/33 45/54/33
f 46/55/34 47/56/34 48/57/34
f 31/40/35 25/34/35 27/36/35 32/41/35
f 26/58/36 28/37/36 30/39/36 27/59/36
f 29/38/37 34/43/37 36/45/37 30/39/37
f 35/44/38 33/60/38 32/61/38 36/45/38
f 43/52/39 31/40/39 33/42/39 44/53/39
f 34/43/40 46/55/40 48/57/40 35/44/40
f 47/56/41 45/54/41 44/53/41 48/57/41
f 37/46/42 43/52/42 45/54/42 38/47/42
f 46/55/43 40/49/43 42/51/43 47/56/43
f 41/50/44 39/48/44 38/47/44 42/51/44
f 25/34/45 37/46/45 39/48/45 26/35/45
f 40/49/46 29/62/46 28/63/46 41/50/46
f 31/40/47 43/52/47 37/46/47 25/34/47
f 27/59/48 30/39/48 36/45/48 32/61/48
f 39/48/49 41/50/49 28/63/49 26/64/49
f 46/55/50 34/65/50 29/66/50 40/49/50
f 33/60/51 35/44/51 48/57/51 44/53/51
f 45/54/52 47/56/52 42/51/52 38/47/52
