# Blender 5.1.2
# www.blender.org
mtllib KursiDepanKotak.mtl
o Cube
v -1.547966 2.811688 1.547966
v -1.547966 5.907620 1.547966
v -1.547966 2.811688 -1.547966
v -1.547966 5.907620 -1.547966
v 1.547966 2.811688 1.547966
v 1.547966 5.907620 1.547966
v 1.547966 2.811688 -1.547966
v 1.547966 5.907620 -1.547966
vn -1.0000 -0.0000 -0.0000
vn -0.0000 -0.0000 -1.0000
vn 1.0000 -0.0000 -0.0000
vn -0.0000 -0.0000 1.0000
vn -0.0000 -1.0000 -0.0000
vn -0.0000 1.0000 -0.0000
vt 0.375000 0.000000
vt 0.625000 0.000000
vt 0.625000 0.250000
vt 0.375000 0.250000
vt 0.625000 0.500000
vt 0.375000 0.500000
vt 0.625000 0.750000
vt 0.375000 0.750000
vt 0.625000 1.000000
vt 0.375000 1.000000
vt 0.125000 0.500000
vt 0.125000 0.750000
vt 0.875000 0.500000
vt 0.875000 0.750000
s 0
f 1/1/1 2/2/1 4/3/1 3/4/1
f 3/4/2 4/3/2 8/5/2 7/6/2
f 7/6/3 8/5/3 6/7/3 5/8/3
f 5/8/4 6/7/4 2/9/4 1/10/4
f 3/11/5 7/6/5 5/8/5 1/12/5
f 8/5/6 4/13/6 2/14/6 6/7/6
o Cube.001
v -1.396595 5.883222 1.396595
v -1.396595 5.891741 1.547966
v -1.547966 5.891741 1.396595
v -1.396595 6.048951 1.547966
v -1.396595 6.057470 1.396595
v -1.547966 6.048951 1.396595
v -1.396595 5.883222 -1.396595
v -1.547966 5.891741 -1.396595
v -1.396595 5.891741 -1.547966
v -1.396595 6.057470 -1.396595
v -1.396595 6.048951 -1.547966
v -1.547966 6.048951 -1.396595
v 1.396595 5.883222 1.396595
v 1.547966 5.891741 1.396595
v 1.396595 5.891741 1.547966
v 1.396595 6.057470 1.396595
v 1.396595 6.048951 1.547966
v 1.547966 6.048951 1.396595
v 1.396595 5.883222 -1.396595
v 1.396595 5.891741 -1.547966
v 1.547966 5.891741 -1.396595
v 1.396595 6.057470 -1.396595
v 1.547966 6.048951 -1.396595
v 1.396595 6.048951 -1.547966
vn -0.0561 -0.9968 0.0561
vn -0.0561 0.9968 0.0561
vn -0.0561 -0.9968 -0.0561
vn -0.0561 0.9968 -0.0561
vn 0.0561 -0.9968 0.0561
vn 0.0561 0.9968 0.0561
vn 0.0561 -0.9968 -0.0561
vn 0.0561 0.9968 -0.0561
vn -0.0562 -0.9984 -0.0000
vn -0.7071 -0.0000 0.7071
vn -0.0562 0.9984 -0.0000
vn -0.7071 -0.0000 -0.7071
vn -0.0000 -0.9984 -0.0562
vn -0.0000 0.9984 -0.0562
vn 0.7071 -0.0000 -0.7071
vn 0.0562 -0.9984 -0.0000
vn 0.0562 0.9984 -0.0000
vn 0.7071 -0.0000 0.7071
vn -0.0000 -0.9984 0.0562
vn -0.0000 0.9984 0.0562
vn -0.0000 -1.0000 -0.0000
vn -1.0000 -0.0000 -0.0000
vn -0.0000 -0.0000 1.0000
vn -0.0000 1.0000 -0.0000
vn -0.0000 -0.0000 -1.0000
vn 1.0000 -0.0000 -0.0000
vt 0.137223 0.737777
vt 0.137223 0.750000
vt 0.125000 0.737777
vt 0.612777 0.000000
vt 0.625000 0.012223
vt 0.612777 0.012223
vt 0.137223 0.512223
vt 0.125000 0.512223
vt 0.137223 0.500000
vt 0.625000 0.245926
vt 0.612777 0.259168
vt 0.612777 0.237777
vt 0.362777 0.737777
vt 0.384168 0.737777
vt 0.375000 0.756112
vt 0.631112 0.750000
vt 0.612777 0.762223
vt 0.612777 0.740833
vt 0.362777 0.512223
vt 0.375000 0.493888
vt 0.384168 0.512223
vt 0.631112 0.500000
vt 0.612777 0.509168
vt 0.612777 0.487777
vt 0.387223 0.000000
vt 0.387223 0.012223
vt 0.387223 0.262223
vt 0.387223 0.237777
vt 0.625000 0.987777
vt 0.612777 0.987777
vt 0.387223 0.987777
vt 0.862777 0.512223
vt 0.862777 0.737777
s 0
f 9/15/7 10/16/7 11/17/7
f 12/18/8 13/19/8 14/20/8
f 15/21/9 16/22/9 17/23/9
f 18/24/10 19/25/10 20/26/10
f 21/27/11 22/28/11 23/29/11
f 24/30/12 25/31/12 26/32/12
f 27/33/13 28/34/13 29/35/13
f 30/36/14 31/37/14 32/38/14
f 15/21/15 9/15/15 11/17/15 16/22/15
f 10/39/16 12/18/16 14/20/16 11/40/16
f 13/19/17 18/24/17 20/26/17 14/20/17
f 19/25/18 17/41/18 16/42/18 20/26/18
f 27/33/19 15/21/19 17/23/19 28/34/19
f 18/24/20 30/36/20 32/38/20 19/25/20
f 31/37/21 29/35/21 28/34/21 32/38/21
f 21/27/22 27/33/22 29/35/22 22/28/22
f 30/36/23 24/30/23 26/32/23 31/37/23
f 25/31/24 23/29/24 22/28/24 26/32/24
f 9/15/25 21/27/25 23/29/25 10/16/25
f 24/30/26 13/43/26 12/44/26 25/31/26
f 15/21/27 27/33/27 21/27/27 9/15/27
f 11/40/28 14/20/28 20/26/28 16/42/28
f 23/29/29 25/31/29 12/44/29 10/45/29
f 30/36/30 18/46/30 13/47/30 24/30/30
f 17/41/31 19/25/31 32/38/31 28/34/31
f 29/35/32 31/37/32 26/32/32 22/28/32
