# Blender 5.1.2
# www.blender.org
mtllib MejaKotakDepan.mtl
o Cube.001
v -1.737332 3.622823 1.737332
v -1.737332 3.633421 1.925633
v -1.925633 3.633421 1.737332
v -1.737332 3.828986 1.925633
v -1.737332 3.839584 1.737332
v -1.925633 3.828986 1.737332
v -1.737332 3.622823 -1.737332
v -1.925633 3.633421 -1.737332
v -1.737332 3.633421 -1.925633
v -1.737332 3.839584 -1.737332
v -1.737332 3.828986 -1.925633
v -1.925633 3.828986 -1.737332
v 1.737332 3.622823 1.737332
v 1.925633 3.633421 1.737332
v 1.737332 3.633421 1.925633
v 1.737332 3.839584 1.737332
v 1.737332 3.828986 1.925633
v 1.925633 3.828986 1.737332
v 1.737332 3.622823 -1.737332
v 1.737332 3.633421 -1.925633
v 1.925633 3.633421 -1.737332
v 1.737332 3.839584 -1.737332
v 1.925633 3.828986 -1.737332
v 1.737332 3.828986 -1.925633
vn -0.0561 -0.9968 0.0561
vn -0.0561 0.9968 0.0561
vn -0.0561 -0.9968 -0.0561
vn -0.0561 0.9968 -0.0561
vn 0.0561 -0.9968 0.0561
vn 0.0561 0.9968 0.0561
vn 0.0561 -0.9968 -0.0561
vn 0.0561 0.9968 -0.0561
vn -0.0562 -0.9984 -0.0000
vn -0.7071 -0.0000 0.7071
vn -0.0562 0.9984 -0.0000
vn -0.7071 -0.0000 -0.7071
vn -0.0000 -0.9984 -0.0562
vn -0.0000 0.9984 -0.0562
vn 0.7071 -0.0000 -0.7071
vn 0.0562 -0.9984 -0.0000
vn 0.0562 0.9984 -0.0000
vn 0.7071 -0.0000 0.7071
vn -0.0000 -0.9984 0.0562
vn -0.0000 0.9984 0.0562
vn -0.0000 -1.0000 -0.0000
vn -1.0000 -0.0000 -0.0000
vn -0.0000 -0.0000 1.0000
vn -0.0000 1.0000 -0.0000
vn -0.0000 -0.0000 -1.0000
vn 1.0000 -0.0000 -0.0000
vt 0.137223 0.737777
vt 0.137223 0.750000
vt 0.125000 0.737777
vt 0.612777 0.000000
vt 0.625000 0.012223
vt 0.612777 0.012223
vt 0.137223 0.512223
vt 0.125000 0.512223
vt 0.137223 0.500000
vt 0.625000 0.245926
vt 0.612777 0.259168
vt 0.612777 0.237777
vt 0.362777 0.737777
vt 0.384168 0.737777
vt 0.375000 0.756112
vt 0.631112 0.750000
vt 0.612777 0.762223
vt 0.612777 0.740833
vt 0.362777 0.512223
vt 0.375000 0.493888
vt 0.384168 0.512223
vt 0.631112 0.500000
vt 0.612777 0.509168
vt 0.612777 0.487777
vt 0.387223 0.000000
vt 0.387223 0.012223
vt 0.387223 0.262223
vt 0.387223 0.237777
vt 0.625000 0.987777
vt 0.612777 0.987777
vt 0.387223 0.987777
vt 0.862777 0.512223
vt 0.862777 0.737777
s 0
f 1/1/1 2/2/1 3/3/1
f 4/4/2 5/5/2 6/6/2
f 7/7/3 8/8/3 9/9/3
f 10/10/4 11/11/4 12/12/4
f 13/13/5 14/14/5 15/15/5
f 16/16/6 17/17/6 18/18/6
f 19/19/7 20/20/7 21/21/7
f 22/22/8 23/23/8 24/24/8
f 7/7/9 1/1/9 3/3/9 8/8/9
f 2/25/10 4/4/10 6/6/10 3/26/10
f 5/5/11 10/10/11 12/12/11 6/6/11
f 11/11/12 9/27/12 8/28/12 12/12/12
f 19/19/13 7/7/13 9/9/13 20/20/13
f 10/10/14 22/22/14 24/24/14 11/11/14
f 23/23/15 21/21/15 20/20/15 24/24/15
f 13/13/16 19/19/16 21/21/16 14/14/16
f 22/22/17 16/16/17 18/18/17 23/23/17
f 17/17/18 15/15/18 14/14/18 18/18/18
f 1/1/19 13/13/19 15/15/19 2/2/19
f 16/16/20 5/29/20 4/30/20 17/17/20
f 7/7/21 19/19/21 13/13/21 1/1/21
f 3/26/22 6/6/22 12/12/22 8/28/22
f 15/15/23 17/17/23 4/30/23 2/31/23
f 22/22/24 10/32/24 5/33/24 16/16/24
f 9/27/25 11/11/25 24/24/25 20/20/25
f 21/21/26 23/23/26 18/18/26 14/14/26
o Cylinder
v 0.000000 3.825469 -0.232296
v 0.000000 0.648496 -0.232296
v 0.045319 3.825469 -0.227832
v 0.045319 0.648496 -0.227832
v 0.088896 3.825469 -0.214613
v 0.088896 0.648496 -0.214613
v 0.129056 3.825469 -0.193147
v 0.129056 0.648496 -0.193147
v 0.164258 3.825469 -0.164258
v 0.164258 0.648496 -0.164258
v 0.193147 3.825469 -0.129056
v 0.193147 0.648496 -0.129056
v 0.214613 3.825469 -0.088896
v 0.214613 0.648496 -0.088896
v 0.227832 3.825469 -0.045319
v 0.227832 0.648496 -0.045319
v 0.232296 3.825469 0.000000
v 0.232296 0.648496 0.000000
v 0.227832 3.825469 0.045319
v 0.227832 0.648496 0.045319
v 0.214613 3.825469 0.088896
v 0.214613 0.648496 0.088896
v 0.193147 3.825469 0.129056
v 0.193147 0.648496 0.129056
v 0.164258 3.825469 0.164258
v 0.164258 0.648496 0.164258
v 0.129056 3.825469 0.193147
v 0.129056 0.648496 0.193147
v 0.088896 3.825469 0.214613
v 0.088896 0.648496 0.214613
v 0.045319 3.825469 0.227832
v 0.045319 0.648496 0.227832
v 0.000000 3.825469 0.232296
v 0.000000 0.648496 0.232296
v -0.045319 3.825469 0.227832
v -0.045319 0.648496 0.227832
v -0.088896 3.825469 0.214613
v -0.088896 0.648496 0.214613
v -0.129056 3.825469 0.193147
v -0.129056 0.648496 0.193147
v -0.164258 3.825469 0.164258
v -0.164258 0.648496 0.164258
v -0.193147 3.825469 0.129056
v -0.193147 0.648496 0.129056
v -0.214613 3.825469 0.088896
v -0.214613 0.648496 0.088896
v -0.227832 3.825469 0.045319
v -0.227832 0.648496 0.045319
v -0.232296 3.825469 0.000000
v -0.232296 0.648496 0.000000
v -0.227832 3.825469 -0.045319
v -0.227832 0.648496 -0.045319
v -0.214613 3.825469 -0.088896
v -0.214613 0.648496 -0.088896
v -0.193147 3.825469 -0.129056
v -0.193147 0.648496 -0.129056
v -0.164258 3.825469 -0.164258
v -0.164258 0.648496 -0.164258
v -0.129056 3.825469 -0.193147
v -0.129056 0.648496 -0.193147
v -0.088896 3.825469 -0.214613
v -0.088896 0.648496 -0.214613
v -0.045319 3.825469 -0.227832
v -0.045319 0.648496 -0.227832
vn 0.0980 -0.0000 -0.9952
vn 0.2903 -0.0000 -0.9569
vn 0.4714 -0.0000 -0.8819
vn 0.6344 -0.0000 -0.7730
vn 0.7730 -0.0000 -0.6344
vn 0.8819 -0.0000 -0.4714
vn 0.9569 -0.0000 -0.2903
vn 0.9952 -0.0000 -0.0980
vn 0.9952 -0.0000 0.0980
vn 0.9569 -0.0000 0.2903
vn 0.8819 -0.0000 0.4714
vn 0.7730 -0.0000 0.6344
vn 0.6344 -0.0000 0.7730
vn 0.4714 -0.0000 0.8819
vn 0.2903 -0.0000 0.9569
vn 0.0980 -0.0000 0.9952
vn -0.0980 -0.0000 0.9952
vn -0.2903 -0.0000 0.9569
vn -0.4714 -0.0000 0.8819
vn -0.6344 -0.0000 0.7730
vn -0.7730 -0.0000 0.6344
vn -0.8819 -0.0000 0.4714
vn -0.9569 -0.0000 0.2903
vn -0.9952 -0.0000 0.0980
vn -0.9952 -0.0000 -0.0980
vn -0.9569 -0.0000 -0.2903
vn -0.8819 -0.0000 -0.4714
vn -0.7730 -0.0000 -0.6344
vn -0.6344 -0.0000 -0.7730
vn -0.4714 -0.0000 -0.8819
vn -0.0000 -1.0000 -0.0000
vn -0.2903 -0.0000 -0.9569
vn -0.0980 -0.0000 -0.9952
vn -0.0000 1.0000 -0.0000
vt 1.000000 0.500000
vt 0.968750 0.500000
vt 0.968750 1.000000
vt 1.000000 1.000000
vt 0.937500 0.500000
vt 0.937500 1.000000
vt 0.906250 0.500000
vt 0.906250 1.000000
vt 0.875000 0.500000
vt 0.875000 1.000000
vt 0.843750 0.500000
vt 0.843750 1.000000
vt 0.812500 0.500000
vt 0.812500 1.000000
vt 0.781250 0.500000
vt 0.781250 1.000000
vt 0.750000 0.500000
vt 0.750000 1.000000
vt 0.718750 0.500000
vt 0.718750 1.000000
vt 0.687500 0.500000
vt 0.687500 1.000000
vt 0.656250 0.500000
vt 0.656250 1.000000
vt 0.625000 0.500000
vt 0.625000 1.000000
vt 0.593750 0.500000
vt 0.593750 1.000000
vt 0.562500 0.500000
vt 0.562500 1.000000
vt 0.531250 0.500000
vt 0.531250 1.000000
vt 0.500000 0.500000
vt 0.500000 1.000000
vt 0.468750 0.500000
vt 0.468750 1.000000
vt 0.437500 0.500000
vt 0.437500 1.000000
vt 0.406250 0.500000
vt 0.406250 1.000000
vt 0.375000 0.500000
vt 0.375000 1.000000
vt 0.343750 0.500000
vt 0.343750 1.000000
vt 0.312500 0.500000
vt 0.312500 1.000000
vt 0.281250 0.500000
vt 0.281250 1.000000
vt 0.250000 0.500000
vt 0.250000 1.000000
vt 0.218750 0.500000
vt 0.218750 1.000000
vt 0.187500 0.500000
vt 0.187500 1.000000
vt 0.156250 0.500000
vt 0.156250 1.000000
vt 0.125000 0.500000
vt 0.125000 1.000000
vt 0.093750 0.500000
vt 0.093750 1.000000
vt 0.062500 0.500000
vt 0.062500 1.000000
vt 0.296822 0.485388
vt 0.341844 0.471731
vt 0.383337 0.449553
vt 0.419706 0.419706
vt 0.449553 0.383337
vt 0.471731 0.341844
vt 0.485388 0.296822
vt 0.490000 0.250000
vt 0.485388 0.203178
vt 0.471731 0.158156
vt 0.449553 0.116663
vt 0.419706 0.080294
vt 0.383337 0.050447
vt 0.341844 0.028269
vt 0.296822 0.014612
vt 0.250000 0.010000
vt 0.203178 0.014612
vt 0.158156 0.028269
vt 0.116663 0.050447
vt 0.080294 0.080294
vt 0.050447 0.116663
vt 0.028269 0.158156
vt 0.014612 0.203178
vt 0.010000 0.250000
vt 0.014612 0.296822
vt 0.028269 0.341844
vt 0.050447 0.383337
vt 0.080294 0.419706
vt 0.116663 0.449553
vt 0.158156 0.471731
vt 0.203178 0.485388
vt 0.250000 0.490000
vt 0.031250 0.500000
vt 0.031250 1.000000
vt 0.000000 0.500000
vt 0.000000 1.000000
vt 0.750000 0.490000
vt 0.703178 0.485388
vt 0.658156 0.471731
vt 0.616663 0.449553
vt 0.580294 0.419706
vt 0.550447 0.383337
vt 0.528269 0.341844
vt 0.514612 0.296822
vt 0.510000 0.250000
vt 0.514612 0.203178
vt 0.528269 0.158156
vt 0.550447 0.116663
vt 0.580294 0.080294
vt 0.616663 0.050447
vt 0.658156 0.028269
vt 0.703178 0.014612
vt 0.750000 0.010000
vt 0.796822 0.014612
vt 0.841844 0.028269
vt 0.883337 0.050447
vt 0.919706 0.080294
vt 0.949553 0.116663
vt 0.971731 0.158156
vt 0.985388 0.203178
vt 0.990000 0.250000
vt 0.985388 0.296822
vt 0.971731 0.341844
vt 0.949553 0.383337
vt 0.919706 0.419706
vt 0.883337 0.449553
vt 0.841844 0.471731
vt 0.796822 0.485388
s 0
f 25/34/27 27/35/27 28/36/27 26/37/27
f 27/35/28 29/38/28 30/39/28 28/36/28
f 29/38/29 31/40/29 32/41/29 30/39/29
f 31/40/30 33/42/30 34/43/30 32/41/30
f 33/42/31 35/44/31 36/45/31 34/43/31
f 35/44/32 37/46/32 38/47/32 36/45/32
f 37/46/33 39/48/33 40/49/33 38/47/33
f 39/48/34 41/50/34 42/51/34 40/49/34
f 41/50/35 43/52/35 44/53/35 42/51/35
f 43/52/36 45/54/36 46/55/36 44/53/36
f 45/54/37 47/56/37 48/57/37 46/55/37
f 47/56/38 49/58/38 50/59/38 48/57/38
f 49/58/39 51/60/39 52/61/39 50/59/39
f 51/60/40 53/62/40 54/63/40 52/61/40
f 53/62/41 55/64/41 56/65/41 54/63/41
f 55/64/42 57/66/42 58/67/42 56/65/42
f 57/66/43 59/68/43 60/69/43 58/67/43
f 59/68/44 61/70/44 62/71/44 60/69/44
f 61/70/45 63/72/45 64/73/45 62/71/45
f 63/72/46 65/74/46 66/75/46 64/73/46
f 65/74/47 67/76/47 68/77/47 66/75/47
f 67/76/48 69/78/48 70/79/48 68/77/48
f 69/78/49 71/80/49 72/81/49 70/79/49
f 71/80/50 73/82/50 74/83/50 72/81/50
f 73/82/51 75/84/51 76/85/51 74/83/51
f 75/84/52 77/86/52 78/87/52 76/85/52
f 77/86/53 79/88/53 80/89/53 78/87/53
f 79/88/54 81/90/54 82/91/54 80/89/54
f 81/90/55 83/92/55 84/93/55 82/91/55
f 83/92/56 85/94/56 86/95/56 84/93/56
f 28/96/57 30/97/57 32/98/57 34/99/57 36/100/57 38/101/57 40/102/57 42/103/57 44/104/57 46/105/57 48/106/57 50/107/57 52/108/57 54/109/57 56/110/57 58/111/57 60/112/57 62/113/57 64/114/57 66/115/57 68/116/57 70/117/57 72/118/57 74/119/57 76/120/57 78/121/57 80/122/57 82/123/57 84/124/57 86/125/57 88/126/57 26/127/57
f 85/94/58 87/128/58 88/129/58 86/95/58
f 87/128/59 25/130/59 26/131/59 88/129/59
f 25/132/60 87/133/60 85/134/60 83/135/60 81/136/60 79/137/60 77/138/60 75/139/60 73/140/60 71/141/60 69/142/60 67/143/60 65/144/60 63/145/60 61/146/60 59/147/60 57/148/60 55/149/60 53/150/60 51/151/60 49/152/60 47/153/60 45/154/60 43/155/60 41/156/60 39/157/60 37/158/60 35/159/60 33/160/60 31/161/60 29/162/60 27/163/60
o Cube
v -2.173155 0.561753 0.221052
v -2.173155 0.769887 0.221052
v -2.173155 0.561753 -0.221052
v -2.173155 0.769887 -0.221052
v 2.173155 0.561753 0.221052
v 2.173155 0.769887 0.221052
v 2.173155 0.561753 -0.221052
v 2.173155 0.769887 -0.221052
vn -1.0000 -0.0000 -0.0000
vn -0.0000 -0.0000 -1.0000
vn 1.0000 -0.0000 -0.0000
vn -0.0000 -0.0000 1.0000
vn -0.0000 -1.0000 -0.0000
vn -0.0000 1.0000 -0.0000
vt 0.375000 0.000000
vt 0.625000 0.000000
vt 0.625000 0.250000
vt 0.375000 0.250000
vt 0.625000 0.500000
vt 0.375000 0.500000
vt 0.625000 0.750000
vt 0.375000 0.750000
vt 0.625000 1.000000
vt 0.375000 1.000000
vt 0.125000 0.500000
vt 0.125000 0.750000
vt 0.875000 0.500000
vt 0.875000 0.750000
s 0
f 89/164/61 90/165/61 92/166/61 91/167/61
f 91/167/62 92/166/62 96/168/62 95/169/62
f 95/169/63 96/168/63 94/170/63 93/171/63
f 93/171/64 94/170/64 90/172/64 89/173/64
f 91/174/65 95/169/65 93/171/65 89/175/65
f 96/168/66 92/176/66 90/177/66 94/170/66
o Cube.002
v 0.221052 0.561753 2.173155
v 0.221052 0.769887 2.173155
v -0.221052 0.561753 2.173155
v -0.221052 0.769887 2.173155
v 0.221052 0.561753 -2.173155
v 0.221052 0.769887 -2.173155
v -0.221052 0.561753 -2.173155
v -0.221052 0.769887 -2.173155
vn -0.0000 -0.0000 1.0000
vn -1.0000 -0.0000 -0.0000
vn -0.0000 -0.0000 -1.0000
vn 1.0000 -0.0000 -0.0000
vn -0.0000 -1.0000 -0.0000
vn -0.0000 1.0000 -0.0000
vt 0.375000 0.000000
vt 0.625000 0.000000
vt 0.625000 0.250000
vt 0.375000 0.250000
vt 0.625000 0.500000
vt 0.375000 0.500000
vt 0.625000 0.750000
vt 0.375000 0.750000
vt 0.625000 1.000000
vt 0.375000 1.000000
vt 0.125000 0.500000
vt 0.125000 0.750000
vt 0.875000 0.500000
vt 0.875000 0.750000
s 0
f 97/178/67 98/179/67 100/180/67 99/181/67
f 99/181/68 100/180/68 104/182/68 103/183/68
f 103/183/69 104/182/69 102/184/69 101/185/69
f 101/185/70 102/184/70 98/186/70 97/187/70
f 99/188/71 103/183/71 101/185/71 97/189/71
f 104/182/72 100/190/72 98/191/72 102/184/72
