# Blender 5.1.2
# www.blender.org
mtllib MesinKasir.mtl
o Cube.004
v -18.828699 53.327797 74.226395
v -18.828699 61.878052 74.226395
v -18.828699 53.327797 12.964037
v -18.828699 61.878052 12.964037
v 22.545221 53.327797 74.226395
v 22.545221 61.878052 74.226395
v 22.545221 53.327797 12.964037
v 22.545221 61.878052 12.964037
vn -1.0000 -0.0000 -0.0000
vn -0.0000 -0.0000 -1.0000
vn 1.0000 -0.0000 -0.0000
vn -0.0000 -0.0000 1.0000
vn -0.0000 -1.0000 -0.0000
vn -0.0000 1.0000 -0.0000
vt 0.625000 0.000000
vt 0.375000 0.250000
vt 0.375000 0.000000
vt 0.625000 0.250000
vt 0.375000 0.500000
vt 0.625000 0.500000
vt 0.375000 0.750000
vt 0.625000 0.750000
vt 0.375000 1.000000
vt 0.125000 0.750000
vt 0.125000 0.500000
vt 0.875000 0.500000
vt 0.625000 1.000000
vt 0.875000 0.750000
s 0
f 2/1/1 3/2/1 1/3/1
f 4/4/2 7/5/2 3/2/2
f 8/6/3 5/7/3 7/5/3
f 6/8/4 1/9/4 5/7/4
f 7/5/5 1/10/5 3/11/5
f 4/12/6 6/8/6 8/6/6
f 2/1/1 4/4/1 3/2/1
f 4/4/2 8/6/2 7/5/2
f 8/6/3 6/8/3 5/7/3
f 6/8/4 2/13/4 1/9/4
f 7/5/5 5/7/5 1/10/5
f 4/12/6 2/14/6 6/8/6
o Cube.006
v -14.644529 74.652946 61.986374
v 2.400229 62.269207 61.986374
v -15.820100 73.034912 61.986374
v 1.224658 60.651173 61.986374
v -14.644530 74.652946 35.862770
v 2.400228 62.269207 35.862770
v -15.820101 73.034912 35.862770
v 1.224657 60.651173 35.862770
vn -0.0000 -0.0000 1.0000
vn -0.5878 -0.8090 -0.0000
vn -0.0000 -0.0000 -1.0000
vn 0.5878 0.8090 -0.0000
vn -0.8090 0.5878 -0.0000
vn 0.8090 -0.5878 -0.0000
vt 0.625000 0.000000
vt 0.375000 0.250000
vt 0.375000 0.000000
vt 0.625000 0.250000
vt 0.375000 0.500000
vt 0.625000 0.500000
vt 0.375000 0.750000
vt 0.625000 0.750000
vt 0.375000 1.000000
vt 0.125000 0.750000
vt 0.125000 0.500000
vt 0.875000 0.500000
vt 0.625000 1.000000
vt 0.875000 0.750000
s 0
f 10/15/7 9/17/7 11/16/7
f 12/18/8 11/16/8 15/19/8
f 16/20/9 15/19/9 13/21/9
f 14/22/10 13/21/10 9/23/10
f 15/19/11 11/25/11 9/24/11
f 12/26/12 16/20/12 14/22/12
f 10/15/7 11/16/7 12/18/7
f 12/18/8 15/19/8 16/20/8
f 16/20/9 13/21/9 14/22/9
f 14/22/10 9/23/10 10/27/10
f 15/19/11 9/24/11 13/21/11
f 12/26/12 14/22/12 10/28/12
o Cube.007
v -8.277149 61.277275 51.666523
v -8.277149 66.029533 51.666523
v -8.277149 61.277275 46.914265
v -8.277149 66.029533 46.914265
v -3.524893 61.277275 51.666523
v -3.524893 66.029533 51.666523
v -3.524893 61.277275 46.914265
v -3.524893 66.029533 46.914265
vn -1.0000 -0.0000 -0.0000
vn -0.0000 -0.0000 -1.0000
vn 1.0000 -0.0000 -0.0000
vn -0.0000 -0.0000 1.0000
vn -0.0000 -1.0000 -0.0000
vn -0.0000 1.0000 -0.0000
vt 0.625000 0.000000
vt 0.375000 0.250000
vt 0.375000 0.000000
vt 0.625000 0.250000
vt 0.375000 0.500000
vt 0.625000 0.500000
vt 0.375000 0.750000
vt 0.625000 0.750000
vt 0.375000 1.000000
vt 0.125000 0.750000
vt 0.125000 0.500000
vt 0.875000 0.500000
vt 0.625000 1.000000
vt 0.875000 0.750000
s 0
f 18/29/13 19/30/13 17/31/13
f 20/32/14 23/33/14 19/30/14
f 24/34/15 21/35/15 23/33/15
f 22/36/16 17/37/16 21/35/16
f 23/33/17 17/38/17 19/39/17
f 20/40/18 22/36/18 24/34/18
f 18/29/13 20/32/13 19/30/13
f 20/32/14 24/34/14 23/33/14
f 24/34/15 22/36/15 21/35/15
f 22/36/16 18/41/16 17/37/16
f 23/33/17 21/35/17 17/38/17
f 20/40/18 18/42/18 22/36/18
