# Blender 5.1.2
# www.blender.org
mtllib OvenMaybe.mtl
o Cube.002
v -37.379227 50.090313 -46.978416
v -37.379227 53.315338 -41.626717
v -41.510139 53.315338 -46.978416
v -37.379227 77.183395 -41.626717
v -37.379227 80.408424 -46.978416
v -41.510139 77.183395 -46.978416
v -37.379227 50.090313 -86.585777
v -41.510139 53.315338 -86.585777
v -37.379227 53.315338 -91.937477
v -37.379227 80.408424 -86.585777
v -37.379227 77.183395 -91.937477
v -41.510139 77.183395 -86.585777
v -6.806817 50.090313 -46.978416
v -2.675905 53.315338 -46.978416
v -6.806817 53.315338 -41.626717
v -6.806817 80.408424 -46.978416
v -6.806817 77.183395 -41.626717
v -2.675905 77.183395 -46.978416
v -6.806817 50.090313 -86.585777
v -6.806817 53.315338 -91.937477
v -2.675905 53.315338 -86.585777
v -6.806817 80.408424 -86.585777
v -2.675905 77.183395 -86.585777
v -6.806817 77.183395 -91.937477
vn -0.5559 -0.7120 0.4291
vn -0.5559 0.7120 0.4291
vn -0.5559 -0.7120 -0.4291
vn -0.5559 0.7120 -0.4291
vn 0.5559 -0.7120 0.4291
vn 0.5559 0.7120 0.4291
vn 0.5559 -0.7120 -0.4291
vn 0.5559 0.7120 -0.4291
vn -0.6154 -0.7882 -0.0000
vn -0.7916 -0.0000 0.6110
vn -0.6154 0.7882 -0.0000
vn -0.7916 -0.0000 -0.6110
vn -0.0000 -0.8565 -0.5161
vn -0.0000 0.8565 -0.5161
vn 0.7916 -0.0000 -0.6110
vn 0.6154 -0.7882 -0.0000
vn 0.6154 0.7882 -0.0000
vn 0.7916 -0.0000 0.6110
vn -0.0000 -0.8565 0.5161
vn -0.0000 0.8565 0.5161
vn -0.0000 -1.0000 -0.0000
vn -1.0000 -0.0000 -0.0000
vn -0.0000 -0.0000 1.0000
vn -0.0000 1.0000 -0.0000
vn -0.0000 -0.0000 -1.0000
vn 1.0000 -0.0000 -0.0000
vt 0.151593 0.723407
vt 0.151593 0.750000
vt 0.125000 0.723407
vt 0.598407 0.000000
vt 0.625000 0.026593
vt 0.598407 0.026593
vt 0.151593 0.526593
vt 0.125000 0.526593
vt 0.151593 0.500000
vt 0.625000 0.241136
vt 0.598407 0.269945
vt 0.598407 0.223407
vt 0.348407 0.723407
vt 0.394945 0.723407
vt 0.375000 0.763297
vt 0.638297 0.750000
vt 0.598407 0.776593
vt 0.598407 0.730055
vt 0.348407 0.526593
vt 0.375000 0.486703
vt 0.394945 0.526593
vt 0.638297 0.500000
vt 0.598407 0.519945
vt 0.598407 0.473407
vt 0.401593 0.026593
vt 0.401593 0.000000
vt 0.401593 0.276593
vt 0.625000 0.973407
vt 0.401593 0.223407
vt 0.401593 0.973407
vt 0.848407 0.526593
vt 0.598407 0.973407
vt 0.848407 0.723407
s 0
f 1/1/1 2/2/1 3/3/1
f 4/4/2 5/5/2 6/6/2
f 7/7/3 8/8/3 9/9/3
f 10/10/4 11/11/4 12/12/4
f 13/13/5 14/14/5 15/15/5
f 16/16/6 17/17/6 18/18/6
f 19/19/7 20/20/7 21/21/7
f 22/22/8 23/23/8 24/24/8
f 1/1/9 8/8/9 7/7/9
f 4/4/10 3/25/10 2/26/10
f 10/10/11 6/6/11 5/5/11
f 9/27/12 12/12/12 11/11/12
f 7/7/13 20/20/13 19/19/13
f 22/22/14 11/11/14 10/10/14
f 21/21/15 24/24/15 23/23/15
f 19/19/16 14/14/16 13/13/16
f 16/16/17 23/23/17 22/22/17
f 15/15/18 18/18/18 17/17/18
f 13/13/19 2/2/19 1/1/19
f 5/28/20 17/17/20 16/16/20
f 19/19/21 1/1/21 7/7/21
f 6/6/22 8/29/22 3/25/22
f 17/17/23 2/30/23 15/15/23
f 10/31/24 16/16/24 22/22/24
f 11/11/25 20/20/25 9/27/25
f 23/23/26 14/14/26 21/21/26
f 1/1/9 3/3/9 8/8/9
f 4/4/10 6/6/10 3/25/10
f 10/10/11 12/12/11 6/6/11
f 9/27/12 8/29/12 12/12/12
f 7/7/13 9/9/13 20/20/13
f 22/22/14 24/24/14 11/11/14
f 21/21/15 20/20/15 24/24/15
f 19/19/16 21/21/16 14/14/16
f 16/16/17 18/18/17 23/23/17
f 15/15/18 14/14/18 18/18/18
f 13/13/19 15/15/19 2/2/19
f 5/28/20 4/32/20 17/17/20
f 19/19/21 13/13/21 1/1/21
f 6/6/22 12/12/22 8/29/22
f 17/17/23 4/32/23 2/30/23
f 10/31/24 5/33/24 16/16/24
f 11/11/25 24/24/25 20/20/25
f 23/23/26 18/18/26 14/14/26
