# Blender 5.2.0 LTS
# www.blender.org
mtllib PillarLuar.mtl
o Cube.046
v -34.705032 -0.054850 -118.645706
v -34.705032 10.093087 -118.645706
v -34.705032 -0.054850 -120.085449
v -34.705032 10.093087 -120.085449
v -32.260170 -0.054850 -118.645706
v -32.260170 10.093087 -118.645706
v -32.260170 -0.054850 -120.085449
v -32.260170 10.093087 -120.085449
v -34.705032 11.760132 -118.645706
v -34.705032 11.760132 -120.085449
v -32.260170 11.760132 -120.085449
v -32.260170 11.760132 -118.645706
v -32.260166 10.093087 -93.056236
v -34.705025 10.093087 -93.056236
v -32.260166 11.760132 -93.056236
v -34.705025 11.760132 -93.056236
v -32.260170 11.760132 -105.850967
v -32.260170 10.093087 -105.850967
v -34.705029 11.760132 -105.850967
v -34.705029 10.093087 -105.850967
v -32.260170 10.093087 -107.648705
v -34.705029 10.093087 -107.648705
v -32.260170 11.760132 -107.648705
v -34.705029 11.760132 -107.648705
v 5.785431 11.760132 -107.648712
v 5.785431 11.760132 -105.850975
v 5.785431 10.093087 -105.850975
v 5.785431 10.093087 -107.648712
v -14.142273 11.760132 -105.850975
v -14.142273 11.760132 -107.648705
v -14.142273 10.093087 -105.850975
v -14.142273 10.093087 -107.648705
v -16.443295 11.760132 -107.648705
v -16.443295 10.093087 -107.648705
v -16.443295 11.760132 -105.850975
v -16.443295 10.093087 -105.850975
v -16.443295 -0.146636 -105.850975
v -14.142273 -0.146636 -105.850975
v -14.142273 -0.146636 -107.648705
v -16.443295 -0.146636 -107.648705
v -32.260166 11.760132 -95.060745
v -34.705025 11.760132 -95.060745
v -32.260166 10.093087 -95.060745
v -34.705025 10.093087 -95.060745
v 9.226902 11.760132 -93.056244
v 9.226902 10.093087 -93.056244
v 9.226902 11.760132 -95.060753
v 9.226902 10.093087 -95.060753
v -32.260166 11.760132 -93.056236
v -32.260166 10.093087 -93.056236
v 9.226902 11.760132 -93.056244
v 9.226902 10.093087 -93.056244
v -37.488796 10.093087 -93.056236
v -37.488796 11.760132 -93.056236
v -37.488796 11.760132 -95.060745
v -37.488800 11.760132 -107.648697
v -37.488800 11.760132 -105.850967
v -37.488796 10.093087 -95.060745
v -37.488800 10.093087 -105.850967
v -37.488800 10.093087 -107.648697
v -32.260166 10.093087 -90.781487
v -34.705025 10.093087 -90.781487
v -32.260166 11.760132 -90.781487
v -34.705025 11.760132 -90.781487
v -37.488796 10.093087 -90.781487
v -37.488796 11.760132 -90.781487
v -32.260166 11.760132 -90.781487
v -32.260166 10.093087 -90.781487
v 9.226902 11.760132 -90.781494
v 9.226902 10.093087 -90.781494
v -32.260166 13.477041 -93.056236
v -34.705025 13.477041 -93.056236
v -34.705025 13.477041 -90.781487
v -37.488796 13.477041 -93.056236
v -32.260166 13.477041 -93.056236
v 9.226902 13.477041 -93.056244
v -32.260166 13.477041 -90.781487
v -37.488796 13.477041 -90.781487
v -32.260166 13.477041 -90.781487
v 9.226902 13.477041 -90.781494
vn -1.0000 -0.0000 -0.0000
vn -0.0000 -0.0000 -1.0000
vn 1.0000 -0.0000 -0.0000
vn -0.0000 -0.0000 1.0000
vn -0.0000 -1.0000 -0.0000
vn -0.0000 1.0000 -0.0000
vt 0.625000 0.000000
vt 0.375000 0.250000
vt 0.375000 0.000000
vt 0.625000 0.250000
vt 0.375000 0.500000
vt 0.625000 0.500000
vt 0.375000 0.750000
vt 0.625000 0.750000
vt 0.375000 1.000000
vt 0.125000 0.750000
vt 0.125000 0.500000
vt 0.875000 0.500000
vt 0.625000 0.750000
vt 0.875000 0.750000
vt 0.625000 1.000000
s 0
f 2/1/1 3/2/1 1/3/1
f 4/4/2 7/5/2 3/2/2
f 8/6/3 5/7/3 7/5/3
f 6/8/4 1/9/4 5/7/4
f 7/5/5 1/10/5 3/11/5
f 8/6/3 12/8/3 6/8/3
f 10/12/6 12/8/6 11/6/6
f 2/1/1 10/4/1 4/4/1
f 15/8/6 47/13/6 41/13/6
f 4/4/2 11/6/2 8/6/2
f 53/1/1 66/1/1 54/1/1
f 42/14/6 15/8/6 41/13/6
f 43/8/5 14/15/5 44/15/5
f 24/14/6 57/14/6 19/14/6
f 22/1/2 56/1/2 24/1/2
f 21/8/5 20/15/5 22/15/5
f 24/14/6 17/8/6 23/13/6
f 29/8/6 25/13/6 30/13/6
f 12/8/3 21/8/3 6/8/3
f 9/14/6 23/13/6 12/8/6
f 6/8/5 22/15/5 2/15/5
f 2/1/1 24/1/1 9/1/1
f 25/13/3 27/8/3 28/8/3
f 31/8/4 26/8/4 29/8/4
f 30/13/2 28/8/2 32/8/2
f 32/8/5 27/8/5 31/8/5
f 36/8/4 38/8/4 31/8/4
f 33/13/2 32/8/2 34/8/2
f 36/8/4 29/8/4 35/8/4
f 35/8/6 30/13/6 33/13/6
f 17/8/6 33/13/6 23/13/6
f 18/8/4 35/8/4 17/8/4
f 23/13/2 34/8/2 21/8/2
f 21/8/5 36/8/5 18/8/5
f 40/8/5 38/8/5 37/8/5
f 32/8/2 40/8/2 34/8/2
f 31/8/3 39/8/3 32/8/3
f 34/8/1 37/8/1 36/8/1
f 51/8/3 70/8/3 52/8/3
f 18/8/5 44/15/5 20/15/5
f 19/14/6 41/13/6 17/8/6
f 17/8/3 43/8/3 18/8/3
f 47/13/3 46/8/3 48/8/3
f 13/8/6 52/8/6 50/8/6
f 43/8/5 46/8/5 13/8/5
f 41/13/2 48/8/2 43/8/2
f 67/8/1 75/8/1 49/8/1
f 15/8/6 50/8/6 49/8/6
f 45/8/6 49/8/6 51/8/6
f 46/8/6 51/8/6 52/8/6
f 58/1/1 54/1/1 55/1/1
f 60/1/1 57/1/1 56/1/1
f 59/1/1 55/1/1 57/1/1
f 20/15/5 60/15/5 22/15/5
f 42/14/6 54/14/6 16/14/6
f 14/15/5 58/15/5 44/15/5
f 19/14/6 55/14/6 42/14/6
f 44/15/5 59/15/5 20/15/5
f 61/8/4 64/15/4 62/15/4
f 64/15/4 65/15/4 62/15/4
f 68/8/4 69/8/4 67/8/4
f 14/15/5 65/15/5 53/15/5
f 15/8/3 61/8/3 13/8/3
f 15/8/3 77/8/3 63/8/3
f 16/14/2 71/8/2 15/8/2
f 13/8/5 62/15/5 14/15/5
f 52/8/5 68/8/5 50/8/5
f 50/8/1 67/8/1 49/8/1
f 72/14/6 77/8/6 71/8/6
f 74/14/6 73/14/6 72/14/6
f 75/8/6 80/8/6 76/8/6
f 63/8/4 73/15/4 64/15/4
f 69/8/4 79/8/4 67/8/4
f 66/1/1 74/1/1 54/1/1
f 54/14/2 72/14/2 16/14/2
f 64/15/4 78/15/4 66/15/4
f 51/8/3 80/8/3 69/8/3
f 49/8/2 76/8/2 51/8/2
f 2/1/1 4/4/1 3/2/1
f 4/4/2 8/6/2 7/5/2
f 8/6/3 6/8/3 5/7/3
f 6/8/4 2/15/4 1/9/4
f 7/5/5 5/7/5 1/10/5
f 8/6/3 11/6/3 12/8/3
f 10/12/6 9/14/6 12/8/6
f 2/1/1 9/1/1 10/4/1
f 15/8/6 45/8/6 47/13/6
f 4/4/2 10/4/2 11/6/2
f 53/1/1 65/1/1 66/1/1
f 42/14/6 16/14/6 15/8/6
f 43/8/5 13/8/5 14/15/5
f 24/14/6 56/14/6 57/14/6
f 22/1/2 60/1/2 56/1/2
f 21/8/5 18/8/5 20/15/5
f 24/14/6 19/14/6 17/8/6
f 29/8/6 26/8/6 25/13/6
f 12/8/3 23/13/3 21/8/3
f 9/14/6 24/14/6 23/13/6
f 6/8/5 21/8/5 22/15/5
f 2/1/1 22/1/1 24/1/1
f 25/13/3 26/8/3 27/8/3
f 31/8/4 27/8/4 26/8/4
f 30/13/2 25/13/2 28/8/2
f 32/8/5 28/8/5 27/8/5
f 36/8/4 37/8/4 38/8/4
f 33/13/2 30/13/2 32/8/2
f 36/8/4 31/8/4 29/8/4
f 35/8/6 29/8/6 30/13/6
f 17/8/6 35/8/6 33/13/6
f 18/8/4 36/8/4 35/8/4
f 23/13/2 33/13/2 34/8/2
f 21/8/5 34/8/5 36/8/5
f 40/8/5 39/8/5 38/8/5
f 32/8/2 39/8/2 40/8/2
f 31/8/3 38/8/3 39/8/3
f 34/8/1 40/8/1 37/8/1
f 51/8/3 69/8/3 70/8/3
f 18/8/5 43/8/5 44/15/5
f 19/14/6 42/14/6 41/13/6
f 17/8/3 41/13/3 43/8/3
f 47/13/3 45/8/3 46/8/3
f 13/8/6 46/8/6 52/8/6
f 43/8/5 48/8/5 46/8/5
f 41/13/2 47/13/2 48/8/2
f 67/8/1 79/8/1 75/8/1
f 15/8/6 13/8/6 50/8/6
f 45/8/6 15/8/6 49/8/6
f 46/8/6 45/8/6 51/8/6
f 58/1/1 53/1/1 54/1/1
f 60/1/1 59/1/1 57/1/1
f 59/1/1 58/1/1 55/1/1
f 20/15/5 59/15/5 60/15/5
f 42/14/6 55/14/6 54/14/6
f 14/15/5 53/15/5 58/15/5
f 19/14/6 57/14/6 55/14/6
f 44/15/5 58/15/5 59/15/5
f 61/8/4 63/8/4 64/15/4
f 64/15/4 66/15/4 65/15/4
f 68/8/4 70/8/4 69/8/4
f 14/15/5 62/15/5 65/15/5
f 15/8/3 63/8/3 61/8/3
f 15/8/3 71/8/3 77/8/3
f 16/14/2 72/14/2 71/8/2
f 13/8/5 61/8/5 62/15/5
f 52/8/5 70/8/5 68/8/5
f 50/8/1 68/8/1 67/8/1
f 72/14/6 73/14/6 77/8/6
f 74/14/6 78/14/6 73/14/6
f 75/8/6 79/8/6 80/8/6
f 63/8/4 77/8/4 73/15/4
f 69/8/4 80/8/4 79/8/4
f 66/1/1 78/1/1 74/1/1
f 54/14/2 74/14/2 72/14/2
f 64/15/4 73/15/4 78/15/4
f 51/8/3 76/8/3 80/8/3
f 49/8/2 75/8/2 76/8/2
o Cube.047
v -16.360222 -0.054850 -118.645706
v -16.360222 10.093087 -118.645706
v -16.360222 -0.054850 -120.085449
v -16.360222 10.093087 -120.085449
v -13.915362 -0.054850 -118.645706
v -13.915362 10.093087 -118.645706
v -13.915363 -0.054850 -120.085449
v -13.915363 10.093087 -120.085449
v -16.360222 11.760132 -118.645706
v -16.360222 11.760132 -120.085449
v -13.915363 11.760132 -120.085449
v -13.915362 11.760132 -118.645706
v -32.269085 10.093087 -118.645706
v -32.269085 10.093087 -120.085449
v -32.269085 11.760132 -118.645706
v -32.269085 11.760132 -120.085449
vn -1.0000 -0.0000 -0.0000
vn -0.0000 -0.0000 -1.0000
vn 1.0000 -0.0000 -0.0000
vn -0.0000 -0.0000 1.0000
vn -0.0000 -1.0000 -0.0000
vn -0.0000 1.0000 -0.0000
vt 0.625000 0.000000
vt 0.375000 0.250000
vt 0.375000 0.000000
vt 0.625000 0.250000
vt 0.375000 0.500000
vt 0.625000 0.500000
vt 0.375000 0.750000
vt 0.625000 0.750000
vt 0.375000 1.000000
vt 0.125000 0.750000
vt 0.125000 0.500000
vt 0.875000 0.500000
vt 0.625000 1.000000
vt 0.875000 0.750000
s 0
f 82/16/7 83/17/7 81/18/7
f 84/19/8 87/20/8 83/17/8
f 88/21/9 85/22/9 87/20/9
f 86/23/10 81/24/10 85/22/10
f 87/20/11 81/25/11 83/26/11
f 88/21/9 92/23/9 86/23/9
f 90/27/12 92/23/12 91/21/12
f 84/19/8 96/19/8 90/19/8
f 86/23/10 89/28/10 82/28/10
f 84/19/8 91/21/8 88/21/8
f 93/16/7 96/19/7 94/19/7
f 82/16/11 94/19/11 84/19/11
f 89/28/10 93/28/10 82/28/10
f 90/27/12 95/29/12 89/29/12
f 82/16/7 84/19/7 83/17/7
f 84/19/8 88/21/8 87/20/8
f 88/21/9 86/23/9 85/22/9
f 86/23/10 82/28/10 81/24/10
f 87/20/11 85/22/11 81/25/11
f 88/21/9 91/21/9 92/23/9
f 90/27/12 89/29/12 92/23/12
f 84/19/8 94/19/8 96/19/8
f 86/23/10 92/23/10 89/28/10
f 84/19/8 90/19/8 91/21/8
f 93/16/7 95/16/7 96/19/7
f 82/16/11 93/16/11 94/19/11
f 89/28/10 95/28/10 93/28/10
f 90/27/12 96/27/12 95/29/12
o Cube.048
v 5.746924 -0.054850 -118.645706
v 5.746924 10.093087 -118.645706
v 5.746924 -0.054850 -120.085449
v 5.746924 10.093087 -120.085449
v 8.191784 -0.054850 -118.645706
v 8.191784 10.093087 -118.645706
v 8.191783 -0.054850 -120.085449
v 8.191783 10.093087 -120.085449
v 5.746924 11.760132 -118.645706
v 5.746924 11.760132 -120.085449
v 8.191783 11.760132 -120.085449
v 8.191784 11.760132 -118.645706
v -10.161939 10.093087 -118.645706
v -10.161939 10.093087 -120.085449
v -10.161939 11.760132 -118.645706
v -10.161939 11.760132 -120.085449
v -14.017362 10.093087 -118.645706
v -14.017362 10.093087 -120.085449
v -14.017362 11.760132 -118.645706
v -14.017362 11.760132 -120.085449
vn -1.0000 -0.0000 -0.0000
vn -0.0000 -0.0000 -1.0000
vn 1.0000 -0.0000 -0.0000
vn -0.0000 -0.0000 1.0000
vn -0.0000 -1.0000 -0.0000
vn -0.0000 1.0000 -0.0000
vt 0.625000 0.000000
vt 0.375000 0.250000
vt 0.375000 0.000000
vt 0.625000 0.250000
vt 0.375000 0.500000
vt 0.625000 0.500000
vt 0.375000 0.750000
vt 0.625000 0.750000
vt 0.375000 1.000000
vt 0.125000 0.750000
vt 0.125000 0.500000
vt 0.875000 0.500000
vt 0.625000 1.000000
vt 0.875000 0.750000
s 0
f 98/30/13 99/31/13 97/32/13
f 100/33/14 103/34/14 99/31/14
f 104/35/15 101/36/15 103/34/15
f 102/37/16 97/38/16 101/36/16
f 103/34/17 97/39/17 99/40/17
f 98/30/17 110/33/17 100/33/17
f 106/41/18 108/37/18 107/35/18
f 102/37/16 105/42/16 98/42/16
f 100/33/14 107/35/14 104/35/14
f 104/35/15 108/37/15 102/37/15
f 110/33/14 116/33/14 112/33/14
f 105/42/16 109/42/16 98/42/16
f 106/41/18 111/43/18 105/43/18
f 100/33/14 112/33/14 106/33/14
f 113/30/13 116/33/13 114/33/13
f 112/41/18 115/43/18 111/43/18
f 111/42/16 113/42/16 109/42/16
f 109/30/17 114/33/17 110/33/17
f 98/30/13 100/33/13 99/31/13
f 100/33/14 104/35/14 103/34/14
f 104/35/15 102/37/15 101/36/15
f 102/37/16 98/42/16 97/38/16
f 103/34/17 101/36/17 97/39/17
f 98/30/17 109/30/17 110/33/17
f 106/41/18 105/43/18 108/37/18
f 102/37/16 108/37/16 105/42/16
f 100/33/14 106/33/14 107/35/14
f 104/35/15 107/35/15 108/37/15
f 110/33/14 114/33/14 116/33/14
f 105/42/16 111/42/16 109/42/16
f 106/41/18 112/41/18 111/43/18
f 100/33/14 110/33/14 112/33/14
f 113/30/13 115/30/13 116/33/13
f 112/41/18 116/41/18 115/43/18
f 111/42/16 115/42/16 113/42/16
f 109/30/17 113/30/17 114/33/17
o Cube.049
v 5.744676 -0.054850 -104.263069
v 5.744676 10.093087 -104.263069
v 5.744676 -0.054850 -106.942039
v 5.744676 10.093087 -106.942039
v 8.189535 -0.054850 -104.263069
v 8.189535 10.093087 -104.263069
v 8.189535 -0.054850 -106.942039
v 8.189535 10.093087 -106.942039
v 5.744676 11.760132 -104.263069
v 5.744676 11.760132 -106.942039
v 8.189535 11.760132 -106.942039
v 8.189535 11.760132 -104.263069
v 5.744673 10.093087 -118.786888
v 8.189533 10.093087 -118.786888
v 5.744673 11.760132 -118.786888
v 8.189533 11.760132 -118.786888
vn -1.0000 -0.0000 -0.0000
vn -0.0000 -0.0000 -1.0000
vn 1.0000 -0.0000 -0.0000
vn -0.0000 -0.0000 1.0000
vn -0.0000 -1.0000 -0.0000
vn -0.0000 1.0000 -0.0000
vt 0.625000 0.000000
vt 0.375000 0.250000
vt 0.375000 0.000000
vt 0.625000 0.250000
vt 0.375000 0.500000
vt 0.625000 0.500000
vt 0.375000 0.750000
vt 0.625000 0.750000
vt 0.375000 1.000000
vt 0.125000 0.750000
vt 0.125000 0.500000
vt 0.875000 0.500000
vt 0.625000 1.000000
vt 0.875000 0.750000
s 0
f 118/44/19 119/45/19 117/46/19
f 120/47/20 123/48/20 119/45/20
f 124/49/21 121/50/21 123/48/21
f 122/51/22 117/52/22 121/50/22
f 123/48/23 117/53/23 119/54/23
f 124/49/21 128/51/21 122/51/21
f 126/55/24 128/51/24 127/49/24
f 118/44/19 126/47/19 120/47/19
f 122/51/22 125/56/22 118/56/22
f 120/47/23 130/49/23 124/49/23
f 129/47/20 132/49/20 130/49/20
f 124/49/21 132/49/21 127/49/21
f 126/47/19 129/47/19 120/47/19
f 127/49/24 131/55/24 126/55/24
f 118/44/19 120/47/19 119/45/19
f 120/47/20 124/49/20 123/48/20
f 124/49/21 122/51/21 121/50/21
f 122/51/22 118/56/22 117/52/22
f 123/48/23 121/50/23 117/53/23
f 124/49/21 127/49/21 128/51/21
f 126/55/24 125/57/24 128/51/24
f 118/44/19 125/44/19 126/47/19
f 122/51/22 128/51/22 125/56/22
f 120/47/23 129/47/23 130/49/23
f 129/47/20 131/47/20 132/49/20
f 124/49/21 130/49/21 132/49/21
f 126/47/19 131/47/19 129/47/19
f 127/49/24 132/49/24 131/55/24
