# Blender 5.2.0 LTS
# www.blender.org
mtllib SofaKasir.mtl
o Cube.001
v -33.093639 0.554132 -64.621727
v -33.093639 1.327366 -64.621727
v -36.715694 0.554132 -64.621727
v -36.715694 1.327366 -64.621727
v -33.093639 0.554132 -71.846916
v -33.093639 1.327366 -71.846916
v -36.715694 0.554132 -71.846916
v -36.715694 1.327366 -71.846916
v -36.715694 0.554132 -70.937019
v -36.715694 0.554132 -65.531624
v -36.715694 1.327366 -65.531624
v -36.715694 1.327366 -70.937019
v -33.093639 0.554132 -65.531624
v -33.093639 0.554132 -70.937019
v -33.093639 1.327366 -70.937019
v -33.093639 1.327366 -65.531624
v -36.052757 0.554132 -64.621727
v -36.052757 1.327366 -64.621727
v -36.052757 0.554132 -71.846916
v -36.052757 1.327366 -71.846916
v -36.052757 1.327366 -70.937019
v -36.052757 1.327366 -65.531624
v -36.715694 3.452318 -64.621727
v -36.715694 3.452318 -70.937019
v -36.715694 3.452318 -71.846916
v -36.715694 3.452318 -65.531624
v -36.052757 3.365304 -64.621727
v -36.460358 3.452318 -64.621727
v -36.107365 3.408811 -64.621727
v -36.256557 3.440660 -64.621727
v -36.460358 3.452318 -71.846916
v -36.052757 3.365304 -71.846916
v -36.256557 3.440660 -71.846916
v -36.107365 3.408811 -71.846916
v -36.052757 3.365304 -70.937019
v -36.460358 3.452318 -70.937019
v -36.107365 3.408811 -70.937019
v -36.256557 3.440660 -70.937019
v -36.460358 3.452318 -65.531624
v -36.052757 3.365304 -65.531624
v -36.256557 3.440660 -65.531624
v -36.107365 3.408811 -65.531624
v -35.612282 1.327366 -65.531624
v -35.612282 1.327366 -70.937019
v -35.615505 1.327366 -71.846916
v -35.615505 1.327366 -70.937019
v -35.612282 1.327366 -65.531624
v -36.052757 3.365304 -65.531624
v -35.645813 2.107251 -65.531624
v -35.741295 2.768406 -65.531624
v -35.884193 3.210175 -65.531624
v -36.052757 3.365304 -70.937019
v -35.612282 1.327366 -70.937019
v -35.884197 3.210175 -70.937019
v -35.741295 2.768406 -70.937019
v -35.645813 2.107251 -70.937019
v -35.615505 1.327366 -64.621727
v -35.615505 1.327366 -65.531624
v -35.615505 1.327366 -70.937019
v -36.052757 3.365304 -70.937019
v -35.648788 2.107251 -70.937019
v -35.743572 2.768406 -70.937019
v -35.885429 3.210175 -70.937019
v -36.052757 3.365304 -71.846916
v -35.615505 1.327366 -71.846916
v -35.885429 3.210175 -71.846916
v -35.743572 2.768406 -71.846916
v -35.648788 2.107251 -71.846916
v -35.615505 1.327366 -64.621727
v -36.052757 3.365304 -64.621727
v -35.648788 2.107251 -64.621727
v -35.743572 2.768406 -64.621727
v -35.885429 3.210175 -64.621727
v -36.052757 3.365304 -65.531624
v -35.615505 1.327366 -65.531624
v -35.885429 3.210175 -65.531624
v -35.743572 2.768406 -65.531624
v -35.648788 2.107251 -65.531624
v -36.052757 0.009699 -64.621727
v -33.093639 0.009699 -64.621727
v -36.715694 0.009699 -65.531624
v -36.715694 0.009699 -64.621727
v -36.052757 0.009699 -71.846916
v -36.715694 0.009699 -71.846916
v -33.093639 0.009699 -70.937019
v -33.093639 0.009699 -71.846916
v -36.715694 0.009699 -70.937019
v -33.093639 0.009699 -65.531624
v -36.052757 0.009699 -65.531624
v -36.052757 0.009699 -70.937019
vn -0.0000 -0.0000 1.0000
vn -1.0000 -0.0000 -0.0000
vn -0.0000 -0.0000 -1.0000
vn 1.0000 -0.0000 -0.0000
vn -0.0000 1.0000 -0.0000
vn 0.6231 0.7821 -0.0000
vn 0.2088 0.9780 -0.0000
vn 0.0571 0.9984 -0.0000
vn -0.0000 -1.0000 -0.0000
vn 0.9991 0.0430 -0.0000
vn 0.9897 0.1429 -0.0000
vn 0.9515 0.3078 -0.0000
vn 0.6772 0.7358 -0.0000
vn 0.9991 0.0426 -0.0000
vn 0.9899 0.1419 -0.0000
vn 0.9521 0.3057 -0.0000
vn 0.6799 0.7333 -0.0000
vt 0.523190 0.129058
vt 0.523190 0.353664
vt 0.564299 0.353664
vt 0.564299 0.129058
vt 0.584018 0.129058
vt 0.584018 0.353664
vt 0.612303 0.353664
vt 0.612303 0.129058
vt 0.339693 0.353664
vt 0.339693 0.129058
vt 0.415982 0.129058
vt 0.415982 0.353664
vt 0.387697 0.353664
vt 0.387697 0.129058
vt 0.584018 -0.029087
vt 0.612303 -0.029087
vt 0.415982 0.523190
vt 0.387697 0.523190
vt 0.387697 0.339693
vt 0.415982 0.339693
vt 0.612303 0.523190
vt 0.584018 0.523190
vt 0.584018 0.339693
vt 0.612303 0.339693
vt 0.415982 -0.029087
vt 0.339693 -0.029087
vt 0.523190 -0.029087
vt 0.387697 0.353664
vt 0.387697 -0.029087
vt 0.564299 -0.029087
vt 0.584018 0.970913
vt 0.612303 0.970913
vt 0.387697 0.970913
vt 0.415982 0.970913
vt 0.415982 0.945637
vt 0.584018 0.945637
vt 0.584018 0.958275
vt 0.415982 0.958275
vt 0.584018 0.967527
vt 0.415982 0.967527
vt 0.415982 0.535828
vt 0.584018 0.535828
vt 0.584018 0.548465
vt 0.415982 0.548465
vt 0.612303 0.945637
vt 0.612303 0.958275
vt 0.612303 0.967527
vt 0.612303 0.535828
vt 0.612303 0.548465
vt 0.387697 0.945637
vt 0.387697 0.958275
vt 0.387697 0.967527
vt 0.387697 0.535828
vt 0.387697 0.548465
vt 0.523190 0.945637
vt 0.526576 0.958275
vt 0.535828 0.967527
vt 0.548465 0.970913
vt 0.564299 0.970913
vt 0.415982 0.564299
vt 0.387697 0.564299
vt 0.415982 0.496075
vt 0.387697 0.496075
vt 0.612303 0.564299
vt 0.584018 0.564299
vt 0.584018 0.495876
vt 0.415982 0.495876
vt 0.415982 0.353664
vt 0.584018 0.353664
vt 0.584018 0.580203
vt 0.415982 0.580203
vt 0.584018 0.772252
vt 0.415982 0.772252
vt 0.584018 0.900576
vt 0.415982 0.900576
vt 0.495876 0.353664
vt 0.497955 0.580203
vt 0.503876 0.772252
vt 0.512737 0.900576
vt 0.612303 0.496075
vt 0.584018 0.496075
vt 0.387697 0.353664
vt 0.387697 0.580203
vt 0.387697 0.772252
vt 0.387697 0.900576
vt 0.612303 0.353664
vt 0.612303 0.580203
vt 0.612303 0.772252
vt 0.612303 0.900576
vt 0.496075 0.353664
vt 0.498139 0.580203
vt 0.504017 0.772252
vt 0.512814 0.900576
vt 0.512814 0.900576
vt 0.498139 0.580203
vt 0.387697 0.523190
vt 0.612303 0.339693
vt 0.584018 0.339693
vt 0.415982 0.339693
vt 0.387697 0.339693
s 0
usemtl Material.001
f 17/1/1 18/2/1 4/3/1 3/4/1
f 9/5/2 12/6/2 8/7/2 7/8/2
f 19/1/3 20/2/3 6/9/3 5/10/3
f 13/11/4 16/12/4 2/13/4 1/14/4
f 5/8/4 14/5/4 85/15/4 86/16/4
f 22/17/5 18/18/5 2/19/5 16/20/5
f 20/21/5 21/22/5 15/23/5 6/24/5
f 21/22/5 22/17/5 16/20/5 15/23/5
f 10/11/2 9/5/2 87/15/2 81/25/2
f 19/1/3 5/10/3 86/26/3 83/27/3
f 5/8/4 6/7/4 15/6/4 14/5/4
f 14/5/4 15/6/4 16/12/4 13/11/4
f 3/14/2 4/28/2 11/12/2 10/11/2
f 10/11/2 11/12/2 12/6/2 9/5/2
f 13/11/4 1/14/4 80/29/4 88/25/4
f 9/5/2 7/8/2 84/16/2 87/15/2
f 17/1/1 3/4/1 82/30/1 79/27/1
f 7/4/3 8/3/3 20/2/3 19/1/3
f 1/10/1 2/9/1 18/2/1 17/1/1
f 8/7/2 12/6/2 24/31/2 25/32/2
f 11/12/2 4/28/2 23/33/2 26/34/2
f 12/6/2 11/12/2 26/34/2 24/31/2
f 40/35/6 35/36/6 37/37/6 42/38/6
f 42/38/7 37/37/7 38/39/7 41/40/7
f 41/41/8 38/42/8 36/43/8 39/44/8
f 35/36/6 32/45/6 34/46/6 37/37/6
f 37/37/7 34/46/7 33/47/7 38/39/7
f 38/42/8 33/48/8 31/49/8 36/43/8
f 27/50/6 40/35/6 42/38/6 29/51/6
f 29/51/7 42/38/7 41/40/7 30/52/7
f 30/53/8 41/41/8 39/44/8 28/54/8
f 4/3/1 18/2/1 27/55/1 29/56/1 30/57/1 28/58/1 23/59/1
f 26/60/5 23/61/5 28/54/5 39/44/5
f 18/18/9 22/17/9 58/62/9 57/63/9
f 20/2/3 8/3/3 25/59/3 31/58/3 33/57/3 34/56/3 32/55/3
f 25/64/5 24/65/5 36/43/5 31/49/5
f 24/65/5 26/60/5 39/44/5 36/43/5
f 22/17/9 21/22/9 44/66/9 43/67/9
f 47/68/10 53/69/10 56/70/10 49/71/10
f 49/71/11 56/70/11 55/72/11 50/73/11
f 50/73/12 55/72/12 54/74/12 51/75/12
f 51/75/13 54/74/13 52/36/13 48/35/13
f 35/22/5 40/17/5 48/17/5 52/22/5
f 43/67/5 44/66/5 53/66/5 47/67/5
f 40/55/1 22/2/1 43/76/1 47/76/1 49/77/1 50/78/1 51/79/1 48/55/1
f 21/2/3 35/55/3 52/55/3 54/79/3 55/78/3 56/77/3 53/76/3 44/76/3
f 21/22/9 20/21/9 45/80/9 46/81/9
f 69/82/14 75/68/14 78/71/14 71/83/14
f 71/83/15 78/71/15 77/73/15 72/84/15
f 72/84/16 77/73/16 76/75/16 73/85/16
f 73/85/17 76/75/17 74/35/17 70/50/17
f 59/69/14 65/86/14 68/87/14 61/70/14
f 61/70/15 68/87/15 67/88/15 62/72/15
f 62/72/16 67/88/16 66/89/16 63/74/16
f 63/74/17 66/89/17 64/45/17 60/36/17
f 46/81/5 45/80/5 65/80/5 59/81/5
f 35/55/1 21/2/1 46/90/1 59/90/1 61/91/1 62/92/1 63/93/1 60/55/1
f 32/21/5 35/22/5 60/22/5 64/21/5
f 20/2/3 32/55/3 64/55/3 66/94/3 67/92/3 68/95/3 65/90/3 45/90/3
f 27/55/1 18/2/1 57/90/1 69/90/1 71/95/1 72/92/1 73/94/1 70/55/1
f 57/63/5 58/62/5 75/62/5 69/63/5
f 40/17/5 27/96/5 70/96/5 74/17/5
f 22/2/3 40/55/3 74/55/3 76/93/3 77/92/3 78/91/3 75/90/3 58/90/3
f 90/22/9 83/21/9 86/97/9 85/98/9
f 79/96/9 89/17/9 88/99/9 80/100/9
f 89/17/9 90/22/9 85/98/9 88/99/9
f 81/60/9 87/65/9 90/22/9 89/17/9
f 82/61/9 81/60/9 89/17/9 79/96/9
f 87/65/9 84/64/9 83/21/9 90/22/9
f 14/5/4 13/11/4 88/25/4 85/15/4
f 1/10/1 17/1/1 79/27/1 80/26/1
f 7/4/3 19/1/3 83/27/3 84/30/3
f 3/14/2 10/11/2 81/25/2 82/29/2
o Cube.215
v -33.093639 0.554132 -72.012794
v -33.093639 1.327366 -72.012794
v -36.715694 0.554132 -72.012794
v -36.715694 1.327366 -72.012794
v -33.093639 0.554132 -79.237984
v -33.093639 1.327366 -79.237984
v -36.715694 0.554132 -79.237984
v -36.715694 1.327366 -79.237984
v -36.715694 0.554132 -78.328087
v -36.715694 0.554132 -72.922691
v -36.715694 1.327366 -72.922691
v -36.715694 1.327366 -78.328087
v -33.093639 0.554132 -72.922691
v -33.093639 0.554132 -78.328087
v -33.093639 1.327366 -78.328087
v -33.093639 1.327366 -72.922691
v -36.052757 0.554132 -72.012794
v -36.052757 1.327366 -72.012794
v -36.052757 0.554132 -79.237984
v -36.052757 1.327366 -79.237984
v -36.052757 1.327366 -78.328087
v -36.052757 1.327366 -72.922691
v -36.715694 3.452318 -72.012794
v -36.715694 3.452318 -78.328087
v -36.715694 3.452318 -79.237984
v -36.715694 3.452318 -72.922691
v -36.052757 3.365304 -72.012794
v -36.460358 3.452318 -72.012794
v -36.107365 3.408811 -72.012794
v -36.256557 3.440660 -72.012794
v -36.460358 3.452318 -79.237984
v -36.052757 3.365304 -79.237984
v -36.256557 3.440660 -79.237984
v -36.107365 3.408811 -79.237984
v -36.052757 3.365304 -78.328087
v -36.460358 3.452318 -78.328087
v -36.107365 3.408811 -78.328087
v -36.256557 3.440660 -78.328087
v -36.460358 3.452318 -72.922691
v -36.052757 3.365304 -72.922691
v -36.256557 3.440660 -72.922691
v -36.107365 3.408811 -72.922691
v -35.612282 1.327366 -72.922691
v -35.612282 1.327366 -78.328087
v -35.615505 1.327366 -79.237984
v -35.615505 1.327366 -78.328087
v -35.612282 1.327366 -72.922691
v -36.052757 3.365304 -72.922691
v -35.645813 2.107251 -72.922691
v -35.741295 2.768406 -72.922691
v -35.884193 3.210175 -72.922691
v -36.052757 3.365304 -78.328087
v -35.612282 1.327366 -78.328087
v -35.884197 3.210175 -78.328087
v -35.741295 2.768406 -78.328087
v -35.645813 2.107251 -78.328087
v -35.615505 1.327366 -72.012794
v -35.615505 1.327366 -72.922691
v -35.615505 1.327366 -78.328087
v -36.052757 3.365304 -78.328087
v -35.648788 2.107251 -78.328087
v -35.743572 2.768406 -78.328087
v -35.885429 3.210175 -78.328087
v -36.052757 3.365304 -79.237984
v -35.615505 1.327366 -79.237984
v -35.885429 3.210175 -79.237984
v -35.743572 2.768406 -79.237984
v -35.648788 2.107251 -79.237984
v -35.615505 1.327366 -72.012794
v -36.052757 3.365304 -72.012794
v -35.648788 2.107251 -72.012794
v -35.743572 2.768406 -72.012794
v -35.885429 3.210175 -72.012794
v -36.052757 3.365304 -72.922691
v -35.615505 1.327366 -72.922691
v -35.885429 3.210175 -72.922691
v -35.743572 2.768406 -72.922691
v -35.648788 2.107251 -72.922691
v -36.052757 0.009699 -72.012794
v -33.093639 0.009699 -72.012794
v -36.715694 0.009699 -72.922691
v -36.715694 0.009699 -72.012794
v -36.052757 0.009699 -79.237984
v -36.715694 0.009699 -79.237984
v -33.093639 0.009699 -78.328087
v -33.093639 0.009699 -79.237984
v -36.715694 0.009699 -78.328087
v -33.093639 0.009699 -72.922691
v -36.052757 0.009699 -72.922691
v -36.052757 0.009699 -78.328087
vn -0.0000 -0.0000 1.0000
vn -1.0000 -0.0000 -0.0000
vn -0.0000 -0.0000 -1.0000
vn 1.0000 -0.0000 -0.0000
vn -0.0000 1.0000 -0.0000
vn 0.6231 0.7821 -0.0000
vn 0.2088 0.9780 -0.0000
vn 0.0571 0.9984 -0.0000
vn -0.0000 -1.0000 -0.0000
vn 0.9991 0.0430 -0.0000
vn 0.9897 0.1429 -0.0000
vn 0.9515 0.3078 -0.0000
vn 0.6772 0.7358 -0.0000
vn 0.9991 0.0426 -0.0000
vn 0.9899 0.1419 -0.0000
vn 0.9521 0.3057 -0.0000
vn 0.6799 0.7333 -0.0000
vt 0.523190 0.129058
vt 0.523190 0.353664
vt 0.564299 0.353664
vt 0.564299 0.129058
vt 0.584018 0.129058
vt 0.584018 0.353664
vt 0.612303 0.353664
vt 0.612303 0.129058
vt 0.339693 0.353664
vt 0.339693 0.129058
vt 0.415982 0.129058
vt 0.415982 0.353664
vt 0.387697 0.353664
vt 0.387697 0.129058
vt 0.584018 -0.029087
vt 0.612303 -0.029087
vt 0.415982 0.523190
vt 0.387697 0.523190
vt 0.387697 0.339693
vt 0.415982 0.339693
vt 0.612303 0.523190
vt 0.584018 0.523190
vt 0.584018 0.339693
vt 0.612303 0.339693
vt 0.415982 -0.029087
vt 0.339693 -0.029087
vt 0.523190 -0.029087
vt 0.387697 0.353664
vt 0.387697 -0.029087
vt 0.564299 -0.029087
vt 0.584018 0.970913
vt 0.612303 0.970913
vt 0.387697 0.970913
vt 0.415982 0.970913
vt 0.415982 0.945637
vt 0.584018 0.945637
vt 0.584018 0.958275
vt 0.415982 0.958275
vt 0.584018 0.967527
vt 0.415982 0.967527
vt 0.415982 0.535828
vt 0.584018 0.535828
vt 0.584018 0.548465
vt 0.415982 0.548465
vt 0.612303 0.945637
vt 0.612303 0.958275
vt 0.612303 0.967527
vt 0.612303 0.535828
vt 0.612303 0.548465
vt 0.387697 0.945637
vt 0.387697 0.958275
vt 0.387697 0.967527
vt 0.387697 0.535828
vt 0.387697 0.548465
vt 0.523190 0.945637
vt 0.526576 0.958275
vt 0.535828 0.967527
vt 0.548465 0.970913
vt 0.564299 0.970913
vt 0.415982 0.564299
vt 0.387697 0.564299
vt 0.415982 0.496075
vt 0.387697 0.496075
vt 0.612303 0.564299
vt 0.584018 0.564299
vt 0.584018 0.495876
vt 0.415982 0.495876
vt 0.415982 0.353664
vt 0.584018 0.353664
vt 0.584018 0.580203
vt 0.415982 0.580203
vt 0.584018 0.772252
vt 0.415982 0.772252
vt 0.584018 0.900576
vt 0.415982 0.900576
vt 0.495876 0.353664
vt 0.497955 0.580203
vt 0.503876 0.772252
vt 0.512737 0.900576
vt 0.612303 0.496075
vt 0.584018 0.496075
vt 0.387697 0.353664
vt 0.387697 0.580203
vt 0.387697 0.772252
vt 0.387697 0.900576
vt 0.612303 0.353664
vt 0.612303 0.580203
vt 0.612303 0.772252
vt 0.612303 0.900576
vt 0.496075 0.353664
vt 0.498139 0.580203
vt 0.504017 0.772252
vt 0.512814 0.900576
vt 0.512814 0.900576
vt 0.498139 0.580203
vt 0.387697 0.523190
vt 0.612303 0.339693
vt 0.584018 0.339693
vt 0.415982 0.339693
vt 0.387697 0.339693
s 0
usemtl Material.001
f 107/101/18 108/102/18 94/103/18 93/104/18
f 99/105/19 102/106/19 98/107/19 97/108/19
f 109/101/20 110/102/20 96/109/20 95/110/20
f 103/111/21 106/112/21 92/113/21 91/114/21
f 95/108/21 104/105/21 175/115/21 176/116/21
f 112/117/22 108/118/22 92/119/22 106/120/22
f 110/121/22 111/122/22 105/123/22 96/124/22
f 111/122/22 112/117/22 106/120/22 105/123/22
f 100/111/19 99/105/19 177/115/19 171/125/19
f 109/101/20 95/110/20 176/126/20 173/127/20
f 95/108/21 96/107/21 105/106/21 104/105/21
f 104/105/21 105/106/21 106/112/21 103/111/21
f 93/114/19 94/128/19 101/112/19 100/111/19
f 100/111/19 101/112/19 102/106/19 99/105/19
f 103/111/21 91/114/21 170/129/21 178/125/21
f 99/105/19 97/108/19 174/116/19 177/115/19
f 107/101/18 93/104/18 172/130/18 169/127/18
f 97/104/20 98/103/20 110/102/20 109/101/20
f 91/110/18 92/109/18 108/102/18 107/101/18
f 98/107/19 102/106/19 114/131/19 115/132/19
f 101/112/19 94/128/19 113/133/19 116/134/19
f 102/106/19 101/112/19 116/134/19 114/131/19
f 130/135/23 125/136/23 127/137/23 132/138/23
f 132/138/24 127/137/24 128/139/24 131/140/24
f 131/141/25 128/142/25 126/143/25 129/144/25
f 125/136/23 122/145/23 124/146/23 127/137/23
f 127/137/24 124/146/24 123/147/24 128/139/24
f 128/142/25 123/148/25 121/149/25 126/143/25
f 117/150/23 130/135/23 132/138/23 119/151/23
f 119/151/24 132/138/24 131/140/24 120/152/24
f 120/153/25 131/141/25 129/144/25 118/154/25
f 94/103/18 108/102/18 117/155/18 119/156/18 120/157/18 118/158/18 113/159/18
f 116/160/22 113/161/22 118/154/22 129/144/22
f 108/118/26 112/117/26 148/162/26 147/163/26
f 110/102/20 98/103/20 115/159/20 121/158/20 123/157/20 124/156/20 122/155/20
f 115/164/22 114/165/22 126/143/22 121/149/22
f 114/165/22 116/160/22 129/144/22 126/143/22
f 112/117/26 111/122/26 134/166/26 133/167/26
f 137/168/27 143/169/27 146/170/27 139/171/27
f 139/171/28 146/170/28 145/172/28 140/173/28
f 140/173/29 145/172/29 144/174/29 141/175/29
f 141/175/30 144/174/30 142/136/30 138/135/30
f 125/122/22 130/117/22 138/117/22 142/122/22
f 133/167/22 134/166/22 143/166/22 137/167/22
f 130/155/18 112/102/18 133/176/18 137/176/18 139/177/18 140/178/18 141/179/18 138/155/18
f 111/102/20 125/155/20 142/155/20 144/179/20 145/178/20 146/177/20 143/176/20 134/176/20
f 111/122/26 110/121/26 135/180/26 136/181/26
f 159/182/31 165/168/31 168/171/31 161/183/31
f 161/183/32 168/171/32 167/173/32 162/184/32
f 162/184/33 167/173/33 166/175/33 163/185/33
f 163/185/34 166/175/34 164/135/34 160/150/34
f 149/169/31 155/186/31 158/187/31 151/170/31
f 151/170/32 158/187/32 157/188/32 152/172/32
f 152/172/33 157/188/33 156/189/33 153/174/33
f 153/174/34 156/189/34 154/145/34 150/136/34
f 136/181/22 135/180/22 155/180/22 149/181/22
f 125/155/18 111/102/18 136/190/18 149/190/18 151/191/18 152/192/18 153/193/18 150/155/18
f 122/121/22 125/122/22 150/122/22 154/121/22
f 110/102/20 122/155/20 154/155/20 156/194/20 157/192/20 158/195/20 155/190/20 135/190/20
f 117/155/18 108/102/18 147/190/18 159/190/18 161/195/18 162/192/18 163/194/18 160/155/18
f 147/163/22 148/162/22 165/162/22 159/163/22
f 130/117/22 117/196/22 160/196/22 164/117/22
f 112/102/20 130/155/20 164/155/20 166/193/20 167/192/20 168/191/20 165/190/20 148/190/20
f 180/122/26 173/121/26 176/197/26 175/198/26
f 169/196/26 179/117/26 178/199/26 170/200/26
f 179/117/26 180/122/26 175/198/26 178/199/26
f 171/160/26 177/165/26 180/122/26 179/117/26
f 172/161/26 171/160/26 179/117/26 169/196/26
f 177/165/26 174/164/26 173/121/26 180/122/26
f 104/105/21 103/111/21 178/125/21 175/115/21
f 91/110/18 107/101/18 169/127/18 170/126/18
f 97/104/20 109/101/20 173/127/20 174/130/20
f 93/114/19 100/111/19 171/125/19 172/129/19
o Cube.216
v -33.093639 0.554132 -79.406586
v -33.093639 1.327366 -79.406586
v -36.715694 0.554132 -79.406586
v -36.715694 1.327366 -79.406586
v -33.093639 0.554132 -86.631775
v -33.093639 1.327366 -86.631775
v -36.715694 0.554132 -86.631775
v -36.715694 1.327366 -86.631775
v -36.715694 0.554132 -85.721878
v -36.715694 0.554132 -80.316483
v -36.715694 1.327366 -80.316483
v -36.715694 1.327366 -85.721878
v -33.093639 0.554132 -80.316483
v -33.093639 0.554132 -85.721878
v -33.093639 1.327366 -85.721878
v -33.093639 1.327366 -80.316483
v -36.052757 0.554132 -79.406586
v -36.052757 1.327366 -79.406586
v -36.052757 0.554132 -86.631775
v -36.052757 1.327366 -86.631775
v -36.052757 1.327366 -85.721878
v -36.052757 1.327366 -80.316483
v -36.715694 3.452318 -79.406586
v -36.715694 3.452318 -85.721878
v -36.715694 3.452318 -86.631775
v -36.715694 3.452318 -80.316483
v -36.052757 3.365304 -79.406586
v -36.460358 3.452318 -79.406586
v -36.107365 3.408811 -79.406586
v -36.256557 3.440660 -79.406586
v -36.460358 3.452318 -86.631775
v -36.052757 3.365304 -86.631775
v -36.256557 3.440660 -86.631775
v -36.107365 3.408811 -86.631775
v -36.052757 3.365304 -85.721878
v -36.460358 3.452318 -85.721878
v -36.107365 3.408811 -85.721878
v -36.256557 3.440660 -85.721878
v -36.460358 3.452318 -80.316483
v -36.052757 3.365304 -80.316483
v -36.256557 3.440660 -80.316483
v -36.107365 3.408811 -80.316483
v -35.612282 1.327366 -80.316483
v -35.612282 1.327366 -85.721878
v -35.615505 1.327366 -86.631775
v -35.615505 1.327366 -85.721878
v -35.612282 1.327366 -80.316483
v -36.052757 3.365304 -80.316483
v -35.645813 2.107251 -80.316483
v -35.741295 2.768406 -80.316483
v -35.884193 3.210175 -80.316483
v -36.052757 3.365304 -85.721878
v -35.612282 1.327366 -85.721878
v -35.884197 3.210175 -85.721878
v -35.741295 2.768406 -85.721878
v -35.645813 2.107251 -85.721878
v -35.615505 1.327366 -79.406586
v -35.615505 1.327366 -80.316483
v -35.615505 1.327366 -85.721878
v -36.052757 3.365304 -85.721878
v -35.648788 2.107251 -85.721878
v -35.743572 2.768406 -85.721878
v -35.885429 3.210175 -85.721878
v -36.052757 3.365304 -86.631775
v -35.615505 1.327366 -86.631775
v -35.885429 3.210175 -86.631775
v -35.743572 2.768406 -86.631775
v -35.648788 2.107251 -86.631775
v -35.615505 1.327366 -79.406586
v -36.052757 3.365304 -79.406586
v -35.648788 2.107251 -79.406586
v -35.743572 2.768406 -79.406586
v -35.885429 3.210175 -79.406586
v -36.052757 3.365304 -80.316483
v -35.615505 1.327366 -80.316483
v -35.885429 3.210175 -80.316483
v -35.743572 2.768406 -80.316483
v -35.648788 2.107251 -80.316483
v -36.052757 0.009699 -79.406586
v -33.093639 0.009699 -79.406586
v -36.715694 0.009699 -80.316483
v -36.715694 0.009699 -79.406586
v -36.052757 0.009699 -86.631775
v -36.715694 0.009699 -86.631775
v -33.093639 0.009699 -85.721878
v -33.093639 0.009699 -86.631775
v -36.715694 0.009699 -85.721878
v -33.093639 0.009699 -80.316483
v -36.052757 0.009699 -80.316483
v -36.052757 0.009699 -85.721878
vn -0.0000 -0.0000 1.0000
vn -1.0000 -0.0000 -0.0000
vn -0.0000 -0.0000 -1.0000
vn 1.0000 -0.0000 -0.0000
vn -0.0000 1.0000 -0.0000
vn 0.6231 0.7821 -0.0000
vn 0.2088 0.9780 -0.0000
vn 0.0571 0.9984 -0.0000
vn -0.0000 -1.0000 -0.0000
vn 0.9991 0.0430 -0.0000
vn 0.9897 0.1429 -0.0000
vn 0.9515 0.3078 -0.0000
vn 0.6772 0.7358 -0.0000
vn 0.9991 0.0426 -0.0000
vn 0.9899 0.1419 -0.0000
vn 0.9521 0.3057 -0.0000
vn 0.6799 0.7333 -0.0000
vt 0.523190 0.129058
vt 0.523190 0.353664
vt 0.564299 0.353664
vt 0.564299 0.129058
vt 0.584018 0.129058
vt 0.584018 0.353664
vt 0.612303 0.353664
vt 0.612303 0.129058
vt 0.339693 0.353664
vt 0.339693 0.129058
vt 0.415982 0.129058
vt 0.415982 0.353664
vt 0.387697 0.353664
vt 0.387697 0.129058
vt 0.584018 -0.029087
vt 0.612303 -0.029087
vt 0.415982 0.523190
vt 0.387697 0.523190
vt 0.387697 0.339693
vt 0.415982 0.339693
vt 0.612303 0.523190
vt 0.584018 0.523190
vt 0.584018 0.339693
vt 0.612303 0.339693
vt 0.415982 -0.029087
vt 0.339693 -0.029087
vt 0.523190 -0.029087
vt 0.387697 0.353664
vt 0.387697 -0.029087
vt 0.564299 -0.029087
vt 0.584018 0.970913
vt 0.612303 0.970913
vt 0.387697 0.970913
vt 0.415982 0.970913
vt 0.415982 0.945637
vt 0.584018 0.945637
vt 0.584018 0.958275
vt 0.415982 0.958275
vt 0.584018 0.967527
vt 0.415982 0.967527
vt 0.415982 0.535828
vt 0.584018 0.535828
vt 0.584018 0.548465
vt 0.415982 0.548465
vt 0.612303 0.945637
vt 0.612303 0.958275
vt 0.612303 0.967527
vt 0.612303 0.535828
vt 0.612303 0.548465
vt 0.387697 0.945637
vt 0.387697 0.958275
vt 0.387697 0.967527
vt 0.387697 0.535828
vt 0.387697 0.548465
vt 0.523190 0.945637
vt 0.526576 0.958275
vt 0.535828 0.967527
vt 0.548465 0.970913
vt 0.564299 0.970913
vt 0.415982 0.564299
vt 0.387697 0.564299
vt 0.415982 0.496075
vt 0.387697 0.496075
vt 0.612303 0.564299
vt 0.584018 0.564299
vt 0.584018 0.495876
vt 0.415982 0.495876
vt 0.415982 0.353664
vt 0.584018 0.353664
vt 0.584018 0.580203
vt 0.415982 0.580203
vt 0.584018 0.772252
vt 0.415982 0.772252
vt 0.584018 0.900576
vt 0.415982 0.900576
vt 0.495876 0.353664
vt 0.497955 0.580203
vt 0.503876 0.772252
vt 0.512737 0.900576
vt 0.612303 0.496075
vt 0.584018 0.496075
vt 0.387697 0.353664
vt 0.387697 0.580203
vt 0.387697 0.772252
vt 0.387697 0.900576
vt 0.612303 0.353664
vt 0.612303 0.580203
vt 0.612303 0.772252
vt 0.612303 0.900576
vt 0.496075 0.353664
vt 0.498139 0.580203
vt 0.504017 0.772252
vt 0.512814 0.900576
vt 0.512814 0.900576
vt 0.498139 0.580203
vt 0.387697 0.523190
vt 0.612303 0.339693
vt 0.584018 0.339693
vt 0.415982 0.339693
vt 0.387697 0.339693
s 0
usemtl Material.001
f 197/201/35 198/202/35 184/203/35 183/204/35
f 189/205/36 192/206/36 188/207/36 187/208/36
f 199/201/37 200/202/37 186/209/37 185/210/37
f 193/211/38 196/212/38 182/213/38 181/214/38
f 185/208/38 194/205/38 265/215/38 266/216/38
f 202/217/39 198/218/39 182/219/39 196/220/39
f 200/221/39 201/222/39 195/223/39 186/224/39
f 201/222/39 202/217/39 196/220/39 195/223/39
f 190/211/36 189/205/36 267/215/36 261/225/36
f 199/201/37 185/210/37 266/226/37 263/227/37
f 185/208/38 186/207/38 195/206/38 194/205/38
f 194/205/38 195/206/38 196/212/38 193/211/38
f 183/214/36 184/228/36 191/212/36 190/211/36
f 190/211/36 191/212/36 192/206/36 189/205/36
f 193/211/38 181/214/38 260/229/38 268/225/38
f 189/205/36 187/208/36 264/216/36 267/215/36
f 197/201/35 183/204/35 262/230/35 259/227/35
f 187/204/37 188/203/37 200/202/37 199/201/37
f 181/210/35 182/209/35 198/202/35 197/201/35
f 188/207/36 192/206/36 204/231/36 205/232/36
f 191/212/36 184/228/36 203/233/36 206/234/36
f 192/206/36 191/212/36 206/234/36 204/231/36
f 220/235/40 215/236/40 217/237/40 222/238/40
f 222/238/41 217/237/41 218/239/41 221/240/41
f 221/241/42 218/242/42 216/243/42 219/244/42
f 215/236/40 212/245/40 214/246/40 217/237/40
f 217/237/41 214/246/41 213/247/41 218/239/41
f 218/242/42 213/248/42 211/249/42 216/243/42
f 207/250/40 220/235/40 222/238/40 209/251/40
f 209/251/41 222/238/41 221/240/41 210/252/41
f 210/253/42 221/241/42 219/244/42 208/254/42
f 184/203/35 198/202/35 207/255/35 209/256/35 210/257/35 208/258/35 203/259/35
f 206/260/39 203/261/39 208/254/39 219/244/39
f 198/218/43 202/217/43 238/262/43 237/263/43
f 200/202/37 188/203/37 205/259/37 211/258/37 213/257/37 214/256/37 212/255/37
f 205/264/39 204/265/39 216/243/39 211/249/39
f 204/265/39 206/260/39 219/244/39 216/243/39
f 202/217/43 201/222/43 224/266/43 223/267/43
f 227/268/44 233/269/44 236/270/44 229/271/44
f 229/271/45 236/270/45 235/272/45 230/273/45
f 230/273/46 235/272/46 234/274/46 231/275/46
f 231/275/47 234/274/47 232/236/47 228/235/47
f 215/222/39 220/217/39 228/217/39 232/222/39
f 223/267/39 224/266/39 233/266/39 227/267/39
f 220/255/35 202/202/35 223/276/35 227/276/35 229/277/35 230/278/35 231/279/35 228/255/35
f 201/202/37 215/255/37 232/255/37 234/279/37 235/278/37 236/277/37 233/276/37 224/276/37
f 201/222/43 200/221/43 225/280/43 226/281/43
f 249/282/48 255/268/48 258/271/48 251/283/48
f 251/283/49 258/271/49 257/273/49 252/284/49
f 252/284/50 257/273/50 256/275/50 253/285/50
f 253/285/51 256/275/51 254/235/51 250/250/51
f 239/269/48 245/286/48 248/287/48 241/270/48
f 241/270/49 248/287/49 247/288/49 242/272/49
f 242/272/50 247/288/50 246/289/50 243/274/50
f 243/274/51 246/289/51 244/245/51 240/236/51
f 226/281/39 225/280/39 245/280/39 239/281/39
f 215/255/35 201/202/35 226/290/35 239/290/35 241/291/35 242/292/35 243/293/35 240/255/35
f 212/221/39 215/222/39 240/222/39 244/221/39
f 200/202/37 212/255/37 244/255/37 246/294/37 247/292/37 248/295/37 245/290/37 225/290/37
f 207/255/35 198/202/35 237/290/35 249/290/35 251/295/35 252/292/35 253/294/35 250/255/35
f 237/263/39 238/262/39 255/262/39 249/263/39
f 220/217/39 207/296/39 250/296/39 254/217/39
f 202/202/37 220/255/37 254/255/37 256/293/37 257/292/37 258/291/37 255/290/37 238/290/37
f 270/222/43 263/221/43 266/297/43 265/298/43
f 259/296/43 269/217/43 268/299/43 260/300/43
f 269/217/43 270/222/43 265/298/43 268/299/43
f 261/260/43 267/265/43 270/222/43 269/217/43
f 262/261/43 261/260/43 269/217/43 259/296/43
f 267/265/43 264/264/43 263/221/43 270/222/43
f 194/205/38 193/211/38 268/225/38 265/215/38
f 181/210/35 197/201/35 259/227/35 260/226/35
f 187/204/37 199/201/37 263/227/37 264/230/37
f 183/214/36 190/211/36 261/225/36 262/229/36
