# Blender 5.2.0 LTS
# www.blender.org
mtllib TembokMeratap2.mtl
o Cube.013
v -8.950248 -0.054850 9.158043
v -8.950248 10.093087 9.158043
v -9.659473 -0.054850 9.158043
v -9.659473 10.093087 9.158043
v -8.950249 -0.054850 -9.823156
v -8.950249 10.093087 -9.823156
v -9.659474 -0.054850 -9.823156
v -9.659474 10.093087 -9.823156
v -9.659474 -0.054850 -5.025031
v -8.950249 -0.054850 -5.025031
v -8.950249 -0.054850 -8.250301
v -9.659474 -0.054850 -8.250301
v -8.950248 5.709888 9.158043
v -9.659473 5.709888 9.158043
v -9.659474 5.709888 -9.823156
v -8.950249 5.709888 -9.823156
v -8.950249 5.709888 -5.025031
v -9.659474 5.709888 -5.025031
v -8.950249 5.709888 -8.250301
v -9.659474 5.709888 -8.250301
v -8.950248 5.709888 9.158043
v -9.659473 5.709888 9.158043
v -9.659474 5.709888 -9.823156
v -8.950249 5.709888 -9.823156
v -8.950249 5.709888 -5.025031
v -9.659474 5.709888 -5.025031
v -8.950249 5.709888 -8.250301
v -9.659474 5.709888 -8.250301
v -8.968554 -0.054850 -8.250301
v -8.968554 -0.054850 -5.025031
v -8.968554 5.709888 -5.025031
v -8.968554 5.709888 -8.250301
vn -0.0000 -0.0000 1.0000
vn -0.0000 -1.0000 -0.0000
vn -0.0000 1.0000 -0.0000
vn -0.0000 -0.0000 -1.0000
vn -1.0000 -0.0000 -0.0000
vn 1.0000 -0.0000 -0.0000
vt 0.625000 0.000000
vt 0.517017 0.250000
vt 0.517017 0.000000
vt 0.375000 0.500000
vt 0.354284 0.750000
vt 0.354284 0.500000
vt 0.311804 0.500000
vt 0.125000 0.750000
vt 0.125000 0.500000
vt 0.875000 0.500000
vt 0.625000 0.750000
vt 0.625000 0.500000
vt 0.311804 0.750000
vt 0.375000 0.479284
vt 0.517017 0.479284
vt 0.517017 0.500000
vt 0.517017 0.750000
vt 0.375000 0.250000
vt 0.375000 0.000000
vt 0.517017 0.813196
vt 0.517017 0.770716
vt 0.517017 0.436804
vt 0.375000 0.436804
vt 0.625000 0.250000
vt 0.375000 0.750000
vt 0.875000 0.750000
vt 0.625000 1.000000
vt 0.517017 1.000000
vt 0.375000 1.000000
vt 0.375000 0.813196
vt 0.375000 0.770716
s 0
f 2/1/1 14/2/1 13/3/1
f 7/4/2 11/5/2 12/6/2
f 9/7/2 1/8/2 3/9/2
f 4/10/3 6/11/3 8/12/3
f 12/6/2 10/13/2 9/7/2
f 12/14/1 32/15/1 20/15/1
f 15/16/4 6/11/4 16/17/4
f 13/3/1 3/18/1 1/19/1
f 17/20/3 27/21/3 25/20/3
f 8/12/5 20/15/5 18/22/5
f 20/15/3 26/22/3 28/15/3
f 14/2/3 21/3/3 22/2/3
f 20/15/2 31/22/2 18/22/2
f 9/7/3 29/6/3 12/6/3
f 18/22/4 30/23/4 9/23/4
f 17/20/6 19/21/6 6/11/6
f 2/1/1 4/24/1 14/2/1
f 7/4/2 5/25/2 11/5/2
f 9/7/2 10/13/2 1/8/2
f 4/10/3 2/26/3 6/11/3
f 12/6/2 11/5/2 10/13/2
f 12/14/1 29/14/1 32/15/1
f 5/25/4 7/4/4 15/16/4
f 15/16/4 8/12/4 6/11/4
f 16/17/4 5/25/4 15/16/4
f 13/3/1 14/2/1 3/18/1
f 17/20/3 19/21/3 27/21/3
f 14/2/5 4/24/5 8/12/5
f 15/16/5 7/4/5 12/14/5
f 3/18/5 14/2/5 8/12/5
f 18/22/5 9/23/5 3/18/5
f 15/16/5 12/14/5 20/15/5
f 18/22/5 3/18/5 8/12/5
f 8/12/5 15/16/5 20/15/5
f 20/15/3 18/22/3 26/22/3
f 14/2/3 13/3/3 21/3/3
f 20/15/2 32/15/2 31/22/2
f 9/7/3 30/7/3 29/6/3
f 18/22/4 31/22/4 30/23/4
f 6/11/6 2/27/6 13/28/6
f 13/28/6 1/29/6 10/30/6
f 13/28/6 10/30/6 17/20/6
f 11/31/6 5/25/6 16/17/6
f 19/21/6 11/31/6 16/17/6
f 6/11/6 13/28/6 17/20/6
f 19/21/6 16/17/6 6/11/6
l 16 24
l 23 15
o Cube.014
v 9.685735 -0.054850 9.158043
v 9.685735 10.093087 9.158043
v 8.976509 -0.054850 9.158043
v 8.976509 10.093087 9.158043
v 9.685734 -0.054850 -9.823156
v 9.685734 10.093087 -9.823156
v 8.976508 -0.054850 -9.823156
v 8.976508 10.093087 -9.823156
v 8.976508 -0.054850 -8.768645
v 8.976508 10.093087 -8.768645
v 9.685734 -0.054850 -8.768645
v 9.685734 10.093087 -8.768645
v 8.976508 -0.054850 -3.047362
v 9.685734 10.093087 -3.047362
v 8.976508 10.093087 -3.047362
v 9.685734 -0.054850 -3.047362
v 9.685735 7.422578 9.158043
v 8.976509 7.422578 9.158043
v 9.685734 7.422578 -8.768645
v 8.976508 7.422578 -8.768645
v 8.976508 7.422578 -3.047362
v 9.685734 7.422578 -3.047362
v 8.976509 1.318555 9.158043
v 8.976508 1.318555 -9.823156
v 9.685734 1.318555 -8.768645
v 8.976508 1.318555 -8.768645
v 8.976508 1.318555 -3.047362
v 9.685734 1.318555 -3.047362
v 9.685735 1.318556 9.158043
v 9.672401 7.422578 -3.047362
v 9.672401 7.422578 -8.768645
v 9.672401 1.318555 -8.768645
v 9.672401 1.318555 -3.047362
vn -0.0000 -0.0000 1.0000
vn -0.0000 -0.0000 -1.0000
vn -0.0000 -1.0000 -0.0000
vn -0.0000 1.0000 -0.0000
vn 1.0000 -0.0000 -0.0000
vn -1.0000 -0.0000 -0.0000
vt 0.625000 0.000000
vt 0.559211 0.250000
vt 0.559211 0.000000
vt 0.408835 0.500000
vt 0.625000 0.750000
vt 0.375000 0.500000
vt 0.361111 0.750000
vt 0.361111 0.500000
vt 0.875000 0.500000
vt 0.714244 0.750000
vt 0.714244 0.500000
vt 0.638889 0.500000
vt 0.625000 0.500000
vt 0.285756 0.500000
vt 0.285756 0.750000
vt 0.559211 0.763889
vt 0.408835 0.763889
vt 0.125000 0.750000
vt 0.125000 0.500000
vt 0.638889 0.750000
vt 0.625000 0.839243
vt 0.559211 0.839244
vt 0.559211 0.410757
vt 0.625000 0.410756
vt 0.408835 0.486111
vt 0.559211 0.486111
vt 0.559211 1.000000
vt 0.408835 1.000000
vt 0.408835 0.250000
vt 0.408835 0.000000
vt 0.375000 0.250000
vt 0.375000 0.000000
vt 0.408835 0.410757
vt 0.375000 0.486111
vt 0.375000 0.410756
vt 0.375000 0.839243
vt 0.375000 0.763889
vt 0.625000 0.250000
vt 0.375000 0.750000
vt 0.875000 0.750000
vt 0.625000 0.763889
vt 0.625000 0.486111
vt 0.375000 1.000000
vt 0.408835 0.839244
vt 0.625000 1.000000
s 0
f 34/32/7 50/33/7 49/34/7
f 56/35/8 38/36/8 39/37/8
f 39/37/9 43/38/9 41/39/9
f 36/40/10 46/41/10 47/42/10
f 42/43/10 38/36/10 40/44/10
f 45/45/9 43/38/9 48/46/9
f 38/36/11 51/47/11 57/48/11
f 45/45/9 33/49/9 35/50/9
f 42/43/10 46/41/10 44/51/10
f 51/47/11 46/52/11 54/53/11
f 53/54/12 50/33/12 47/55/12
f 58/56/7 63/57/7 52/57/7
f 54/53/11 49/58/11 61/59/11
f 49/34/7 55/60/7 61/61/7
f 61/61/7 35/62/7 33/63/7
f 59/64/12 41/65/12 45/66/12
f 57/48/11 48/67/11 43/68/11
f 59/64/10 64/56/10 58/56/10
f 52/57/9 62/54/9 53/54/9
f 53/54/8 65/64/8 59/64/8
f 34/32/7 36/69/7 50/33/7
f 56/35/8 40/44/8 38/36/8
f 38/36/8 37/70/8 39/37/8
f 39/37/9 37/70/9 43/38/9
f 36/40/10 34/71/10 46/41/10
f 42/43/10 44/51/10 38/36/10
f 45/45/9 41/39/9 43/38/9
f 43/68/11 37/70/11 38/36/11
f 38/36/11 44/72/11 51/47/11
f 57/48/11 43/68/11 38/36/11
f 45/45/9 48/46/9 33/49/9
f 42/43/10 47/42/10 46/41/10
f 51/47/11 44/72/11 46/52/11
f 42/73/12 40/44/12 56/35/12
f 56/35/12 58/56/12 52/57/12
f 53/54/12 59/64/12 55/60/12
f 42/73/12 56/35/12 52/57/12
f 53/54/12 55/60/12 50/33/12
f 42/73/12 52/57/12 53/54/12
f 50/33/12 36/69/12 47/55/12
f 47/55/12 42/73/12 53/54/12
f 58/56/7 64/56/7 63/57/7
f 33/74/11 48/67/11 60/75/11
f 54/53/11 46/52/11 34/76/11
f 33/74/11 60/75/11 54/53/11
f 61/59/11 33/74/11 54/53/11
f 54/53/11 34/76/11 49/58/11
f 49/34/7 50/33/7 55/60/7
f 61/61/7 55/60/7 35/62/7
f 58/56/12 56/35/12 39/37/12
f 58/56/12 39/37/12 41/65/12
f 35/62/12 55/60/12 59/64/12
f 59/64/12 58/56/12 41/65/12
f 45/66/12 35/62/12 59/64/12
f 57/48/11 60/75/11 48/67/11
f 59/64/10 65/64/10 64/56/10
f 52/57/9 63/57/9 62/54/9
f 53/54/8 62/54/8 65/64/8
