# Blender 5.2.0 LTS
# www.blender.org
mtllib TembokMeratap5.mtl
o Cube.031
v -16.879393 -0.054850 -57.688408
v -16.879393 10.093087 -57.688408
v -16.879393 -0.054850 -58.397633
v -16.879393 10.093087 -58.397633
v -8.811928 -0.054850 -57.688412
v -8.811928 10.093087 -57.688412
v -8.811928 -0.054850 -58.397636
v -8.811928 10.093087 -58.397636
v -11.191377 -0.054850 -58.397636
v -11.191377 10.093087 -58.397636
v -11.191377 -0.054850 -57.688408
v -11.191377 10.093087 -57.688408
v -14.915673 -0.054850 -58.397636
v -14.915673 10.093087 -57.688408
v -14.915672 10.093087 -58.397636
v -14.915672 -0.054850 -57.688408
v -16.879393 6.504499 -57.688408
v -16.879393 6.504499 -58.397633
v -8.811928 6.504499 -58.397636
v -8.811928 6.504499 -57.688412
v -11.191377 6.504499 -57.688408
v -11.191377 6.504499 -58.397636
v -14.915672 6.504499 -58.397636
v -14.915672 6.504499 -57.688408
v -11.191377 6.504499 -57.663708
v -11.191377 -0.054850 -57.663708
v -14.915673 -0.054850 -57.663708
v -14.915672 6.504499 -57.663708
vn -1.0000 -0.0000 -0.0000
vn -0.0000 -0.0000 -1.0000
vn 1.0000 -0.0000 -0.0000
vn -0.0000 -0.0000 1.0000
vn -0.0000 -1.0000 -0.0000
vn -0.0000 1.0000 -0.0000
vt 0.625000 0.000000
vt 0.536593 0.250000
vt 0.536593 0.000000
vt 0.625000 0.426264
vt 0.536593 0.500000
vt 0.536593 0.426264
vt 0.625000 0.500000
vt 0.536593 0.750000
vt 0.625000 0.939147
vt 0.536593 1.000000
vt 0.536593 0.939147
vt 0.375000 0.500000
vt 0.301264 0.750000
vt 0.301264 0.500000
vt 0.875000 0.500000
vt 0.814147 0.750000
vt 0.814147 0.500000
vt 0.698736 0.500000
vt 0.625000 0.750000
vt 0.185853 0.750000
vt 0.185853 0.500000
vt 0.536593 0.823736
vt 0.625000 0.310853
vt 0.536593 0.310853
vt 0.625000 0.250000
vt 0.125000 0.750000
vt 0.125000 0.500000
vt 0.698736 0.750000
vt 0.625000 0.823736
vt 0.375000 0.310853
vt 0.375000 0.250000
vt 0.375000 0.823736
vt 0.375000 0.750000
vt 0.375000 1.000000
vt 0.375000 0.939147
vt 0.375000 0.426264
vt 0.375000 0.000000
vt 0.625000 1.000000
vt 0.875000 0.750000
s 0
f 2/1/1 18/2/1 17/3/1
f 10/4/2 19/5/2 22/6/2
f 8/7/3 20/8/3 19/5/3
f 14/9/4 17/10/4 24/11/4
f 7/12/5 11/13/5 9/14/5
f 4/15/6 14/16/6 15/17/6
f 10/18/6 6/19/6 8/7/6
f 9/14/5 16/20/5 13/21/5
f 6/19/4 21/22/4 20/8/4
f 15/23/2 22/6/2 23/24/2
f 4/25/2 23/24/2 18/2/2
f 13/21/5 1/26/5 3/27/5
f 15/17/6 12/28/6 10/18/6
f 12/29/4 24/11/4 21/22/4
f 18/2/2 13/30/2 3/31/2
f 23/24/3 27/30/3 13/30/3
f 20/8/4 11/32/4 5/33/4
f 24/11/4 1/34/4 16/35/4
f 19/5/3 5/33/3 7/12/3
f 22/6/2 7/12/2 9/36/2
f 17/3/1 3/31/1 1/37/1
f 13/21/6 26/14/6 9/14/6
f 22/6/5 28/24/5 23/24/5
f 9/36/1 25/6/1 22/6/1
f 2/1/1 4/25/1 18/2/1
f 10/4/2 8/7/2 19/5/2
f 8/7/3 6/19/3 20/8/3
f 14/9/4 2/38/4 17/10/4
f 7/12/5 5/33/5 11/13/5
f 4/15/6 2/39/6 14/16/6
f 10/18/6 12/28/6 6/19/6
f 9/14/5 11/13/5 16/20/5
f 6/19/4 12/29/4 21/22/4
f 15/23/2 10/4/2 22/6/2
f 4/25/2 15/23/2 23/24/2
f 13/21/5 16/20/5 1/26/5
f 15/17/6 14/16/6 12/28/6
f 12/29/4 14/9/4 24/11/4
f 18/2/2 23/24/2 13/30/2
f 23/24/3 28/24/3 27/30/3
f 20/8/4 21/22/4 11/32/4
f 24/11/4 17/10/4 1/34/4
f 19/5/3 20/8/3 5/33/3
f 22/6/2 19/5/2 7/12/2
f 17/3/1 18/2/1 3/31/1
f 13/21/6 27/21/6 26/14/6
f 22/6/5 25/6/5 28/24/5
f 9/36/1 26/36/1 25/6/1
o Cube.033
v -37.498428 -0.054850 -91.886948
v -37.498428 10.093087 -91.886948
v -36.789200 -0.054850 -91.886948
v -36.789200 10.093087 -91.886948
v -37.498428 -0.054850 -47.315430
v -37.498428 10.093087 -47.315430
v -36.789200 -0.054850 -47.315430
v -36.789200 10.093087 -47.315430
vn -0.0000 -0.0000 -1.0000
vn 1.0000 -0.0000 -0.0000
vn -0.0000 -0.0000 1.0000
vn -1.0000 -0.0000 -0.0000
vn -0.0000 -1.0000 -0.0000
vn -0.0000 1.0000 -0.0000
vt 0.625000 0.000000
vt 0.375000 0.250000
vt 0.375000 0.000000
vt 0.625000 0.250000
vt 0.375000 0.500000
vt 0.625000 0.500000
vt 0.375000 0.750000
vt 0.625000 0.750000
vt 0.375000 1.000000
vt 0.125000 0.750000
vt 0.125000 0.500000
vt 0.875000 0.500000
vt 0.625000 1.000000
vt 0.875000 0.750000
s 0
f 30/40/7 31/41/7 29/42/7
f 32/43/8 35/44/8 31/41/8
f 36/45/9 33/46/9 35/44/9
f 34/47/10 29/48/10 33/46/10
f 35/44/11 29/49/11 31/50/11
f 32/51/12 34/47/12 36/45/12
f 30/40/7 32/43/7 31/41/7
f 32/43/8 36/45/8 35/44/8
f 36/45/9 34/47/9 33/46/9
f 34/47/10 30/52/10 29/48/10
f 35/44/11 33/46/11 29/49/11
f 32/51/12 30/53/12 34/47/12
o Cube.035
v -4.613677 -0.054850 -91.459816
v -4.613677 10.093087 -91.459816
v -3.904451 -0.054850 -91.459816
v -3.904451 10.093087 -91.459816
v -4.613677 -0.054850 -57.920189
v -4.613677 10.093087 -57.920189
v -3.904451 -0.054850 -57.920189
v -3.904451 10.093087 -57.920189
v -3.904451 -0.054850 -62.271160
v -3.904451 10.093087 -62.271160
v -4.613677 -0.054850 -62.271160
v -4.613677 10.093087 -62.271160
v -3.904451 -0.054850 -66.761719
v -4.613677 10.093087 -66.761719
v -3.904451 10.093087 -66.761719
v -4.613677 -0.054850 -66.761719
v -4.613677 5.984004 -91.459816
v -3.904451 5.984004 -91.459816
v -3.904451 5.984004 -57.920189
v -4.613677 5.984004 -57.920189
v -4.613677 5.984004 -62.271160
v -3.904451 5.984004 -62.271160
v -3.904451 5.984004 -66.761719
v -4.613677 5.984004 -66.761719
v -3.904451 -0.054850 -82.577263
v -4.613677 10.093087 -82.577263
v -3.904451 10.093087 -82.577263
v -4.613677 -0.054850 -82.577263
v -3.904451 5.984004 -82.577263
v -4.613677 5.984004 -82.577263
v -3.904451 10.093087 -78.435814
v -4.613677 -0.054850 -78.435814
v -3.904451 5.984004 -78.435814
v -3.904451 -0.054850 -78.435814
v -4.613677 10.093087 -78.435814
v -4.613677 5.984004 -78.435814
v -3.915197 5.984004 -78.435814
v -3.915197 5.984004 -82.577263
v -3.915197 -0.054850 -82.577263
v -3.915197 -0.054850 -78.435814
v -3.980734 -0.054850 -66.761719
v -3.980734 -0.054850 -62.271160
v -3.980734 5.984004 -62.271160
v -3.980734 5.984004 -66.761719
vn -0.0000 -0.0000 -1.0000
vn 1.0000 -0.0000 -0.0000
vn -0.0000 -0.0000 1.0000
vn -1.0000 -0.0000 -0.0000
vn -0.0000 -1.0000 -0.0000
vn -0.0000 1.0000 -0.0000
vt 0.625000 0.000000
vt 0.523770 0.250000
vt 0.523770 0.000000
vt 0.625000 0.467568
vt 0.523770 0.500000
vt 0.523770 0.467568
vt 0.625000 0.500000
vt 0.523770 0.750000
vt 0.625000 0.933791
vt 0.523771 1.000000
vt 0.523770 0.933791
vt 0.375000 0.500000
vt 0.342568 0.750000
vt 0.342568 0.500000
vt 0.875000 0.500000
vt 0.808791 0.750000
vt 0.808791 0.500000
vt 0.657432 0.500000
vt 0.625000 0.750000
vt 0.309096 0.750000
vt 0.309096 0.500000
vt 0.523770 0.782431
vt 0.625000 0.434096
vt 0.523770 0.434096
vt 0.625000 0.347079
vt 0.523770 0.347079
vt 0.222079 0.750000
vt 0.222079 0.500000
vt 0.690904 0.500000
vt 0.657432 0.750000
vt 0.625000 0.782432
vt 0.523770 0.815904
vt 0.375000 0.782432
vt 0.375000 0.434096
vt 0.375000 0.347079
vt 0.375000 0.750000
vt 0.375000 1.000000
vt 0.375000 0.933791
vt 0.375000 0.467568
vt 0.375000 0.250000
vt 0.375000 0.000000
vt 0.191209 0.750000
vt 0.375000 0.316209
vt 0.191209 0.500000
vt 0.125000 0.750000
vt 0.125000 0.500000
vt 0.625000 0.250000
vt 0.523770 0.316209
vt 0.777921 0.750000
vt 0.777921 0.500000
vt 0.625000 0.902921
vt 0.523770 0.902921
vt 0.625000 0.815904
vt 0.690904 0.750000
vt 0.375000 0.902921
vt 0.375000 0.815904
vt 0.625000 0.316209
vt 0.625000 1.000000
vt 0.875000 0.750000
s 0
f 38/54/13 54/55/13 53/56/13
f 46/57/14 55/58/14 58/59/14
f 44/60/15 56/61/15 55/58/15
f 62/62/16 53/63/16 66/64/16
f 43/65/17 47/66/17 45/67/17
f 40/68/18 62/69/18 63/70/18
f 46/71/18 42/72/18 44/60/18
f 45/67/17 52/73/17 49/74/17
f 42/72/16 57/75/16 56/61/16
f 51/76/14 58/59/14 59/77/14
f 67/78/14 59/77/14 69/79/14
f 49/74/17 68/80/17 70/81/17
f 51/82/18 48/83/18 46/71/18
f 48/84/16 60/85/16 57/75/16
f 57/75/13 78/86/13 47/86/13
f 69/79/14 49/87/14 70/88/14
f 56/61/16 47/86/16 41/89/16
f 66/64/16 37/90/16 64/91/16
f 55/58/15 41/89/15 43/65/15
f 58/59/14 43/65/14 45/92/14
f 53/56/13 39/93/13 37/94/13
f 68/80/18 75/95/18 64/95/18
f 54/55/14 61/96/14 39/93/14
f 61/97/17 37/98/17 39/99/17
f 40/100/14 65/101/14 54/55/14
f 63/70/18 71/102/18 67/103/18
f 71/104/16 66/64/16 72/105/16
f 50/106/16 72/105/16 60/85/16
f 67/103/18 50/107/18 51/82/18
f 60/85/16 68/108/16 52/109/16
f 70/81/17 64/95/17 61/97/17
f 63/110/14 69/79/14 65/101/14
f 72/105/13 76/108/13 68/108/13
f 66/64/17 73/105/17 72/105/17
f 64/91/15 74/64/15 66/64/15
f 52/109/15 80/85/15 60/85/15
f 47/66/18 77/73/18 52/73/18
f 60/85/17 79/75/17 57/75/17
f 38/54/13 40/100/13 54/55/13
f 46/57/14 44/60/14 55/58/14
f 44/60/15 42/72/15 56/61/15
f 62/62/16 38/111/16 53/63/16
f 43/65/17 41/89/17 47/66/17
f 40/68/18 38/112/18 62/69/18
f 46/71/18 48/83/18 42/72/18
f 45/67/17 47/66/17 52/73/17
f 42/72/16 48/84/16 57/75/16
f 51/76/14 46/57/14 58/59/14
f 67/78/14 51/76/14 59/77/14
f 49/74/17 52/73/17 68/80/17
f 51/82/18 50/107/18 48/83/18
f 48/84/16 50/106/16 60/85/16
f 57/75/13 79/75/13 78/86/13
f 69/79/14 59/77/14 49/87/14
f 56/61/16 57/75/16 47/86/16
f 66/64/16 53/63/16 37/90/16
f 55/58/15 56/61/15 41/89/15
f 58/59/14 55/58/14 43/65/14
f 53/56/13 54/55/13 39/93/13
f 68/80/18 76/80/18 75/95/18
f 54/55/14 65/101/14 61/96/14
f 61/97/17 64/95/17 37/98/17
f 40/100/14 63/110/14 65/101/14
f 63/70/18 62/69/18 71/102/18
f 71/104/16 62/62/16 66/64/16
f 50/106/16 71/104/16 72/105/16
f 67/103/18 71/102/18 50/107/18
f 60/85/16 72/105/16 68/108/16
f 70/81/17 68/80/17 64/95/17
f 63/110/14 67/78/14 69/79/14
f 72/105/13 73/105/13 76/108/13
f 66/64/17 74/64/17 73/105/17
f 64/91/15 75/91/15 74/64/15
f 52/109/15 77/109/15 80/85/15
f 47/66/18 78/66/18 77/73/18
f 60/85/17 80/85/17 79/75/17
o Cube.036
v -4.419384 -0.054850 -74.888718
v -4.419384 10.093087 -74.888718
v -4.419384 -0.054850 -75.597946
v -4.419384 10.093087 -75.597946
v 9.332141 -0.054850 -74.888718
v 9.332141 10.093087 -74.888718
v 9.332141 -0.054850 -75.597946
v 9.332141 10.093087 -75.597946
vn -1.0000 -0.0000 -0.0000
vn -0.0000 -0.0000 -1.0000
vn 1.0000 -0.0000 -0.0000
vn -0.0000 -0.0000 1.0000
vn -0.0000 -1.0000 -0.0000
vn -0.0000 1.0000 -0.0000
vt 0.625000 0.000000
vt 0.375000 0.250000
vt 0.375000 0.000000
vt 0.625000 0.250000
vt 0.375000 0.500000
vt 0.625000 0.500000
vt 0.375000 0.750000
vt 0.625000 0.750000
vt 0.375000 1.000000
vt 0.125000 0.750000
vt 0.125000 0.500000
vt 0.875000 0.500000
vt 0.625000 1.000000
vt 0.875000 0.750000
s 0
f 82/113/19 83/114/19 81/115/19
f 84/116/20 87/117/20 83/114/20
f 88/118/21 85/119/21 87/117/21
f 86/120/22 81/121/22 85/119/22
f 87/117/23 81/122/23 83/123/23
f 84/124/24 86/120/24 88/118/24
f 82/113/19 84/116/19 83/114/19
f 84/116/20 88/118/20 87/117/20
f 88/118/21 86/120/21 85/119/21
f 86/120/22 82/125/22 81/121/22
f 87/117/23 85/119/23 81/122/23
f 84/124/24 82/126/24 86/120/24
