# Blender 5.2.0 LTS
# www.blender.org
mtllib WallHall.mtl
o Cube.024
v -17.074551 -0.054850 -50.250000
v -17.074551 10.093087 -50.250000
v -16.365326 -0.054850 -50.250000
v -16.365326 10.093087 -50.250000
v -17.074551 -0.054850 9.701788
v -17.074551 10.093087 9.701788
v -16.365326 -0.054850 9.701788
v -16.365326 10.093087 9.701788
v -17.074551 4.961259 -50.250000
v -16.365326 4.961259 -50.250000
v -16.365326 4.961259 9.701788
v -17.074551 4.961259 9.701788
v -16.365326 -0.054850 -1.121191
v -16.365326 10.093087 -1.121191
v -17.074551 -0.054850 -1.121191
v -17.074551 10.093087 -1.121191
v -17.074551 4.961259 -1.121191
v -16.365326 4.961259 -1.121191
v -16.365326 -0.054850 -25.685596
v -17.074551 10.093087 -25.685596
v -17.074551 4.961259 -25.685596
v -16.365326 10.093087 -25.685596
v -17.074551 -0.054850 -25.685596
v -16.365326 4.961259 -25.685596
v -16.365326 10.093087 -2.339401
v -17.074551 -0.054850 -2.339401
v -16.365326 4.961259 -2.339401
v -16.365326 -0.054850 -2.339401
v -17.074551 10.093087 -2.339401
v -17.074551 4.961259 -2.339401
v -16.365326 -0.054850 -24.585106
v -17.074551 10.093087 -24.585106
v -17.074551 4.961259 -24.585106
v -16.365326 10.093087 -24.585106
v -17.074551 -0.054850 -24.585106
v -16.365326 4.961259 -24.585106
v -16.365326 -0.054850 -37.967800
v -17.074551 10.093087 -37.967800
v -17.074551 4.961259 -37.967800
v -16.365326 10.093087 -37.967800
v -17.074551 -0.054850 -37.967800
v -16.365326 4.961259 -37.967800
v -16.365326 -0.054850 -39.000164
v -17.074551 10.093087 -39.000164
v -17.074551 4.961259 -39.000164
v -16.365326 10.093087 -39.000164
v -17.074551 -0.054850 -39.000164
v -16.365326 4.961259 -39.000164
v -16.452253 10.093087 9.701788
v -16.452253 4.961259 9.701788
v -16.452255 10.093087 -1.121191
v -16.452255 4.961259 -1.121191
v -16.452255 10.093087 -25.685596
v -16.452255 4.961259 -25.685596
v -16.452255 10.093087 -2.339401
v -16.452255 4.961259 -2.339401
v -16.452255 10.093087 -24.585106
v -16.452255 4.961259 -24.585106
v -16.452255 10.093087 -37.967800
v -16.452255 4.961259 -37.967800
vn -0.0000 -0.0000 -1.0000
vn -0.0000 -0.0000 1.0000
vn -1.0000 -0.0000 -0.0000
vn -0.0000 -1.0000 -0.0000
vn -0.0000 1.0000 -0.0000
vn 1.0000 -0.0000 -0.0000
vt 0.625000 0.000000
vt 0.498575 0.250000
vt 0.498575 0.000000
vt 0.625000 0.500000
vt 0.498575 0.750000
vt 0.498575 0.500000
vt 0.625000 0.953088
vt 0.498575 1.000000
vt 0.498575 0.953088
vt 0.375000 0.500000
vt 0.329868 0.750000
vt 0.329868 0.500000
vt 0.875000 0.500000
vt 0.828088 0.750000
vt 0.828088 0.500000
vt 0.375000 1.000000
vt 0.375000 0.953088
vt 0.375000 0.750000
vt 0.498575 0.454868
vt 0.375000 0.454868
vt 0.375000 0.250000
vt 0.375000 0.000000
vt 0.498575 0.449788
vt 0.375000 0.449788
vt 0.375000 0.795132
vt 0.670132 0.500000
vt 0.625000 0.750000
vt 0.324788 0.750000
vt 0.324788 0.500000
vt 0.823783 0.750000
vt 0.772566 0.750000
vt 0.625000 0.449788
vt 0.227434 0.500000
vt 0.176217 0.750000
vt 0.176217 0.500000
vt 0.498575 0.301217
vt 0.375000 0.352434
vt 0.375000 0.301217
vt 0.498575 0.892977
vt 0.375000 0.897566
vt 0.375000 0.892977
vt 0.772566 0.500000
vt 0.767977 0.750000
vt 0.767977 0.500000
vt 0.625000 0.892977
vt 0.498575 0.897566
vt 0.625000 0.795132
vt 0.498575 0.800212
vt 0.498575 0.795132
vt 0.675212 0.500000
vt 0.670132 0.750000
vt 0.375000 0.800212
vt 0.232023 0.750000
vt 0.232023 0.500000
vt 0.498575 0.357023
vt 0.375000 0.357023
vt 0.498575 0.352434
vt 0.227434 0.750000
vt 0.625000 0.352434
vt 0.498575 0.948783
vt 0.625000 0.948783
vt 0.675212 0.750000
vt 0.498575 0.296912
vt 0.375000 0.296912
vt 0.171912 0.750000
vt 0.171912 0.500000
vt 0.625000 0.296912
vt 0.375000 0.948783
vt 0.823783 0.500000
vt 0.625000 0.250000
vt 0.125000 0.750000
vt 0.125000 0.500000
vt 0.625000 0.897566
vt 0.625000 0.800212
vt 0.625000 1.000000
vt 0.875000 0.750000
vt 0.625000 0.454868
vt 0.625000 0.357023
vt 0.625000 0.301217
s 0
f 2/1/1 10/2/1 9/3/1
f 8/4/2 12/5/2 11/6/2
f 44/7/3 9/8/3 45/9/3
f 7/10/4 15/11/4 13/12/4
f 4/13/5 44/14/5 46/15/5
f 45/9/3 1/16/3 47/17/3
f 11/6/2 5/18/2 7/10/2
f 18/19/6 7/10/6 13/20/6
f 9/3/1 3/21/1 1/22/1
f 27/23/6 13/20/6 28/24/6
f 12/5/3 15/25/3 5/18/3
f 14/26/5 6/27/5 8/4/5
f 13/12/4 26/28/4 28/29/4
f 38/30/4 53/31/4 20/31/4
f 25/32/6 18/19/6 27/23/6
f 19/33/4 41/34/4 37/35/4
f 42/36/6 19/37/6 37/38/6
f 33/39/3 23/40/3 35/41/3
f 22/42/5 32/43/5 34/44/5
f 32/45/3 21/46/3 33/39/3
f 16/47/3 30/48/3 17/49/3
f 25/50/5 16/51/5 14/26/5
f 17/49/3 26/52/3 15/25/3
f 28/29/4 35/53/4 31/54/4
f 36/55/6 28/24/6 31/56/6
f 24/57/6 31/56/6 19/37/6
f 31/54/4 23/58/4 19/33/4
f 22/59/6 36/55/6 24/57/6
f 39/60/2 59/61/2 38/61/2
f 34/44/5 29/62/5 25/50/5
f 30/48/3 35/41/3 26/52/3
f 48/63/6 37/38/6 43/64/6
f 37/35/4 47/65/4 43/66/4
f 46/67/6 42/36/6 48/63/6
f 21/46/3 41/68/3 23/40/3
f 40/69/5 20/31/5 22/42/5
f 33/39/2 57/45/2 32/45/2
f 4/70/6 48/63/6 10/2/6
f 43/66/4 1/71/4 3/72/4
f 10/2/6 43/64/6 3/21/6
f 39/60/3 47/17/3 41/68/3
f 46/15/5 38/30/5 40/69/5
f 38/61/3 45/9/3 39/60/3
f 6/27/1 50/5/1 12/5/1
f 21/46/5 60/60/5 39/60/5
f 20/73/1 54/46/1 21/46/1
f 29/74/1 56/48/1 30/48/1
f 32/43/4 55/62/4 29/62/4
f 16/51/4 49/27/4 6/27/4
f 17/49/2 51/47/2 16/47/2
f 12/5/5 52/49/5 17/49/5
f 30/48/5 58/39/5 33/39/5
f 2/1/1 4/70/1 10/2/1
f 8/4/2 6/27/2 12/5/2
f 44/7/3 2/75/3 9/8/3
f 7/10/4 5/18/4 15/11/4
f 4/13/5 2/76/5 44/14/5
f 45/9/3 9/8/3 1/16/3
f 11/6/2 12/5/2 5/18/2
f 18/19/6 11/6/6 7/10/6
f 9/3/1 10/2/1 3/21/1
f 27/23/6 18/19/6 13/20/6
f 12/5/3 17/49/3 15/25/3
f 14/26/5 16/51/5 6/27/5
f 13/12/4 15/11/4 26/28/4
f 38/30/4 59/30/4 53/31/4
f 25/32/6 14/77/6 18/19/6
f 19/33/4 23/58/4 41/34/4
f 42/36/6 24/57/6 19/37/6
f 33/39/3 21/46/3 23/40/3
f 22/42/5 20/31/5 32/43/5
f 32/45/3 20/73/3 21/46/3
f 16/47/3 29/74/3 30/48/3
f 25/50/5 29/62/5 16/51/5
f 17/49/3 30/48/3 26/52/3
f 28/29/4 26/28/4 35/53/4
f 36/55/6 27/23/6 28/24/6
f 24/57/6 36/55/6 31/56/6
f 31/54/4 35/53/4 23/58/4
f 22/59/6 34/78/6 36/55/6
f 39/60/2 60/60/2 59/61/2
f 34/44/5 32/43/5 29/62/5
f 30/48/3 33/39/3 35/41/3
f 48/63/6 42/36/6 37/38/6
f 37/35/4 41/34/4 47/65/4
f 46/67/6 40/79/6 42/36/6
f 21/46/3 39/60/3 41/68/3
f 40/69/5 38/30/5 20/31/5
f 33/39/2 58/39/2 57/45/2
f 4/70/6 46/67/6 48/63/6
f 43/66/4 47/65/4 1/71/4
f 10/2/6 48/63/6 43/64/6
f 39/60/3 45/9/3 47/17/3
f 46/15/5 44/14/5 38/30/5
f 38/61/3 44/7/3 45/9/3
f 6/27/1 49/27/1 50/5/1
f 21/46/5 54/46/5 60/60/5
f 20/73/1 53/73/1 54/46/1
f 29/74/1 55/74/1 56/48/1
f 32/43/4 57/43/4 55/62/4
f 16/51/4 51/51/4 49/27/4
f 17/49/2 52/49/2 51/47/2
f 12/5/5 50/5/5 52/49/5
f 30/48/5 56/48/5 58/39/5
