# Blender 5.2.0 LTS
# www.blender.org
mtllib WallLaunge.mtl
o Cube.058
v -36.821095 0.177498 -57.909054
v -37.098991 10.093087 -57.909054
v -36.821095 0.177498 -58.618279
v -37.098991 10.093087 -58.618279
v -24.961634 -0.054850 -57.909058
v -24.961634 10.093087 -57.909058
v -25.260387 0.194936 -58.618282
v -24.961634 10.093087 -58.618282
v -28.678869 0.194936 -58.618282
v -28.977623 10.093087 -58.618282
v -28.977623 -0.054850 -57.909054
v -28.977623 10.093087 -57.909054
v -33.316204 0.177498 -58.618282
v -33.038307 10.093087 -57.909054
v -33.038307 10.093087 -58.618282
v -33.038307 -0.054850 -57.909054
v -37.098991 6.674866 -57.909054
v -37.098991 6.674866 -58.618279
v -24.961634 6.674866 -58.618282
v -24.961634 6.674866 -57.909058
v -28.977623 6.674866 -57.909054
v -28.977623 6.674866 -58.618282
v -33.038307 6.674866 -58.618282
v -33.038307 6.674866 -57.909054
v -28.977623 6.674866 -57.909054
v -33.038307 6.674866 -57.909054
v -37.098991 6.674866 -58.618279
v -33.038307 6.674866 -58.618282
v -28.977623 6.674866 -58.618282
v -24.961634 6.674866 -57.909058
v -37.098991 6.674866 -57.909054
v -24.961634 6.674866 -58.618282
v -28.977623 6.674866 -57.930882
v -28.977623 -0.054850 -57.930882
v -33.038307 -0.054850 -57.930882
v -33.038307 6.674866 -57.930882
v -24.961634 -0.054850 -58.618282
v -25.260387 6.425080 -58.618282
v -28.977623 -0.054850 -58.618282
v -28.678869 6.425080 -57.930744
v -28.678869 6.425080 -58.618282
v -25.260387 6.425080 -57.930744
v -25.260387 0.194936 -57.930744
v -28.678869 0.194936 -57.930744
v -25.277340 6.410906 -57.909058
v -25.277340 0.209109 -57.909058
v -28.661917 0.209109 -57.909054
v -28.661917 6.410906 -57.909054
v -24.961634 6.674866 -57.909058
v -24.961634 -0.054850 -57.909058
v -28.977623 -0.054850 -57.909054
v -28.977623 6.674866 -57.909054
v -37.098991 -0.054850 -58.618279
v -36.821095 6.442517 -58.618279
v -33.038307 -0.054850 -58.618282
v -37.098991 -0.054850 -57.909054
v -33.316208 6.442517 -57.909054
v -33.316208 0.177498 -57.909054
v -33.316208 6.442517 -58.618282
v -33.316208 6.442517 -58.606907
v -36.821095 6.442517 -57.909054
v -33.316208 0.177498 -58.606907
v -36.821095 6.442517 -58.606907
v -36.821095 0.177498 -58.606907
vn -1.0000 -0.0000 -0.0000
vn -0.0000 -0.0000 -1.0000
vn 1.0000 -0.0000 -0.0000
vn -0.0000 -0.0000 1.0000
vn -0.0000 -1.0000 -0.0000
vn -0.0000 1.0000 -0.0000
vt 0.625000 0.000000
vt 0.540790 0.250000
vt 0.540790 0.000000
vt 0.625000 0.417280
vt 0.540790 0.500000
vt 0.540790 0.417280
vt 0.625000 0.500000
vt 0.540790 0.750000
vt 0.625000 0.916360
vt 0.540790 1.000000
vt 0.540790 0.916360
vt 0.375000 0.500000
vt 0.292280 0.750000
vt 0.292280 0.500000
vt 0.875000 0.500000
vt 0.791360 0.750000
vt 0.791360 0.500000
vt 0.707720 0.500000
vt 0.625000 0.750000
vt 0.208640 0.750000
vt 0.208640 0.500000
vt 0.540790 0.832720
vt 0.625000 0.333640
vt 0.540790 0.333640
vt 0.625000 0.250000
vt 0.125000 0.750000
vt 0.125000 0.500000
vt 0.707720 0.750000
vt 0.625000 0.832720
vt 0.375000 0.417280
vt 0.000000 0.000000
vt 0.380724 0.994276
vt 0.535066 0.994276
vt 0.375000 0.750000
vt 0.534637 0.423434
vt 0.381154 0.423434
vt 0.375000 0.250000
vt 0.375000 0.000000
vt 0.375000 0.333640
vt 0.534637 0.493846
vt 0.381154 0.493846
vt 0.381503 0.756503
vt 0.534287 0.756503
vt 0.381503 0.826217
vt 0.534287 0.826217
vt 0.375000 0.832720
vt 0.380724 0.255724
vt 0.535066 0.255724
vt 0.375000 0.916360
vt 0.380724 0.922084
vt 0.535066 0.327916
vt 0.380724 0.327916
vt 0.535066 0.922084
vt 0.375000 1.000000
vt 0.625000 1.000000
vt 0.875000 0.750000
s 0
f 2/1/1 18/2/1 31/3/1
f 10/4/2 19/5/2 22/6/2
f 8/7/3 20/8/3 19/5/3
f 14/9/4 31/10/4 24/11/4
f 37/12/5 11/13/5 39/14/5
f 4/15/6 14/16/6 15/17/6
f 10/18/6 6/19/6 8/7/6
f 39/14/5 16/20/5 55/21/5
f 6/19/4 21/22/4 20/8/4
f 15/23/2 22/6/2 23/24/2
f 4/25/2 23/24/2 18/2/2
f 55/21/5 56/26/5 53/27/5
f 15/17/6 12/28/6 10/18/6
f 12/29/4 24/11/4 21/22/4
f 39/30/1 33/6/1 29/6/1
f 30/31/6 52/31/6 49/31/6
f 1/32/3 63/33/3 61/33/3
f 32/5/3 5/34/3 37/12/3
f 41/35/3 44/36/3 9/36/3
f 17/3/1 53/37/1 56/38/1
f 28/24/3 35/39/3 55/39/3
f 55/21/6 34/14/6 39/14/6
f 29/31/5 36/31/5 28/31/5
f 38/40/2 37/12/2 7/41/2
f 7/41/2 39/30/2 9/36/2
f 9/36/2 29/6/2 41/35/2
f 41/35/2 32/5/2 38/40/2
f 7/41/1 42/40/1 38/40/1
f 38/40/5 40/35/5 41/35/5
f 9/36/6 43/41/6 7/41/6
f 5/31/6 49/31/6 50/31/6
f 25/31/6 51/31/6 52/31/6
f 11/13/6 50/34/6 51/13/6
f 46/42/4 49/8/4 45/43/4
f 47/44/4 50/34/4 46/42/4
f 48/45/4 51/46/4 47/44/4
f 45/43/4 52/22/4 48/45/4
f 3/47/2 27/2/2 54/48/2
f 3/47/2 55/39/2 53/37/2
f 1/32/4 16/49/4 58/50/4
f 59/51/2 55/39/2 13/52/2
f 58/50/4 26/11/4 57/53/4
f 61/33/4 56/54/4 1/32/4
f 57/53/4 17/10/4 61/33/4
f 54/48/2 28/24/2 59/51/2
f 57/53/1 62/50/1 58/50/1
f 58/50/6 64/32/6 1/32/6
f 61/33/5 60/53/5 57/53/5
f 2/1/1 4/25/1 18/2/1
f 10/4/2 8/7/2 19/5/2
f 8/7/3 6/19/3 20/8/3
f 14/9/4 2/55/4 31/10/4
f 37/12/5 5/34/5 11/13/5
f 4/15/6 2/56/6 14/16/6
f 10/18/6 12/28/6 6/19/6
f 39/14/5 11/13/5 16/20/5
f 6/19/4 12/29/4 21/22/4
f 15/23/2 10/4/2 22/6/2
f 4/25/2 15/23/2 23/24/2
f 55/21/5 16/20/5 56/26/5
f 15/17/6 14/16/6 12/28/6
f 12/29/4 14/9/4 24/11/4
f 39/30/1 34/30/1 33/6/1
f 30/31/6 25/31/6 52/31/6
f 1/32/3 64/32/3 63/33/3
f 32/5/3 30/8/3 5/34/3
f 41/35/3 40/35/3 44/36/3
f 17/3/1 27/2/1 53/37/1
f 28/24/3 36/24/3 35/39/3
f 55/21/6 35/21/6 34/14/6
f 29/31/5 33/31/5 36/31/5
f 38/40/2 32/5/2 37/12/2
f 7/41/2 37/12/2 39/30/2
f 9/36/2 39/30/2 29/6/2
f 41/35/2 29/6/2 32/5/2
f 7/41/1 43/41/1 42/40/1
f 38/40/5 42/40/5 40/35/5
f 9/36/6 44/36/6 43/41/6
f 5/31/6 30/31/6 49/31/6
f 25/31/6 11/31/6 51/31/6
f 11/13/6 5/34/6 50/34/6
f 46/42/4 50/34/4 49/8/4
f 47/44/4 51/46/4 50/34/4
f 48/45/4 52/22/4 51/46/4
f 45/43/4 49/8/4 52/22/4
f 3/47/2 53/37/2 27/2/2
f 3/47/2 13/52/2 55/39/2
f 1/32/4 56/54/4 16/49/4
f 59/51/2 28/24/2 55/39/2
f 58/50/4 16/49/4 26/11/4
f 61/33/4 17/10/4 56/54/4
f 57/53/4 26/11/4 17/10/4
f 54/48/2 27/2/2 28/24/2
f 57/53/1 60/53/1 62/50/1
f 58/50/6 62/50/6 64/32/6
f 61/33/5 63/33/5 60/53/5
o Cube.059
v -37.492016 -0.054850 -47.165092
v -37.492016 10.093087 -47.165092
v -37.492016 -0.054850 -47.874317
v -37.492016 10.093087 -47.874317
v -16.685810 -0.054850 -47.165096
v -16.685810 10.093087 -47.165096
v -17.564896 0.373913 -47.874321
v -17.564896 9.664325 -47.874321
v -31.319658 -0.054850 -47.874317
v -30.440573 9.664325 -47.874317
v -31.319658 -0.054850 -47.165092
v -31.319658 10.093087 -47.165092
v -35.174717 -0.054850 -47.874317
v -35.174717 10.093087 -47.165092
v -35.174717 10.093087 -47.874317
v -35.174717 -0.054850 -47.165092
v -37.492016 6.407628 -47.165092
v -37.492016 6.407628 -47.874317
v -17.564896 6.407628 -47.874321
v -16.685810 6.407628 -47.165096
v -31.319658 6.407628 -47.165092
v -31.319658 6.407628 -47.874317
v -35.174717 6.407628 -47.874317
v -35.174717 6.407628 -47.165092
v -35.174717 -0.054850 -47.831951
v -31.319658 -0.054850 -47.831951
v -31.319658 6.407628 -47.831951
v -35.174717 6.407628 -47.831951
v -17.564896 6.407628 -47.165096
v -17.564896 0.373913 -47.165096
v -30.440573 0.373913 -47.165092
v -17.564896 9.664325 -47.165096
v -30.440573 9.664325 -47.165092
v -30.440573 6.407628 -47.165092
v -31.319658 10.093087 -47.874317
v -16.685810 10.093087 -47.874321
v -16.685810 6.407628 -47.874321
v -16.685810 -0.054850 -47.874321
v -30.440573 6.407628 -47.874317
v -30.440573 0.373913 -47.874317
v -16.685810 6.407628 -47.165096
v -16.685810 -0.054850 -47.165096
v -31.319658 -0.054850 -47.165092
v -16.685810 10.093087 -47.165096
v -31.319658 10.093087 -47.165092
v -31.319658 6.407628 -47.165092
v -25.077614 10.093087 -47.874321
v -25.077614 -0.054850 -47.165092
v -25.077614 -0.054850 -47.874321
v -25.077614 10.093087 -47.165092
v -25.077614 -0.054850 -47.165092
v -25.077614 10.093087 -47.165092
v -24.948473 9.664325 -47.874321
v -24.948473 0.373913 -47.874321
v -24.948473 0.373913 -47.165092
v -24.948473 9.664325 -47.165092
v -24.948473 6.407628 -47.165092
v -24.948473 6.407628 -47.874321
v -23.142870 10.093087 -47.874321
v -23.142870 -0.054850 -47.165096
v -23.142870 -0.054850 -47.165096
v -23.246178 9.664325 -47.874321
v -23.246178 0.373913 -47.165096
v -23.246178 6.407628 -47.165096
v -23.246178 6.407628 -47.874321
v -23.142870 -0.054850 -47.874321
v -23.142870 10.093087 -47.165096
v -23.142870 10.093087 -47.165096
v -23.246178 0.373913 -47.874321
v -23.246178 9.664325 -47.165096
v -28.818132 -0.054850 -47.874321
v -28.818132 10.093087 -47.165092
v -28.818132 10.093087 -47.165092
v -28.239590 0.373913 -47.874321
v -28.239590 9.664325 -47.165092
v -28.818132 10.093087 -47.874321
v -28.818132 -0.054850 -47.165092
v -28.818132 -0.054850 -47.165092
v -28.239590 9.664325 -47.874321
v -28.239590 0.373913 -47.165092
v -28.239590 6.407628 -47.165092
v -28.239590 6.407628 -47.874321
v -28.220146 10.093087 -47.874321
v -28.220146 -0.054850 -47.165092
v -28.220146 -0.054850 -47.165092
v -27.713448 9.664325 -47.874321
v -27.713448 0.373913 -47.165092
v -27.713448 6.407628 -47.165092
v -27.713448 6.407628 -47.874321
v -28.220146 -0.054850 -47.874321
v -28.220146 10.093087 -47.165092
v -28.220146 10.093087 -47.165092
v -27.713448 0.373913 -47.874321
v -27.713448 9.664325 -47.165092
v -19.185976 10.093087 -47.874321
v -19.185976 -0.054850 -47.165096
v -19.185976 -0.054850 -47.165096
v -19.764681 9.664325 -47.874321
v -19.764681 0.373913 -47.165096
v -19.764681 6.407628 -47.165096
v -19.764681 6.407628 -47.874321
v -19.185976 -0.054850 -47.874321
v -19.185976 10.093087 -47.165096
v -19.185976 10.093087 -47.165096
v -19.764681 0.373913 -47.874321
v -19.764681 9.664325 -47.165096
v -19.832600 -0.054850 -47.874321
v -19.832600 10.093087 -47.165096
v -19.832600 10.093087 -47.165096
v -20.333616 0.373913 -47.874321
v -20.333616 9.664325 -47.165096
v -19.832600 10.093087 -47.874321
v -19.832600 -0.054850 -47.165096
v -19.832600 -0.054850 -47.165096
v -20.333616 9.664325 -47.874321
v -20.333616 0.373913 -47.165096
v -20.333616 6.407628 -47.165096
v -20.333616 6.407628 -47.874321
v -17.564896 6.407628 -47.849827
v -17.564896 0.373913 -47.849827
v -19.764681 0.373913 -47.849827
v -30.440573 6.407628 -47.849823
v -30.440573 0.373913 -47.849823
v -19.764681 6.407628 -47.849827
v -27.713448 0.373913 -47.849823
v -24.948473 0.373913 -47.849827
v -27.713448 6.407628 -47.849823
v -24.948473 6.407628 -47.849827
v -23.246178 6.407628 -47.849827
v -23.246178 0.373913 -47.849827
v -28.239590 0.373913 -47.849823
v -28.239590 6.407628 -47.849823
v -20.333616 0.373913 -47.849827
v -20.333616 6.407628 -47.849827
vn -1.0000 -0.0000 -0.0000
vn 1.0000 -0.0000 -0.0000
vn -0.0000 -0.0000 1.0000
vn -0.0000 -1.0000 -0.0000
vn -0.0000 1.0000 -0.0000
vn -0.0000 -0.0000 -1.0000
vt 0.625000 0.000000
vt 0.534207 0.250000
vt 0.534207 0.000000
vt 0.625000 0.500000
vt 0.534207 0.750000
vt 0.534207 0.500000
vt 0.625000 0.972156
vt 0.534207 1.000000
vt 0.534207 0.972156
vt 0.375000 0.500000
vt 0.344959 0.750000
vt 0.344959 0.500000
vt 0.875000 0.500000
vt 0.847156 0.750000
vt 0.847156 0.500000
vt 0.800835 0.500000
vt 0.770778 0.750000
vt 0.770778 0.500000
vt 0.199165 0.500000
vt 0.152844 0.750000
vt 0.152844 0.500000
vt 0.625000 0.277844
vt 0.534207 0.324165
vt 0.534207 0.277844
vt 0.625000 0.250000
vt 0.125000 0.750000
vt 0.125000 0.500000
vt 0.800835 0.750000
vt 0.625000 0.925835
vt 0.534207 0.925835
vt 0.375000 0.925835
vt 0.375000 0.277844
vt 0.375000 0.250000
vt 0.199165 0.750000
vt 0.375000 1.000000
vt 0.375000 0.972156
vt 0.375000 0.750000
vt 0.375000 0.000000
vt 0.000000 0.000000
vt 0.534207 0.793831
vt 0.385563 0.793831
vt 0.344959 0.750000
vt 0.614437 0.334728
vt 0.625000 0.354222
vt 0.614437 0.361174
vt 0.385563 0.489437
vt 0.375000 0.469959
vt 0.385563 0.463005
vt 0.385563 0.334728
vt 0.534207 0.334728
vt 0.614437 0.489437
vt 0.534207 0.489437
vt 0.625000 0.324165
vt 0.385563 0.760563
vt 0.534207 0.760563
vt 0.385563 0.915272
vt 0.375000 0.895778
vt 0.385563 0.888826
vt 0.614437 0.760563
vt 0.625000 0.780041
vt 0.614437 0.786995
vt 0.625000 0.750000
vt 0.614437 0.915272
vt 0.534207 0.915272
vt 0.534207 0.786995
vt 0.534207 0.361174
vt 0.534207 0.400719
vt 0.614437 0.421173
vt 0.534207 0.421173
vt 0.534207 0.882504
vt 0.614437 0.849281
vt 0.614437 0.882504
vt 0.625000 0.850833
vt 0.625000 0.888592
vt 0.385563 0.849281
vt 0.375000 0.827586
vt 0.385563 0.828827
vt 0.385563 0.367496
vt 0.375000 0.399167
vt 0.375000 0.361407
vt 0.614437 0.400719
vt 0.625000 0.422414
vt 0.702586 0.750000
vt 0.725833 0.750000
vt 0.702586 0.750000
vt 0.236408 0.750000
vt 0.274167 0.750000
vt 0.534207 0.828827
vt 0.725833 0.500000
vt 0.702586 0.500000
vt 0.274167 0.500000
vt 0.236407 0.500000
vt 0.662811 0.750000
vt 0.662811 0.500000
vt 0.385563 0.786995
vt 0.614437 0.456169
vt 0.625000 0.462189
vt 0.375000 0.787811
vt 0.534207 0.456169
vt 0.534207 0.849281
vt 0.625000 0.827586
vt 0.385563 0.400719
vt 0.375000 0.422414
vt 0.297414 0.750000
vt 0.385563 0.421173
vt 0.297414 0.500000
vt 0.229222 0.500000
vt 0.229222 0.750000
vt 0.375000 0.354222
vt 0.375000 0.324165
vt 0.625000 0.895778
vt 0.534207 0.888826
vt 0.614437 0.367496
vt 0.534207 0.367496
vt 0.375000 0.888593
vt 0.385563 0.882504
vt 0.625000 0.361407
vt 0.763592 0.750000
vt 0.763592 0.500000
vt 0.625000 0.399167
vt 0.375000 0.850833
vt 0.229222 0.750000
vt 0.385563 0.361174
vt 0.614437 0.888826
vt 0.534207 0.463005
vt 0.375000 0.780041
vt 0.625000 0.469959
vt 0.655041 0.750000
vt 0.655041 0.500000
vt 0.614437 0.793831
vt 0.625000 0.787811
vt 0.375000 0.462189
vt 0.385563 0.456169
vt 0.337189 0.750000
vt 0.337189 0.500000
vt 0.614437 0.828827
vt 0.614437 0.463005
vt 0.655041 0.750000
vt 0.625000 1.000000
vt 0.875000 0.750000
s 0
f 66/57/7 82/58/7 81/59/7
f 100/60/8 84/61/8 101/62/8
f 78/63/9 81/64/9 88/65/9
f 102/66/10 160/67/10 166/68/10
f 68/69/11 78/70/11 79/71/11
f 99/72/11 136/73/11 140/74/11
f 73/75/10 80/76/10 77/77/10
f 79/78/12 86/79/12 87/80/12
f 68/81/12 87/80/12 82/58/12
f 77/77/10 65/82/10 67/83/10
f 79/71/11 76/84/11 99/72/11
f 76/85/9 88/65/9 85/86/9
f 85/86/7 90/87/7 75/87/7
f 82/58/12 77/88/12 67/89/12
f 75/90/11 89/76/11 80/76/11
f 88/65/9 65/91/9 80/92/9
f 101/62/8 69/93/8 102/66/8
f 80/92/8 92/65/8 88/65/8
f 81/59/7 67/89/7 65/94/7
f 76/95/11 110/95/11 109/95/11
f 88/65/10 91/86/10 85/86/10
f 181/96/7 197/97/7 180/97/7
f 160/67/11 106/93/11 161/98/11
f 136/73/11 109/84/11 137/73/11
f 84/95/11 108/95/11 105/95/11
f 69/95/11 105/95/11 106/95/11
f 85/95/11 107/95/11 110/95/11
f 74/99/12 140/100/12 143/101/12
f 71/102/12 101/62/12 102/66/12
f 71/102/12 166/103/12 169/104/12
f 104/105/12 86/79/12 103/106/12
f 72/107/12 101/62/12 83/108/12
f 74/99/12 86/79/12 99/109/12
f 94/110/9 105/61/9 93/111/9
f 95/112/9 142/113/9 144/114/9
f 96/115/9 168/116/9 170/117/9
f 95/112/9 110/86/9 107/87/9
f 96/115/9 105/61/9 108/118/9
f 97/119/9 110/86/9 98/120/9
f 93/111/9 170/117/9 164/121/9
f 103/106/12 143/101/12 146/122/12
f 122/123/12 126/124/12 129/125/12
f 152/126/9 120/127/9 158/128/9
f 158/128/9 116/129/9 156/130/9
f 119/131/9 125/132/9 127/133/9
f 157/134/12 113/135/12 154/136/12
f 117/137/12 123/138/12 126/124/12
f 131/139/11 116/140/11 132/141/11
f 148/142/11 115/143/11 149/142/11
f 128/144/9 119/131/9 127/133/9
f 111/145/11 131/139/11 123/146/11
f 113/147/10 148/142/10 154/148/10
f 123/146/11 172/149/11 176/150/11
f 163/151/8 188/121/8 164/121/8
f 172/149/11 132/139/11 173/149/11
f 179/152/12 123/138/12 176/153/12
f 180/97/9 125/132/9 178/154/9
f 129/125/12 179/152/12 182/155/12
f 128/144/9 120/127/9 121/156/9
f 120/127/9 132/157/9 116/129/9
f 118/158/12 130/159/12 113/135/12
f 112/143/11 125/160/11 115/143/11
f 122/123/12 133/161/12 118/158/12
f 130/162/10 112/143/10 113/147/10
f 135/163/10 75/90/10 73/75/10
f 75/90/11 142/164/11 107/90/11
f 104/105/12 135/165/12 73/166/12
f 97/119/9 137/167/9 109/85/9
f 145/168/9 97/119/9 98/120/9
f 146/122/12 150/169/12 153/170/12
f 144/114/9 149/171/9 151/172/9
f 143/101/12 147/173/12 150/169/12
f 155/174/11 137/73/11 156/174/11
f 152/126/9 144/114/9 151/172/9
f 140/74/11 155/174/11 147/175/11
f 147/175/11 114/140/11 111/145/11
f 119/131/11 189/172/11 151/172/11
f 114/140/11 156/174/11 116/140/11
f 150/169/12 111/176/12 117/137/12
f 151/172/9 115/177/9 119/131/9
f 122/123/12 150/169/12 117/137/12
f 154/148/10 141/178/10 135/163/10
f 146/122/12 157/134/12 138/179/12
f 141/178/11 149/142/11 142/178/11
f 138/179/12 154/136/12 135/165/12
f 139/180/9 156/130/9 137/167/9
f 152/126/9 139/180/9 145/168/9
f 165/181/12 72/107/12 83/108/12
f 94/110/9 161/182/9 106/93/9
f 72/107/12 159/183/12 100/60/12
f 70/118/11 168/184/11 108/118/11
f 127/133/8 193/144/8 128/144/8
f 159/185/11 70/118/11 100/60/11
f 164/121/9 175/186/9 181/96/9
f 170/117/9 173/187/9 175/186/9
f 169/104/12 171/188/12 174/189/12
f 177/190/11 161/67/11 178/190/11
f 182/155/12 169/104/12 174/189/12
f 166/68/10 177/190/10 171/191/10
f 171/191/10 124/160/10 130/162/10
f 124/160/11 178/190/11 125/160/11
f 174/189/12 130/159/12 133/161/12
f 175/186/9 132/157/9 134/192/9
f 181/96/9 134/192/9 128/144/9
f 182/155/12 162/193/12 165/181/12
f 163/151/9 178/154/9 161/182/9
f 162/193/12 176/153/12 159/183/12
f 167/194/11 173/149/11 168/194/11
f 164/121/9 180/97/9 163/151/9
f 176/150/11 167/194/11 159/185/11
f 93/111/7 184/110/7 94/110/7
f 152/126/10 192/156/10 121/156/10
f 180/97/11 194/133/11 127/133/11
f 94/110/11 185/151/11 163/151/11
f 145/168/7 195/114/7 144/114/7
f 151/172/8 191/126/8 152/126/8
f 128/144/10 198/96/10 181/96/10
f 144/114/11 187/112/11 95/112/11
f 95/112/8 186/120/8 98/120/8
f 121/156/7 190/131/7 119/131/7
f 164/121/10 183/111/10 93/111/10
f 98/120/10 196/168/10 145/168/10
f 66/57/7 68/81/7 82/58/7
f 100/60/8 70/118/8 84/61/8
f 78/63/9 66/195/9 81/64/9
f 102/66/10 69/93/10 160/67/10
f 68/69/11 66/196/11 78/70/11
f 99/72/11 76/84/11 136/73/11
f 73/75/10 75/90/10 80/76/10
f 79/78/12 99/109/12 86/79/12
f 68/81/12 79/78/12 87/80/12
f 77/77/10 80/76/10 65/82/10
f 79/71/11 78/70/11 76/84/11
f 76/85/9 78/63/9 88/65/9
f 85/86/7 91/86/7 90/87/7
f 82/58/12 87/80/12 77/88/12
f 75/90/11 90/90/11 89/76/11
f 88/65/9 81/64/9 65/91/9
f 101/62/8 84/61/8 69/93/8
f 80/92/8 89/92/8 92/65/8
f 81/59/7 82/58/7 67/89/7
f 76/95/11 85/95/11 110/95/11
f 88/65/10 92/65/10 91/86/10
f 181/96/7 198/96/7 197/97/7
f 160/67/11 69/93/11 106/93/11
f 136/73/11 76/84/11 109/84/11
f 84/95/11 70/95/11 108/95/11
f 69/95/11 84/95/11 105/95/11
f 85/95/11 75/95/11 107/95/11
f 74/99/12 99/109/12 140/100/12
f 71/102/12 83/108/12 101/62/12
f 71/102/12 102/66/12 166/103/12
f 104/105/12 73/166/12 86/79/12
f 72/107/12 100/60/12 101/62/12
f 74/99/12 103/106/12 86/79/12
f 94/110/9 106/93/9 105/61/9
f 95/112/9 107/87/9 142/113/9
f 96/115/9 108/118/9 168/116/9
f 95/112/9 98/120/9 110/86/9
f 96/115/9 93/111/9 105/61/9
f 97/119/9 109/85/9 110/86/9
f 93/111/9 96/115/9 170/117/9
f 103/106/12 74/99/12 143/101/12
f 122/123/12 117/137/12 126/124/12
f 152/126/9 121/156/9 120/127/9
f 158/128/9 120/127/9 116/129/9
f 119/131/9 115/177/9 125/132/9
f 157/134/12 118/158/12 113/135/12
f 117/137/12 111/176/12 123/138/12
f 131/139/11 114/140/11 116/140/11
f 148/142/11 112/143/11 115/143/11
f 128/144/9 121/156/9 119/131/9
f 111/145/11 114/140/11 131/139/11
f 113/147/10 112/143/10 148/142/10
f 123/146/11 131/139/11 172/149/11
f 163/151/8 185/151/8 188/121/8
f 172/149/11 131/139/11 132/139/11
f 179/152/12 126/124/12 123/138/12
f 180/97/9 127/133/9 125/132/9
f 129/125/12 126/124/12 179/152/12
f 128/144/9 134/192/9 120/127/9
f 120/127/9 134/192/9 132/157/9
f 118/158/12 133/161/12 130/159/12
f 112/143/11 124/160/11 125/160/11
f 122/123/12 129/125/12 133/161/12
f 130/162/10 124/160/10 112/143/10
f 135/163/10 141/178/10 75/90/10
f 75/90/11 141/178/11 142/164/11
f 104/105/12 138/179/12 135/165/12
f 97/119/9 139/180/9 137/167/9
f 145/168/9 139/180/9 97/119/9
f 146/122/12 143/101/12 150/169/12
f 144/114/9 142/113/9 149/171/9
f 143/101/12 140/100/12 147/173/12
f 155/174/11 136/73/11 137/73/11
f 152/126/9 145/168/9 144/114/9
f 140/74/11 136/73/11 155/174/11
f 147/175/11 155/174/11 114/140/11
f 119/131/11 190/131/11 189/172/11
f 114/140/11 155/174/11 156/174/11
f 150/169/12 147/173/12 111/176/12
f 151/172/9 149/171/9 115/177/9
f 122/123/12 153/170/12 150/169/12
f 154/148/10 148/142/10 141/178/10
f 146/122/12 153/170/12 157/134/12
f 141/178/11 148/142/11 149/142/11
f 138/179/12 157/134/12 154/136/12
f 139/180/9 158/128/9 156/130/9
f 152/126/9 158/128/9 139/180/9
f 165/181/12 162/193/12 72/107/12
f 94/110/9 163/151/9 161/182/9
f 72/107/12 162/193/12 159/183/12
f 70/118/11 167/194/11 168/184/11
f 127/133/8 194/133/8 193/144/8
f 159/185/11 167/194/11 70/118/11
f 164/121/9 170/117/9 175/186/9
f 170/117/9 168/116/9 173/187/9
f 169/104/12 166/103/12 171/188/12
f 177/190/11 160/67/11 161/67/11
f 182/155/12 165/181/12 169/104/12
f 166/68/10 160/67/10 177/190/10
f 171/191/10 177/190/10 124/160/10
f 124/160/11 177/190/11 178/190/11
f 174/189/12 171/188/12 130/159/12
f 175/186/9 173/187/9 132/157/9
f 181/96/9 175/186/9 134/192/9
f 182/155/12 179/152/12 162/193/12
f 163/151/9 180/97/9 178/154/9
f 162/193/12 179/152/12 176/153/12
f 167/194/11 172/149/11 173/149/11
f 164/121/9 181/96/9 180/97/9
f 176/150/11 172/149/11 167/194/11
f 93/111/7 183/111/7 184/110/7
f 152/126/10 191/126/10 192/156/10
f 180/97/11 197/97/11 194/133/11
f 94/110/11 184/110/11 185/151/11
f 145/168/7 196/168/7 195/114/7
f 151/172/8 189/172/8 191/126/8
f 128/144/10 193/144/10 198/96/10
f 144/114/11 195/114/11 187/112/11
f 95/112/8 187/112/8 186/120/8
f 121/156/7 192/156/7 190/131/7
f 164/121/10 188/121/10 183/111/10
f 98/120/10 186/120/10 196/168/10
