# Blender 5.2.0 LTS
# www.blender.org
mtllib WallRoom2.mtl
o Cube.016
v -9.659474 -0.054850 -29.034485
v -9.659474 10.093087 -29.034485
v -8.950249 -0.054850 -29.034485
v -8.950249 10.093087 -29.034485
v -9.659473 -0.054850 -10.053287
v -9.659473 10.093087 -10.053287
v -8.950248 -0.054850 -10.053287
v -8.950248 10.093087 -10.053287
v -8.950248 -0.054850 -14.851412
v -9.659473 -0.054850 -14.851412
v -9.659473 -0.054850 -11.626141
v -8.950248 -0.054850 -11.626141
v -9.659474 5.709888 -29.034485
v -8.950249 5.709888 -29.034485
v -8.950248 5.709888 -10.053287
v -9.659473 5.709888 -10.053287
v -9.659473 5.709888 -14.851412
v -8.950248 5.709888 -14.851412
v -9.659473 5.709888 -11.626141
v -8.950248 5.709888 -11.626141
v -9.659474 5.709888 -29.034485
v -8.950249 5.709888 -29.034485
v -8.950248 5.709888 -10.053287
v -9.659473 5.709888 -10.053287
v -9.659473 5.709888 -14.851412
v -8.950248 5.709888 -14.851412
v -9.659473 5.709888 -11.626141
v -8.950248 5.709888 -11.626141
v -9.641169 -0.054850 -11.626141
v -9.641169 -0.054850 -14.851412
v -9.641169 5.709888 -14.851412
v -9.641169 5.709888 -11.626141
vn -0.0000 -0.0000 -1.0000
vn -0.0000 -1.0000 -0.0000
vn -0.0000 1.0000 -0.0000
vn -0.0000 -0.0000 1.0000
vn 1.0000 -0.0000 -0.0000
vn -1.0000 -0.0000 -0.0000
vt 0.625000 0.000000
vt 0.517017 0.250000
vt 0.517017 0.000000
vt 0.375000 0.500000
vt 0.354284 0.750000
vt 0.354284 0.500000
vt 0.311804 0.500000
vt 0.125000 0.750000
vt 0.125000 0.500000
vt 0.875000 0.500000
vt 0.625000 0.750000
vt 0.625000 0.500000
vt 0.311804 0.750000
vt 0.375000 0.479284
vt 0.517017 0.479284
vt 0.517017 0.500000
vt 0.517017 0.750000
vt 0.375000 0.250000
vt 0.375000 0.000000
vt 0.517017 0.813196
vt 0.517017 0.770716
vt 0.517017 0.436804
vt 0.375000 0.436804
vt 0.625000 0.250000
vt 0.375000 0.750000
vt 0.875000 0.750000
vt 0.625000 1.000000
vt 0.517017 1.000000
vt 0.375000 1.000000
vt 0.375000 0.813196
vt 0.375000 0.770716
s 0
f 2/1/1 14/2/1 13/3/1
f 7/4/2 11/5/2 12/6/2
f 9/7/2 1/8/2 3/9/2
f 4/10/3 6/11/3 8/12/3
f 12/6/2 10/13/2 9/7/2
f 12/14/1 32/15/1 20/15/1
f 15/16/4 6/11/4 16/17/4
f 13/3/1 3/18/1 1/19/1
f 17/20/3 27/21/3 25/20/3
f 8/12/5 20/15/5 18/22/5
f 20/15/3 26/22/3 28/15/3
f 14/2/3 21/3/3 22/2/3
f 20/15/2 31/22/2 18/22/2
f 9/7/3 29/6/3 12/6/3
f 18/22/4 30/23/4 9/23/4
f 17/20/6 19/21/6 6/11/6
f 2/1/1 4/24/1 14/2/1
f 7/4/2 5/25/2 11/5/2
f 9/7/2 10/13/2 1/8/2
f 4/10/3 2/26/3 6/11/3
f 12/6/2 11/5/2 10/13/2
f 12/14/1 29/14/1 32/15/1
f 5/25/4 7/4/4 15/16/4
f 15/16/4 8/12/4 6/11/4
f 16/17/4 5/25/4 15/16/4
f 13/3/1 14/2/1 3/18/1
f 17/20/3 19/21/3 27/21/3
f 14/2/5 4/24/5 8/12/5
f 15/16/5 7/4/5 12/14/5
f 3/18/5 14/2/5 8/12/5
f 18/22/5 9/23/5 3/18/5
f 15/16/5 12/14/5 20/15/5
f 18/22/5 3/18/5 8/12/5
f 8/12/5 15/16/5 20/15/5
f 20/15/3 18/22/3 26/22/3
f 14/2/3 13/3/3 21/3/3
f 20/15/2 32/15/2 31/22/2
f 9/7/3 30/7/3 29/6/3
f 18/22/4 31/22/4 30/23/4
f 6/11/6 2/27/6 13/28/6
f 13/28/6 1/29/6 10/30/6
f 13/28/6 10/30/6 17/20/6
f 11/31/6 5/25/6 16/17/6
f 19/21/6 11/31/6 16/17/6
f 6/11/6 13/28/6 17/20/6
f 19/21/6 16/17/6 6/11/6
l 16 24
l 23 15
o Cube.018
v 9.490600 -0.054850 -29.173582
v 9.490600 10.093087 -29.173582
v 9.490600 -0.054850 -28.464355
v 9.490600 10.093087 -28.464355
v -9.490600 -0.054850 -29.173580
v -9.490600 10.093087 -29.173580
v -9.490600 -0.054850 -28.464354
v -9.490600 10.093087 -28.464354
vn 1.0000 -0.0000 -0.0000
vn -0.0000 -0.0000 1.0000
vn -1.0000 -0.0000 -0.0000
vn -0.0000 -0.0000 -1.0000
vn -0.0000 -1.0000 -0.0000
vn -0.0000 1.0000 -0.0000
vt 0.625000 0.000000
vt 0.375000 0.250000
vt 0.375000 0.000000
vt 0.625000 0.250000
vt 0.375000 0.500000
vt 0.625000 0.500000
vt 0.375000 0.750000
vt 0.625000 0.750000
vt 0.375000 1.000000
vt 0.125000 0.750000
vt 0.125000 0.500000
vt 0.875000 0.500000
vt 0.625000 1.000000
vt 0.875000 0.750000
s 0
f 34/32/7 35/33/7 33/34/7
f 36/35/8 39/36/8 35/33/8
f 40/37/9 37/38/9 39/36/9
f 38/39/10 33/40/10 37/38/10
f 39/36/11 33/41/11 35/42/11
f 36/43/12 38/39/12 40/37/12
f 34/32/7 36/35/7 35/33/7
f 36/35/8 40/37/8 39/36/8
f 40/37/9 38/39/9 37/38/9
f 38/39/10 34/44/10 33/40/10
f 39/36/11 37/38/11 33/41/11
f 36/43/12 34/45/12 38/39/12
o Cube.019
v 8.976508 -0.054850 -28.750103
v 8.976508 10.093087 -28.750103
v 9.685734 -0.054850 -28.750103
v 9.685734 10.093087 -28.750103
v 8.976509 -0.054850 -9.768905
v 8.976509 10.093087 -9.768905
v 9.685735 -0.054850 -9.768905
v 9.685735 10.093087 -9.768905
v 9.685735 -0.054850 -10.823416
v 9.685735 10.093087 -10.823416
v 8.976509 -0.054850 -10.823416
v 8.976509 10.093087 -10.823416
v 9.685735 -0.054850 -16.544699
v 8.976509 10.093087 -16.544699
v 9.685735 10.093087 -16.544699
v 8.976509 -0.054850 -16.544699
v 8.976508 7.422578 -28.750103
v 9.685734 7.422578 -28.750103
v 8.976509 7.422578 -10.823416
v 9.685735 7.422578 -10.823416
v 9.685735 7.422578 -16.544699
v 8.976509 7.422578 -16.544699
v 9.685734 1.318555 -28.750103
v 9.685735 1.318555 -9.768905
v 8.976509 1.318555 -10.823416
v 9.685735 1.318555 -10.823416
v 9.685735 1.318555 -16.544699
v 8.976509 1.318555 -16.544699
v 8.976508 1.318556 -28.750103
v 8.989841 7.422578 -16.544699
v 8.989841 7.422578 -10.823416
v 8.989841 1.318555 -10.823416
v 8.989841 1.318555 -16.544699
vn -0.0000 -0.0000 -1.0000
vn -0.0000 -0.0000 1.0000
vn -0.0000 -1.0000 -0.0000
vn -0.0000 1.0000 -0.0000
vn -1.0000 -0.0000 -0.0000
vn 1.0000 -0.0000 -0.0000
vt 0.625000 0.000000
vt 0.559211 0.250000
vt 0.559211 0.000000
vt 0.408835 0.500000
vt 0.625000 0.750000
vt 0.375000 0.500000
vt 0.361111 0.750000
vt 0.361111 0.500000
vt 0.875000 0.500000
vt 0.714244 0.750000
vt 0.714244 0.500000
vt 0.638889 0.500000
vt 0.625000 0.500000
vt 0.285756 0.500000
vt 0.285756 0.750000
vt 0.559211 0.763889
vt 0.408835 0.763889
vt 0.125000 0.750000
vt 0.125000 0.500000
vt 0.638889 0.750000
vt 0.625000 0.839243
vt 0.559211 0.839244
vt 0.559211 0.410757
vt 0.625000 0.410756
vt 0.408835 0.486111
vt 0.559211 0.486111
vt 0.559211 1.000000
vt 0.408835 1.000000
vt 0.408835 0.250000
vt 0.408835 0.000000
vt 0.375000 0.250000
vt 0.375000 0.000000
vt 0.408835 0.410757
vt 0.375000 0.486111
vt 0.375000 0.410756
vt 0.375000 0.839243
vt 0.375000 0.763889
vt 0.625000 0.250000
vt 0.375000 0.750000
vt 0.875000 0.750000
vt 0.625000 0.763889
vt 0.625000 0.486111
vt 0.375000 1.000000
vt 0.408835 0.839244
vt 0.625000 1.000000
s 0
f 42/46/13 58/47/13 57/48/13
f 64/49/14 46/50/14 47/51/14
f 47/51/15 51/52/15 49/53/15
f 44/54/16 54/55/16 55/56/16
f 50/57/16 46/50/16 48/58/16
f 53/59/15 51/52/15 56/60/15
f 46/50/17 59/61/17 65/62/17
f 53/59/15 41/63/15 43/64/15
f 50/57/16 54/55/16 52/65/16
f 59/61/17 54/66/17 62/67/17
f 61/68/18 58/47/18 55/69/18
f 66/70/13 71/71/13 60/71/13
f 62/67/17 57/72/17 69/73/17
f 57/48/13 63/74/13 69/75/13
f 69/75/13 43/76/13 41/77/13
f 67/78/18 49/79/18 53/80/18
f 65/62/17 56/81/17 51/82/17
f 67/78/16 72/70/16 66/70/16
f 60/71/15 70/68/15 61/68/15
f 61/68/14 73/78/14 67/78/14
f 42/46/13 44/83/13 58/47/13
f 64/49/14 48/58/14 46/50/14
f 46/50/14 45/84/14 47/51/14
f 47/51/15 45/84/15 51/52/15
f 44/54/16 42/85/16 54/55/16
f 50/57/16 52/65/16 46/50/16
f 53/59/15 49/53/15 51/52/15
f 51/82/17 45/84/17 46/50/17
f 46/50/17 52/86/17 59/61/17
f 65/62/17 51/82/17 46/50/17
f 53/59/15 56/60/15 41/63/15
f 50/57/16 55/56/16 54/55/16
f 59/61/17 52/86/17 54/66/17
f 50/87/18 48/58/18 64/49/18
f 64/49/18 66/70/18 60/71/18
f 61/68/18 67/78/18 63/74/18
f 50/87/18 64/49/18 60/71/18
f 61/68/18 63/74/18 58/47/18
f 50/87/18 60/71/18 61/68/18
f 58/47/18 44/83/18 55/69/18
f 55/69/18 50/87/18 61/68/18
f 66/70/13 72/70/13 71/71/13
f 41/88/17 56/81/17 68/89/17
f 62/67/17 54/66/17 42/90/17
f 41/88/17 68/89/17 62/67/17
f 69/73/17 41/88/17 62/67/17
f 62/67/17 42/90/17 57/72/17
f 57/48/13 58/47/13 63/74/13
f 69/75/13 63/74/13 43/76/13
f 66/70/18 64/49/18 47/51/18
f 66/70/18 47/51/18 49/79/18
f 43/76/18 63/74/18 67/78/18
f 67/78/18 66/70/18 49/79/18
f 53/80/18 43/76/18 67/78/18
f 65/62/17 68/89/17 56/81/17
f 67/78/16 73/78/16 72/70/16
f 60/71/15 71/71/15 70/68/15
f 61/68/14 70/68/14 73/78/14
